<svg width="116" height="28" viewBox="0 0 116 28" fill="none" xmlns="http://www.w3.org/2000/svg">
<path fill-rule="evenodd" clip-rule="evenodd" d="M70.1628 22.6797V0H66.4232V10.1198H66.3437C65.6674 8.64041 64.4341 7.91971 62.8833 7.91971C59.82 7.91971 56.9159 11.1599 56.9159 18.0402C56.9159 24.0798 59.104 28 62.6844 28C64.633 28 66.105 26.6799 66.7415 25.3199H66.8609L67.0995 27.68H70.3219C70.2424 26.3199 70.1628 24.1598 70.1628 22.6797ZM66.3835 14.44C66.4232 14.84 66.4232 15.2801 66.4232 15.6401V20.8403C66.4232 21.2797 66.3835 21.7597 66.3039 22.0797C65.6674 24.3998 64.5535 24.8398 63.718 24.8398C61.7289 24.8398 60.6953 22.0404 60.6953 18.0402C60.6953 14.44 61.4902 11.1599 63.8381 11.1599C65.19 11.1599 66.1846 12.6799 66.3835 14.44ZM43.7811 27.68L45.3724 20.2403H50.9413L52.4928 27.68H56.1926L50.5037 0.720034H46.1681L40.1212 27.68H43.7811ZM49.2704 10.7998L50.5037 17.2402H45.81L47.0831 10.7998C47.4404 9.07977 47.8389 6.60031 48.1167 4.64022H48.2765C48.5543 6.56031 48.9124 8.95976 49.2704 10.7998ZM79.0701 28C75.2112 28 72.4264 24.6798 72.4264 18.0002C72.4264 10.9199 75.7283 7.91971 79.269 7.91971C83.0874 7.91971 85.8324 11.3599 85.8324 17.9202C85.8324 25.6399 82.0531 28 79.1098 28H79.0701ZM79.1894 25.0399C81.4961 25.0399 82.0133 20.9203 82.0133 17.9602C82.0133 15.04 81.4961 10.8799 79.1098 10.8799C76.6433 10.8799 76.1659 15.04 76.1659 17.9602C76.1659 21.2003 76.7229 25.0399 79.1496 25.0399H79.1894ZM91.8249 0H88.0861V22.6797C88.0861 24.1598 88.0065 26.3599 87.9269 27.68H91.1493L91.3482 25.2399H91.5067C92.3421 26.9599 93.4162 28 95.3258 28C98.5084 28 101.333 24.5998 101.333 17.6402C101.333 11.6799 99.2642 7.91971 95.9623 7.91971C94.2517 7.91971 92.8991 8.68041 91.9045 10.4398H91.8249V0ZM91.9841 22.0004C91.8647 21.6804 91.8249 21.2403 91.8249 20.7997V15.3601C91.8249 14.96 91.8647 14.44 91.9443 14.04C92.2228 12.6399 93.2173 11.1599 94.4506 11.1599C96.6784 11.1599 97.5536 14.16 97.5536 17.8802C97.5536 21.8797 96.7182 24.8398 94.4903 24.8398C93.7345 24.8398 92.5808 24.3598 91.9841 22.0004ZM106.851 18.7202C106.891 23.7198 109.038 24.9599 111.306 24.9599C112.658 24.9599 113.812 24.6398 114.647 24.2398L115.204 26.9599C114.051 27.56 112.3 27.88 110.59 27.88C105.737 27.88 103.191 24.1998 103.191 18.2002C103.191 11.8399 106.094 7.91971 110.112 7.91971C114.13 7.91971 116 11.7999 116 16.6801C116 17.6402 115.96 18.2402 115.92 18.7596L106.851 18.7202ZM112.459 16.0401C112.499 12.5999 111.306 10.7598 109.834 10.7598C107.884 10.7598 107.01 13.6 106.891 16.0401H112.459ZM30.2173 0.791371H19.0471L30.2173 27.68V0.791371ZM11.1782 0.791371H0V27.68L11.1782 0.791371ZM22.2304 27.68L15.1133 10.7005L10.2287 22.2717H15.4382L17.5666 27.68H22.2304Z" fill="#FCFAF7"/>
</svg>
