<svg width="32" height="32" viewBox="0 0 32 32" xmlns="http://www.w3.org/2000/svg">
    <g fill="none" fill-rule="evenodd">
        <path d="M0 0h32v32H0z"/>
        <path d="m28.855 23.939.001-1.05L32 26.355l-3.146 3.468v-2.08H22.26l.748-.423c.122-.07.243-.142.361-.216.906-.567 1.71-1.262 2.463-2.019a.344.344 0 0 1 .268-.112l2.605.006c.125 0 .156-.038.154-.159l-.003-.881zM23.667 9.333c1.922 1.501 3.152 3.459 3.704 5.839.224.97.296 1.951.23 2.938-.14 2.064-.836 3.931-2.101 5.572-1.394 1.808-3.194 3.03-5.388 3.665a8.67 8.67 0 0 1-1.826.338c-.359.025-.719.05-1.078.05l-8.518.003H0l1.323-1.422L.02 25.02l.02-.045h17.226a7.518 7.518 0 0 0 7.216-5.415 7.27 7.27 0 0 0 .286-1.847c.051-1.874-.519-3.536-1.706-4.978-1.121-1.362-2.556-2.224-4.288-2.584a7.104 7.104 0 0 0-1.628-.154 7.504 7.504 0 0 0-7.144 5.762 7.136 7.136 0 0 0-.192 2.034c.038.716.166 1.418.418 2.092l.012.029.034.072 1.821-.785-1.78 4.548-4.539-1.8.11-.054c.015-.008.03-.014.045-.02.539-.232 1.077-.466 1.617-.692.092-.04.118-.077.08-.177a10.569 10.569 0 0 1-.552-2.2 9.652 9.652 0 0 1-.08-1.877c.118-2.248.886-4.26 2.308-6 1.492-1.825 3.4-3.01 5.705-3.54a9.966 9.966 0 0 1 1.843-.242c2.538-.1 4.818.624 6.814 2.185zM12.598 2.094l.05-.094.034.07c.005.011.01.02.012.03.503 1.479 1.003 2.957 1.51 4.433.027.082 0 .106-.042.122l-.055.017L9.59 8.208l.877-1.761c-.644-.258-1.812-.047-2.481.855a2.345 2.345 0 0 0 .476 3.256c-.572.75-1.064 1.55-1.45 2.436-1.128-.802-1.856-1.85-2.186-3.173A4.806 4.806 0 0 1 4.7 8.247a5.094 5.094 0 0 1 1.316-3.051 5.088 5.088 0 0 1 2.82-1.616 4.998 4.998 0 0 1 2.74.196c.128.047.184.026.243-.098l.377-.773.402-.81z" fill="#056BBA"/>
    </g>
</svg>
