<svg width="80" height="40" viewBox="0 0 80 40" fill="none" xmlns="http://www.w3.org/2000/svg">
<path fill-rule="evenodd" clip-rule="evenodd" d="M77.5449 8.49169C78.4082 8.94096 78.9793 9.65143 79.361 10.5227C79.6994 11.2953 79.8709 12.1078 79.946 12.943C79.9547 13.0399 79.9818 13.1351 80.0004 13.2312V14.2183C79.3212 14.2882 78.6426 14.3634 77.9632 14.43L77.3817 14.4845L77.2193 14.4982L77.1331 14.5043L77.08 14.5072L77.0302 14.5091L76.9838 14.5099L76.9405 14.5095L76.9002 14.5078L76.8628 14.5046C76.7009 14.4873 76.6239 14.424 76.5831 14.2735L76.5746 14.2386C76.5706 14.2204 76.5671 14.2011 76.5639 14.1806L76.5578 14.1381L76.5526 14.0923L76.5459 14.0174L76.5404 13.9347L76.534 13.8117L76.5262 13.6363C76.4978 12.9768 76.4041 12.3263 76.0689 11.7352C75.8751 11.3934 75.597 11.1912 75.1862 11.1916C74.7183 11.1919 74.3693 11.4456 74.2043 11.9784C73.914 12.915 73.9004 13.8535 74.2599 14.7826C74.559 15.5553 74.986 16.2531 75.4416 16.9346L75.579 17.1386C75.602 17.1725 75.6251 17.2065 75.6482 17.2404L75.7934 17.4528C75.9388 17.6652 76.0846 17.8774 76.2276 18.0913L76.7299 18.8429C77.3989 19.8457 78.063 20.8519 78.696 21.8766C79.3775 22.9799 79.8115 24.1867 80.0004 25.4722V26.9859C79.9815 27.0896 79.9638 27.1935 79.9467 27.2976L79.8705 27.7661C79.8189 28.0783 79.7626 28.3892 79.6831 28.6943C79.1374 30.7897 77.5863 31.9674 75.395 31.9988C74.4279 32.0127 73.4815 31.9106 72.6032 31.4918C71.2642 30.8536 70.6226 29.6871 70.3568 28.3257C70.2499 27.7785 70.1996 27.2205 70.1577 26.661L70.1208 26.1572C70.1043 25.9333 70.0868 25.7096 70.0652 25.4867C70.0417 25.2432 70.1379 25.1399 70.3995 25.1178C71.3497 25.0378 72.2984 24.9386 73.2463 24.8354C73.4172 24.8168 73.4708 24.8831 73.4926 24.9816L73.4982 25.012L73.5025 25.0441L73.5088 25.1117L73.5291 25.3571L73.5676 25.8482C73.5998 26.2573 73.6345 26.6662 73.6871 27.0729C73.726 27.3726 73.8319 27.6707 73.9491 27.9526C74.1692 28.4822 74.5599 28.8135 75.1671 28.8142C75.6974 28.8148 76.1244 28.4876 76.3187 27.8789C76.6377 26.8802 76.7015 25.8613 76.2492 24.8903C75.912 24.1661 75.5135 23.4639 75.082 22.7895C74.7219 22.2267 74.3527 21.6694 73.982 21.1132L73.4258 20.2789C72.963 19.5832 72.5037 18.8855 72.063 18.1764C71.3519 17.0325 70.8022 15.8021 70.6271 14.45C70.4136 12.8024 70.6354 11.2282 71.5893 9.82011C72.3628 8.67832 73.4672 8.09033 74.8611 8.01299C75.7984 7.96112 76.7032 8.05364 77.5449 8.49169ZM43.8342 8.22905C45.0672 8.23262 46.3002 8.23249 47.5332 8.22958C47.7498 8.22905 47.8447 8.31801 47.8778 8.53499C48.4196 12.088 48.9701 15.6397 49.515 19.1923L50.0303 22.5611L51.058 29.2992C51.1638 29.9924 51.2631 30.6865 51.3788 31.378C51.4205 31.6273 51.3519 31.7376 51.1002 31.7387L51.0735 31.7384C50.6072 31.7273 50.1405 31.7354 49.6739 31.7356L49.5197 31.7349L49.2112 31.7311C49.0055 31.7284 48.7999 31.7269 48.595 31.7345L48.4413 31.7421C48.1238 31.7619 47.9817 31.6592 47.9435 31.3399C47.8654 30.6873 47.7801 30.0353 47.6932 29.3836L47.5189 28.0803L47.4981 27.9339L47.4529 27.6415C47.4379 27.5441 47.4235 27.4466 47.4115 27.3489L47.3956 27.2021C47.3752 26.9844 47.2553 26.9317 47.0617 26.9323C46.1508 26.9354 45.24 26.9383 44.3292 26.9298C44.1088 26.9279 44.0081 27.0052 43.9807 27.2227C43.9328 27.6032 43.8822 27.9834 43.8306 28.3635L43.6747 29.5035C43.586 30.1546 43.4912 30.805 43.4093 31.457C43.3862 31.6401 43.3168 31.7362 43.119 31.7355C42.1637 31.7323 41.2085 31.7323 40.2532 31.7351C40.0349 31.7357 39.9906 31.635 39.9942 31.5054L39.996 31.4725C39.9965 31.4669 39.997 31.4613 39.9975 31.4556L40.0015 31.4213L40.0118 31.3513L40.3298 29.2939C40.3827 28.951 40.4354 28.608 40.4877 28.265C41.0138 24.809 41.537 21.3526 42.0642 17.8967L42.4718 15.232L43.2901 9.90314C43.3616 9.43737 43.4426 8.97292 43.5039 8.50596C43.5312 8.29848 43.6343 8.2284 43.8342 8.22905ZM25.9619 8.22528C26.261 8.2223 26.3396 8.34135 26.3382 8.61706C26.334 9.52729 26.333 10.4375 26.333 11.3477L26.3341 14.0784L26.334 31.3747L26.3324 31.4422L26.3292 31.5008L26.3257 31.5353C26.3106 31.6605 26.2694 31.7088 26.1607 31.7267L26.1307 31.7307L26.0976 31.7335L26.061 31.7353L25.9994 31.7366L25.9292 31.7365L25.7291 31.7351L25.6617 31.7352C25.1951 31.7374 24.7284 31.7372 24.2618 31.7367L23.4487 31.7355L23.3759 31.7342L23.3328 31.7326L23.2938 31.73C23.1394 31.7172 23.0864 31.6761 23.0681 31.5419L23.0644 31.5078C23.0639 31.5019 23.0634 31.4957 23.0629 31.4894L23.0608 31.4497L23.0591 31.3824L23.0586 31.3052L23.0582 25.7879L23.0583 20.3264C23.0582 19.0215 23.0592 17.7164 23.0564 16.4114C23.0563 16.3507 23.0502 16.2901 23.0425 16.2295L23.0262 16.1083C23.0236 16.088 23.0211 16.0678 23.0189 16.0476L22.9302 16.043C22.9091 16.1189 22.8799 16.1936 22.8681 16.2708C22.3611 19.6304 21.8549 22.9901 21.3502 26.35C21.0978 28.03 20.8456 29.7099 20.6006 31.3909C20.5667 31.623 20.4826 31.7504 20.2222 31.7386C19.9118 31.7245 19.6002 31.7299 19.2893 31.7365C19.0964 31.7406 19.0153 31.6571 18.9875 31.4702C18.6779 29.3776 18.3645 27.2854 18.0479 25.1938C17.7328 23.1134 17.4103 21.034 17.0961 18.9534C16.9635 18.0757 16.8449 17.196 16.7165 16.3177C16.7095 16.2696 16.6968 16.2224 16.6825 16.1754L16.6532 16.0815C16.6484 16.0658 16.6438 16.0501 16.6394 16.0344L16.5195 16.0423L16.5116 16.1177L16.4939 16.2684C16.4855 16.3438 16.4788 16.4192 16.4788 16.4945L16.4773 23.7819L16.4766 31.1702L16.4776 31.365L16.4768 31.4326L16.4753 31.4728L16.473 31.5093L16.4696 31.5423C16.4542 31.6623 16.4115 31.7088 16.2978 31.7263L16.2665 31.7302L16.2318 31.733L16.1935 31.7348L16.1056 31.7363L15.8889 31.7353L15.7901 31.7353C15.1902 31.7378 14.5899 31.7259 13.9903 31.7355L13.6905 31.7422C13.3689 31.7517 13.2505 31.6585 13.2475 31.3445L13.2475 31.3154C13.2639 29.9666 13.2541 28.6176 13.2541 27.2687L13.2545 8.63375L13.2557 8.55982L13.2573 8.51593L13.2597 8.47611C13.2602 8.4698 13.2607 8.46365 13.2613 8.45766L13.2655 8.42359C13.2847 8.2946 13.3368 8.25156 13.4784 8.23714L13.5156 8.2341C13.5222 8.23368 13.5289 8.23331 13.5357 8.23297L13.579 8.23134L13.6518 8.23015L13.7622 8.22982C14.6687 8.2295 15.5754 8.23274 16.4819 8.22978L17.1618 8.22626C17.4122 8.22441 17.5465 8.29542 17.5961 8.55741C18.2694 12.1127 18.9516 15.6661 19.6277 19.2208C19.6368 19.2689 19.6452 19.3171 19.6532 19.3655L19.6771 19.5111C19.7091 19.7058 19.745 19.9025 19.8184 20.1006L19.8387 19.9498L19.8775 19.6478C19.8973 19.4969 19.919 19.3464 19.9472 19.197C20.3666 16.9777 20.7902 14.7591 21.2147 12.5407L21.3414 11.8839L21.5965 10.5707C21.6814 10.1329 21.7655 9.69508 21.8477 9.25686L21.9693 8.59924C22.0177 8.33303 22.1141 8.22309 22.3957 8.2256C23.5844 8.23616 24.7732 8.23682 25.9619 8.22528ZM53.6284 8.23084L53.9814 8.23379L55.0409 8.23945C55.7472 8.24373 56.4533 8.25214 57.1584 8.2835C59.9465 8.40756 61.6498 9.80448 62.2219 12.4991C62.6545 14.5368 62.6276 16.575 61.8824 18.5584C61.6358 19.2152 61.2581 19.7888 60.7152 20.256C60.6274 20.3316 60.5874 20.5278 60.6106 20.6526C60.8094 21.722 61.0187 22.7895 61.2286 23.8567L61.386 24.6571C61.8318 26.9275 62.2793 29.1977 62.7239 31.4682C62.7294 31.4966 62.7308 31.5259 62.7305 31.5585L62.7267 31.6687C62.7261 31.6895 62.7256 31.7119 62.7256 31.736H62.0515L61.7087 31.7354L61.023 31.7328C60.5658 31.7315 60.1087 31.732 59.6519 31.7418C59.3591 31.7481 59.2399 31.6433 59.1898 31.3647C58.8264 29.3414 58.4577 27.319 58.0884 25.2966L57.7192 23.2742C57.6503 22.8969 57.5824 22.519 57.5024 22.1438C57.4532 21.9126 57.3506 21.8346 57.064 21.836L57.0081 21.8372L56.9476 21.8401L56.8825 21.8446L56.8125 21.8507C56.8004 21.8519 56.7881 21.8531 56.7756 21.8543C56.5727 21.8747 56.5395 21.9812 56.536 22.1042L56.5358 22.153L56.5371 22.2375L56.5356 31.1593L56.5367 31.3553L56.5358 31.4236L56.5334 31.4834L56.5306 31.5187C56.5301 31.5243 56.5295 31.5298 56.5289 31.5351L56.5245 31.5654L56.5187 31.5925C56.4961 31.6823 56.4464 31.7173 56.3391 31.7302L56.3069 31.7333L56.2714 31.7354L56.2324 31.7366L56.1898 31.7371L55.8977 31.7348L55.7966 31.7349C55.5681 31.7363 55.3395 31.736 55.1109 31.7353L54.4252 31.7332C54.1967 31.7329 53.9681 31.7334 53.7396 31.736L53.3969 31.7416C53.0851 31.7485 52.9934 31.6338 52.9956 31.3403C53.0017 30.531 53.002 29.7216 53.0013 28.9122L52.9999 27.2934L53.0002 8.7146L53.0012 8.63346L53.0027 8.58469L53.005 8.53996L53.0083 8.49912L53.0127 8.46198C53.0342 8.31471 53.0915 8.25944 53.2447 8.23984L53.2833 8.23579L53.3258 8.23294L53.3723 8.23111L53.4502 8.22991L53.6284 8.23084ZM29.4133 8.23192L29.8007 8.24121L30.9629 8.26709C31.8668 8.28792 32.7705 8.31365 33.6724 8.36707C34.5308 8.41802 35.3565 8.66945 36.104 9.1104C37.1414 9.72255 37.738 10.678 37.9838 11.7985C38.2434 12.982 38.4673 14.1931 38.51 15.399C38.6037 18.0495 38.608 20.7048 38.5806 23.3574C38.5642 24.9551 38.4486 26.5543 38.02 28.1116C37.4114 30.3222 36.1241 31.3263 33.8854 31.5721C33.0389 31.6651 32.1849 31.6903 31.3293 31.7027L30.8625 31.7084L30.3957 31.7137C30.0066 31.7183 29.6177 31.7244 29.2296 31.7372C28.9705 31.7456 28.911 31.6179 28.9123 31.3934C28.9153 30.9382 28.9158 30.4831 28.9155 30.0279L28.9142 28.6625L28.9142 14.3497L28.9147 8.61425L28.9154 8.5662L28.9175 8.50172L28.9199 8.46354L28.9235 8.42901C28.9405 8.29247 28.9901 8.24627 29.1341 8.2335L29.1704 8.23105L29.2106 8.22971C29.2177 8.22956 29.2249 8.22946 29.2322 8.22939L29.3032 8.22964L29.4133 8.23192ZM68.216 8.65613C68.2095 10.5576 68.2085 12.4591 68.2087 14.3605L68.2096 18.1635L68.2092 31.3347L68.208 31.408L68.2064 31.4516L68.204 31.491L68.2004 31.5267C68.1832 31.6675 68.1328 31.7134 67.9858 31.7284L67.9486 31.7314L67.8855 31.7342L67.8129 31.7354L67.7002 31.7357L66.4338 31.7364L65.0862 31.7352L65.038 31.7345L64.9941 31.7334L64.9545 31.7314L64.9188 31.7284C64.7952 31.7154 64.7478 31.6782 64.7297 31.5704L64.7254 31.5392L64.7224 31.5043C64.722 31.4982 64.7216 31.4919 64.7213 31.4854L64.7197 31.4446L64.7185 31.35L64.7179 25.654L64.7183 8.61849L64.7194 8.54759L64.721 8.50548L64.7234 8.46727L64.7269 8.43277C64.7424 8.30741 64.785 8.25968 64.9026 8.24142L64.9351 8.23729L64.971 8.23431L65.0108 8.23228L65.078 8.23063L65.2114 8.22995L65.578 8.23027L66.3113 8.23286C66.6779 8.23401 67.0445 8.23417 67.411 8.22978L67.7775 8.22375C68.111 8.21662 68.2172 8.32247 68.216 8.65613ZM3.98243 8.1444C5.14857 8.15796 6.31496 8.15756 7.48096 8.14476C7.77149 8.14146 7.89107 8.23424 7.93337 8.52448C8.09448 9.63045 8.26159 10.7355 8.4299 11.8404L8.76667 14.0501L9.64032 19.8131C9.78616 20.7736 9.93231 21.734 10.0791 22.6944L10.4863 25.3478L11.3045 30.6541C11.341 30.8922 11.3716 31.1312 11.406 31.3697C11.43 31.5372 11.3614 31.6112 11.1863 31.6106C10.2201 31.607 9.25378 31.6059 8.28756 31.6092C8.0897 31.6099 8.02833 31.5078 8.00018 31.3575L7.99352 31.3172L7.99063 31.2963C7.8138 29.9497 7.63243 28.6037 7.4504 27.2577C7.44631 27.2275 7.44023 27.1975 7.4325 27.1652L7.41972 27.1144L7.37865 26.9583C7.37554 26.9461 7.37236 26.9333 7.36913 26.9201L7.28059 27.0139L7.20551 27.0927L7.14054 27.1623L7.10119 27.2065C7.09483 27.2139 7.08855 27.2213 7.08233 27.2287L5.69132 28.8918C4.99578 29.7233 4.29936 30.5541 3.59848 31.3812C3.5044 31.4923 3.32864 31.5964 3.18878 31.5992C2.49881 31.6127 1.80858 31.6126 1.11836 31.6104L0.290131 31.6075C0.252527 31.6074 0.214975 31.6023 0.174218 31.5949L0.0390791 31.5686C0.0264735 31.5663 0.0134641 31.5641 0 31.5618L0.235079 29.9878L0.328833 29.367C0.813142 26.1825 1.29652 22.9977 1.78363 19.8136C2.35869 16.0553 2.94068 12.2982 3.50827 8.53886C3.55458 8.23279 3.68083 8.14106 3.98243 8.1444ZM32.4071 12.0688L32.4065 12.1997L32.4063 16.0985L32.4065 27.7288L32.4058 27.7702L32.4025 27.8535C32.3999 27.923 32.3998 27.992 32.4173 28.0562C32.4392 28.1368 32.5043 28.2441 32.5749 28.2676C33.0759 28.4351 34.1102 28.0386 34.3597 27.5612L34.4179 27.4481C34.5526 27.1815 34.6756 26.8959 34.7064 26.6104L34.7743 25.9856C34.8715 25.0825 34.9601 24.1767 34.9661 23.2719C34.9846 20.5093 34.9516 17.7461 34.9044 14.9837C34.8935 14.3536 34.7846 13.7162 34.6445 13.0992C34.4345 12.1743 33.9042 11.7716 32.9629 11.729L32.8842 11.7262L32.7531 11.723L32.7083 11.7228L32.6675 11.7235L32.6306 11.7253C32.6247 11.7257 32.619 11.7261 32.6135 11.7267L32.5819 11.7304C32.4826 11.7452 32.4395 11.7854 32.4208 11.8807L32.4159 11.911L32.4123 11.9448L32.4097 11.9822L32.4075 12.0457C32.4073 12.0532 32.4072 12.0609 32.4071 12.0688ZM5.74991 15.1865L5.61379 15.1945L4.08867 26.7038L4.12665 26.6748L4.19944 26.6212L4.21359 26.6097C4.21976 26.6043 4.22472 26.5993 4.22906 26.5937L5.25787 25.2841C5.77188 24.629 6.28459 23.9729 6.79273 23.3134C6.86106 23.2248 6.87361 23.0668 6.85866 22.9477C6.70532 21.7304 6.54304 20.5141 6.37916 19.298C6.2078 18.0278 6.03351 16.758 5.85534 15.4887C5.84807 15.4369 5.83072 15.3865 5.81069 15.3365L5.76419 15.2241C5.75922 15.2116 5.75442 15.1991 5.74991 15.1865ZM45.7689 15.3081L45.6461 15.3112L45.6301 15.3666L45.596 15.4772C45.5734 15.5509 45.5525 15.6248 45.5415 15.7001C45.4355 16.4258 45.3353 17.1522 45.2363 17.8788C45.0072 19.5603 44.7827 21.2424 44.549 22.9232C44.5108 23.1972 44.5985 23.3027 44.8838 23.2942C45.1334 23.2868 45.3831 23.286 45.6329 23.2869L46.1325 23.2897L46.4879 23.2899L46.5562 23.2888L46.5969 23.2873L46.6338 23.2851L46.6671 23.282L46.697 23.2777C46.8049 23.2591 46.8398 23.2122 46.8383 23.0936L46.8371 23.061L46.8344 23.025L46.8303 22.9854L46.822 22.9189L46.8033 22.7877L46.7924 22.6981L46.7758 22.5181C46.7729 22.4882 46.7696 22.4582 46.7656 22.4284C46.4837 20.3565 46.2021 18.2846 45.9174 16.2133C45.8758 15.9105 45.8188 15.6099 45.7689 15.3081ZM56.5366 12.0376L56.5364 12.0907C56.5352 13.0987 56.536 14.1066 56.5361 15.1146L56.5357 17.1962L56.537 18.2634L56.538 18.3127L56.5401 18.3576C56.5406 18.3648 56.5411 18.3717 56.5416 18.3785L56.5457 18.4172C56.5663 18.5761 56.6303 18.6236 56.8047 18.6209L56.8469 18.6193L56.8933 18.6162L56.9439 18.6116C56.9527 18.6108 56.9617 18.6098 56.9709 18.6089C57.8757 18.5126 58.5083 18.0601 58.7927 17.1983C59.2237 15.8918 59.227 14.5657 58.8431 13.2532C58.5806 12.3555 57.9758 11.7998 56.9912 11.6998L56.8673 11.6878L56.8248 11.6844L56.7862 11.6822C56.7739 11.6817 56.7622 11.6814 56.7511 11.6813L56.7195 11.6818C56.6196 11.6863 56.574 11.7183 56.5533 11.8078L56.5478 11.8364L56.5436 11.8687L56.5406 11.9047L56.5378 11.9664L56.5366 12.0376Z" fill="#191E30"/>
</svg>
