<svg width="32" height="32" viewBox="0 0 32 32" xmlns="http://www.w3.org/2000/svg">
    <g fill="none" fill-rule="evenodd">
        <path d="M0 0h32v32H0z"/>
        <path d="M23.729 23.073a1.136 1.136 0 0 1-1.167 1.109c-.313 0-.552-.12-.885-.391l-8.255-6.667-2.771 6.938H8.255L15.25 7.255a1.054 1.054 0 0 1 1.021-.677c.432-.016.839.25.99.677l6.365 15.323c.057.151.104.313.104.464v.031h-.001zM16 0C7.161 0 0 7.161 0 16s7.161 16 16 16 16-7.161 16-16S24.839 0 16 0zm-1.844 15.297 6.25 4.927-4.141-10.214-2.109 5.287z" fill="#000"/>
    </g>
</svg>
