<svg width="30" height="36" viewBox="0 0 30 36" fill="none" xmlns="http://www.w3.org/2000/svg">
<path fill-rule="evenodd" clip-rule="evenodd" d="M22.335 0C22.5712 2.1078 21.7053 4.2262 20.4186 5.74794C19.132 7.27065 17.0202 8.4533 14.9531 8.29703C14.6714 6.23095 15.7154 4.07527 16.9076 2.72844C18.2378 1.20753 20.4804 0.0728301 22.335 0ZM29.9922 26.4066C29.7692 26.3183 25.1059 24.473 25.0551 19.1257C25.0141 14.6653 28.7045 12.4733 29.0213 12.2851C29.028 12.2811 29.0332 12.2781 29.0368 12.2759C26.8715 9.17904 23.4995 8.75375 22.2982 8.7049C20.543 8.53111 18.8401 9.18742 17.4496 9.72337C16.5667 10.0636 15.8097 10.3554 15.2451 10.3554C14.6152 10.3554 13.8368 10.0538 12.9635 9.71531C11.82 9.27216 10.5137 8.76589 9.16437 8.79104C6.03587 8.83546 3.15355 10.5677 1.54068 13.3031C-1.70597 18.8114 0.711948 26.9716 3.87591 31.4411C5.4243 33.6261 7.26973 36.0872 9.69318 35.9976C10.7777 35.956 11.5486 35.6352 12.3458 35.3034C13.2651 34.9208 14.2193 34.5238 15.7295 34.5238C17.1722 34.5238 18.0845 34.9094 18.9617 35.2802C19.7994 35.6343 20.6051 35.9749 21.8102 35.9532C24.3209 35.908 25.9147 33.723 27.4503 31.5299C29.1697 29.0748 29.911 26.6954 29.9939 26.4291C29.9967 26.4203 29.9987 26.4138 30 26.4097C29.999 26.4093 29.9964 26.4082 29.9922 26.4066Z" fill="#191e30"/>
</svg>
