<?xml version="1.0" encoding="utf-8"?>
<!-- Generator: Adobe Illustrator 27.5.0, SVG Export Plug-In . SVG Version: 6.00 Build 0)  -->
<svg width="80" height="40" version="1.1" id="Logo" xmlns="http://www.w3.org/2000/svg" xmlns:xlink="http://www.w3.org/1999/xlink" x="0px" y="0px"
	 viewBox="0 0 80 40" style="enable-background:new 0 0 80 40;" xml:space="preserve">
<style type="text/css">
	.st0{fill:#191E30;}
</style>
<g>
	<g>
		<g>
			<g>
				<path class="st0" d="M72.1,17.7c-4.2-1.4-5.4-2.5-5.4-3.8c0-1.8,2.1-2.8,5.1-2.8c1.2,0,2,0.1,2.6,0.2l0,3.5l4,0.1l0.3-7
					c-1.9-0.5-4.8-1-7.2-1c-5.6,0-10,2.7-10,7.5c0,4.6,3.1,6.2,8.5,7.9c4.2,1.3,4.6,2.3,4.6,3.6c0,1.5-2.1,2.6-4.7,2.6
					c-2.7,0-5.7-0.9-7.5-1.7c-0.5,1.1-1.6,2.9-2.3,3.9c2.7,1.5,6,2.3,9.6,2.3c5.6,0,10.3-2.6,10.3-7.9C80,21.1,77.5,19.5,72.1,17.7"
					/>
				<path class="st0" d="M17,7.1H6.2v3.2h2.7L2.2,29.4H0v3.2h9.1v-3.2H6.9l1.2-3.5H18l1.2,3.5h-2v3.2H27v-3.2h-2L17,7.1z M9.6,22
					l3.5-10l3.5,10H9.6z"/>
				<path class="st0" d="M54,11.5L54,11.5c-1.3-0.6-2.8-0.9-4.4-0.9c-0.4,0-0.8,0-1.2,0.1c-1.4,1.9-2.2,4.1-2.2,6.6
					c0,4.7,2.8,8.6,6.9,10.3c-1,0.7-2.2,1.1-3.5,1.1c-3.6,0-6.5-3.1-6.5-6.9c0-1.6,0.5-3.2,1.4-4.3c0-1.7,0.6-4.9,1.6-6.3
					c-4.5,1.5-7.8,5.8-7.8,10.7c0,2,0.5,3.8,1.4,5.4c-1.1,1.1-2.5,1.8-3.9,1.8c-1.9,0-3.2-1.5-3.2-3.6v-10h5.8v-4h-5.8V7.1h-5.2v4.3
					h-3.8v4h3.8v10.5c0,5.4,3.8,7.2,7.4,7.2c3.1,0,5.5-1.4,6.9-3.1c2,1.9,4.8,3.1,7.8,3.1c6.1,0,11.2-5,11.2-11.2
					C60.9,17.2,58.1,13.2,54,11.5 M55.8,23.9c-2.7-0.8-4.8-3.5-4.8-6.7c0-0.7,0.1-1.4,0.3-2.1c2.7,0.8,4.8,3.5,4.8,6.7
					C56.1,22.6,56,23.3,55.8,23.9"/>
			</g>
		</g>
	</g>
</g>
</svg>
