<svg width="80" height="40" viewBox="0 0 80 40" fill="none" xmlns="http://www.w3.org/2000/svg">
<path fill-rule="evenodd" clip-rule="evenodd" d="M70.4899 11.5087L70.4098 11.5L70.3345 11.5044C70.2612 11.5147 70.1956 11.5404 70.14 11.5677L70.006 11.6401C69.7418 11.8148 69.6099 12.0765 69.5218 12.3822C69.5174 12.3866 69.513 12.3927 69.5086 12.4007L69.481 12.4723L69.4329 12.678L69.3455 13.1687C69.3382 13.2269 69.3321 13.2803 69.3268 13.33L69.2904 13.7119C69.2823 13.7894 69.2725 13.867 69.2578 13.9544L69.2348 14.0972L69.1928 14.3269L69.0842 14.8325L68.9929 15.309L68.9539 15.6199L68.9004 16.1544L68.8614 16.4444C68.8516 16.5074 68.8418 16.5657 68.8323 16.6198L68.7592 17.0145C68.7295 17.1934 68.7239 17.3229 68.7728 17.4927C68.8609 17.7548 68.9933 18.0162 69.1254 18.1035C69.1914 18.1472 69.2574 18.1583 69.3344 18.1585L69.6095 18.1479C69.7152 18.1217 69.8051 18.0481 69.8791 17.9746L70.006 17.8417L70.0603 17.7462L70.1137 17.6391C70.1812 17.4892 70.2624 17.2452 70.3138 16.8376L70.3544 16.542L70.4024 16.0511C70.4079 16.0183 70.4127 15.9876 70.4171 15.9581L70.4517 15.7016L70.4825 15.4982L70.534 15.2211L70.5915 14.8066L70.6535 14.2853L70.7159 14.0065C70.7325 13.9419 70.749 13.8823 70.7655 13.826L70.9142 13.3583C70.9637 13.1993 71.0133 13.0211 71.0628 12.7754L71.088 12.545C71.0977 12.4079 71.0923 12.2274 71.0188 12.0333L70.8864 11.7706L70.857 11.7239C70.7958 11.6421 70.6734 11.5451 70.4899 11.5087ZM74.2499 12.1643L74.2766 12.1639C74.3647 12.1639 74.5408 12.1643 74.7169 12.2517C74.8427 12.3266 74.9111 12.4155 74.9549 12.4942L75.0256 12.6441C75.1135 12.9062 75.0696 13.1689 74.9816 13.3436C74.8935 13.6639 74.7662 13.9063 74.6258 14.1489L74.4059 14.5283L73.5282 16.2134L73.382 16.5096L73.2452 16.7989L73.1929 16.8976L73.1757 16.9246L72.8789 17.5251L72.8157 17.67C72.792 17.73 72.7801 17.7719 72.7801 17.7981L72.7236 17.9409L72.6423 18.1802C72.6165 18.253 72.5883 18.3209 72.5463 18.3904L72.4714 18.4968C72.3834 18.6278 72.2076 18.8028 71.9434 18.8465L71.8357 18.8626C71.7279 18.8754 71.5613 18.8751 71.4145 18.7587C71.2494 18.6495 71.1876 18.4894 71.1538 18.3526L71.1217 18.2046C71.117 18.1833 71.1122 18.1642 71.1067 18.1479L71.108 18.077L71.117 17.9808C71.1196 17.9623 71.1228 17.9425 71.1268 17.9211L71.1619 17.7745L71.2238 17.5859C71.2628 17.48 71.3148 17.3558 71.3841 17.2096L71.4593 17.056C71.5082 16.9492 71.5484 16.8683 71.5833 16.8028L71.716 16.5757C71.7558 16.5108 71.7951 16.4448 71.8453 16.3422L71.8996 16.226C71.9876 16.0513 72.0365 15.9348 72.0706 15.8393L72.1534 15.5787C72.1729 15.5183 72.1968 15.4507 72.2323 15.3649L72.2951 15.2211C72.348 15.0901 72.4325 14.9276 72.5297 14.7525L72.7354 14.3911C72.7574 14.3475 72.7795 14.3147 72.8016 14.2819C72.8237 14.2492 72.8458 14.2164 72.8678 14.1728C72.9119 14.1145 72.9461 14.066 72.977 14.0175L73.0665 13.8624L73.1757 13.649C73.2285 13.5441 73.2674 13.4603 73.3034 13.3779L73.4844 12.9503L73.7046 12.5136C73.7926 12.3389 73.8368 12.2952 73.8809 12.2952C73.9815 12.2203 74.0819 12.1881 74.1577 12.1743L74.2499 12.1643ZM6.64819 12.2517L13.0324 26.6646H10.8309L9.42236 23.3446H3.6986L2.20145 26.6646H0L6.64819 12.2517ZM35.7511 20.2873C35.7511 16.7059 32.8019 13.7803 29.1915 13.7803C25.5811 13.7803 22.631 16.7059 22.631 20.2873C22.631 23.8687 25.5811 26.7951 29.1915 26.7951C32.8019 26.7951 35.7511 23.8687 35.7511 20.2873ZM69.5522 19.0884C69.3331 19.0238 69.1628 18.9932 69.0093 19.006L68.9287 19.0172C68.8758 19.0273 68.8242 19.0431 68.7728 19.0649C68.538 19.1522 68.4012 19.3171 68.323 19.4303L68.2448 19.5451C68.1568 19.698 68.1347 19.8181 68.1291 19.9491L68.1235 20.2808L68.1045 20.5026L68.0783 20.6532C68.0296 20.8894 67.9223 21.2485 67.7168 21.5105L67.6997 21.5273L67.6223 21.5929L67.5393 21.6482C67.5063 21.6681 67.4677 21.6894 67.422 21.712L67.2628 21.7831C67.1714 21.8204 67.0614 21.8602 66.9284 21.902L66.6305 21.9881L66.2635 22.0787C66.2006 22.0974 66.1242 22.1152 66.0391 22.1321L65.7623 22.1802L65.4616 22.223L64.7924 22.3065L64.6326 22.3305L64.5901 22.3405C64.458 22.3405 64.238 22.4279 64.1059 22.7773C63.9885 22.9811 63.9887 23.1848 64.0018 23.3239L64.0154 23.439L64.0244 23.5418C64.0451 23.6526 64.1174 23.772 64.2413 23.9426L64.4146 24.1746L64.5736 24.3685C64.7284 24.5651 64.877 24.7864 65.0751 25.1794L65.1629 25.3467L65.2971 25.6206L65.3947 25.8324L65.478 26.0039C65.5337 26.1098 65.5947 26.2037 65.6908 26.3148C65.8962 26.5186 66.1214 26.6255 66.4313 26.7388L66.9678 26.9265C67.1659 26.992 67.3086 27.0299 67.4244 27.0569L67.7195 27.1211C67.84 27.1497 67.9634 27.188 68.1571 27.2754L68.3593 27.3596C68.6184 27.4799 68.8436 27.6338 69.1254 27.8435C69.2815 27.9388 69.395 28.0178 69.4838 28.0842L69.7497 28.2905C69.8226 28.3422 69.8939 28.3798 70.006 28.4116C70.094 28.4553 70.534 28.5863 70.9743 28.4116L71.0201 28.3951C71.1477 28.3451 71.3216 28.2411 71.6347 27.9305L71.7749 27.7998C71.9978 27.5833 72.1665 27.3758 72.2807 27.2221L72.4276 27.0135C72.7106 26.6079 72.9713 26.3137 73.2897 25.9718L73.7046 25.5284L73.994 25.2335L74.5211 24.7171L74.6615 24.5651C74.804 24.3974 74.8737 24.2542 74.893 24.0441L74.8951 23.9313C74.8931 23.749 74.8602 23.3883 74.629 23.1262C74.5507 23.0292 74.4899 22.9839 74.4116 22.9367L74.1914 22.8047C74.1295 22.7646 74.0566 22.7139 73.9686 22.646L73.9634 22.6418C73.745 22.4685 73.5267 22.2953 73.352 22.0787L73.2563 21.9522C73.2171 21.8952 73.1878 21.8424 73.1535 21.7713L72.9556 21.3357L72.8023 21.0365C72.7109 20.8651 72.6327 20.7391 72.5153 20.5935C72.3832 20.3751 72.1197 20.0254 71.6794 19.8071L71.6082 19.7685C71.5203 19.7235 71.4577 19.7025 71.3844 19.6842L71.1866 19.6391L70.99 19.5879C70.9121 19.5659 70.8203 19.538 70.7103 19.5016L70.5789 19.4563C70.5403 19.4424 70.5066 19.4297 70.4764 19.4177L70.2598 19.3265L70.1085 19.2707L70.006 19.2398C69.9482 19.2193 69.8931 19.2 69.8405 19.1818L69.5522 19.0884ZM21.4865 15.9198V13.9109H13.1648V15.9198H16.3345V26.6646H18.3158V15.9198H21.4865ZM42.4002 13.9109C43.8311 13.9109 44.9579 14.1743 45.8519 14.7015L46.0541 14.8279V14.8722L45.6138 16.4444C44.425 16.0076 43.3688 15.7457 42.4002 15.7457C40.6831 15.7457 39.9786 16.3133 39.9786 17.5362C39.9786 18.4534 40.903 18.9775 42.444 19.2833C45.3059 19.8947 46.4944 20.8556 46.4944 22.9957C46.4944 25.4415 44.9532 26.6202 41.9152 26.6202C40.1815 26.6202 38.8742 26.3517 37.9557 25.8143L37.7772 25.7032L38.2613 24.1311C39.5381 24.6115 40.7271 24.8297 41.9599 24.8297C43.8091 24.8297 44.6016 24.1307 44.6016 22.9078C44.6016 21.9907 43.6323 21.5102 42.1353 21.1608L41.5916 21.0359C38.8157 20.3601 37.9973 19.5093 37.9973 17.5362C37.9973 15.0904 39.4503 13.9109 42.4002 13.9109ZM56.7275 14.7015C55.8335 14.1743 54.7059 13.9109 53.275 13.9109C50.325 13.9109 48.8721 15.0904 48.8721 17.5362C48.8721 19.5093 49.6913 20.3601 52.4673 21.0359L53.011 21.1608C54.508 21.5102 55.4764 21.9907 55.4764 22.9078C55.4764 24.1307 54.6839 24.8297 52.8347 24.8297C51.6019 24.8297 50.3689 24.6115 49.1361 24.1311L48.6519 25.7032L48.8305 25.8143C49.7491 26.3517 51.0572 26.6202 52.7908 26.6202C55.8288 26.6202 57.37 25.4415 57.37 22.9957C57.37 20.8556 56.1807 19.8947 53.3188 19.2833C51.7778 18.9775 50.8534 18.4534 50.8534 17.5362C50.8534 16.3133 51.5578 15.7457 53.275 15.7457C54.2436 15.7457 55.3007 16.0076 56.4894 16.4444L56.9297 14.8722V14.8279L56.7275 14.7015ZM29.1915 15.6143C26.5938 15.6143 24.4799 17.7105 24.4799 20.2873C24.4799 22.8642 26.5938 24.9611 29.1915 24.9611C31.7892 24.9611 33.9023 22.8642 33.9023 20.2873C33.9023 17.7105 31.7892 15.6143 29.1915 15.6143ZM79.4325 20.5704L79.3845 20.569C79.2801 20.5718 79.1259 20.6119 78.8995 20.7241C78.875 20.7386 78.8516 20.7526 78.8289 20.7665L78.6957 20.8504L78.4725 21.0059L77.9344 21.4129L77.4857 21.7405L77.447 21.7724C77.3942 21.7987 77.3396 21.8249 77.2846 21.8507L76.8182 22.0648L76.698 22.1222L76.4496 22.2171C76.3304 22.2652 76.2144 22.3228 76.0823 22.4276C75.9062 22.5586 75.8176 22.6899 75.7736 22.7773C75.7295 22.8646 75.6857 22.9958 75.7295 23.1705C75.7589 23.3161 75.8469 23.4033 75.9153 23.4581L75.9935 23.5195C76.1403 23.6359 76.3069 23.6361 76.4147 23.6233L76.5224 23.6073L76.6114 23.5764L76.6849 23.5425L77.0997 23.3015L77.4897 23.1029C77.5278 23.0825 77.5607 23.0641 77.5905 23.0467L77.7489 22.9504L77.9319 22.8449L78.0634 22.7773L78.1949 22.7049L78.5246 22.5277L78.8116 22.384C78.9877 22.2967 79.208 22.1655 79.4282 21.9908C79.5791 21.866 79.6726 21.7698 79.7414 21.6858L79.8302 21.5669L79.9159 21.4361C79.9722 21.341 80 21.2571 80 21.1173C80 20.9426 79.8686 20.8121 79.8246 20.7684L79.7925 20.7376C79.7416 20.6915 79.6568 20.6285 79.5159 20.5935L79.4788 20.5792L79.4325 20.5704ZM79.2961 17.7544C79.3401 17.7544 79.5162 17.8855 79.5602 18.1038C79.5896 18.2203 79.5602 18.3174 79.5113 18.4338L79.4282 18.6279C79.4017 18.6804 79.3595 18.7485 79.3014 18.8324L79.164 19.021L78.9998 19.1811C78.9121 19.2639 78.8118 19.353 78.6797 19.4578L77.8871 19.9382L77.5955 20.1511L77.2774 20.3699C77.2343 20.3989 77.1882 20.4296 77.1386 20.4623L76.9185 20.6295L76.5849 20.8952C76.5649 20.9107 76.5443 20.9264 76.5222 20.9427C76.4782 20.9646 76.4452 20.9864 76.4122 21.0083C76.3792 21.0301 76.3461 21.0519 76.3021 21.0738L75.7738 21.4232L75.563 21.5706L75.3493 21.7064L75.1847 21.7962L75.1573 21.8163L74.9615 21.8631C74.8685 21.8809 74.7787 21.8861 74.673 21.8599C74.5997 21.7507 74.5568 21.5809 74.5446 21.502L74.5409 21.4669C74.4969 21.2485 74.5409 21.1174 74.629 20.9864L74.6438 20.9669L74.7199 20.8404L74.8129 20.7097C74.8705 20.6368 74.9463 20.5538 75.0475 20.4652L75.2326 20.3169L75.3563 20.2314L75.7738 19.9819C75.852 19.9334 75.9086 19.8956 75.9535 19.8634L76.0637 19.7779L76.2316 19.6426C76.282 19.605 76.3461 19.5597 76.4342 19.5015C76.6543 19.3704 77.0066 19.1521 77.2267 18.9337L77.3491 18.8285L77.7546 18.4375L77.9752 18.2349L78.2097 18.0328C78.4173 17.8603 78.5532 17.7719 78.6956 17.7287L78.7677 17.7108C78.8998 17.6671 79.12 17.6234 79.2961 17.7544ZM62.2132 18.3219L62.1075 18.3226C61.9664 18.3254 61.8252 18.3395 61.6843 18.4097C61.4642 18.5844 61.3765 18.8027 61.3765 18.89C61.3324 19.0647 61.3321 19.2393 61.4642 19.5887C61.5963 20.0254 61.7727 20.5057 62.2571 20.9424C62.4332 21.0922 62.5948 21.1849 62.7338 21.2531L63.0052 21.3792C63.2253 21.5102 63.5779 21.6417 63.7981 21.467L63.8353 21.4446C63.8664 21.421 63.881 21.3919 63.8955 21.341L63.9296 21.2051L63.9296 21.2051C63.9737 21.1177 64.0621 20.9424 64.0621 20.7241C64.0621 20.463 63.9745 20.2893 63.8868 20.1153L63.8858 20.1133C63.8355 20.0259 63.7959 19.9671 63.761 19.9204L63.6141 19.738C63.5792 19.6913 63.5397 19.6325 63.4893 19.5451C63.4306 19.4432 63.3964 19.3656 63.3704 19.2976L63.3004 19.1084C63.2744 19.0453 63.2402 18.9774 63.1815 18.89C63.0494 18.6716 62.8731 18.5405 62.785 18.4968C62.5209 18.3658 62.3013 18.3219 62.2132 18.3219ZM6.60434 16.7933L4.53533 21.4235H8.58564L6.60434 16.7933ZM77.3524 15.0953L77.2269 15.0906C76.8306 15.0906 76.5666 15.3523 76.3025 15.6143L76.2109 15.7304L76.0382 15.9888L75.937 16.1304L75.7863 16.3229L75.6859 16.4444C75.6418 16.5026 75.5978 16.5559 75.5506 16.6108L74.757 17.5243L74.5852 17.7111L74.2583 18.0309L73.5835 18.6491C73.2892 18.92 73.2148 19.0456 73.1757 19.2398L73.1709 19.3593C73.171 19.482 73.1908 19.6759 73.3081 19.8506L73.616 20.1568L73.7006 20.1728C73.8205 20.1812 73.9687 20.1392 74.1449 20.0689C74.4279 19.9441 74.6212 19.7748 74.7887 19.6086L74.9816 19.4138L75.6483 18.6883L75.7736 18.5403C75.8149 18.4939 75.8537 18.4499 75.8904 18.4081L76.0847 18.1832L76.3455 17.8659L76.4907 17.6776L76.5864 17.561L77.447 16.7062L77.6216 16.4932C77.6933 16.4041 77.7459 16.3308 77.7987 16.226L77.8463 16.1421C77.9028 16.0231 77.9312 15.8761 77.9312 15.7014C77.9312 15.614 77.8871 15.3958 77.711 15.2211C77.5936 15.1338 77.4567 15.1049 77.3524 15.0953Z" fill="#191E30"/>
</svg>
