<svg width="32" height="32" viewBox="0 0 32 32" xmlns="http://www.w3.org/2000/svg" xmlns:xlink="http://www.w3.org/1999/xlink">
    <defs>
        <path id="624y0oaeqa" d="M0 0h29.185v6.573H0z"/>
    </defs>
    <g fill="none" fill-rule="evenodd">
        <path d="M0 0h32v32H0z"/>
        <path d="M26.92 16.004a7.03 7.03 0 0 1-1.64-.192c-.532-.127-.947-.266-1.224-.425-.17-.096-.287-.203-.33-.298a.765.765 0 0 1-.064-.298v-.543c0-.224.085-.33.245-.33.064 0 .128.011.192.032.063.021.16.064.266.106.362.16.755.288 1.17.373.426.085.841.128 1.267.128.67 0 1.192-.117 1.554-.352.362-.234.553-.574.553-1.011 0-.298-.096-.543-.287-.745-.192-.202-.554-.383-1.075-.553l-1.543-.479c-.777-.245-1.352-.607-1.703-1.086a2.534 2.534 0 0 1-.532-1.543c0-.447.095-.841.287-1.181a2.74 2.74 0 0 1 .766-.873c.32-.245.682-.426 1.107-.553A4.632 4.632 0 0 1 27.27 6c.234 0 .48.01.713.042.245.032.47.075.692.117.213.054.415.107.607.171.191.063.34.127.447.191.15.085.255.17.32.266a.572.572 0 0 1 .095.351v.501c0 .223-.085.34-.245.34-.085 0-.223-.042-.404-.127-.607-.277-1.288-.416-2.044-.416-.606 0-1.085.096-1.415.298-.33.203-.5.511-.5.948 0 .298.106.553.32.755.212.203.605.405 1.17.586l1.511.479c.766.244 1.32.585 1.65 1.021.33.437.49.937.49 1.49 0 .458-.097.873-.278 1.235a2.847 2.847 0 0 1-.777.936c-.33.267-.723.458-1.18.597a5.06 5.06 0 0 1-1.523.223zm-13.677-.287c-.192 0-.319-.032-.405-.107-.085-.064-.159-.213-.223-.415l-2.5-8.227c-.065-.213-.097-.351-.097-.426 0-.17.085-.266.256-.266h1.043c.202 0 .34.032.415.107.085.064.15.213.212.415l1.788 7.045 1.661-7.045c.053-.213.117-.351.202-.415s.234-.107.426-.107h.851c.202 0 .341.032.426.107.085.064.16.213.202.415l1.682 7.131 1.841-7.131c.064-.213.138-.351.213-.415.085-.064.223-.107.415-.107h.99c.17 0 .266.086.266.266 0 .054-.01.107-.022.171-.01.064-.032.149-.074.266l-2.565 8.227c-.064.213-.138.351-.224.415-.085.064-.223.106-.404.106h-.915c-.203 0-.34-.032-.426-.106-.085-.075-.16-.213-.202-.426l-1.65-6.865-1.639 6.854c-.053.213-.117.352-.202.426-.085.075-.234.107-.426.107h-.915zm-8.546-1.15c.351 0 .713-.064 1.096-.191a2.368 2.368 0 0 0 1.011-.682 1.69 1.69 0 0 0 .362-.681c.064-.255.106-.564.106-.926v-.447a9.06 9.06 0 0 0-.979-.181 8.112 8.112 0 0 0-1-.063c-.713 0-1.235.138-1.586.425-.35.288-.522.692-.522 1.224 0 .5.128.873.394 1.128.256.267.628.394 1.118.394zm4.321-1.618c0 .394.042.714.117.948.085.234.191.489.34.766.054.085.075.17.075.245 0 .106-.064.213-.202.319l-.67.447a.509.509 0 0 1-.278.096c-.106 0-.212-.053-.319-.149a3.294 3.294 0 0 1-.383-.5 8.541 8.541 0 0 1-.33-.628c-.83.979-1.873 1.468-3.129 1.468-.894 0-1.607-.255-2.129-.766-.52-.511-.787-1.192-.787-2.043 0-.905.32-1.639.968-2.193.65-.553 1.512-.83 2.608-.83.362 0 .734.032 1.128.085.394.053.798.139 1.224.234v-.777c0-.808-.17-1.372-.5-1.702-.34-.33-.916-.49-1.735-.49a4.87 4.87 0 0 0-1.149.138 8.532 8.532 0 0 0-1.15.362c-.17.075-.298.117-.372.139a.67.67 0 0 1-.17.032c-.15 0-.224-.107-.224-.33v-.522c0-.17.021-.298.074-.372a.804.804 0 0 1 .298-.224c.373-.191.82-.351 1.341-.479a6.473 6.473 0 0 1 1.661-.202c1.266 0 2.192.287 2.788.862.585.575.883 1.447.883 2.618v3.448h.022z" fill="#252F3E"/>
        <g transform="translate(0 18.563)">
            <mask id="fxw65ctl1b" fill="#fff">
                <use xlink:href="#624y0oaeqa"/>
            </mask>
            <path d="M28.93 2.614C25.43 5.2 20.343 6.573 15.969 6.573 9.838 6.573 4.314 4.306.142.539-.188.24.11-.164.504.069 5.016 2.689 10.583 4.275 16.34 4.275c3.885 0 8.153-.81 12.08-2.47.586-.265 1.086.384.51.81" fill="#F90" mask="url(#fxw65ctl1b)"/>
        </g>
        <path d="M30.389 19.516c-.447-.575-2.96-.277-4.098-.138-.34.042-.393-.256-.085-.479 2-1.405 5.29-1 5.673-.532.383.478-.106 3.767-1.98 5.342-.287.245-.564.117-.436-.202.426-1.054 1.373-3.427.926-3.99" fill="#F90"/>
    </g>
</svg>
