<?xml version="1.0" encoding="utf-8"?>
<!-- Generator: Adobe Illustrator 27.5.0, SVG Export Plug-In . SVG Version: 6.00 Build 0)  -->
<svg width="80" height="40" version="1.1" id="Layer_1" xmlns="http://www.w3.org/2000/svg" xmlns:xlink="http://www.w3.org/1999/xlink" x="0px" y="0px"
	 viewBox="0 0 80 40" style="enable-background:new 0 0 80 40;" xml:space="preserve">
<style type="text/css">
	.st0{fill:#191E30;}
</style>
<path class="st0" d="M8.9,18.9h3.2c-0.1-0.8-0.7-1.3-1.4-1.3C9.9,17.7,9.2,18.1,8.9,18.9 M11,23.8c-2.2,0-3.8-1.6-3.8-3.8
	c0-2.2,1.5-3.8,3.6-3.8c2.2,0,3.1,1.7,3.1,3.4c0,0.2,0,0.5,0,0.5l0,0.3h-5c0.1,1.1,1,1.9,2.1,1.9c1,0,1.6-0.6,1.7-0.7l0.3-0.3
	l0.8,1.3l-0.2,0.2C13.7,22.8,12.6,23.8,11,23.8 M1.6,17.7h1.7c0.7,0,1.2-0.5,1.2-1.2s-0.4-1.2-1.2-1.2H1.6V17.7L1.6,17.7z M1.6,22.1
	h1.9c0.9,0,1.4-0.5,1.4-1.4c0-0.9-0.6-1.4-1.4-1.4H1.6V22.1L1.6,22.1z M1.3,23.6H0v-9.9h0.2l0.1,0h3.2c1.7,0,2.9,1.1,2.9,2.7
	c0,0.8-0.3,1.5-0.8,1.9c0.7,0.5,1.2,1.3,1.2,2.3c0,1.8-1.2,2.9-3.1,2.9H1.3L1.3,23.6z M63.7,23.6h-1.1c-0.8,0-1.2-0.4-1.2-1.2v-5.6
	l1.6-0.9v6.2h0.6L63.7,23.6L63.7,23.6z M62.3,15.6c-0.5,0-1-0.4-1-1s0.4-1,1-1c0.5,0,1,0.4,1,1S62.8,15.6,62.3,15.6 M29.6,23.6h-1.1
	c-0.8,0-1.2-0.4-1.2-1.2v-5.6L29,16v6.2h0.6L29.6,23.6z M28.2,15.6c-0.5,0-1-0.4-1-1s0.4-1,1-1s1,0.4,1,1S28.7,15.6,28.2,15.6
	 M24.1,23.6h-1.6v-7.3h1.6v1.1c0.4-0.7,1-1.2,1.7-1.2c0.2,0,0.4,0,0.4,0.1l0.3,0.1V18l-0.4-0.1c0,0-0.1,0-0.3,0
	c-0.7,0-1.3,0.5-1.5,1.4c-0.1,0.4-0.2,0.7-0.2,1.2L24.1,23.6L24.1,23.6z M71.7,23.6h-1.1c-0.8,0-1.2-0.4-1.2-1.2v-3.1
	c0-1.2-0.2-1.6-1-1.6c-0.9,0-1.8,0.7-2,1.6c-0.1,0.2-0.1,0.5-0.1,0.8v3.5h-1.6v-7.3l0.4,0h1.3v0.9c0.4-0.5,1.2-1,2.2-1
	c1.7,0,2.6,1,2.6,2.9v3h0.6L71.7,23.6z M37.7,23.6h-1.1c-0.8,0-1.2-0.4-1.2-1.2v-3.1c0-1.2-0.2-1.6-1-1.6c-0.9,0-1.8,0.7-2,1.6
	c-0.1,0.2-0.1,0.5-0.1,0.8v3.5h-1.6v-7.3l0.4,0h1.3v0.9c0.4-0.5,1.2-1,2.2-1c1.7,0,2.6,1,2.6,2.9v3h0.6L37.7,23.6L37.7,23.6
	L37.7,23.6z M41.4,17.7c-1.1,0-1.6,0.7-1.6,2.1c0,1.3,0.7,2.2,1.8,2.2c1,0,1.6-0.7,1.6-2.2C43.1,18.4,42.6,17.7,41.4,17.7
	 M41.2,26.4c-0.8,0-1.6-0.2-2.3-0.6l-0.3-0.2l0.7-1.4l0.4,0.2c0,0,0.7,0.4,1.6,0.4c1.2,0,1.9-0.6,1.9-1.7v-0.1
	c-0.4,0.3-1,0.5-1.7,0.5c-1.9,0-3.3-1.5-3.3-3.7c0-2.2,1.3-3.7,3.2-3.7c0.9,0,1.4,0.3,1.8,0.7v-0.5h1.6l0,6.8
	C44.7,25.5,42.9,26.4,41.2,26.4 M75.5,23.7c-0.8,0-2.7-0.3-2.7-2.8v-3H72v-1.5h0.9v-1.2l1.6-0.9v2.2h1.6v1.5h-1.6v3
	c0,0.9,0.4,1.4,1.1,1.4c0.1,0,0.2,0,0.2,0l0.5-0.1v1.6l-0.3,0.1C75.9,23.7,75.7,23.7,75.5,23.7 M56.8,17.7c-1.2,0-2.2,1-2.2,2.2
	c0,1.3,1,2.3,2.2,2.3c1.2,0,2.2-1,2.2-2.3C59,18.7,58,17.7,56.8,17.7 M56.8,23.8c-2.2,0-3.8-1.7-3.8-3.8c0-2.1,1.7-3.8,3.8-3.8
	c2.2,0,3.8,1.7,3.8,3.8C60.6,22.1,59,23.8,56.8,23.8 M48,18.5h1.6c1,0,1.6-0.6,1.6-1.6c0-1-0.6-1.6-1.6-1.6H48V18.5L48,18.5z
	 M48,23.6h-1.7v-9.9h3.4c1.9,0,3.2,1.3,3.2,3.1c0,1.9-1.3,3.2-3.2,3.2H48V23.6L48,23.6z M19.1,20.2c-2,0-2.9,0.4-2.9,1.2
	c0,0.5,0.4,0.9,1.2,0.9C18.5,22.4,19.1,21.6,19.1,20.2L19.1,20.2z M17.3,23.8c-1.3,0-2.6-0.8-2.6-2.3c0-2.6,3.3-2.6,4.4-2.6
	c-0.1-0.8-0.4-1.1-1.2-1.1c-0.9,0-1.6,0.5-1.6,0.5l-0.3,0.3L15,17.3l0.2-0.2c0,0,1-0.8,2.6-0.8c1.8,0,2.8,1,2.8,2.9v3h0.8v1.5h-1.2
	c-0.6,0-0.9-0.3-1.1-0.7C18.8,23.4,18.1,23.8,17.3,23.8 M79.1,22.2c-0.1,0-0.1-0.1-0.3-0.1h-0.2v0.5h0.2c0.1,0,0.2,0,0.2,0
	c0.1,0,0.1-0.1,0.1-0.2C79.2,22.3,79.1,22.2,79.1,22.2 M78.8,22c0.2,0,0.3,0,0.4,0.1c0.1,0.1,0.2,0.2,0.2,0.3c0,0.1,0,0.2-0.1,0.2
	c-0.1,0-0.1,0.1-0.2,0.1c0.1,0,0.2,0.1,0.2,0.1c0.1,0.1,0.1,0.1,0.1,0.2v0.2c0,0,0,0.1,0,0.1l0,0h-0.2v0l0,0v-0.1
	c0-0.1,0-0.2-0.1-0.3c-0.1,0-0.1,0-0.2,0h-0.2v0.5h-0.2v-1.3L78.8,22L78.8,22L78.8,22z M78.1,22c-0.2,0.2-0.3,0.4-0.3,0.7
	s0.1,0.5,0.3,0.7c0.2,0.2,0.4,0.3,0.7,0.3c0.3,0,0.5-0.1,0.7-0.3c0.2-0.2,0.3-0.4,0.3-0.7s-0.1-0.5-0.3-0.7
	c-0.2-0.2-0.4-0.3-0.7-0.3C78.6,21.7,78.4,21.8,78.1,22 M79.7,23.5c-0.2,0.2-0.5,0.3-0.8,0.3c-0.3,0-0.6-0.1-0.8-0.3
	c-0.2-0.2-0.3-0.5-0.3-0.8c0-0.3,0.1-0.6,0.3-0.8c0.2-0.2,0.5-0.3,0.8-0.3c0.3,0,0.6,0.1,0.8,0.3c0.2,0.2,0.3,0.5,0.3,0.8
	C80,23,79.9,23.3,79.7,23.5"/>
</svg>
