<svg width="80" height="40" viewBox="0 0 80 40" xmlns="http://www.w3.org/2000/svg">
    <g fill="none" fill-rule="evenodd">
        <path d="M0 0h80v40H0z"/>
        <path d="M8.542 11c4.713 0 8.542 3.829 8.542 8.542 0 4.713-3.83 8.542-8.542 8.542-4.713 0-8.542-3.83-8.542-8.542C0 14.829 3.829 11 8.542 11zm0 .856c-4.243 0-7.686 3.453-7.686 7.686 0 4.234 3.443 7.686 7.686 7.686s7.686-3.452 7.686-7.686c0-4.233-3.443-7.686-7.686-7.686zm2.944 2.183a.19.19 0 0 1 .104.028c1.928 1.176 3.104 3.217 3.104 5.475a6.368 6.368 0 0 1-3.086 5.475.197.197 0 0 1-.272-.066l-.021-.051-.008-.052v-2.672a.168.168 0 0 0-.115-.16l-.054-.009H5.964c-.075.007-.138.05-.16.116l-.009.053v2.672a.193.193 0 0 1-.198.197.185.185 0 0 1-.103-.028 6.368 6.368 0 0 1-3.086-5.475 6.392 6.392 0 0 1 3.067-5.475.2.2 0 0 1 .273.066l.021.052.007.051v2.672c.008.075.051.138.116.16l.053.009h5.174a.168.168 0 0 0 .16-.115l.01-.054v-2.672c0-.112.084-.197.197-.197zm.771 1.825v.038l.02.291c.018.176.029.356.034.537l.003.272v5.08c0 .182-.004.364-.015.543l-.05.586.206-.254a5.498 5.498 0 0 0 .16-6.63l-.16-.209-.198-.254zm-7.43 0-.03.028-.178.226a5.499 5.499 0 0 0-.153 6.636l.153.203.207.254-.029-.32c-.012-.182-.024-.364-.031-.545l-.006-.273v-5.071c0-.182.004-.364.015-.543l.051-.595zm6.292 2.229H5.945a.169.169 0 0 0-.16.116l-.009.054v2.559c.008.075.051.138.116.16l.053.009h5.174a.168.168 0 0 0 .16-.115l.01-.054v-2.559a.17.17 0 0 0-.116-.161l-.054-.009zm28.157 5.165c-1.693 0-2.785-1.458-2.785-3.716 0-2.248 1.092-3.697 2.785-3.697 1.703 0 2.803 1.449 2.803 3.697 0 2.18-1.026 3.614-2.63 3.71l-.173.006zm0-10.301c-3.452 0-5.767 2.643-5.767 6.585s2.315 6.585 5.767 6.585c3.452 0 5.767-2.643 5.767-6.585s-2.315-6.585-5.767-6.585zm23.998 10.301c-1.42 0-2.954-1.185-2.954-3.791 0-2.38 1.44-3.622 2.86-3.622 1.035 0 1.759.433 2.333 1.392l2.427-1.608c-1.242-1.825-2.72-2.653-4.78-2.653-4.035 0-5.841 3.264-5.841 6.491 0 3.923 2.39 6.66 5.805 6.66 2.54 0 3.697-.931 4.91-2.653l-2.446-1.646c-.545.884-1.138 1.43-2.314 1.43zm13.547-9.981v4.591a.084.084 0 0 1-.085.084h-3.857a.084.084 0 0 1-.085-.084v-4.591h-3.161v12.549h3.16v-4.929c0-.047.039-.085.086-.085h3.857c.047 0 .085.038.085.085v4.929H80V13.277h-3.18zm-24.231 5.12-.37-.085-.8-.169-.315-.074c-.828-.208-1.528-.518-1.528-1.255 0-.875.818-1.27 1.627-1.27.95 0 1.89.423 2.606 1.157l1.863-1.844c-.8-.884-2.22-1.9-4.516-1.9-2.765 0-4.628 1.571-4.628 3.913 0 2.395 1.823 3.344 3.424 3.718l.823.178.409.094c1.16.283 1.713.58 1.713 1.354 0 .809-.725 1.345-1.797 1.345-1.261 0-2.38-.555-3.227-1.599l-1.91 1.872c1.017 1.204 2.362 2.295 5.175 2.295 2.399 0 4.835-1.392 4.835-4.064-.008-2.322-1.35-3.121-3.021-3.575l-.363-.092zm-25.337 4.955H24.92a.084.084 0 0 1-.084-.085v-2.502c0-.047.037-.085.084-.085h2.277c1.119 0 1.759.48 1.759 1.327 0 .875-.592 1.345-1.703 1.345zm-2.417-7.507c0-.047.037-.085.084-.085h2.333c.772 0 1.299.518 1.299 1.289 0 .602-.471 1.251-1.355 1.251H24.92a.083.083 0 0 1-.084-.084v-2.371zm5.385 3.639-.25-.092c-.046-.019-.102-.038-.102-.094 0-.038.018-.066.056-.085l.13-.055.126-.063c.474-.25 1.437-.937 1.437-2.413 0-2.135-1.44-3.405-3.866-3.405h-5.88v12.549h6.416c1.872 0 3.885-1.326 3.885-3.462 0-1.663-1.024-2.446-1.76-2.795l-.192-.085z" fill="#191E30"/>
    </g>
</svg>
