<?xml version="1.0" encoding="UTF-8"?>
<svg width="32px" height="32px" viewBox="0 0 32 32" version="1.1" xmlns="http://www.w3.org/2000/svg" xmlns:xlink="http://www.w3.org/1999/xlink">
    <title>logo / business analyst</title>
    <g id="logo-/-business-analyst" stroke="none" stroke-width="1" fill="none" fill-rule="evenodd">
        <path d="M18.2138885,15.9645723 C19.4439813,15.9645723 20.4369478,16.9368562 20.4369478,18.1413272 L20.4369478,29.8232451 C20.4369478,31.0277162 19.4439813,32 18.2138885,32 L13.7825905,32 C12.5524977,32 11.5595313,31.0277162 11.5595313,29.8232451 L11.5595313,18.1413272 C11.5595313,16.9368562 12.5524977,15.9645723 13.7825905,15.9645723 L18.2138885,15.9645723 Z M28.7660096,11.4586897 C29.9961024,11.4586897 30.9890688,12.4309736 30.9890688,13.6354446 L30.9890688,29.8232451 C30.9890688,31.0277162 29.9961024,32 28.7660096,32 L24.3347116,32 C23.1046188,32 22.1116524,31.0277162 22.1116524,29.8232451 L22.1116524,13.6354446 C22.1116524,12.4309736 23.112029,11.4586897 24.3347116,11.4586897 L28.7660096,11.4586897 Z M7.65435726,20.3761289 C8.88445002,20.3761289 9.87741647,21.3484128 9.87741647,22.5528838 L9.87741647,29.8232451 C9.87741647,31.0277162 8.88445002,32 7.65435726,32 L3.22305922,32 C1.99296645,32 1,31.0277162 1,29.8232451 L1,22.5528838 C1,21.3484128 1.99296645,20.3761289 3.22305922,20.3761289 L7.65435726,20.3761289 Z M25.3573188,0.103285061 C26.7652563,0.567659437 28.1880142,0.995754565 29.6107721,1.44561724 C29.7737965,1.49640819 29.944231,1.53994329 30.0998452,1.60524593 C30.7889935,1.88822407 31.144683,2.55576223 30.9446077,3.25957965 C30.5592774,4.60916768 30.1591267,5.95149986 29.7367455,7.28657619 C29.4699784,8.13551059 28.6326261,8.54183817 27.802684,8.27337174 C26.9727419,8.0049053 26.565181,7.19950599 26.8319481,6.35782744 C26.9208705,6.06759345 27.017203,5.78461532 27.1431764,5.42182283 C26.9653317,5.50889303 26.8393583,5.55968398 26.7207951,5.62498662 C19.0438306,9.54314542 11.3742763,13.4613042 3.69731185,17.3722072 C2.84513915,17.8075581 1.98555625,17.5971385 1.51871382,16.8425301 C1.03705099,16.0661542 1.2741773,15.2317315 2.11893981,14.7963805 C3.57874869,14.0417722 5.04596778,13.3016755 6.50577666,12.5615789 C12.5821385,9.47058692 18.6510902,6.37959498 24.727452,3.29585889 C24.8311948,3.2233004 24.9349376,3.1652536 25.1201925,3.07092756 C24.8163744,2.96934566 24.5866583,2.89678717 24.3569422,2.81697282 C23.5566409,2.52673884 23.2083616,1.71408368 23.5195899,0.872405121 C23.8011774,0.110540911 24.5273767,-0.172437224 25.3573188,0.103285061 Z" id="Combined-Shape" fill="#191E30" fill-rule="nonzero"></path>
    </g>
</svg>