<svg width="28" height="32" viewBox="0 0 28 32" fill="none" xmlns="http://www.w3.org/2000/svg">
<path d="M26.9941 24C27.2033 23.6135 27.3333 23.178 27.3333 22.787V9.21291C27.3333 8.82186 27.2035 8.38649 26.9942 8L14 16L26.9941 24Z" fill="#00599C"/>
<path d="M15.1546 31.7067L26.1786 24.9197C26.4961 24.7242 26.7848 24.3866 26.994 24L13.9999 16L1.00586 24.0001C1.2151 24.3866 1.50381 24.7243 1.82128 24.9197L12.8452 31.7067C13.4803 32.0977 14.5196 32.0977 15.1546 31.7067Z" fill="#004482"/>
<path d="M26.9935 7.99998C26.7842 7.61339 26.4955 7.27578 26.178 7.08026L15.154 0.293284C14.519 -0.0977613 13.4797 -0.0977613 12.8447 0.293284L1.8207 7.08026C1.18558 7.47121 0.666016 8.43098 0.666016 9.21298V22.787C0.666016 23.1781 0.79595 23.6135 1.00527 24L13.9993 16L26.9935 7.99998Z" fill="#659AD2"/>
<path d="M14.0002 25.479C9.09887 25.479 5.11133 21.2268 5.11133 16.0002C5.11133 10.7736 9.09887 6.52148 14.0002 6.52148C17.1629 6.52148 20.1125 8.33639 21.6979 11.2579L17.851 13.6317C17.0576 12.1693 15.5819 11.2609 14.0002 11.2609C11.5495 11.2609 9.55577 13.3869 9.55577 16.0002C9.55577 18.6135 11.5495 20.7396 14.0002 20.7396C15.5821 20.7396 17.0577 19.8311 17.8513 18.3685L21.6982 20.7422C20.1128 23.664 17.1631 25.479 14.0002 25.479Z" fill="white"/>
<path d="M22.8887 15.4731H21.901V14.4199H20.9135V15.4731H19.9258V16.5263H20.9135V17.5795H21.901V16.5263H22.8887V15.4731Z" fill="white"/>
<path d="M26.5919 15.4731H25.6042V14.4199H24.6166V15.4731H23.6289V16.5263H24.6166V17.5795H25.6042V16.5263H26.5919V15.4731Z" fill="white"/>
</svg>
