<svg width="32" height="32" viewBox="0 0 32 32" xmlns="http://www.w3.org/2000/svg" xmlns:xlink="http://www.w3.org/1999/xlink">
    <defs>
        <path id="refuelbcla" d="M0 0h28.471v32H0z"/>
        <path id="r033b4x50c" d="M0 0h27.807v16.043H0z"/>
    </defs>
    <g fill="none" fill-rule="evenodd">
        <path d="M0 0h32v32H0z"/>
        <g transform="translate(1.75)">
            <mask id="wul5zherrb" fill="#fff">
                <use xlink:href="#refuelbcla"/>
            </mask>
            <path d="M28.47 9.408c0-.538-.115-1.014-.348-1.422-.229-.401-.571-.737-1.03-1.003-3.791-2.186-7.585-4.365-11.374-6.552-1.021-.59-2.012-.569-3.026.03-1.508.889-9.062 5.217-11.313 6.521C.452 7.518.001 8.34.001 9.407L0 22.593c0 .526.11.992.332 1.394.229.414.576.759 1.046 1.031 2.251 1.304 9.805 5.631 11.314 6.521 1.014.599 2.005.62 3.027.03 3.789-2.188 7.583-4.367 11.374-6.552.47-.272.817-.618 1.046-1.031.222-.402.332-.868.332-1.394L28.47 9.408" fill="#8E39A4" mask="url(#wul5zherrb)"/>
        </g>
        <g transform="translate(2.083 15.957)">
            <mask id="eq24uqc6sd" fill="#fff">
                <use xlink:href="#r033b4x50c"/>
            </mask>
            <path d="M13.947 0 0 8.03c.229.414.576.759 1.046 1.031 2.251 1.304 9.805 5.631 11.314 6.521 1.014.599 2.005.62 3.027.03 3.789-2.188 7.583-4.367 11.374-6.552.47-.272.817-.618 1.046-1.031L13.947 0z" fill="#631E74" mask="url(#eq24uqc6sd)"/>
        </g>
        <path d="M30.22 9.408c0-.538-.115-1.014-.348-1.422L16.03 15.957l13.86 8.029c.222-.402.332-.868.332-1.394V9.408" fill="#7C2A91"/>
        <path d="M24.241 16.708h1.501v-1.501h-1.501v1.501zm0-3.753v1.501h1.501v-1.501h.75v1.501h1.501v.751h-1.501v1.501h1.501v.75h-1.501v1.501h-.75v-1.501h-1.501v1.501h-.751v-1.501h-1.501v-.75h1.501v-1.501h-1.501v-.751h1.501v-1.501h.751z" fill="#FFF"/>
        <path d="M16.06 5.417c3.915 0 7.333 2.126 9.164 5.287l-.018-.031-4.606 2.652a5.267 5.267 0 0 0-4.48-2.594l-.06-.001a5.27 5.27 0 0 0 0 10.54 5.267 5.267 0 0 0 4.592-2.686l-.022.038 4.6 2.665a10.579 10.579 0 0 1-9.052 5.295h-.118A10.578 10.578 0 0 1 5.477 16c0-5.845 4.738-10.583 10.583-10.583" fill="#FFF"/>
    </g>
</svg>
