<svg width="80" height="40" viewBox="0 0 80 40" xmlns="http://www.w3.org/2000/svg">
    <g fill="none" fill-rule="evenodd">
        <path d="M0 0h80v40H0z"/>
        <path d="M67.69 27.433a3.192 3.192 0 0 0-3.162-3.213c-1.751-.022-3.212 1.405-3.226 3.151-.014 1.763 1.398 3.216 3.145 3.236a3.197 3.197 0 0 0 3.243-3.174zm-3.191 5.368a5.334 5.334 0 0 1-5.338-5.35c.012-2.957 2.459-5.378 5.435-5.377 2.843.002 5.242 2.498 5.239 5.452-.003 2.89-2.417 5.276-5.336 5.275zm15.5-.331h-2.136v-5.86c0-.706-.207-1.336-.701-1.855-.695-.73-1.557-.878-2.495-.653-.95.227-1.523.865-1.776 1.787-.083.305-.122.63-.124.946l-.007 2.688.002 2.942h-2.118V22.359h2.118v.934l.403-.298c.13-.096.26-.186.397-.263 1.52-.861 3.067-.938 4.579-.016 1.053.642 1.593 1.655 1.775 2.857.058.386.078.782.079 1.173L80 29.485l-.001 2.985zM9.44 19.192l.051.053.117.13-.973.905c-.344-.27-.677-.602-1.072-.822-1.47-.817-2.989-.93-4.489-.1-.955.53-1.401 1.635-1.167 2.669.098.432.34.772.686 1.047.637.506 1.363.819 2.125 1.065l.287.09c.775.234 1.545.486 2.304.769.689.256 1.274.688 1.774 1.227.484.522.742 1.15.808 1.85.128 1.338-.242 2.502-1.244 3.432-.627.582-1.372.934-2.204 1.097-1.586.31-3.114.142-4.554-.62-.707-.372-1.312-.882-1.84-1.482-.022-.024-.039-.052-.05-.067l.972-.98.391.451c.067.074.136.145.208.213.919.86 2.037 1.225 3.275 1.264.758.024 1.502-.06 2.199-.39 1.3-.616 1.71-1.925 1.425-3.062-.107-.428-.372-.76-.722-1.024a6.252 6.252 0 0 0-1.893-.96l-1.397-.445c-.464-.152-.926-.31-1.382-.483-.855-.325-1.587-.866-2.078-1.648-.77-1.228-.687-2.505-.008-3.733.644-1.167 1.702-1.825 2.986-2.072 2.09-.402 3.925.14 5.465 1.626zm6.749 2.875c2.818.07 5.314 2.6 5.195 5.56-.11 2.728-2.503 5.152-5.35 5.12-2.853.024-5.386-2.473-5.328-5.443.055-2.79 2.505-5.31 5.483-5.237zm10.346-4.614v1.31l-.412-.01c-.069.002-.136.005-.203.014-.665.088-1.134.579-1.258 1.313a4.487 4.487 0 0 0-.043.696c-.006.5 0 1 0 1.498l.015.061h1.894v1.305h-1.905v8.83H23.31v-8.822h-1.922v-1.294h1.917l.005-1.27c.002-.339.009-.678.034-1.017.095-1.314.998-2.323 2.26-2.578.104-.02.21-.032.317-.035l.2-.003.416.002zm-10.458 5.934a4.022 4.022 0 0 0-4.055 4.035 4.011 4.011 0 0 0 4.015 4.01 4.006 4.006 0 0 0 4.033-4.029c-.001-2.207-1.8-4.016-3.993-4.016zM17.91 9.88l.044.026.043.025v-.418h1.428l.01.209v4.977a2.765 2.765 0 0 1-3.275 2.71c-.983-.18-1.723-.697-2.257-1.573l1.225-.71c.538.727 1.203 1.123 2.102.758.61-.248.85-.842.757-1.692-.018.004-.04.002-.05.012-.85.884-2.112.759-2.982.097-.822-.624-1.097-1.49-1.036-2.485.047-.757.325-1.41.93-1.895.824-.664 2.163-.81 3.061-.041zM7.78 8.962l-1.2.69c-.942-1.486-2.765-1.594-3.846-.618-1.13 1.019-1.14 2.703-.028 3.73 1.083 1.002 2.933.9 3.877-.594l1.185.686c-.561 1.14-2.135 2.222-3.978 1.926-1.853-.297-3.203-1.816-3.3-3.697C.398 9.262 1.61 7.607 3.4 7.13c1.785-.475 3.589.39 4.38 1.83zm2.962.413c1.555-.002 2.765 1.19 2.765 2.726a2.726 2.726 0 0 1-2.711 2.729 2.717 2.717 0 0 1-2.742-2.735c-.002-1.5 1.201-2.718 2.688-2.72zm12.862.117c.72.231 1.084.781 1.21 1.501.033.189.041.384.042.577l.002 3.105h-1.48v-3.027a1.806 1.806 0 0 0-.035-.336c-.092-.459-.34-.688-.79-.737-.435-.048-.814.146-.965.549-.086.231-.126.49-.13.738l-.008.86.002 1.949h-1.459v-5.16h1.426v.526l.147-.128c.592-.568 1.292-.656 2.038-.417zm3.215.029v5.154H25.42V9.521h1.399zm-10.125 1.248a1.32 1.32 0 0 0-1.313 1.307c-.004.744.583 1.35 1.31 1.355a1.346 1.346 0 0 0 1.336-1.333 1.324 1.324 0 0 0-1.333-1.33zm-5.91 0a1.33 1.33 0 0 0-1.328 1.318 1.328 1.328 0 0 0 1.32 1.344c.709.002 1.319-.585 1.326-1.276.008-.777-.569-1.384-1.319-1.385zm16.04-3.085v1.408h-1.408V7.684h1.408zm21.018 23.475-.16-.196 1.393-1.39c.31.453.775.732 1.273.962.725.334 1.472.414 2.227.122.508-.197.772-.671.719-1.21-.027-.267-.146-.498-.376-.628a7.316 7.316 0 0 0-.984-.467c-.793-.303-1.611-.546-2.39-.882-1.03-.444-1.613-1.578-1.434-2.69.216-1.333 1.08-2.132 2.3-2.497 1.604-.478 3.094-.177 4.379.947l.162.127.073.054-1.423 1.424a2.773 2.773 0 0 0-1.497-.783c-.497-.095-.98-.052-1.418.236-.586.385-.626 1.138-.05 1.532.28.19.604.339.929.44l.83.26c.551.18 1.096.377 1.618.635 1 .495 1.529 1.54 1.422 2.655-.14 1.476-1.335 2.506-2.554 2.782-1.877.425-3.548.025-4.95-1.337l-.09-.096zm-5.275-8.816h1.38l-.848 2.077c-1.067 2.621-2.134 5.242-3.196 7.866-.059.146-.125.202-.287.2a52.997 52.997 0 0 0-1.738-.002c-.144.002-.208-.047-.26-.179l-3.989-9.81-.056-.153h.241c.6 0 1.2.007 1.8-.005.162-.003.228.054.285.2l1.396 3.497 1.415 3.533.045.103.148-.358 2.716-6.788c.055-.139.122-.188.274-.186l.674.005zm-13.038-3.588h1.32v3.583h1.915v1.306H30.86l-.01.226-.002 3.705c.001.617.004 1.234.009 1.852.002.286.065.587.172.85.236.587.696.89 1.335.902h.395v1.29c-1.047.086-1.944-.193-2.598-1.063-.445-.592-.621-1.274-.623-2.004l-.002-2.749v-3.008h-1.913v-1.297h1.906v-3.593zm15.213 13.713h2.128V22.353h-2.128v10.115zm11.5-.002h2.118V22.353h-2.118v10.113zM36.374 12.099a1.334 1.334 0 0 0-1.337-1.33 1.312 1.312 0 0 0-1.314 1.302c-.009.741.581 1.354 1.306 1.36a1.36 1.36 0 0 0 1.345-1.332zm-.034-2.172v-.422h1.421v5.166h-1.426v-.53c-.299.308-.61.52-.986.61-.893.212-1.662-.054-2.308-.669-1.001-.955-1.071-2.802-.178-3.854.796-.938 2.414-1.215 3.407-.327l.011.007.059.02zm6.849 4.748h-1.462v-.216c0-.893.004-1.785-.003-2.678a2.389 2.389 0 0 0-.065-.553c-.1-.402-.34-.6-.758-.65-.402-.05-.74.112-.932.442-.16.274-.188.58-.19.886l-.001 2.768h-1.444V9.512h1.41v.544l.162-.15c.742-.73 2.037-.713 2.754.04.31.327.45.732.509 1.168.015.112.019.226.019.34v3.221zm-13.804-1.212h2.647v1.211h-4.657c0-.393-.004-.784.004-1.174 0-.036.032-.075.064-.11l2.495-2.506.124-.131h-2.673V9.518h4.657c0 .398.006.796-.006 1.193 0 .028-.02.058-.046.086l-2.486 2.484c-.046.047-.107.079-.161.118l.038.064zm15.068-3.964V7.68h1.432v1.81h.986v1.242h-.93l-.038.04c-.004.004-.005.007-.005.01l-.002.94c0 .312.005.625.026.936.029.453.207.577.663.595h.286v1.409c-1.199.135-2.233-.414-2.373-1.826-.045-.456-.042-.916-.043-1.376l-.004-.538v-.176h-.962V9.499h.965zm11.85 11.369h2.125v-2.11h-2.125v2.11zm-11.515.001h2.109v-2.114h-2.109v2.114z" fill="#191E30"/>
    </g>
</svg>
