<svg width="80" height="40" viewBox="0 0 80 40" fill="none" xmlns="http://www.w3.org/2000/svg">
<path fill-rule="evenodd" clip-rule="evenodd" d="M11.5287 12.2339V11L12.5832 12.1275L13.425 13.0437L14.0473 13.7357L14.4152 14.1559C14.4717 14.2215 14.5256 14.2847 14.5764 14.3448V15.2084C13.6818 14.2082 11.8267 13.3711 10.1022 13.3711C6.1987 13.3711 3.74774 16.4838 3.74774 20.336C3.74774 24.1743 6.06902 27.2869 10.1022 27.2869C12.1121 27.2869 13.7201 26.2854 14.6149 25.2576V26.0792C13.3957 27.8485 11.1655 29 8.39057 29C3.42355 29 0 25.1892 0 20.336C0 15.4825 3.79958 11.685 8.39057 11.685C9.55795 11.685 10.6081 11.8907 11.5287 12.2339ZM10.4134 15.3183C13.1624 15.3183 14.7705 17.5666 14.7705 20.336C14.7705 23.1055 13.1624 25.3534 10.4134 25.3534C7.66389 25.3534 6.05596 23.1055 6.05596 20.336C6.05596 17.5666 7.66389 15.3183 10.4134 15.3183ZM52.1574 20.0748C52.1574 17.4982 51.1596 15.5788 48.5529 15.5788C45.9331 15.5788 44.5973 17.7041 44.5973 20.3497C44.5973 22.9956 45.9331 25.0791 48.5529 25.0791C50.2386 25.0791 51.3022 24.2431 51.9243 22.9272L51.4706 22.4746L51.3768 22.5832C50.9856 23.0091 50.4019 23.3241 49.5644 23.3241C49.5079 23.3241 49.4491 23.3217 49.3888 23.3165L49.2036 23.2921C48.4484 23.1571 47.5466 22.5546 47.5024 20.7336H52.1316L52.1412 20.5844L52.1553 20.2242L52.1574 20.0748ZM71.013 15.5788C73.1145 15.5788 74.3592 16.8949 74.3592 18.8964V24.0508H75.2407V24.9148H71.7398V23.8172H71.7003C71.1951 24.5723 70.5204 25.0791 69.4831 25.0791C68.0694 25.0791 67.1873 23.8037 67.1873 22.282C67.1873 20.4459 68.42 19.2797 70.3909 19.2797C70.6384 19.2797 70.8501 19.298 71.0247 19.3233L71.2586 19.3652C71.2929 19.3726 71.3248 19.38 71.3543 19.3874L71.5548 19.4468L71.6224 19.4729V18.8964C71.6224 17.7859 70.9746 17.1963 70.0278 17.1963C69.0817 17.1963 68.4672 17.7543 68.1989 18.0644L68.0996 18.1869L68.0436 18.2662L67.5642 17.6493C68.4326 16.2233 69.7678 15.5788 71.013 15.5788ZM28.3486 15.757V13.2896H27.8427L27.2044 13.8451L26.5226 14.4261L24.678 15.9763V16.593H25.599V22.845C25.599 24.3247 26.3901 25.0242 27.739 25.0242C28.3881 25.0242 28.8363 24.9159 29.1042 24.821L29.2563 24.7612L29.3564 24.7133L29.4119 24.6817V23.8458L29.3202 23.8761L29.18 23.9112C29.0987 23.928 29.0033 23.9414 28.9062 23.9414C28.6336 23.9414 28.3486 23.8316 28.3486 23.366V16.593H29.4119V15.757H28.3486ZM65.5798 13.2896V15.757H66.643V16.593H65.5798V23.366C65.5798 23.8316 65.8647 23.9414 66.1373 23.9414C66.2344 23.9414 66.3298 23.928 66.4111 23.9112L66.5513 23.8761L66.643 23.8458V24.6817L66.5439 24.7353L66.418 24.7901C66.1646 24.8905 65.6914 25.0242 64.9701 25.0242C63.6212 25.0242 62.8301 24.3247 62.8301 22.845V16.593H61.9091V15.9763L63.7537 14.4261C64.2174 14.0339 64.6683 13.6478 65.0738 13.2896H65.5798ZM23.5243 17.4839C23.2779 16.4011 22.4998 15.5788 21.2289 15.5788C20.0227 15.5788 19.2706 16.3875 18.9462 17.155H18.9076V15.757H15.4969V16.593H16.3011V24.0508H15.4969V24.9148H19.8281V24.0508H19.0371V18.6359C19.0371 17.8136 19.3094 17.1691 19.9839 17.1691C20.6581 17.1691 20.9045 17.8136 20.9045 18.6359V24.9148H24.678V24.0508H23.6408L23.6391 18.7927C23.6321 18.4144 23.602 17.8484 23.5243 17.4839ZM33.7369 15.757V24.0508H34.5411V24.9148H30.2094V24.0508H31.0009V16.593H30.2094V15.757H33.7369ZM43.2622 17.4839C43.0158 16.4011 42.2378 15.5788 40.9669 15.5788C39.7607 15.5788 39.0086 16.3875 38.6841 17.155H38.6456V15.757H35.2349V16.593H36.0391V24.0508H35.2349V24.9148H39.5661V24.0508H38.775V18.6359C38.775 17.8136 39.0473 17.1691 39.7219 17.1691C40.396 17.1691 40.6425 17.8136 40.6425 18.6359V24.9148H44.416V24.0508H43.3788L43.3771 18.7927C43.3701 18.4144 43.34 17.8484 43.2622 17.4839ZM58.4602 15.5788C59.7311 15.5788 60.5092 16.4011 60.7556 17.4839C60.8462 17.9091 60.8721 18.6087 60.8721 18.9644V24.0508H61.9093V24.9148H58.1358V18.6359C58.1358 17.8136 57.8894 17.1691 57.2152 17.1691C56.5407 17.1691 56.2684 17.8136 56.2684 18.6359V24.0508H57.0594V24.9148H52.7282V24.0508H53.5324V16.593H52.7282V15.757H56.1389V17.155H56.1775C56.5019 16.3875 57.254 15.5788 58.4602 15.5788ZM78.9369 24.0508V12.371H75.2539V13.2069H76.2001V24.9148H80V24.0508H78.9369ZM10.4134 16.2777C9.73451 16.2777 9.42884 16.9878 9.32082 18.5519L9.29613 18.9997L9.28046 19.4906L9.27299 20.025V20.5926L9.28046 21.1269L9.29613 21.6176L9.32082 22.0653C9.42884 23.6289 9.73451 24.3385 10.4134 24.3385C11.0615 24.3385 11.3693 23.6919 11.4898 22.2733L11.5192 21.8468L11.5393 21.3777C11.5419 21.2959 11.5441 21.2123 11.546 21.1269L11.5535 20.5926V20.025L11.546 19.4906L11.5304 18.9997C11.527 18.9215 11.5233 18.8451 11.5192 18.7705L11.4898 18.3439C11.3693 16.9247 11.0615 16.2777 10.4134 16.2777ZM70.0278 21.9128C70.0278 21.0356 70.2094 20.1854 71.0262 20.1854C71.3761 20.1854 71.5451 20.2946 71.6224 20.3768V23.201C71.5188 23.3241 71.3114 23.4752 70.9746 23.4752C70.2741 23.4752 70.0278 22.7763 70.0278 21.9128ZM48.4618 16.5245C47.9144 16.5245 47.6623 16.9724 47.561 18.0786L47.5338 18.45L47.5157 18.8667L47.5055 19.3302L47.5024 19.8418H49.4344L49.421 19.1106L49.4053 18.6804L49.3828 18.2943L49.3525 17.9508C49.2428 16.9287 48.9986 16.5245 48.4618 16.5245ZM30.7153 13.3299C30.7153 11.5321 34.0615 11.5321 34.0615 13.3299C34.0615 15.1278 30.7153 15.1278 30.7153 13.3299Z" fill="#191E30"/>
</svg>
