<svg width="28" height="32" viewBox="0 0 28 32" fill="none" xmlns="http://www.w3.org/2000/svg">
<path d="M27.3327 0L24.9033 28.7967L13.983 32L3.09284 28.8012L0.666016 0H27.3327Z" fill="#264DE4"/>
<path d="M22.8241 26.9635L24.9002 2.35547H14V29.552L22.8241 26.9635Z" fill="#2965F1"/>
<path d="M6.22852 13.0371L6.52772 16.5694H13.9984V13.0371H6.22852Z" fill="#EBEBEB"/>
<path d="M14 5.88672H13.9885H5.62891L5.93238 9.4191H14V5.88672Z" fill="#EBEBEB"/>
<path d="M13.9992 25.8864V22.2113L13.9846 22.2154L10.2666 21.1531L10.029 18.3359H8.2223H6.67773L7.14544 23.8822L13.9839 25.8909L13.9992 25.8864Z" fill="#EBEBEB"/>
<path d="M18.0991 16.5686L17.7116 21.1498L13.9883 22.2131V25.8881L20.8322 23.8811L20.8824 23.2843L21.6669 13.9848L21.7483 13.0363L22.351 5.88672H13.9883V9.4191H18.6924L18.3886 13.0363H13.9883V16.5686H18.0991Z" fill="white"/>
</svg>
