<svg width="32" height="32" viewBox="0 0 32 32" xmlns="http://www.w3.org/2000/svg" xmlns:xlink="http://www.w3.org/1999/xlink">
    <defs>
        <path id="6dq4mpugta" d="M0 0h31.978v26.847H0z"/>
        <path id="tlkisbjrfc" d="M0 26.847h32V0H0z"/>
    </defs>
    <g fill="none" fill-rule="evenodd">
        <path d="M0 0h32v32H0z"/>
        <g transform="translate(0 2.5)">
            <g transform="translate(.022)">
                <mask id="xmp6w8b91b" fill="#fff">
                    <use xlink:href="#6dq4mpugta"/>
                </mask>
                <path d="M18.437 5.723h2.862V8.65h1.447a6.26 6.26 0 0 0 1.988-.334c.311-.105.66-.252.967-.437-.404-.527-.61-1.193-.671-1.849-.083-.893.098-2.056.702-2.755l.301-.347.358.288c.903.725 1.662 1.738 1.796 2.893 1.086-.32 2.362-.244 3.32.31l.393.226-.207.403c-.81 1.581-2.504 2.071-4.159 1.985-2.478 6.171-7.872 9.093-14.413 9.093-3.379 0-6.479-1.264-8.245-4.262l-.029-.049-.257-.523c-.597-1.32-.795-2.765-.661-4.21l.041-.432h2.447V5.723h2.862V2.861h5.724V0h3.434v5.724zm5.234 19.434c.719-.617 1.439-1.235 2.157-1.854.245-.212.514-.43.758-.654-.196-.246-.522-.423-.799-.529-.559-.213-1.111-.142-1.624.155-.671.387-.957 1.005-.932 1.773a1.7 1.7 0 0 0 .252.852c.056.09.119.176.188.257zm.833.585c.353.123.755.106 1.117.042.185-.078.659-.285.833-.255l.027.005.025.012a.553.553 0 0 1 .263.233c.126.254.066.51-.184.653l-.083.048c-.92.531-1.898.457-2.815-.039a2.607 2.607 0 0 1-1.021-1.017l-.058-.1c-.591-1.024-.511-2.099.155-3.072.23-.336.53-.596.882-.799l.133-.077c.866-.5 1.794-.465 2.684-.027.479.236.866.588 1.133 1.051l.048.083c.194.337-.057.63-.316.83-.302.232-.606.512-.894.761-.644.555-1.286 1.112-1.929 1.668zm6.893-4.653h.096c.291 0 .485.196.485.485 0 .402-.384.505-.716.505-.436 0-.851.263-1.152.56-.374.368-.538.841-.538 1.36v2.348c0 .27-.168.485-.447.485h-.076c-.279 0-.447-.215-.447-.485v-2.482c0-.954.464-1.732 1.238-2.278a2.667 2.667 0 0 1 1.557-.498zm-12.088 1.666c.377-.377.755-.753 1.137-1.124.107-.104.51-.542.669-.542h.174l.02.004c.221.046.387.186.387.424v.096c0 .162-.19.351-.295.462-.223.236-.457.464-.686.695l-1.171 1.19c.504.506 1.008 1.012 1.509 1.521.138.141.276.282.413.425.048.051.119.114.159.184.044.066.071.14.071.22v.1l-.006.023c-.054.221-.195.4-.44.4h-.077c-.161 0-.342-.182-.452-.286-.226-.213-.445-.438-.667-.656l-.745-.73v1.167c0 .27-.168.486-.446.486h-.077c-.278 0-.446-.217-.446-.486v-6.582c0-.27.168-.485.446-.485h.077c.278 0 .446.215.446.485v3.01zm-3.145-.656c-.147-.069-.421-.092-.579-.098-.81-.03-1.397.426-1.74 1.141a1.767 1.767 0 0 0-.173.78c0 .831.436 1.412 1.177 1.767.271.13.621.154.917.154.26 0 .628-.16.859-.269l.04-.019h.179l.02.004c.221.046.387.185.387.423v.096c0 .59-1.079.725-1.491.754-1.453.101-2.54-.697-2.954-2.083a2.514 2.514 0 0 1-.104-.73v-.193c0-1.05.522-1.884 1.424-2.42a2.653 2.653 0 0 1 1.37-.374h.192c.517 0 .993.146 1.42.438l.035.024.022.037a.508.508 0 0 1 .086.255v.096c0 .248-.185.381-.409.424l-.018.003h-.057c-.145 0-.474-.15-.603-.21zm-8.843 1.843c0 .737.361 1.28.984 1.661.292.18.614.26.956.26.728 0 1.267-.37 1.641-.984.179-.294.26-.616.26-.957 0-.685-.33-1.209-.895-1.588a1.796 1.796 0 0 0-1.026-.313c-.812 0-1.397.411-1.748 1.14a1.784 1.784 0 0 0-.172.781zm1.824-2.89h.135c1.123 0 1.978.544 2.52 1.525.216.392.332.82.332 1.27v.191c0 1.051-.518 1.89-1.425 2.421-.42.246-.883.373-1.37.373h-.192c-1.051 0-1.887-.519-2.42-1.424a2.653 2.653 0 0 1-.374-1.37v-.192c0-1.052.522-1.885 1.424-2.42.419-.25.883-.375 1.37-.375zM.97 23.941c0 .76.368 1.33 1.033 1.694.269.148.561.227.868.227.746 0 1.299-.352 1.68-.984.177-.294.26-.615.26-.957 0-.658-.312-1.172-.842-1.554a1.813 1.813 0 0 0-1.079-.347c-.812 0-1.397.411-1.748 1.14a1.784 1.784 0 0 0-.172.781zm3.841-2.167v-2.048c0-.269.168-.485.447-.485h.077c.278 0 .446.216.446.485v4.311c0 1.051-.519 1.888-1.425 2.421a2.67 2.67 0 0 1-1.369.373h-.193c-1.051 0-1.887-.519-2.421-1.424A2.662 2.662 0 0 1 0 24.038v-.192c0-1.052.52-1.888 1.424-2.422a2.664 2.664 0 0 1 1.37-.373h.193c.711 0 1.315.276 1.824.724z" fill="#364548" mask="url(#xmp6w8b91b)"/>
            </g>
            <path d="M27.73 6.806c.193-1.491-.923-2.663-1.615-3.22-.798.923-.922 3.34.33 4.358-.7.62-2.17 1.182-3.677 1.182H4.427c-.147 1.573.13 3.02.76 4.26l.209.383c.132.224.276.44.432.649.754.048 1.45.065 2.086.05 1.25-.027 2.27-.175 3.043-.442a.22.22 0 0 1 .144.416c-.103.036-.21.069-.321.1a9.625 9.625 0 0 1-2.103.343c.05 0-.053.008-.053.008-.028.002-.064.006-.093.007a18.8 18.8 0 0 1-1.055.023c-.4 0-.794-.008-1.234-.03l-.012.007c1.529 1.718 3.918 2.748 6.913 2.748 6.339 0 11.716-2.81 14.097-9.118 1.689.173 3.312-.258 4.05-1.7-1.175-.678-2.688-.462-3.56-.024" fill="#22A0C8"/>
            <path d="M27.73 6.806c.193-1.491-.923-2.663-1.615-3.22-.798.923-.922 3.34.33 4.358-.7.62-2.17 1.182-3.677 1.182H5.513c-.075 2.409.819 4.237 2.4 5.343 1.25-.028 2.27-.176 3.044-.443a.22.22 0 0 1 .144.416c-.103.036-.21.069-.321.1-.61.174-1.317.306-2.16.358l-.02-.02c2.157 1.107 5.285 1.103 8.872-.274 4.02-1.545 7.763-4.488 10.374-7.855-.04.018-.078.036-.115.055" fill="#37B1D9"/>
            <path d="M4.461 11.037a7.32 7.32 0 0 0 .726 2.35l.21.382c.131.224.275.44.431.648a24.13 24.13 0 0 0 2.086.052c1.25-.028 2.27-.176 3.042-.444a.22.22 0 0 1 .145.417c-.103.036-.21.069-.32.1a10.12 10.12 0 0 1-2.157.35c-.029.003-.079.003-.109.005-.33.018-.685.029-1.05.029-.4 0-.809-.007-1.25-.03 1.528 1.718 3.933 2.752 6.928 2.752 5.427 0 10.148-2.06 12.888-6.611H4.461z" fill="#1B81A5"/>
            <path d="M5.678 11.037c.324 1.479 1.104 2.64 2.236 3.432 1.25-.028 2.27-.176 3.043-.444a.221.221 0 0 1 .276.145.223.223 0 0 1-.132.272c-.103.036-.21.069-.321.1-.609.174-1.329.299-2.171.35 2.157 1.107 5.276 1.09 8.862-.286 2.17-.834 4.258-2.075 6.131-3.57H5.678z" fill="#1D91B4"/>
            <mask id="p4vzevxvod" fill="#fff">
                <use xlink:href="#tlkisbjrfc"/>
            </mask>
            <path d="M11.856 5.612h.196V3.545h-.196v2.067zm-.376 0h.204V3.545h-.204v2.067zm-.376 0h.204V3.545h-.204v2.067zm-.376 0h.204V3.545h-.204v2.067zm-.375-2.067h.203v2.067h-.203V3.545zm-.368 2.067h.196V3.545h-.196v2.067zm-.207-2.274h2.48v2.481h-2.48V3.338zm-.784 5.136h.196V6.407h-.196v2.067zm-.376-2.067h.204v2.067h-.204V6.407zm-.376 2.067h.204V6.407h-.204v2.067zm-.376 0h.204V6.407h-.204v2.067zm-.375-2.067h.203v2.067h-.203V6.407zm-.368 2.067h.196V6.407h-.196v2.067zm-.207.206h2.48V6.2h-2.48v2.48z" fill="#23A3C2" mask="url(#p4vzevxvod)"/>
            <path d="M11.856 8.474h.196V6.407h-.196v2.067zm-.376 0h.204V6.407h-.204v2.067zm-.376 0h.204V6.407h-.204v2.067zm-.376 0h.204V6.407h-.204v2.067zm-.375-2.067h.203v2.067h-.203V6.407zm-.368 2.067h.196V6.407h-.196v2.067zM9.778 6.2h2.48v2.481h-2.48V6.2z" fill="#34BBDE" mask="url(#p4vzevxvod)"/>
            <path d="M14.718 8.474h.196V6.407h-.196v2.067zm-.376 0h.204V6.407h-.204v2.067zm-.376 0h.204V6.407h-.204v2.067zm-.376 0h.204V6.407h-.204v2.067zm-.375 0h.204V6.407h-.204v2.067zm-.368 0h.196V6.407h-.196v2.067zm-.207.206h2.48V6.2h-2.48v2.48z" fill="#23A3C2" mask="url(#p4vzevxvod)"/>
            <path d="M17.58 8.474h.196V6.407h-.196v2.067zm-.376 0h.204V6.407h-.204v2.067zm-.376 0h.204V6.407h-.204v2.067zm-.376 0h.204V6.407h-.204v2.067zm-.376 0h.204V6.407h-.204v2.067zm-.367 0h.196V6.407h-.196v2.067zm-.207.206h2.48V6.2h-2.48v2.48zm-.784-3.068h.196V3.545h-.196v2.067zm-.376 0h.204V3.545h-.204v2.067zm-.376 0h.204V3.545h-.204v2.067zm-.376 0h.204V3.545h-.204v2.067zm-.375 0h.204V3.545h-.204v2.067zm-.368 0h.196V3.545h-.196v2.067zm-.207.206h2.48v-2.48h-2.48v2.48z" fill="#34BBDE" mask="url(#p4vzevxvod)"/>
            <path d="M17.58 5.612h.196V3.545h-.196v2.067zm-.376 0h.204V3.545h-.204v2.067zm-.376 0h.204V3.545h-.204v2.067zm-.376 0h.204V3.545h-.204v2.067zm-.376 0h.204V3.545h-.204v2.067zm-.367 0h.196V3.545h-.196v2.067zm-.207.206h2.48v-2.48h-2.48v2.48z" fill="#23A3C2" mask="url(#p4vzevxvod)"/>
            <path d="M17.58.683h.196V2.75h-.196V.683zm-.376 0h.204V2.75h-.204V.683zm-.376 0h.204V2.75h-.204V.683zm-.376 0h.204V2.75h-.204V.683zm-.375 0h.203V2.75h-.203V.683zm-.368 0h.195V2.75h-.195V.683zm-.207 2.274h2.48V.477h-2.48v2.48z" fill="#34BBDE" mask="url(#p4vzevxvod)"/>
            <path d="M20.441 8.474h.196V6.407h-.196v2.067zm-.375 0h.204V6.407h-.204v2.067zm-.376 0h.204V6.407h-.204v2.067zm-.376 0h.204V6.407h-.204v2.067zm-.376-2.067h.204v2.067h-.204V6.407zm-.368 0h.196v2.067h-.196V6.407zm-.206 2.273h2.48V6.2h-2.48v2.48z" fill="#23A3C2" mask="url(#p4vzevxvod)"/>
            <path d="M12.103 12.702a.684.684 0 1 1 .018 1.369h-.018a.685.685 0 0 1 0-1.369" fill="#D3ECEC" mask="url(#p4vzevxvod)"/>
            <path d="M0 11.284h31.831c-.693-.176-2.193-.413-1.946-1.322-1.26 1.459-4.299 1.023-5.066.304-.854 1.239-5.827.768-6.174-.197-1.071 1.257-4.389 1.257-5.459 0-.347.965-5.32 1.436-6.174.197-.767.719-3.806 1.155-5.066-.304.247.909-1.253 1.146-1.946 1.322m12.103 1.612c.063 0 .122.012.177.033a.2.2 0 0 0 .1.373.2.2 0 0 0 .176-.104.49.49 0 1 1-.453-.302" fill="#364548" mask="url(#p4vzevxvod)"/>
            <path d="M13.922 17.633c-1.695-.804-2.625-1.897-3.142-3.091-.63.18-1.386.295-2.266.344a18.27 18.27 0 0 1-1.045.028c-.421 0-.865-.012-1.332-.037 1.554 1.553 3.466 2.749 7.006 2.77.261 0 .521-.004.779-.014" fill="#BDD9D7" mask="url(#p4vzevxvod)"/>
            <path d="M11.41 15.643a5.943 5.943 0 0 1-.63-1.1c-.63.178-1.386.293-2.266.343.604.328 1.468.631 2.895.757" fill="#D3ECEC" mask="url(#p4vzevxvod)"/>
        </g>
    </g>
</svg>
