<?xml version="1.0" encoding="utf-8"?>
<!-- Generator: Adobe Illustrator 27.5.0, SVG Export Plug-In . SVG Version: 6.00 Build 0)  -->
<svg width="80" height="40" version="1.1" id="Layer_2_00000116230520859800250440000003164978322931187604_"
	 xmlns="http://www.w3.org/2000/svg" xmlns:xlink="http://www.w3.org/1999/xlink" x="0px" y="0px" viewBox="0 0 80 40"
	 style="enable-background:new 0 0 80 40;" xml:space="preserve">
<style type="text/css">
	.st0{fill:#191E30;}
</style>
<g id="Layer_3">
	<path class="st0" d="M9.5,25.8c-1.6,0-3-1.3-3-3l0,0v-2.1c0-0.2-0.1-0.7-0.5-1c-0.3-0.3-0.9-0.4-1-0.5H3c-1.6,0-3-1.3-3-3
		c0,0,0,0,0,0c0,0,0,0,0,0c0-1.6,1.3-3,3-3H5l0,0c0,0,0.7-0.1,1.1-0.5c0.4-0.4,0.4-0.9,0.5-1V9.7l0,0c0-1.6,1.3-3,3-3l0,0
		c1.4,0,2.6,1,2.9,2.4c0,0.2,0.1,0.4,0.1,0.6l0,0v2.1c0,0.1,0.1,0.7,0.5,1c0.4,0.4,1.1,0.5,1.1,0.5s0,0,0,0H16c1.6,0,3,1.3,3,3
		s-1.3,3-3,3c-1.6,0-3-1.3-3-3l0,0v-2.2c0-0.2-0.1-0.7-0.5-1c-0.3-0.3-0.9-0.4-1-0.5H7.4c0,0-0.7,0.1-1.1,0.5
		c-0.3,0.3-0.4,0.8-0.5,1v2.1l0,0v0l0,0v2.1c0,0.1,0.1,0.7,0.5,1c0.4,0.4,1.1,0.5,1.1,0.5s0,0,0,0h2.1c1.6,0,3,1.3,3,3
		C12.5,24.5,11.1,25.8,9.5,25.8L9.5,25.8z M13,9.7c0,1.6,1.3,3,3,3h2.1l0,0c0,0,0.6,0,1.1,0.5c0.4,0.4,0.4,0.9,0.5,1v2.1l0,0v0l0,0
		v2.2c0,0.2-0.1,0.6-0.5,1c-0.4,0.4-1.1,0.5-1.1,0.5h-4.2c-0.2,0-0.7-0.1-1-0.5c-0.3-0.3-0.4-0.8-0.5-1v-2.1l0,0c0-1.6-1.3-3-3-3
		s-3,1.3-3,3c0,1.6,1.3,3,3,3h2.1l0,0c0,0,0.6,0,1.1,0.5c0.3,0.3,0.4,0.9,0.5,1v2.1l0,0v0c0,0.2,0,0.4,0.1,0.6
		c0.3,1.3,1.5,2.4,2.9,2.4l0,0c1.6,0,3-1.3,3-3l0,0v-2.1c0-0.1,0.1-0.7,0.5-1c0.4-0.4,1.1-0.5,1.1-0.5l0,0h2.1c1.6,0,3-1.3,3-3v0
		c0-1.6-1.3-3-3-3h-2.1c-0.1,0-0.7-0.1-1-0.5c-0.3-0.3-0.4-0.8-0.5-1V9.7l0,0c0-1.6-1.3-3-3-3S13,8.1,13,9.7L13,9.7z"/>
	<path class="st0" d="M30.4,28.4h-7c0.2,2.1,1.4,2.9,2.7,2.9c0.9,0,1.6-0.3,2.3-0.9l1.2,1.3c-0.9,0.9-2.1,1.4-3.7,1.4
		c-2.5,0-4.6-2-4.6-5.5s1.9-5.6,4.7-5.6c3,0,4.5,2.5,4.5,5.3C30.5,27.8,30.5,28.2,30.4,28.4z M25.9,24c-1.4,0-2.3,1-2.4,2.7h5
		C28.3,25.2,27.6,24,25.9,24z"/>
	<path class="st0" d="M38.2,33v-6c0-2.2-0.8-2.9-2.2-2.9s-2.2,1-2.2,2.7V33h-2.1V22.3h2.1v1c0.5-0.8,1.6-1.2,2.7-1.2
		c2.5,0,3.8,1.6,3.8,4.8V33L38.2,33L38.2,33z"/>
	<path class="st0" d="M48.4,33v-1c-0.8,0.7-1.7,1.2-2.8,1.2c-2.3,0-4.1-1.7-4.1-5.7c0-3.7,2-5.4,4.2-5.4c1.1,0,2.1,0.6,2.7,1.2v-4.1
		l2.1-1.1V33L48.4,33L48.4,33z M48.4,25.5c-0.5-0.6-1.4-1.4-2.5-1.4c-1.5,0-2.3,1.1-2.3,3.4c0,2.7,0.9,3.9,2.4,3.9
		c1,0,1.9-0.7,2.4-1.4V25.5L48.4,25.5z"/>
	<path class="st0" d="M67.4,33h-2.1l-3.8-10.7h2.2l1.9,5.8c0.3,1,0.6,2,0.8,2.6c0.1-0.6,0.4-1.6,0.7-2.6l1.8-5.8h2.2L67.4,33
		L67.4,33z"/>
	<path class="st0" d="M58.6,33v-1c-0.8,0.7-1.7,1.2-2.8,1.2c-2.3,0-4.1-1.7-4.1-5.7c0-3.7,2-5.4,4.2-5.4c1.1,0,2.1,0.6,2.7,1.2v-1
		h2.1V33L58.6,33L58.6,33z M58.6,25.5c-0.5-0.6-1.4-1.4-2.5-1.4c-1.5,0-2.3,1.1-2.3,3.4c0,2.7,0.9,3.9,2.4,3.9c1,0,1.9-0.7,2.4-1.4
		V25.5L58.6,25.5z"/>
	<path class="st0" d="M77.9,33v-1c-0.8,0.7-1.7,1.2-2.8,1.2c-2.3,0-4.1-1.7-4.1-5.7c0-3.7,2-5.4,4.2-5.4c1.1,0,2.1,0.6,2.7,1.2v-1
		H80V33L77.9,33L77.9,33z M78,25.5c-0.5-0.6-1.4-1.4-2.5-1.4c-1.5,0-2.3,1.1-2.3,3.4c0,2.7,0.9,3.9,2.4,3.9c1,0,1.9-0.7,2.4-1.4
		V25.5L78,25.5z"/>
</g>
</svg>
