<?xml version="1.0" encoding="utf-8"?>
<!-- Generator: Adobe Illustrator 27.5.0, SVG Export Plug-In . SVG Version: 6.00 Build 0)  -->
<svg width="80" height="40" version="1.1" id="Layer_1" xmlns="http://www.w3.org/2000/svg" xmlns:xlink="http://www.w3.org/1999/xlink" x="0px" y="0px"
	 viewBox="0 0 80 40" style="enable-background:new 0 0 80 40;" xml:space="preserve">
<style type="text/css">
	.st0{fill:#191E30;}
</style>
<path class="st0" d="M21,14.7c-0.1-0.1-0.1-0.1-0.2-0.1h-2.1c-0.1,0-0.2,0.1-0.2,0.1l-2.9,6.4l-3-6.4c-0.1-0.1-0.1-0.1-0.2-0.1h-2
	c-0.1,0-0.2,0.1-0.2,0.1c-0.1,0.1-0.1,0.1,0,0.2L15.1,25c0.1,0.2,0.2,0.3,0.5,0.3c0.2,0,0.4-0.1,0.5-0.3L21,14.9
	C21,14.9,21,14.8,21,14.7z"/>
<path class="st0" d="M38.9,14.8c-0.5-0.3-1.1-0.5-1.7-0.5c-0.4,0-0.8,0.1-1.3,0.2c-0.5,0.2-0.8,0.6-1.2,1l-0.1,0.1l-0.5-0.7
	c-0.1-0.1-0.2-0.3-0.4-0.3h-1.2c-0.1,0-0.2,0.1-0.2,0.2v9.9c0,0.2,0.2,0.4,0.5,0.5h1.4c0.2,0,0.4-0.2,0.5-0.5v-5.1
	c0-2.1,0.7-3.2,2.2-3.2c0.4,0,0.9,0.2,1.3,0.4c0.2,0.1,0.5,0.1,0.6-0.2c0,0,0,0,0-0.1l0.6-1.3C39.3,15.2,39.2,14.9,38.9,14.8
	C39,14.8,39,14.8,38.9,14.8z"/>
<path class="st0" d="M78.8,15.5c-0.7-0.8-1.8-1.2-2.8-1.1c-1.1,0-2.2,0.5-2.9,1.3L73,15.7l-0.5-0.8c-0.1-0.1-0.2-0.2-0.4-0.2h-1.2
	c-0.1,0-0.2,0.1-0.2,0.2v9.9c0,0.2,0.2,0.4,0.5,0.5h1.3c0.2,0,0.4-0.2,0.5-0.5v-4.8c-0.1-1,0.1-2,0.5-2.9c0.4-0.6,1.1-1,1.9-0.9
	c0.7-0.1,1.3,0.2,1.7,0.7c0.4,0.7,0.5,1.5,0.5,2.3v5.5c0,0.2,0.2,0.5,0.5,0.5h1.4c0.2,0,0.5-0.2,0.5-0.5v-6
	C79.7,17.2,79.4,16.1,78.8,15.5z"/>
<path class="st0" d="M44.7,19.5c-1-0.5-2-0.9-2.5-1.2c-0.4-0.2-0.5-0.7-0.5-1.1c0.1-0.6,0.6-1,1.2-0.9c0.7,0.1,1.3,0.4,1.7,1
	c0.1,0.2,0.4,0.2,0.6,0.1l0.9-0.6c0.2-0.1,0.3-0.3,0.1-0.7c-0.6-1.1-1.8-1.8-3.1-1.8c-2-0.1-3.3,1-3.5,2.7c-0.2,1.2,0.3,2.5,1.4,3
	c0.8,0.5,1.7,0.8,2.5,1.3c0.5,0.3,0.8,1,0.5,1.6l0,0c-0.2,0.5-0.8,0.7-1.3,0.7c-0.7-0.1-1.4-0.5-1.8-1.1c-0.1-0.2-0.4-0.2-0.6-0.1
	c-0.1,0.1-0.7,0.5-0.9,0.6c-0.2,0.1-0.2,0.4-0.1,0.6c0.7,1.2,2,2,3.5,2c2.2,0,3.6-1.2,3.7-3C46.8,21.3,46,20,44.7,19.5z"/>
<path class="st0" d="M27.4,19h-2c-0.5,0-0.8,0.1-0.8,0.9c0,0.8,0.4,0.9,0.9,0.9h2.2c2.5,0,3.3-0.5,3.2-2.2c-0.1-3.4-3-4.2-4.9-4.2
	s-5.5,1.2-5.1,6.4c0.3,3.5,2.6,4.9,5.2,4.9s4-1.6,4.3-2.3c0.1-0.2,0-0.5-0.2-0.6l-1-0.5c-0.2-0.1-0.5-0.1-0.6,0.1l0,0
	c-0.6,0.8-1.6,1.3-2.6,1.3c-0.7,0-2.6-0.2-2.8-3c-0.2-2.8,1.1-4.2,2.8-4.2s2.3,1,2.4,1.7C28.5,18.6,28.2,19,27.4,19z"/>
<path class="st0" d="M54.4,19h-2c-0.5,0-0.8,0.1-0.8,0.9c0,0.8,0.4,0.9,0.8,0.9h2.2c2.5,0,3.3-0.5,3.2-2.2c-0.1-3.4-3-4.2-4.9-4.2
	c-1.8,0-5.5,1.2-5.1,6.4c0.3,3.5,2.6,4.9,5.2,4.9s4-1.6,4.3-2.3c0.1-0.2,0-0.5-0.2-0.6l-0.8-0.5c-0.2-0.1-0.5-0.1-0.6,0.1l0,0
	c-0.6,0.8-1.6,1.3-2.6,1.3c-0.7,0-2.6-0.2-2.8-3c-0.2-2.8,1.1-4.2,2.8-4.2s2.3,1,2.4,1.7C55.4,18.6,55.2,19,54.4,19z"/>
<path class="st0" d="M65.8,19h-2c-0.5,0-0.8,0.1-0.8,0.9c0,0.8,0.4,0.9,0.8,0.9h2.2c2.5,0,3.3-0.5,3.2-2.2c-0.1-3.4-3-4.2-4.9-4.2
	c-1.8,0-5.5,1.2-5.1,6.4c0.3,3.5,2.6,4.9,5.2,4.9c2.6,0,4-1.6,4.3-2.3c0.1-0.2,0-0.5-0.2-0.6l-0.9-0.5c-0.2-0.1-0.5-0.1-0.6,0.1l0,0
	c-0.6,0.8-1.6,1.3-2.6,1.3c-0.7,0-2.6-0.2-2.8-3s1.1-4.2,2.8-4.2c1.7,0,2.3,1,2.4,1.7C66.8,18.6,66.6,19,65.8,19z"/>
<path class="st0" d="M6.8,19h-2c-0.5,0-0.8,0.1-0.8,0.9c0,0.8,0.4,0.9,0.8,0.9H7c2.5,0,3.3-0.5,3.2-2.2c-0.1-3.4-3-4.2-4.9-4.2
	s-5.5,1.2-5.1,6.4c0.3,3.5,2.6,4.8,5.2,4.8s4-1.6,4.3-2.3c0.1-0.2,0-0.5-0.2-0.6L8.7,22c-0.2-0.1-0.5-0.1-0.6,0.1l0,0
	c-0.6,0.8-1.6,1.3-2.6,1.3c-0.7,0-2.6-0.2-2.8-3s1.1-4.2,2.8-4.2s2.3,1,2.4,1.7C7.8,18.6,7.6,19,6.8,19z"/>
</svg>
