<svg width="32" height="32" viewBox="0 0 32 32" fill="none" xmlns="http://www.w3.org/2000/svg">
<path d="M20 2H9.333C8.5968 2 8 2.5968 8 3.333V9L20 16L26 18.532L32 16V9L20 2Z" fill="#21A366"/>
<path d="M8 9H20V16H8V9Z" fill="#107C41"/>
<path d="M30.667 2H20V9H32V3.333C32 2.5968 31.4032 2 30.667 2Z" fill="#33C481"/>
<path d="M20 16H8V28.667C8 29.4032 8.5968 30 9.333 30H30.667C31.4032 30 32 29.4032 32 28.667V23L20 16Z" fill="#185C37"/>
<path d="M20 16H32V23H20V16Z" fill="#107C41"/>
<path opacity="0.1" d="M16.667 7H8V26H16.667C17.4023 25.9978 17.9978 25.4023 18 24.667V8.333C17.9978 7.59772 17.4023 7.0022 16.667 7Z" fill="black"/>
<path opacity="0.2" d="M15.667 8H8V27H15.667C16.4023 26.9978 16.9978 26.4023 17 25.667V9.333C16.9978 8.59772 16.4023 8.0022 15.667 8Z" fill="black"/>
<path opacity="0.2" d="M15.667 8H8V25H15.667C16.4023 24.9978 16.9978 24.4023 17 23.667V9.333C16.9978 8.59772 16.4023 8.0022 15.667 8Z" fill="black"/>
<path opacity="0.2" d="M14.667 8H8V25H14.667C15.4023 24.9978 15.9978 24.4023 16 23.667V9.333C15.9978 8.59772 15.4023 8.0022 14.667 8Z" fill="black"/>
<path d="M1.333 8H14.667C15.4032 8 16 8.5968 16 9.333V22.667C16 23.4032 15.4032 24 14.667 24H1.333C0.596804 24 0 23.4032 0 22.667V9.333C0 8.5968 0.596804 8 1.333 8Z" fill="#107C41"/>
<path d="M3.5332 21L6.7692 15.986L3.8052 11H6.1902L7.8082 14.187C7.95687 14.489 8.0592 14.7143 8.1152 14.863H8.1362C8.24287 14.6217 8.35454 14.387 8.4712 14.159L10.2002 11H12.3892L9.3492 15.958L12.4662 21H10.1362L8.2672 17.5C8.17915 17.3509 8.10452 17.1943 8.0442 17.032H8.0162C7.96166 17.1907 7.88919 17.3427 7.8002 17.485L5.8772 21H3.5332Z" fill="white"/>
</svg>
