<svg width="80" height="40" viewBox="0 0 80 40" xmlns="http://www.w3.org/2000/svg">
    <g fill="none" fill-rule="evenodd">
        <path d="M0 0h80v40H0z"/>
        <path d="M54.96 16.289v1.702h-7.016c-.097 0-.204-.007-.288.03-.073.032-.17.12-.172.189l-.01.375.002.786 5.973.11v1.739h-.422l-4.31.069c-.35.006-.7.026-1.051.025-.155-.001-.197.062-.194.203.007.286.007.572.002.858-.004.19.096.265.27.27h7.213v1.719l-1.04.063c-.172.01-.345.017-.517.022l-1.947.04-3.447.06c-.25.003-.501.005-.751.005-1.107-.001-1.78-.683-1.781-1.796-.003-1.6-.003-3.201-.001-4.801.002-1.19.687-1.877 1.875-1.87 1.477.009 2.954.025 4.432.053.929.017 1.859.06 2.788.096l.122.011.27.042zm-40.705 6.37 1.614-.004v.008l1.162.01c.388.002.775 0 1.161-.02.566-.03.81-.24.892-.798.094-.641.131-1.297.122-1.945-.007-.483-.102-.97-.206-1.445-.073-.336-.346-.521-.687-.525-1.517-.02-3.034-.04-4.55-.024-.786.009-1.042.223-1.119.999-.048.475-.061.954-.065 1.433v.958c0 .249.062.502.128.744.101.368.356.594.742.6l.806.008zm1.585 1.91v-.016l-1.633.003c-.272 0-.544-.003-.816-.01a4.275 4.275 0 0 1-.89-.127c-.836-.198-1.382-.731-1.624-1.54a6.937 6.937 0 0 1-.282-1.461c-.082-1.1-.09-2.202.192-3.285.355-1.362 1.211-2.072 2.617-2.09 1.666-.022 3.333-.04 4.997.007 1.22.034 2.217.456 2.606 2.18a9.62 9.62 0 0 1 .005 4.18c-.24 1.109-.873 1.872-2.044 2.069-.36.06-.729.08-1.095.087l-.677.007-1.356-.003zm8.426-6.645v6.563l-.117.026a.288.288 0 0 1-.053.005l-1.617.003c-.14.002-.207-.033-.207-.19l.006-8.131.002-.026.019-.088h7.573c1.235 0 2 .609 2.244 1.82a4.787 4.787 0 0 1-.055 2.113c-.142.574-.454 1.026-1.03 1.283l1.535 3.19-.154.024a.484.484 0 0 1-.061.005c-.604.002-1.21-.006-1.813.003-.17.003-.243-.066-.306-.21l-1.133-2.605c-.06-.139-.131-.192-.285-.204l-1.024-.078-2.08-.168c0-.494-.005-.98.01-1.466.002-.037.15-.096.23-.096 1.053-.008 2.106-.005 3.159-.008.204 0 .408-.01.61-.03.235-.024.417-.144.433-.39.02-.316.025-.635-.01-.948-.034-.29-.167-.38-.463-.41l-.097-.004H24.56l-.294.017zm42.587-1.825h1.969c.005.102.013.204.013.308 0 .939.006 1.878-.004 2.817-.002.215.05.291.284.29a501.79 501.79 0 0 1 5.487.002c.244 0 .298-.081.295-.31l-.006-1.383.002-1.72h1.966v8.417l-1.299-.004c-.133 0-.266.004-.4.01-.195.008-.259-.053-.27-.208l.007-2.67c.002-.203-.043-.282-.27-.282-1.845.01-3.69.01-5.535.002-.208-.002-.262.067-.26.266l.005 1.261-.001 1.602h-1.983v-8.398zM65.21 22.63l.586.002.001 1.47c.001.134-.078.168-.16.183l-.727.104c-.21.027-.42.048-.632.055-1.753.06-3.506.119-5.259.147-1.442.024-2.384-.725-2.752-2.125-.278-1.057-.27-2.132-.203-3.211.04-.622.135-1.234.392-1.808.455-1.015 1.297-1.452 2.353-1.448 1.451.005 2.903.063 4.353.128a28.2 28.2 0 0 1 1.716.14l.571.062c.256.028.324.048.342.192l.006.132v1.375l-.447.002c-.071 0-.14 0-.21-.002-2.008-.047-4.014-.098-6.02-.14-.568-.012-.826.187-.956.744-.179.77-.169 1.557-.12 2.339.022.339.076.684.172 1.009.145.485.481.72.99.717l6.004-.067zM1.974 24.502H0L0 17.804a1.68 1.68 0 0 1 1.366-1.668c.15-.029.307-.05.46-.049 1.493.013 2.986.024 4.479.052l.929.025 1.857.072.129.012.268.044v1.698l-7.027.001c-.38 0-.469.032-.485.31l-.002.178c.002.23.007.458-.004.686-.008.164.058.206.214.208l1.443.022 4.234.073.11.015v1.755c-.47 0-.932-.005-1.394.001-1.118.013-2.235.031-3.353.05l-.685.021a8.05 8.05 0 0 1-.342.002c-.194-.004-.227.08-.226.248l.003 1.323v1.62zm42.3-8.176.16.015v1.729c-.001.13-.078.137-.157.133l-.077-.005-4.066.003c-.444 0-.55.07-.564.467l-.003 2.433.002 2.931c-.001.1-.004.201-.008.302-.003.064-.082.175-.128.177l-.604.007H37.6l-.012-.245a2.747 2.747 0 0 1-.002-.113l-.002-5.24c0-.099.002-.197-.008-.295-.034-.32-.148-.424-.474-.424-1.241-.002-2.482-.006-3.723.003-.208.002-.29-.046-.281-.268.017-.465.009-.931.003-1.396-.003-.15.03-.218.2-.218l10.974.004z" fill="#191E30"/>
    </g>
</svg>
