<svg width="32" height="32" viewBox="0 0 32 32" xmlns="http://www.w3.org/2000/svg" xmlns:xlink="http://www.w3.org/1999/xlink">
    <defs>
        <path id="9fs3ihyxna" d="M0 0h32v31.999H0z"/>
    </defs>
    <g fill="none" fill-rule="evenodd">
        <path d="M0 0h32v32H0z"/>
        <g>
            <mask id="ocua9prjkb" fill="#fff">
                <use xlink:href="#9fs3ihyxna"/>
            </mask>
            <path d="M31.397 14.574 17.425.603a2.062 2.062 0 0 0-2.914 0L11.61 3.505l3.68 3.68a2.448 2.448 0 0 1 3.099 3.12l3.547 3.547a2.45 2.45 0 0 1 2.533 4.049 2.452 2.452 0 0 1-4.002-2.667l-3.308-3.308v8.705a2.452 2.452 0 1 1-2.016-.071v-8.786a2.45 2.45 0 0 1-1.331-3.216L10.184 4.93l-9.58 9.579a2.061 2.061 0 0 0 0 2.915l13.972 13.971a2.06 2.06 0 0 0 2.914 0L31.397 17.49a2.061 2.061 0 0 0 0-2.915" fill="#F05133" mask="url(#ocua9prjkb)"/>
        </g>
    </g>
</svg>
