<svg width="28" height="32" viewBox="0 0 28 32" fill="none" xmlns="http://www.w3.org/2000/svg">
<path d="M3.09159 28.8109L0.666016 0H27.3327L24.9071 28.7953L13.9773 32" fill="#E44D26"/>
<path d="M14 29.5505V2.36523H24.9004L22.8203 26.9447" fill="#F16529"/>
<path fill-rule="evenodd" clip-rule="evenodd" d="M13.9984 5.88867H5.61914L6.53057 16.5605H13.9984V13.0369H9.58827L9.27956 9.42003H13.9984V5.88867ZM10.0293 18.334H6.67757L7.14799 23.8799L13.9984 25.9023V22.2154L10.2645 21.1575L10.0293 18.334Z" fill="#EBEBEB"/>
<path fill-rule="evenodd" clip-rule="evenodd" d="M13.9844 5.88867H22.3489L22.0402 9.42003H13.9844V5.88867ZM13.9844 13.0369H21.7389L20.8201 23.8799L13.9844 25.8867V22.2154L17.7109 21.1575L18.1005 16.5683H13.9844V13.0369Z" fill="white"/>
</svg>
