<svg width="32" height="32" viewBox="0 0 32 32" fill="none" xmlns="http://www.w3.org/2000/svg">
<path d="M5.66667 0H26.3333C29.4667 0 32 2.59829 32 5.81197V26.188C32 29.4017 29.4667 32 26.3333 32H5.66667C2.53333 32 0 29.4017 0 26.188V5.81197C0 2.59829 2.53333 0 5.66667 0Z" fill="#330000"/>
<path fill-rule="evenodd" clip-rule="evenodd" d="M10.5028 20.4203H15.3394L16.4056 23.7753C16.4316 23.874 16.5226 23.9445 16.6136 23.9304H19.331C19.461 23.9304 19.5 23.8599 19.461 23.7049L14.7153 9.18504C14.7023 9.11456 14.6503 9.07227 14.5463 9.07227H11.2179H11.1789C11.1139 9.08636 11.0619 9.15685 11.0749 9.22733C11.0749 9.53746 11.0488 9.8476 10.9968 10.1436C10.96 10.2635 10.9297 10.3763 10.9013 10.482C10.8896 10.5254 10.8782 10.5677 10.8668 10.6088L6.68026 23.6767C6.64125 23.8458 6.68026 23.9304 6.82328 23.9304H9.26761C9.38462 23.9445 9.48864 23.8599 9.51464 23.7331L10.5028 20.4203ZM14.5593 17.5586H11.2569C11.4519 16.9665 11.6469 16.304 11.829 15.585C11.9577 15.1487 12.0816 14.7123 12.2035 14.2826C12.2785 14.0183 12.3527 13.7564 12.427 13.4987C12.6091 12.8925 12.7521 12.2864 12.8691 11.6802H12.8951C12.9458 11.8688 12.9966 12.0661 13.0496 12.2723C13.0916 12.4359 13.1351 12.6051 13.1811 12.7798C13.2852 13.1886 13.4022 13.5974 13.5322 14.0344C13.5972 14.2529 13.659 14.4679 13.7207 14.6828C13.7825 14.8978 13.8442 15.1128 13.9092 15.3313C14.0263 15.7542 14.1433 16.163 14.2603 16.5436C14.3773 16.9102 14.4813 17.2626 14.5593 17.5586Z" fill="#FF9A00"/>
<path fill-rule="evenodd" clip-rule="evenodd" d="M21.2026 11.0449C21.5146 11.3692 21.9307 11.5524 22.3597 11.5383C22.8018 11.5665 23.2439 11.3833 23.5429 11.0449C23.8549 10.6925 24.011 10.2273 23.998 9.74802C24.011 9.28282 23.8549 8.83172 23.5689 8.49339C23.2829 8.16916 22.8928 8 22.3857 8C21.9567 8 21.5406 8.16916 21.2286 8.49339C20.9165 8.81762 20.7475 9.26872 20.7605 9.74802C20.7475 10.2273 20.9035 10.6925 21.2026 11.0449ZM20.9035 12.9198V23.7744C20.9035 23.9154 20.9685 24 21.0986 24H23.6469C23.7639 24 23.8159 23.9295 23.8159 23.7744V12.9198C23.8159 12.793 23.7639 12.7225 23.6469 12.7225H21.0726C20.9555 12.7225 20.9035 12.7789 20.9035 12.9198Z" fill="#FF9A00"/>
</svg>
