<svg width="32" height="32" viewBox="0 0 32 32" xmlns="http://www.w3.org/2000/svg" xmlns:xlink="http://www.w3.org/1999/xlink">
    <defs>
        <path id="7xk4ym2y5a" d="M0 0h32v32H0z"/>
    </defs>
    <g fill="none" fill-rule="evenodd">
        <path d="M0 0h32v32H0z"/>
        <g>
            <mask id="tii8n9pqbb" fill="#fff">
                <use xlink:href="#7xk4ym2y5a"/>
            </mask>
            <path d="M29.099 0H2.901A2.901 2.901 0 0 0 0 2.901v26.198A2.901 2.901 0 0 0 2.901 32h26.198A2.901 2.901 0 0 0 32 29.099V2.901A2.901 2.901 0 0 0 29.099 0" fill="#DC395F" mask="url(#tii8n9pqbb)"/>
        </g>
        <path d="M6.641 20.383a6.616 6.616 0 0 0-.173 1.447c0 1.696.92 2.823 2.875 2.823 1.622 0 2.936-.963 3.882-2.518l-.578 2.32h3.22l1.84-7.38c.46-1.869 1.351-2.839 2.702-2.839 1.064 0 1.725.662 1.725 1.754 0 .316-.029.661-.144 1.034l-.949 3.393a5.118 5.118 0 0 0-.201 1.437c0 1.61.949 2.788 2.932 2.788 1.696 0 3.047-1.092 3.795-3.708l-1.265-.488c-.632 1.753-1.179 2.07-1.61 2.07-.431 0-.661-.288-.661-.862 0-.259.058-.546.144-.892l.92-3.305c.23-.776.316-1.464.316-2.096 0-2.472-1.495-3.763-3.306-3.763-1.696 0-3.421 1.53-4.283 3.14l.632-2.89h-4.915l-.69 2.546h2.299l-1.416 5.67c-1.112 2.472-3.155 2.512-3.411 2.455-.421-.095-.69-.255-.69-.802 0-.316.057-.769.201-1.316l2.156-8.553H6.526l-.69 2.546h2.271l-1.466 5.99m4.053-10.316c1.064 0 1.955-.834 1.955-1.927 0-1.09-.891-1.925-1.955-1.925-1.063 0-1.954.834-1.954 1.925 0 1.093.891 1.927 1.954 1.927" fill="#FFF"/>
    </g>
</svg>
