<svg width="224" height="48" viewBox="0 0 224 48" xmlns="http://www.w3.org/2000/svg" xmlns:xlink="http://www.w3.org/1999/xlink">
    <defs>
        <path id="01lpxbcw2a" d="M0 0h223.035v48H0z"/>
    </defs>
    <g fill="none" fill-rule="evenodd">
        <mask id="vwcm5ocpqb" fill="#fff">
            <use xlink:href="#01lpxbcw2a"/>
        </mask>
        <path d="M80.61 10.98h.645V2.31h-.645v8.67zm12.375-8.67v7.545L87 2.31h-.615v8.67h.63V3.27l6.105 7.71h.48V2.31h-.615zm11.775.6v-.6h-6.105v8.67h.645V7.05h4.905v-.585H99.3V2.91h5.46zm11.91 3.765c0 2.13-1.53 3.87-3.675 3.87-2.145 0-3.705-1.755-3.705-3.9l.015-.3c.12-2.01 1.62-3.6 3.66-3.6 2.145 0 3.705 1.755 3.705 3.9v.03zm.66-.33c-.12-2.25-1.815-4.185-4.335-4.185-2.625 0-4.38 2.115-4.38 4.485v.03c0 2.355 1.725 4.455 4.35 4.455 2.625 0 4.38-2.115 4.38-4.485l-.015-.3zm5.325.465v-3.9h2.955c1.575 0 2.49.72 2.49 1.89l-.015.24c-.105 1.125-1.14 1.77-2.505 1.77h-2.925zm3.555.465c1.455-.195 2.535-1.02 2.535-2.475l-.015-.285a2.207 2.207 0 0 0-.645-1.35c-.51-.525-1.365-.855-2.43-.855h-3.645v8.67h.645v-3.6h2.835l2.76 3.6h.825l-2.865-3.705zM141 2.31l-3.465 5.13-3.495-5.13h-.6v8.67h.615V3.45l3.435 4.995h.045l3.435-4.995v7.53h.645V2.31H141zm6.975 5.655 2.28-5.01 2.28 5.01h-4.56zm2.61-5.715h-.63l-4.035 8.73h.675l1.095-2.43h5.115l1.11 2.43h.705l-4.035-8.73zm6.615.06v.6h3.015v8.07h.645V2.91h3.015v-.6H157.2zm11.205 8.67h.645V2.31h-.645v8.67zm13.455-4.305c0 2.13-1.545 3.87-3.69 3.87-2.13 0-3.705-1.755-3.705-3.9l.015-.3c.12-2.01 1.62-3.6 3.675-3.6 2.145 0 3.705 1.755 3.705 3.9v.03zm-3.69-4.515c-2.625 0-4.365 2.115-4.365 4.485v.03c0 2.355 1.725 4.455 4.35 4.455 2.625 0 4.365-2.115 4.365-4.485v-.3c-.135-2.25-1.815-4.185-4.35-4.185zm15.615.15v7.545L187.8 2.31h-.615v8.67h.63V3.27l6.105 7.71h.48V2.31h-.615zM79.995 17.655v2.16h4.215V30.96h2.37V19.815h4.215v-2.16h-10.8zm16.08 11.22V25.29h6.69v-2.085h-6.69V19.74h7.545v-2.085h-9.885V30.96h9.975v-2.085h-7.635zm20.97-1.56c-1.14 1.065-2.19 1.71-3.825 1.71-2.55 0-4.395-2.115-4.395-4.725v-.33c.135-2.46 1.965-4.395 4.395-4.395 1.515 0 2.655.66 3.72 1.65l1.5-1.725c-1.26-1.23-2.745-2.085-5.205-2.085-4.035 0-6.87 3.105-6.87 6.885v.045c0 3.825 2.895 6.84 6.78 6.84 2.49 0 4.005-.915 5.4-2.355l-1.5-1.515zm13.11-9.66v5.535h-6.345v-5.535h-2.34V30.96h2.34v-5.61h6.345v5.61h2.34V17.655h-2.34zm15.54 0v9.195l-7.125-9.195h-2.175V30.96h2.31v-9.465l7.335 9.465h1.965V17.655h-2.31zm17.085 6.69c0 2.58-1.845 4.68-4.5 4.68-2.64 0-4.515-2.13-4.515-4.725v-.315c.135-2.46 1.935-4.41 4.485-4.41 2.64 0 4.53 2.145 4.53 4.725v.045zm-4.5-6.93c-4.08 0-6.975 3.15-6.975 6.885v.045c0 3.75 2.85 6.84 6.945 6.84 4.095 0 6.975-3.135 6.975-6.885v-.375c-.165-3.585-2.97-6.51-6.945-6.51zm12.6 11.415V17.655h-2.34V30.96h9.33v-2.13h-6.99zm20.025-4.485c0 2.58-1.845 4.68-4.485 4.68-2.655 0-4.53-2.13-4.53-4.725v-.315c.135-2.46 1.935-4.41 4.485-4.41 2.64 0 4.53 2.145 4.53 4.725v.045zm-4.485-6.93c-4.095 0-6.99 3.15-6.99 6.885v.045c0 3.75 2.85 6.84 6.945 6.84 4.095 0 6.975-3.135 6.975-6.885v-.375c-.165-3.585-2.97-6.51-6.93-6.51zm16.44 6.105v2.04h3.405v2.49c-.81.615-1.95 1.005-3.21 1.005-2.715 0-4.53-2.01-4.53-4.755l.015-.33c.135-2.415 1.95-4.395 4.305-4.395 1.695 0 2.7.54 3.735 1.425l1.47-1.77c-1.365-1.17-2.79-1.815-5.115-1.815-4.005 0-6.855 3.165-6.855 6.885v.045c0 3.885 2.73 6.84 6.9 6.84a8.454 8.454 0 0 0 5.55-2.07V23.52h-5.67zm17.505-5.865L216.6 23.52l-3.72-5.865h-2.775l5.295 8.055v5.25h2.355v-5.31l5.28-7.995h-2.67zM83.475 42.42l-.33-.075c-1.77-.405-2.19-.945-2.19-1.815l.015-.21c.09-.81.915-1.455 2.1-1.455.96 0 1.77.27 2.595.975l.405-.495c-.885-.705-1.71-1.065-2.97-1.065-1.62 0-2.79 1.005-2.79 2.28v.24c.09 1.185.96 1.83 2.925 2.235l.33.06c1.695.39 2.115.915 2.115 1.785l-.015.21c-.105.9-.96 1.53-2.175 1.53-1.275 0-2.145-.405-3.105-1.29l-.42.48c1.035.93 2.1 1.395 3.495 1.395 1.665 0 2.865-.96 2.865-2.37v-.24c-.105-1.125-.96-1.785-2.85-2.175zm13.155-1.08c-.12 1.17-1.17 1.92-2.685 1.92h-2.37V39h2.445c1.56 0 2.625.72 2.625 2.1l-.015.24zm.645-.525c-.12-1.515-1.395-2.4-3.21-2.4H90.93v8.67h.645v-3.24h2.34c1.8 0 3.375-.945 3.375-2.76l-.015-.27zm5.04 5.67v-3.48h4.965v-.6h-4.965V39h5.52v-.585h-6.165v8.67h6.24v-.6h-5.595zm17.07-1.185c-.885.87-1.74 1.35-2.985 1.35-2.07 0-3.66-1.71-3.66-3.9v-.315c.135-2.04 1.65-3.585 3.645-3.585 1.305 0 2.175.54 2.925 1.275l.465-.48c-.9-.81-1.83-1.38-3.375-1.38-2.505 0-4.335 2.025-4.335 4.485v.015c0 2.49 1.83 4.47 4.305 4.47 1.545 0 2.535-.615 3.45-1.515l-.435-.42zm4.77 1.785h.645v-8.67h-.645v8.67zm7.08-3.015 2.295-5.01 2.28 5.01h-4.575zm2.61-5.715h-.615l-4.035 8.73h.66l1.11-2.43h5.115l1.095 2.43h.705l-4.035-8.73zm9 8.13v-8.07h-.645v8.67h5.73v-.6h-5.085zm9.585.6h.645v-8.67h-.645v8.67zm11.58-2.49c-.09-1.125-.945-1.785-2.835-2.175l-.33-.075c-1.785-.405-2.205-.945-2.205-1.815l.015-.21c.105-.81.915-1.455 2.1-1.455.96 0 1.785.27 2.595.975l.405-.495c-.87-.705-1.71-1.065-2.97-1.065-1.605 0-2.79 1.005-2.79 2.28l.015.24c.09 1.185.945 1.83 2.91 2.235l.33.06c1.695.39 2.13.915 2.13 1.785l-.015.21c-.105.9-.975 1.53-2.175 1.53-1.29 0-2.16-.405-3.12-1.29l-.42.48c1.05.93 2.115 1.395 3.495 1.395 1.665 0 2.88-.96 2.88-2.37l-.015-.24zm3.795-6.18V39h3.03v8.085h.645V39h3.015v-.585h-6.69zM66.765 9.6v9.585c-5.175 0-9.39 4.095-9.585 9.225v.36c-.015 10.365-7.155 18.42-17.1 19.14l-.51.03c-.465.03-.945.06-1.425.06-10.605 0-19.2-8.595-19.2-19.2V0h9.6v9.6h9.6v9.6h-9.6v9.6c0 5.25 4.215 9.51 9.45 9.585v-.015c5.175 0 9.39-4.11 9.585-9.225l.015-.87C47.85 18.075 56.07 9.855 66.27 9.6h.495zM0 48h9.6V9.6H0z" fill="#FCFAF7" mask="url(#vwcm5ocpqb)"/>
    </g>
</svg>
