<svg width="28" height="32" viewBox="0 0 28 32" fill="none" xmlns="http://www.w3.org/2000/svg">
<path fill-rule="evenodd" clip-rule="evenodd" d="M3.14131 28.7714L0.666016 0L27.3327 0.0109815L24.8782 28.7495L13.9785 32L3.14131 28.7714ZM22.8709 27.2011L24.9406 2.55868H14.0202L14.1034 29.7378L22.8709 27.2011ZM10.3488 6.17159H13.0009V25.0377L5.1798 22.8085L5.1694 19.4372L10.3176 20.9197L10.3488 6.17159Z" fill="#E5A329"/>
<path opacity="0.986" d="M12.1279 24.7628C11.7847 24.653 10.0894 24.1698 8.36295 23.6756L5.23242 22.7861V21.1279C5.23242 19.5027 5.23242 19.4697 5.38843 19.5246C5.47163 19.5576 6.61568 19.887 7.92613 20.2714L10.3078 20.9632L10.3286 13.6056L10.3494 6.24805H12.9495V15.6043C12.9495 23.0387 12.9287 24.9605 12.8559 24.9605C12.8039 24.9495 12.4711 24.8616 12.1279 24.7628Z" fill="#EBEBEB" fill-opacity="0.01"/>
<path opacity="0.986" d="M5.18032 22.8076L5.16992 19.4363C5.16992 19.4363 8.45645 20.4136 10.3181 20.9188L10.3493 6.18164H13.0014V25.0368L5.18032 22.8076Z" fill="#EBEBEB" fill-opacity="0.9216"/>
<path fill-rule="evenodd" clip-rule="evenodd" d="M24.94 2.54688H14.0195V29.726L22.8703 27.1893L24.94 2.54688ZM23.0263 13.8468L22.3087 23.0603L15.122 25.0369L15.07 21.6986L20.2702 20.238L20.343 17.5146L15.1844 18.448L15.07 6.21469L23.6087 6.17076L23.3799 9.53109L17.7221 9.55305V14.4727L23.0263 13.8468Z" fill="#F0BE22"/>
</svg>
