<svg width="24" height="32" viewBox="0 0 24 32" fill="none" xmlns="http://www.w3.org/2000/svg">
<path fill-rule="evenodd" clip-rule="evenodd" d="M18.9455 23.312C25.0315 20.1606 22.2058 17.1182 20.2495 17.4987C19.7613 17.6077 19.542 17.7159 19.542 17.7159C19.542 17.7159 19.7047 17.3905 20.0853 17.2816C23.9434 15.9234 26.9871 21.3561 18.8352 23.4754C18.8352 23.4754 18.8897 23.4209 18.9441 23.3127L18.9455 23.312ZM6.22877 19.2912C2.4252 18.8024 8.34847 17.3898 8.34847 17.3898V17.382C8.34847 17.382 6.01156 17.2264 3.18577 18.5846C-0.129622 20.2151 11.4452 20.9203 17.4775 19.345C18.0746 18.9651 18.9448 18.5846 18.9448 18.5846C18.9448 18.5846 16.499 19.0196 14.0538 19.2368C11.0653 19.4539 7.85887 19.5084 6.22877 19.2912ZM6.93465 21.0857L6.93628 21.0844V21.0851L6.93465 21.0857ZM6.93465 21.0857C6.88265 21.126 5.6208 22.1216 7.69685 22.3344C10.4682 22.606 12.6494 22.6598 16.3921 21.9001C16.3921 21.9001 16.8803 22.4433 17.6961 22.715C10.0345 24.9967 1.44912 22.9325 6.93465 21.0857ZM7.74659 24.6186L7.75133 24.6157L7.75204 24.6171L7.74659 24.6186ZM7.74659 24.6186C7.66483 24.6703 6.5783 25.384 8.62157 25.594C11.1686 25.9194 12.5341 25.8656 15.3599 25.3224C15.3599 25.3224 16.1205 25.8104 17.1534 26.1924C10.7973 28.9078 2.75862 26.0318 7.74659 24.6186ZM21.9355 27.2783C21.9355 27.2783 22.8595 28.0387 20.9025 28.6364C17.2617 29.723 5.63234 30.0491 2.37143 28.6364C1.23021 28.1483 3.40439 27.4339 4.11048 27.3327C4.81799 27.17 5.19722 27.17 5.19722 27.17C3.94776 26.3 -3.11744 28.9632 1.61014 29.7166C14.5979 31.8352 25.3032 28.7928 21.9341 27.2719L21.9355 27.2783ZM19.1635 30.8095C23.5656 29.9946 24 28.9081 24 28.9081C23.7835 31.6789 14.8158 32.2766 8.94702 31.8967C5.08755 31.6789 4.32698 31.0267 4.32698 31.0267C7.96924 31.6244 14.1642 31.7333 19.1635 30.8095Z" fill="#4E7896"/>
<path fill-rule="evenodd" clip-rule="evenodd" d="M11.5632 8.66717C18.0835 3.45659 14.7426 0 14.7426 0H14.7419C15.6404 3.62232 13.2308 5.56056 10.8707 7.45901C9.69253 8.4067 8.52669 9.34448 7.79085 10.4769C6.28248 12.7815 8.49171 15.2497 11.5632 18.0471C11.2936 17.4273 10.879 16.8243 10.4589 16.2135C9.02016 14.1212 7.51769 11.9363 11.5632 8.66717ZM12.5867 19.1998C12.5867 19.1998 14.5806 17.5536 13.0182 15.7432L13.0175 15.7425C7.73612 9.54418 18.7829 6.74677 18.7829 6.74677C12.096 10.6747 12.972 11.9527 14.518 14.2081C14.5914 14.3151 14.6663 14.4244 14.7419 14.5362C16.5744 17.1144 12.5867 19.1998 12.5867 19.1998Z" fill="#F58219"/>
</svg>
