<svg width="32" height="32" viewBox="0 0 32 32" xmlns="http://www.w3.org/2000/svg" xmlns:xlink="http://www.w3.org/1999/xlink">
    <defs>
        <path id="mb6raj56ta" d="M0 0h23.142v23.656H0z"/>
        <path id="ljb2rvnm2c" d="M0 0h20.433v32H0z"/>
    </defs>
    <g fill="none" fill-rule="evenodd">
        <path d="M0 0h32v32H0z"/>
        <path d="M26.794 15.42c0 6.34-5.025 11.48-11.223 11.48S4.348 21.76 4.348 15.42c0-6.34 5.025-11.48 11.223-11.48s11.223 5.14 11.223 11.48" fill="#D33833"/>
        <path d="M4.806 18.263S3.994 6.293 15.024 5.95l-.77-1.283-5.985 2.01-1.71 1.966-1.496 2.865-.856 3.335.257 2.223" fill="#EF3D3A"/>
        <g transform="translate(4 3.635)">
            <mask id="f4528ko77b" fill="#fff">
                <use xlink:href="#mb6raj56ta"/>
            </mask>
            <path d="M3.386 20.189A11.924 11.924 0 0 1 0 11.828c0-3.263 1.293-6.22 3.386-8.361C5.478 1.327 8.374 0 11.571 0s6.093 1.327 8.185 3.467a11.927 11.927 0 0 1 3.387 8.361c0 3.263-1.294 6.221-3.387 8.361-2.092 2.141-4.988 3.467-8.185 3.467s-6.093-1.326-8.185-3.467m.498-16.235a11.229 11.229 0 0 0-3.187 7.874c0 3.077 1.218 5.859 3.187 7.874 1.971 2.014 4.686 3.257 7.687 3.257 3.002 0 5.717-1.243 7.687-3.257a11.23 11.23 0 0 0 3.188-7.874 11.23 11.23 0 0 0-3.188-7.874C17.288 1.94 14.573.697 11.571.697 8.57.697 5.855 1.94 3.884 3.954" fill="#231F20" mask="url(#f4528ko77b)"/>
        </g>
        <path fill="#F0D6B7" d="m20.296 15.484-1.71.257-2.31.256-1.496.043-1.453-.043-1.112-.342-.983-1.07-.77-2.18-.171-.47-1.026-.342-.6-.983-.426-1.411.47-1.24 1.112-.385.898.428.427.94.513-.085.17-.214-.17-.983-.042-1.24.256-1.71-.01-.977.78-1.246 1.368-.984L16.405.477l2.65.385 2.31 1.667 1.069 1.71.684 1.24.17 3.079-.512 2.65-.941 2.352-.898 1.24"/>
        <path fill="#335061" d="m18.842 22.88-6.114.257v1.026l.513 3.591-.257.3L8.709 26.6l-.3-.513-.427-4.832-.983-2.907-.214-.684 3.42-2.35 1.069-.429.94 1.154.813.727.94.3.428.128.513 2.223.385.47.984-.342-.684 1.326 3.719 1.752z"/>
        <path fill="#6D6B6D" d="m8.709 7.959 1.112-.385.897.428.428.94.513-.085.128-.513-.256-.983.256-2.352-.213-1.283.769-.898 1.668-1.325-.471-.641-2.351 1.154-.984.77-.555 1.197-.856 1.154-.256 1.368.171 1.454"/>
        <path d="M10.462 3.94s.64-1.582 3.207-2.351c2.565-.77.128-.556.128-.556l-2.78 1.069L9.95 3.17l-.47.856.983-.086M9.18 7.66s-.899-2.994 2.522-3.42l-.129-.515-2.35.557-.685 2.223.171 1.454.47-.3" fill="#DCD9D8"/>
        <path d="m10.547 11.636.56-.542s.252.029.295.328c.043.3.171 2.993 2.01 4.447.167.132-1.369-.214-1.369-.214l-1.368-2.138M18.415 10.823s.1-1.296.449-1.196c.348.1.348.448.348.448s-.848.55-.797.748M21.963 6.078s-.705.149-.77.77c-.064.62.77.128.898.085M16.79 6.12s-.941.128-.941.727c0 .598 1.069.556 1.369.3M10.975 8.9s-1.625-.984-1.796-.044c-.171.941-.556 1.625.257 2.608l-.556-.17-.513-1.326-.171-1.283.983-1.026 1.112.086.64.513.044.641M11.745 6.206s.727-3.762 4.403-4.49c3.027-.598 4.617.129 5.216.813 0 0-2.694-3.206-5.259-2.223-2.565.983-4.445 2.779-4.404 3.933.073 1.966.043 1.967.043 1.967M21.664 2.956s-1.24-.043-1.283 1.07c0 0 0 .17.086.341 0 0 .983-1.112 1.582-.513" fill="#F7E4CD"/>
        <path d="M16.235 4.483s-.213-1.706-1.668-.714c-.941.641-.856 1.54-.684 1.71.17.171.124.515.254.28.13-.237.088-1.007.557-1.22.47-.215 1.241-.453 1.54-.056" fill="#F7E4CD"/>
        <path d="m12.215 16.04-4.02 1.795s1.669 6.627.813 8.68L8.41 26.3l-.043-2.522-1.111-4.789-.471-1.325 4.19-2.822 1.24 1.197zM12.628 19.705l.57.696v2.565h-.684s-.085-1.796-.085-2.01c0-.213.085-.983.085-.983M12.642 23.35l-1.924.086.556.385 1.368.214" fill="#49728B"/>
        <path fill="#335061" d="m19.227 22.923 1.582-.043.385 3.934-1.625.213z"/>
        <path d="m19.654 22.923 2.394-.128s.984-2.48.984-2.608c0-.13.855-3.592.855-3.592l-1.924-2.01-.385-.341-1.026 1.026v3.976l-.898 3.677" fill="#335061"/>
        <path d="m20.723 22.624-1.496.299.213 1.197c.556.257 1.497-.427 1.497-.427M20.766 15.142l2.993 2.223.085-1.026-2.266-2.095-.812.898" fill="#49728B"/>
        <path fill="#FFF" d="m14.126 31.346-.885-3.592-.44-2.65-.073-1.967 4.006-.214h2.493L19 27.413l.385 3.463-.043.641-3.249.257-1.967-.428"/>
        <path d="M18.67 22.88s-.213 4.447.429 7.61c0 0-1.283.813-3.164 1.026l3.59-.128.429-.256-.513-7.012-.13-1.497" fill="#DCD9D8"/>
        <path fill="#FFF" d="m21.266 26.472 1.667-.47 3.164-.171.471-1.454-.856-2.523-.983-.128-1.368.428-1.313.641-.697-.128-.543.213"/>
        <path d="M21.236 25.616s1.112-.512 1.283-.47l-.47-2.352.555-.213s.385 2.224.385 2.48c0 0 2.394.128 2.608.128 0 0 .513-.983.385-2.01l.47 1.369.043.77-.684 1.025-.77.172-1.282-.044-.428-.555-1.496.213-.47.171" fill="#DCD9D8"/>
        <path d="m19.556 22.581-.941-2.394-.983-1.41s.214-.6.513-.6h.983l.94.342-.084 1.582-.428 2.48z" fill="#FFF"/>
        <path d="M19.74 21.769s-1.197-2.31-1.197-2.651c0 0 .213-.513.513-.385.299.129.94.47.94.47v-.812l-1.453-.3-.983.129 1.667 3.934.342.043" fill="#DCD9D8"/>
        <path fill="#FFF" d="m14.51 16.125-1.183-.129-1.112-.342v.385l.543.6 1.71.77"/>
        <path d="M12.6 16.254s1.325.556 1.753.428l.043.512-1.197-.256-.727-.513.128-.171" fill="#DCD9D8"/>
        <path d="M21.262 18.323c-.725-.02-1.381-.107-1.955-.269.039-.236-.034-.466.025-.636.16-.115.428-.113.67-.14a1.16 1.16 0 0 0-.744-.084c-.006-.164-.08-.265-.124-.393.408-.145 1.37-1.1 1.913-.784.258.151.368 1.01.388 1.427.016.346-.032.696-.173.88" fill="#D33833"/>
        <path d="M19.446 17.959a8.11 8.11 0 0 0 1.748.234c.085-.155.127-.43.112-.742-.027-.563-.163-1.23-.324-1.322-.307-.18-.867.2-1.275.479-.153.104-.29.197-.407.259.023.053.048.11.065.179.23-.025.49.017.693.117l.394.194-.436.049-.15.014c-.156.013-.32.027-.423.08-.011.063-.006.143-.001.226.004.072.008.15.004.233zm1.878.495-.066-.002c-.751-.022-1.42-.115-1.986-.274l-.11-.032.019-.113c.016-.096.01-.196.004-.292-.007-.13-.014-.25.026-.364l.013-.04.008-.004-.097.023-.005-.157a.609.609 0 0 0-.068-.235c-.017-.04-.034-.078-.05-.12l-.04-.12.119-.043c.109-.04.285-.158.47-.285.493-.334 1.104-.75 1.55-.49.378.22.445 1.399.452 1.532.009.2.009.693-.2.964l-.04.052zM17.792 17.137l-.006.166c-.227.148-.593.147-.84.272.365.016.654.104.903.228a55.4 55.4 0 0 1-.016.415c-.415.284-.794.708-1.283.974-.23.126-1.042.45-1.288.393-.139-.032-.152-.205-.208-.368-.118-.348-.39-.903-.415-1.427-.03-.663-.097-1.774.617-1.637.576.11 1.246.375 1.692.62.273.148.43.332.844.364" fill="#D33833"/>
        <path d="M15.143 16.27a.268.268 0 0 0-.18.062c-.252.219-.217.964-.197 1.409l.002.043c.017.379.175.783.302 1.107.04.105.078.201.107.285l.033.113c.028.098.049.164.08.171.182.042.934-.236 1.199-.38.28-.153.527-.363.766-.566.154-.131.3-.255.453-.364l.01-.267a2.054 2.054 0 0 0-.778-.18l-.492-.022.44-.221a1.83 1.83 0 0 1 .42-.129c.114-.025.223-.05.314-.087-.243-.046-.398-.148-.55-.246a2.665 2.665 0 0 0-.185-.113 6.184 6.184 0 0 0-1.654-.606.49.49 0 0 0-.09-.009m.186 3.45a.404.404 0 0 1-.096-.01c-.183-.042-.231-.214-.27-.352a1.849 1.849 0 0 0-.03-.099 7.886 7.886 0 0 0-.102-.274c-.134-.342-.3-.768-.32-1.189l-.001-.044c-.026-.554-.061-1.314.285-1.614.128-.111.292-.148.486-.111a6.487 6.487 0 0 1 1.729.633c.075.04.14.082.202.123.169.11.316.205.59.226l.123.01-.013.355-.055.036a1.08 1.08 0 0 1-.323.131c.128.038.252.087.373.148l.075.037-.022.562-.054.036a6.083 6.083 0 0 0-.485.385c-.25.212-.506.431-.81.596-.144.079-.904.415-1.282.415M18.205 17.928c-.063-.361-.137-.464-.108-.78.962-.641 1.143 1.104.108.78" fill="#D33833"/>
        <path d="M18.316 17.825c.147.032.316.025.407-.131.088-.151.062-.381-.057-.493-.13-.123-.319-.052-.446.022-.008.154.015.248.05.393.014.06.03.128.046.209m.127.27a.922.922 0 0 1-.277-.045l-.074-.023-.014-.077c-.019-.111-.04-.198-.058-.275a1.433 1.433 0 0 1-.05-.538l.004-.061.051-.034c.448-.298.72-.118.817-.027.205.193.251.555.102.808a.553.553 0 0 1-.5.273" fill="#D33833"/>
        <path d="M19.599 18.22s-.3-.428-.086-.556c.214-.128.428 0 .556-.214.129-.213 0-.342.043-.598.043-.257.257-.3.47-.342.214-.043.813-.129.898.085l-.256-.769-.513-.17-1.625.94-.086.47v.94M15.11 19.631c-.052-.667-.107-1.334-.167-2-.09-.995.24-.822 1.102-.822.131 0 .811.157.86.257.233.476-.39.37.268.73.556.302 1.538-.185 1.314-.859-.126-.149-.655-.046-.845-.145l-1.002-.519c-.425-.22-1.407-.542-1.86-.234-1.148.781.072 2.732.482 3.546" fill="#EF3D3A"/>
        <path d="M16.235 4.483c-1.165-.27-1.744.488-2.098 1.275-.316-.076-.19-.505-.11-.724.209-.574 1.049-1.337 1.736-1.234.296.045.696.315.472.683M21.912 5.81l.055.002c.264.547.492 1.127.824 1.61-.223.518-1.685.977-1.663.046.316-.138.862-.028 1.143-.205-.162-.445-.396-.824-.359-1.453M16.831 5.824c.25.458.331.94.686 1.285.16.156.471.346.317.78-.036.102-.299.33-.45.375-.556.164-1.85.033-1.412-.659.46.022 1.076.298 1.42-.035-.264-.42-.734-1.255-.56-1.746M21.704 10.48c-.836.537-1.768 1.12-3.138.986-.293-.255-.404-.821-.12-1.195.148.254.055.722.467.793.778.133 1.682-.476 2.242-.688.346-.585-.03-.8-.343-1.176-.64-.771-1.497-1.726-1.466-2.88.259-.187.28.286.318.372.334.782 1.174 1.78 1.788 2.45.15.164.398.322.426.43.079.318-.207.697-.174.908M10.682 9.914c-.262-.15-.324-.808-.632-.827-.44-.027-.36.855-.358 1.37-.302-.275-.356-1.12-.133-1.555-.254-.125-.367.137-.507.23.18-1.313 1.92-.609 1.63.782M22.236 11.026c-.389.741-.94 1.556-2.082 1.58-.023-.239-.04-.603.002-.747.873-.084 1.412-.528 2.08-.833M16.765 11.506c.728.383 2.067.424 3.057.395.053.217.052.485.054.75-1.273.063-2.777-.252-3.11-1.145M16.627 12.22c.504 1.265 2.235 1.12 3.694 1.084-.064.164-.203.358-.376.428-.468.191-1.758.335-2.408-.01-.411-.219-.676-.713-.902-1.003-.11-.14-.651-.498-.008-.499" fill="#231F20"/>
        <path d="M21.643 19.196c-.59 1.012-1.157 2.052-1.858 2.945.294-.865.42-2.311.464-3.414.615-.288 1.142.065 1.394.469" fill="#81B0C4"/>
        <path d="M24.823 22.834c-.662.132-1.127.776-1.771.734.355-.5.976-.71 1.771-.734M25.115 23.87c-.539.057-1.173.144-1.72.099.26-.395 1.257-.26 1.72-.1M25.302 24.762c-.606.014-1.36.002-1.936-.047.341-.366 1.543-.136 1.936.047" fill="#231F20"/>
        <path d="M20.503 27.206c.087.76.389 1.533.35 2.366-.335.113-.527.212-.977.212-.03-.71-.125-1.792-.098-2.468.221.015.548-.157.725-.11" fill="#DCD9D8"/>
        <path d="M19.525 15.986c-.304.2-.564.447-.856.66-.648.031-1.002-.046-1.478-.418.008-.03.056-.017.057-.053.694.31 1.576-.126 2.277-.189" fill="#F0D6B7"/>
        <path d="M15.883 20.716c.19-.826.938-1.254 1.616-1.709.7.89 1.125 2.031 1.595 3.134-1.108-.334-2.24-.876-3.212-1.425" fill="#81B0C4"/>
        <g transform="translate(6.408)">
            <mask id="cr8feo599d" fill="#fff">
                <use xlink:href="#ljb2rvnm2c"/>
            </mask>
            <path d="M16.119 22.109c1.037-.516 2.975-1.388 3.626.002.24.512.52 1.378.645 1.907.176.746-.19 2.314-.957 2.565-.677.22-1.468.207-2.283.043a1.238 1.238 0 0 1-.278-.364c-.583-.023-1.128.03-1.59.27.045.432-.246.5-.52.59-.202.803.406 1.85.26 2.584-.104.52-.745.602-1.217.7-.016.289.02.53.053.777-.108.397-.592.623-1.05.679-1.51.18-3.8.263-5.25-.26-.404-.992-.723-2.2-1.06-3.334-1.415.15-2.56-.61-3.64-1.11-.372-.172-.89-.268-1.028-.565-.136-.288-.08-.84-.114-1.361-.085-1.331-.158-2.614-.51-3.977-.158-.612-.433-1.151-.625-1.741-.177-.546-.487-1.221-.568-1.765-.12-.808.64-.852 1.127-1.202.75-.541 1.34-.84 2.154-1.328.24-.145.968-.511 1.05-.68.165-.334-.281-.805-.401-1.067a3.203 3.203 0 0 1-.314-1.174 2.268 2.268 0 0 1-1.513-.972c-.517-.758-.875-2.161-.428-3.228.035-.084.21-.25.236-.378.05-.254-.096-.592-.105-.862-.047-1.387.235-2.581 1.168-3C3.366 2.349 4.722 1.848 6 1.098c.478-.28 1.004-.46 1.548-.66 1.95-.718 4.944-.582 6.563.642.686.519 1.783 1.615 2.176 2.409 1.036 2.096.963 5.598.238 8.147-.098.342-.24.845-.437 1.256-.137.287-.565.86-.513 1.115.054.262.975.962 1.173 1.152.356.344 1.032.8 1.087 1.233.059.46-.203 1.092-.336 1.537-.444 1.485-.877 2.857-1.38 4.18zM13.646 1.642C12.319.892 10.072.33 8.66 1.034c-1.14.568-2.68 1.508-3.205 2.699.49 1.149-.145 2.202-.186 3.369-.021.62.293 1.163.317 1.839-.168.277-.681.31-1.036.292-.12-.598-.33-1.27-.944-1.337-.872-.095-1.51.626-1.548 1.379-.047.886.68 2.355 1.71 2.253.4-.04.498-.438.932-.434.235.469-.363.616-.425.952-.016.087.05.426.088.584.187.774.605 1.776 1.016 2.365.52.747 1.546.86 2.648.933.197-.424.923-.39 1.395-.278-.566-.225-1.093-.768-1.53-1.25-.5-.552-1.008-1.145-1.034-1.866.948 1.314 1.73 2.46 3.453 3.04 1.303.437 2.825-.201 3.827-.904.415-.292.663-.756.959-1.181 1.105-1.59 1.62-3.86 1.507-6.058-.046-.907-.044-1.811-.35-2.422-.317-.638-1.393-1.21-2.022-.632-.117-.62.523-1.004 1.276-.781-.537-.692-1.1-1.524-1.862-1.954zM6.989 1.3c-1.28.363-2.918 1.292-3.444 2.44.407-.058.69-.263 1.09-.29.153-.01.35.065.526.02.347-.085.64-.864.903-1.154.255-.283.562-.404.773-.662.135-.065.334-.061.342-.263-.06-.063-.12-.111-.19-.091zM2.946 4.909c-.564.62-.446 1.786-.378 2.615 1.02-.643 2.377.05 2.364 1.143.487-.013.182-.61.094-.993-.288-1.254.485-2.616.035-3.763-.875.067-1.593.424-2.115.998zm11.329 10.513c1.185-.574 1.399 2.149.934 3.026.072.262.319.362.42.597-.662 1.186-1.397 2.292-2.072 3.463.502-.313 1.22-.056 1.81-.29.217-.085.373-.58.537-.975.449-1.09.922-2.461 1.132-3.5.047-.236.176-.752.147-.962-.051-.377-.563-.657-.823-.89-.48-.431-.782-.81-1.282-1.213-.202.3-.638.5-.803.744zm-8.617.94c-.116-.083-.903-1.106-1.01-1.063-1.423.56-2.754 1.53-3.943 2.449 1.134 2.432 1.59 5.412 1.672 8.285 1.299.607 2.439 1.483 4.2 1.574-.202-1.443-.39-2.73-.504-4.088-.443-.187-1.078.008-1.493-.058-.003-.5.633-.22.686-.554.04-.254-.35-.274-.223-.674.324.118.494.378.84.476.315-.691-.005-1.913.04-2.49.009-.108.055-.6.298-.514.214.077-.013 1.309.01 1.855.022.503-.06.99.144 1.306a48.719 48.719 0 0 1 5.275-.432c-.405-.174-.887-.338-1.414-.636-.287-.161-1.19-.497-1.271-.77-.132-.432.345-.663.427-1.034-.86.469-1.027-.45-1.231-1.1-.184-.59-.29-1.03-.334-1.37-.74-.352-1.532-.71-2.17-1.162zm9.369 1.082c-.02-.417-.13-1.276-.388-1.426-.542-.316-1.505.638-1.913.784.045.128.118.229.124.392.24-.06.535-.02.744.084-.242.027-.51.025-.67.14-.06.17.014.4-.025.636.574.162 1.23.248 1.955.269.14-.183.189-.532.173-.88zm-4.186-1.27c-.002.038-.05.025-.057.054.476.373.83.45 1.478.418.292-.213.55-.461.856-.66-.701.063-1.583.498-2.277.189zM6.28 16c-.37.376 1.038.888 1.487.915-.003-.237.135-.462.107-.632-.532-.094-1.232-.032-1.594-.283zm4.26.774a6.337 6.337 0 0 0-1.692-.62c-.714-.136-.647.975-.617 1.637.024.525.297 1.08.415 1.428.056.163.068.335.208.368.245.057 1.057-.267 1.288-.393.489-.267.868-.69 1.283-.974l.016-.415a2.172 2.172 0 0 0-.904-.23c.248-.124.614-.122.84-.271l.007-.165c-.414-.032-.571-.216-.844-.365zm1.148.376c-.028.315.045.418.108.779 1.035.324.855-1.42-.108-.78zm.843 1.112c-.266-.028-.492.306-.837.16-.08.089-.151.184-.232.269.763.919 1.11 2.224 1.699 3.304.316-1.037.28-2.175.35-3.307-.435.027-.676-.393-.98-.426zm1.31.466c-.044 1.103-.17 2.55-.464 3.414.7-.893 1.266-1.933 1.858-2.945-.252-.404-.78-.757-1.394-.47zm-1.156 3.415c-.47-1.103-.895-2.246-1.595-3.134-.678.455-1.425.883-1.616 1.709.97.549 2.103 1.09 3.21 1.425zm6.208 4.06c.668-.162 1.088-.98.9-1.82-.124-.564-.347-1.626-.586-1.988-.177-.267-.655-.616-1.037-.371-.622.398-1.717.513-2.17.995.227.757.298 1.796.39 2.755.778.048 1.733-.214 2.379.064-.451.146-1.036.148-1.425.36.318.154 1.063.123 1.549.005zm-3.448-3.15c-.213-.05-.461-.002-.665.002.096.953.328 2.004.41 3.005.32.01.49-.141.755-.192.014-.878-.077-2.088-.5-2.815zm-2.277.188c-.016 1.169.052 2.322.14 3.493.45-.067.755-.112 1.172-.204-.135-1.127-.12-2.395-.395-3.392-.318.003-.6-.003-.917.103zm-6.79.235c.296 2.722.725 5.01 1.51 7.42 1.747.53 3.852.578 5.395.099-.283-1.36-.16-3.017-.325-4.468-.125-1.092-.061-2.19-.232-3.303-1.87-.39-4.513-.091-6.348.252zm6.992 3.842c-.028.675.066 1.758.098 2.467.449 0 .642-.098.977-.211.038-.834-.264-1.606-.351-2.367-.177-.047-.503.125-.724.11z" fill="#231F20" mask="url(#cr8feo599d)"/>
        </g>
        <path d="M15.606 11.83c.056-.075.366-.19.8.02 0 0-.515.085-.472.94l-.214-.042s-.22-.776-.114-.918" fill="#F7E4CD"/>
        <path d="M19.355 19.182a.235.235 0 1 1-.47 0 .235.235 0 0 1 .47 0M19.59 20.272a.235.235 0 1 1-.47 0 .235.235 0 0 1 .47 0" fill="#1D1919"/>
    </g>
</svg>
