<svg width="32" height="32" viewBox="0 0 32 32" xmlns="http://www.w3.org/2000/svg" xmlns:xlink="http://www.w3.org/1999/xlink">
    <defs>
        <path id="n43tqlokpa" d="M0 0h31.084v32H0z"/>
    </defs>
    <g fill="none" fill-rule="evenodd">
        <path d="M0 0h32v32H0z"/>
        <g transform="translate(.5)">
            <mask id="w577jzhozb" fill="#fff">
                <use xlink:href="#n43tqlokpa"/>
            </mask>
            <path d="m12.533 23.995 7.351-4.197 3.675-2.097-5.008-2.883-5.766 3.32-5.256 3.025 5.004 2.832zm11.533-12.872L21.157 9.45l-2.105-1.212v5.712l2.908 1.674 2.106 1.212v-5.712zm.501-6.639L19.555 7.37l5.012 2.885 5.011-2.886-5.011-2.885zM9.125 19.086l2.908-1.674V4.832L9.928 6.044 7.019 7.718V20.3l2.106-1.213zM6.518 1.08 1.506 3.965 6.517 6.85l5.012-2.886L6.517 1.08h.001zM1.003 4.832v19.45l11.029 6.35v-5.769l-5.762-3.26-.002-.003h-.002c-.02-.012-.036-.028-.054-.042-.016-.013-.034-.023-.048-.036l-.001-.002c-.016-.016-.027-.035-.041-.053-.013-.017-.028-.03-.038-.049v-.002c-.012-.018-.018-.04-.027-.062-.008-.019-.018-.036-.023-.057-.007-.024-.008-.049-.01-.073-.003-.019-.008-.038-.008-.057V7.717L3.108 6.043l-2.105-1.21zm23.063 19.45v-5.716L21.205 20.2l-8.17 4.663v5.77l11.031-6.35zm6.016-10.333V8.237L27.976 9.45l-2.908 1.674v5.712l5.014-2.886zm.985-6.71a.53.53 0 0 1 .018.131v6.868a.5.5 0 0 1-.252.435l-5.765 3.32v6.578a.5.5 0 0 1-.251.434l-12.034 6.928c-.027.016-.057.026-.087.036-.011.004-.022.011-.034.014a.509.509 0 0 1-.257 0c-.013-.004-.026-.01-.039-.016-.028-.01-.056-.019-.083-.034L.252 25.005A.5.5 0 0 1 0 24.571V3.965c0-.045.006-.089.018-.132.003-.014.012-.027.017-.042.009-.026.018-.053.032-.077.009-.017.023-.03.034-.045.015-.02.028-.04.045-.058.014-.014.033-.025.049-.037.019-.015.035-.032.055-.044h.001L6.267.067a.499.499 0 0 1 .501 0l6.016 3.463h.001c.02.013.037.03.055.043.017.012.035.024.049.037.018.02.03.04.045.06.011.014.025.027.034.044.014.025.023.051.033.077.005.015.013.028.017.043a.487.487 0 0 1 .018.131v12.87l5.013-2.886V7.37c0-.044.006-.088.017-.13.005-.015.013-.028.018-.043.01-.026.019-.053.032-.077.01-.017.024-.03.034-.045.015-.02.028-.04.045-.058.015-.014.033-.025.049-.038.019-.015.035-.03.055-.043h.001l6.017-3.464a.502.502 0 0 1 .5 0l6.017 3.464c.021.013.037.028.056.043.015.012.034.024.048.037.018.02.03.04.045.06.011.014.025.027.034.044.014.024.022.051.032.077.006.015.014.028.018.043z" fill="#FF2D20" mask="url(#w577jzhozb)"/>
        </g>
    </g>
</svg>
