<svg width="32" height="32" viewBox="0 0 32 32" xmlns="http://www.w3.org/2000/svg">
    <g fill="none" fill-rule="evenodd">
        <path d="M0 0h32v32H0z"/>
        <path fill="#ECB13A" d="m3.362 28.87.45-2.265-.224-2.161 3.375-.955.637-1.391 2.766 1.799 3.109 5.636 7.494-.664.819-6.07 5.145.257.757 2.32 1.85 1.414-3.724 2.743-2.396 1.762H21.56L20.477 29.9h-3.425l-4.627.512-.826.884L7.275 29.9zM12.575 9.154l2.45 2.1 4.373-2.356-3.972-1.618z"/>
        <path d="m12.848 5.738.065.058c.725-.602 1.122-.38 1.66.926.189-.526-.068-1.375-.506-1.672-.268-.183-.592-.17-.82.08-.16.178-.268.404-.4.608zM16.49 6.87c.172-1.001.512-1.438 1.1-1.434.394.003.696.2.846.542.136.309.183.657.259.947.303-.593.151-1.512-.362-1.988-.42-.388-.983-.407-1.42-.047-.513.423-.715 1.306-.423 1.98zm1.64 2.083c-.17-.123-.252-.21-.352-.249-.744-.29-1.49-.579-2.241-.85a.444.444 0 0 0-.353.051c-.58.412-1.146.842-1.71 1.26.262.447 1.166 1.186 1.57 1.29.11.028.259.022.358-.03.888-.468 1.768-.952 2.729-1.472zm8.347 15.008c-.063.052-.093.066-.108.089-.466.764-1.2 1.104-2.038 1.233-.908.14-1.803-.117-2.007-1.345-.025-.15-.057-.299-.086-.448-.004.608.098 1.215.045 1.81-.091 1.031-.265 2.057-.43 3.082-.086.545-.135 1.075.156 1.575.27.463.655.591 1.134.366.224-.106.449-.225.643-.377.516-.403.98-.88 1.528-1.23.779-.494 1.616-.897 2.425-1.345.241-.133.473-.284.782-.471-.321-.2-.563-.378-.828-.51-.831-.415-1.154-1.123-1.195-2.003l-.021-.426zM11.035 30.41c.162-.055.286-.065.37-.13.767-.587 1.028-1.157.47-2.059-.196-.316-.468-.585-.672-.898-.686-1.054-1.334-2.133-2.041-3.172-.305-.45-.705-.839-1.085-1.232-.19-.196-.398-.146-.534.1-.14.255-.282.509-.414.769-.224.445-.572.73-1.057.85-.394.095-.789.187-1.18.294-.465.127-.514.193-.406.659.157.677.15 1.338-.098 1.993-.055.145-.09.299-.129.45-.11.42-.071.501.345.585.61.124 1.223.248 1.84.332 1.028.138 1.933.628 2.895.954.568.193 1.15.344 1.696.505zm1.652-3.5c.303.346.583.681.882 1 .075.08.214.147.32.144 1.069-.037 2.147-.017 3.204-.157 1.33-.178 2.37-.952 3.28-1.909.207-.217.298-.442.306-.745.022-.874.06-1.747.13-2.618.037-.474.326-.716.8-.759.173-.015.348-.003.542-.003.277-1.499.314-2.955-.156-4.402-.72-2.22-1.662-4.348-2.647-6.458-.161-.346-.345-.68-.537-1.054-.298.143-.563.258-.816.395-.724.39-1.442.788-2.163 1.181-.585.32-1.162.279-1.716-.068-.272-.172-.523-.376-.784-.564l-.23-.166c-.153.942-.465 1.768-1 2.51-.194.268-.384.553-.499.859-.544 1.449-1.094 2.89-1.758 4.293-.412.871-.48 1.842-.338 2.815.102.693.53 1.16 1.032 1.58.679.566 1.372 1.117 2.056 1.677.089.072.168.155.25.234.65.618.81 1.554-.158 2.214zM22.015 32c-.79-.145-1.356-.589-1.76-1.272-.05-.087-.198-.139-.311-.162-2.06-.438-4.116-.355-6.174.019-.292.053-.493.153-.679.407-.446.61-1.104.866-1.838.775-.615-.077-1.224-.24-1.818-.42-.896-.27-1.764-.631-2.667-.87-.822-.217-1.679-.3-2.51-.487a3.542 3.542 0 0 1-1.03-.42c-.534-.319-.665-.742-.486-1.339.09-.299.181-.597.28-.892a2.29 2.29 0 0 0 .025-1.411 5.319 5.319 0 0 1-.131-.546c-.14-.758.201-1.336.94-1.569.427-.135.865-.228 1.292-.361.508-.16.9-.467 1.132-.961.066-.14.132-.305.248-.392.406-.305.367-.71.363-1.148a3.19 3.19 0 0 1 .198-1.123c.44-1.188.954-2.349 1.383-3.541.411-1.14 1-2.169 1.733-3.123.369-.479.702-.986 1.096-1.443.48-.557.658-1.199.634-1.903-.048-1.384-.122-2.766-.185-4.15-.039-.866 0-1.728.215-2.574.295-1.164 1-1.988 2.09-2.491 1.282-.592 2.61-.783 3.984-.415C19.544.592 20.528 1.592 21.133 3c.562 1.306.693 2.689.753 4.088.029.666.067 1.332.14 1.993.083.76.417 1.423.841 2.057a266.998 266.998 0 0 1 3.482 5.292c1.084 1.704 1.324 3.564.852 5.518a.527.527 0 0 0 .106.51c.343.434.555.93.528 1.498-.038.792.367 1.288 1.045 1.617.223.108.46.211.648.368.676.565.596 1.533-.172 2.117-.255.194-.542.349-.818.515-1.212.728-2.426 1.453-3.639 2.18a.387.387 0 0 0-.074.057c-.561.573-1.19 1.032-1.998 1.19h-.812z" fill="#000"/>
    </g>
</svg>
