<svg width="130" height="28" viewBox="0 0 130 28" fill="none" xmlns="http://www.w3.org/2000/svg">
<path fill-rule="evenodd" clip-rule="evenodd" d="M0 0H13.2062C13.2058 2.22 13.2058 4.44 13.2058 6.66C13.2058 8.88 13.2058 11.1 13.2054 13.32H0V0ZM14.5546 0H27.7608L27.7609 3.33C27.7611 6.66 27.7612 9.99 27.76 13.32C24.8258 13.3195 21.8913 13.3196 18.9568 13.3198L14.5554 13.32C14.5542 9.99 14.5544 6.66 14.5545 3.33L14.5546 0ZM123.253 4.5824C121.88 4.2016 120.308 4.276 119.09 5.0752C118.305 5.5824 117.735 6.3936 117.479 7.2928C117.269 7.98277 117.279 8.69962 117.289 9.41488C117.293 9.73213 117.297 10.0491 117.282 10.3632L117.145 10.3622C116.53 10.3576 115.916 10.3531 115.303 10.3672C115.309 11.082 115.307 11.7968 115.305 12.5109L115.304 12.6752C115.64 12.6821 115.976 12.6814 116.312 12.6807C116.638 12.68 116.965 12.6793 117.292 12.6856C117.288 14.9712 117.289 17.2564 117.29 19.5418V19.5419V19.542V19.5421V19.5422V19.5422V19.5423V19.5424V19.5425V19.5426V19.5427C117.29 20.4951 117.29 21.4475 117.29 22.4H120.146L120.146 19.9765C120.146 17.5451 120.146 15.1138 120.147 12.6824C121.54 12.68 122.934 12.6808 124.327 12.6816C124.329 13.5926 124.328 14.5034 124.328 15.4141V15.4142V15.4142V15.4143V15.4143V15.4144V15.4145V15.4145V15.4146V15.4147V15.4147C124.327 16.568 124.326 17.7212 124.33 18.8744C124.343 19.836 124.506 20.864 125.137 21.6232C125.684 22.2952 126.551 22.6024 127.389 22.6648C128.272 22.728 129.184 22.6192 130 22.2616V19.8992C129.374 20.3216 128.51 20.4896 127.828 20.1048C127.421 19.8784 127.264 19.3936 127.211 18.956C127.153 18.4592 127.159 17.9596 127.164 17.4602V17.4601V17.46V17.4599V17.4599V17.4598V17.4598V17.4597V17.4596V17.4596V17.4595V17.4594C127.167 17.2128 127.169 16.9662 127.164 16.72C127.164 16.2394 127.164 15.7589 127.165 15.2785C127.165 14.4138 127.165 13.5493 127.163 12.6848C127.465 12.6858 127.768 12.6836 128.071 12.6813C128.714 12.6765 129.357 12.6717 130 12.6984V10.3592C129.659 10.3604 129.318 10.3597 128.978 10.3591C128.376 10.358 127.775 10.3569 127.174 10.3656C127.161 9.64409 127.163 8.92257 127.165 8.20123V8.20117V8.20111V8.20104V8.20098V8.20092V8.20085V8.20079V8.20073V8.20067V8.2006C127.166 7.72004 127.167 7.23956 127.164 6.7592C126.826 6.8618 126.489 6.96675 126.152 7.07172L126.152 7.07178L126.151 7.07201L126.151 7.07203C125.548 7.25997 124.945 7.44793 124.338 7.6224C124.324 8.15417 124.326 8.68622 124.328 9.21822V9.21901C124.329 9.59913 124.33 9.97924 124.326 10.3592C123.819 10.3589 123.313 10.359 122.807 10.3592C121.92 10.3594 121.034 10.3596 120.147 10.3576C120.153 10.1191 120.15 9.88002 120.146 9.64087V9.6408V9.64073V9.64066V9.64059V9.64052V9.64046V9.64039V9.64032V9.64025V9.64018V9.6401V9.64003V9.63995V9.63987V9.63979V9.63972V9.63964V9.63956V9.63949V9.63941C120.139 9.15861 120.132 8.67756 120.2 8.2008C120.285 7.6376 120.609 7.0744 121.153 6.8568C121.839 6.5728 122.606 6.7616 123.258 7.0512C123.257 6.72906 123.257 6.40693 123.258 6.08484V6.08341C123.259 5.5829 123.26 5.0825 123.253 4.5824ZM57.9384 5.2432C58.5143 5.1552 59.1377 5.3536 59.5192 5.808C59.9666 6.3056 60.0491 7.0976 59.7175 7.6792C59.3511 8.3352 58.5309 8.64 57.8163 8.4824C57.0747 8.348 56.4568 7.6528 56.4901 6.8776C56.4687 6.0616 57.1453 5.3344 57.9384 5.2432ZM40.2032 5.6H36.0494C36.0478 11.2 36.0486 16.8 36.0494 22.4C36.4115 22.3997 36.7737 22.3999 37.136 22.4001H37.1361H37.1362H37.1363H37.1364H37.1381C37.6814 22.4004 38.2249 22.4006 38.7684 22.3992C38.767 20.8949 38.7673 19.3906 38.7675 17.8862C38.7677 16.8834 38.7679 15.8805 38.7676 14.8776C38.7712 14.1954 38.7693 13.513 38.7673 12.8305V12.8305V12.8304V12.8304V12.8303V12.8302V12.8302V12.8301V12.8301C38.7641 11.7015 38.7609 10.5729 38.7827 9.4448C38.8342 9.5272 38.8818 9.6128 38.9262 9.7008C39.5622 11.2898 40.1964 12.8797 40.8307 14.4696L40.8311 14.4706L40.8314 14.4716L40.8318 14.4726L40.8326 14.4744L40.8333 14.4762L40.834 14.478L40.8351 14.4807L40.8362 14.4834L40.8364 14.4839L40.8366 14.4843L40.8367 14.4848L40.8369 14.4853L40.8371 14.4858L40.8373 14.4863L40.8375 14.4868L40.8377 14.4873C41.8906 17.1268 42.9436 19.7665 44.0049 22.4024C44.2907 22.3977 44.5764 22.399 44.8621 22.4004H44.8622H44.8622H44.8622H44.8623H44.8623H44.8623H44.8624H44.8624C45.261 22.4022 45.6594 22.404 46.0576 22.3896C46.9857 19.9953 47.927 17.606 48.8683 15.2169L48.8687 15.216L48.869 15.2151L48.8693 15.2143L48.8697 15.2134L48.87 15.2125L48.8707 15.2108L48.8719 15.2079L48.8729 15.2052C49.5944 13.3738 50.316 11.5424 51.0315 9.7088C51.0752 9.616 51.1251 9.5264 51.1814 9.44C51.1941 9.6256 51.2005 9.8112 51.1989 9.9968C51.1965 11.805 51.1972 13.6131 51.198 15.4212C51.199 17.7454 51.1999 20.0695 51.1941 22.3936C51.8203 22.4025 52.4465 22.4011 53.0729 22.3998H53.073H53.0731H53.0732H53.0732H53.0733H53.0734H53.0735H53.0736H53.0748H53.0759H53.077H53.0782C53.4109 22.3991 53.7436 22.3984 54.0765 22.3992L54.0761 19.988C54.0754 15.1925 54.0746 10.3971 54.0773 5.6016C53.6209 5.6027 53.1646 5.60145 52.7083 5.6002C51.8322 5.5978 50.9562 5.5954 50.0805 5.6096C49.0817 8.11676 48.0696 10.6181 47.0574 13.1194L47.0573 13.1195L47.0573 13.1197L47.0572 13.1199L47.0571 13.12L47.0571 13.1202L47.057 13.1203L47.0569 13.1205L47.056 13.1229C46.396 14.7539 45.7359 16.3849 45.0796 18.0176C44.86 17.497 44.6553 16.97 44.4507 16.443L44.4507 16.443L44.4506 16.4429C44.3324 16.1383 44.2141 15.8337 44.0929 15.5304C43.4992 14.0116 42.9038 12.4935 42.3084 10.9754L42.3079 10.9743L42.3075 10.9733L42.3071 10.9722L42.3067 10.9712L42.306 10.9693L42.3049 10.9665L42.3038 10.9637L42.3023 10.96L42.3009 10.9564C41.6007 9.1712 40.9006 7.38606 40.2032 5.6ZM65.7987 10.348C67.1772 9.952 68.6636 9.968 70.0414 10.3608C70.3253 10.4408 70.6005 10.552 70.8559 10.7032C70.847 11.2201 70.8481 11.7373 70.8493 12.2545C70.8502 12.6555 70.851 13.0566 70.8472 13.4576C69.9264 12.748 68.758 12.2984 67.5873 12.4472C66.6577 12.532 65.771 13.0184 65.215 13.776C64.5003 14.7152 64.3353 15.9624 64.4583 17.1112C64.5503 18.0104 64.9191 18.9088 65.6123 19.5048C66.3325 20.1504 67.3422 20.3792 68.2845 20.3072C69.2157 20.1992 70.0945 19.8016 70.8472 19.2464C70.851 19.6566 70.8503 20.0668 70.8496 20.477C70.8489 20.9364 70.8481 21.3958 70.8536 21.8552C69.686 22.556 68.2861 22.7368 66.9496 22.6704C65.5822 22.5976 64.2187 22.0752 63.2289 21.1056C62.1533 20.06 61.5696 18.5688 61.5005 17.0752C61.4308 15.5224 61.7441 13.9024 62.63 12.6056C63.3724 11.4992 64.5336 10.716 65.7987 10.348ZM85.1496 10.1408C86.5202 9.9648 87.9661 10.0432 89.2384 10.6272C90.3425 11.1296 91.2372 12.0584 91.7329 13.1704C92.2619 14.3544 92.3904 15.684 92.3008 16.968C92.2128 18.2216 91.8225 19.4776 91.0452 20.4736C90.2497 21.5312 89.0504 22.248 87.7663 22.5144C86.6685 22.7448 85.52 22.744 84.4223 22.5112C83.1088 22.228 81.8929 21.4592 81.1227 20.3408C80.2185 19.0448 79.9615 17.3968 80.0765 15.844C80.1542 14.5264 80.5603 13.1984 81.3948 12.1648C82.3085 11.0072 83.71 10.324 85.1496 10.1408ZM86.0015 12.4272C86.8597 12.3704 87.7734 12.6152 88.3905 13.2448C89.0504 13.8992 89.3058 14.8488 89.3764 15.7544C89.4272 16.7456 89.3867 17.7784 88.9743 18.6968C88.7014 19.316 88.2017 19.8392 87.5711 20.0872C86.8335 20.3728 86.0046 20.3896 85.2432 20.1904C84.4683 19.9848 83.8107 19.42 83.453 18.7008C82.993 17.7744 82.924 16.7032 83.0192 15.6872C83.1056 14.7632 83.4245 13.8128 84.1225 13.1752C84.6285 12.6984 85.3186 12.4656 86.0015 12.4272ZM96.9979 10.1648C98.3186 9.9304 99.701 10.1024 100.951 10.58C100.952 11.0847 100.952 11.5891 100.952 12.0935C100.952 12.4717 100.952 12.8498 100.952 13.228C100.079 12.6224 99.0118 12.2968 97.9521 12.3344C97.4183 12.3552 96.8314 12.5832 96.5879 13.0952C96.3943 13.6016 96.5284 14.2656 97.0019 14.5688C97.4473 14.8693 97.94 15.0747 98.4328 15.2802C98.836 15.4483 99.2393 15.6165 99.617 15.8368C100.278 16.2112 100.919 16.7008 101.253 17.4064C101.882 18.728 101.616 20.4744 100.51 21.46C99.4544 22.4552 97.9339 22.7304 96.5355 22.6776C95.5425 22.6128 94.5447 22.4152 93.6317 22.0056C93.6333 21.6297 93.6327 21.254 93.6321 20.8783C93.6312 20.3257 93.6303 19.7732 93.6365 19.2208C94.4043 19.7832 95.2902 20.1856 96.2278 20.3488C96.8805 20.456 97.5904 20.4608 98.1988 20.1664C98.781 19.8744 98.8857 19.04 98.5398 18.5296C98.2273 18.1494 97.7734 17.9342 97.339 17.7282L97.293 17.7064C97.1212 17.6285 96.9477 17.5532 96.7739 17.4779C96.0965 17.184 95.4162 16.8889 94.8278 16.4336C94.3083 16.0248 93.9149 15.4488 93.761 14.7992C93.5326 13.8416 93.604 12.7624 94.156 11.9256C94.7866 10.9504 95.8819 10.3656 96.9979 10.1648ZM107.914 10.1368C109.34 9.9584 110.853 10.0552 112.154 10.7176C113.288 11.2896 114.168 12.3232 114.607 13.5184C114.95 14.4328 115.071 15.42 115.051 16.3936C115.054 17.848 114.664 19.3408 113.759 20.4944C112.912 21.6112 111.616 22.3368 110.248 22.5648C108.91 22.7832 107.496 22.7264 106.225 22.2216C104.937 21.7104 103.866 20.6672 103.323 19.3824C102.758 18.0728 102.698 16.5992 102.874 15.2C103.059 13.8008 103.687 12.4328 104.758 11.5024C105.636 10.7256 106.765 10.2856 107.914 10.1368ZM108.685 12.4296C109.492 12.3728 110.353 12.5608 110.974 13.1104C111.545 13.5888 111.862 14.3056 112.007 15.0272C112.17 15.8736 112.169 16.7496 112.031 17.6C111.921 18.2336 111.704 18.8656 111.292 19.3672C110.878 19.8712 110.26 20.1784 109.624 20.2728C108.94 20.376 108.22 20.3264 107.58 20.0488C106.89 19.7544 106.356 19.152 106.074 18.4592C105.735 17.6336 105.668 16.7192 105.735 15.836C105.8 14.9808 106.041 14.1032 106.601 13.4384C107.112 12.8176 107.895 12.4744 108.685 12.4296ZM77.2425 10.544C78.0309 10.0664 79.0327 10.0264 79.8933 10.3184C79.8911 10.8522 79.8913 11.386 79.8916 11.9197C79.8918 12.3468 79.892 12.7738 79.8909 13.2008C79.3278 12.8328 78.625 12.6752 77.9603 12.7432C77.1497 12.836 76.5073 13.464 76.1741 14.184C75.8124 14.9464 75.7442 15.8088 75.7672 16.6424L75.7674 18.5616C75.7676 19.8411 75.7678 21.1205 75.7672 22.4H72.9515C72.9505 20.7287 72.9509 19.0572 72.9513 17.3857C72.9518 15.0456 72.9524 12.7055 72.9491 10.3656C73.889 10.3536 74.8289 10.3584 75.7688 10.3632C75.7666 10.7459 75.7669 11.1285 75.7671 11.5113C75.7673 11.8176 75.7675 12.1239 75.7664 12.4304C76.0718 11.6808 76.5263 10.9528 77.2425 10.544ZM57.2228 10.3609C57.065 10.3617 56.9072 10.3625 56.7495 10.3632C56.7507 12.3696 56.7505 14.3758 56.7503 16.3819V16.382V16.382C56.7501 18.3881 56.7499 20.394 56.7511 22.4H59.5866C59.5882 20.796 59.5875 19.1919 59.5868 17.5878C59.5858 15.1811 59.5847 12.7744 59.5914 10.368C58.8021 10.3527 58.0122 10.3568 57.2228 10.3609ZM0 14.6792C2.00094 14.6799 4.00189 14.6798 6.00283 14.6797C8.40396 14.6796 10.8051 14.6795 13.2062 14.6808C13.2068 17.6407 13.2066 20.6003 13.2064 23.56V23.5601L13.2062 28H0V14.6792ZM24.4592 14.6799C21.1577 14.6798 17.8563 14.6796 14.5554 14.6808C14.5545 17.2175 14.5546 19.7544 14.5548 22.2915C14.5548 24.1943 14.5549 26.0971 14.5546 28H27.7608V14.68C26.6603 14.68 25.5598 14.6799 24.4592 14.6799Z" fill="#FCFAF7"/>
</svg>
