<svg width="32" height="32" viewBox="0 0 32 32" xmlns="http://www.w3.org/2000/svg" xmlns:xlink="http://www.w3.org/1999/xlink">
    <defs>
        <path id="gvr24o1rxa" d="M0 0h7.694v7.397H0z"/>
        <path id="hc0ylos3uc" d="M0 0h13.105v12.899H0z"/>
    </defs>
    <g fill="none" fill-rule="evenodd">
        <path d="M0 0h32v32H0z"/>
        <g transform="translate(0 17.454)">
            <mask id="86o1cr4h1b" fill="#fff">
                <use xlink:href="#gvr24o1rxa"/>
            </mask>
            <path d="M7.694 7.397H6.458a68.81 68.81 0 0 0-.36-5.895h-.01l-1.88 5.895h-.94l-1.87-5.895h-.01a97.778 97.778 0 0 0-.262 5.895H0C.072 4.767.255 2.302.546 0h1.53l1.781 5.435h.011L5.66 0h1.465c.32 2.696.51 5.162.569 7.397" fill="#00758F" mask="url(#86o1cr4h1b)"/>
        </g>
        <path d="M13.05 19.394c-.504 2.735-1.167 4.723-1.99 5.963-.642.956-1.344 1.433-2.109 1.433-.204 0-.456-.061-.754-.184v-.66c.146.022.317.034.513.034.357 0 .645-.1.864-.296.262-.241.393-.511.393-.811 0-.205-.102-.625-.306-1.26l-1.355-4.22H9.52l.973 3.156c.218.717.31 1.217.273 1.502.532-1.424.903-2.977 1.115-4.657h1.17" fill="#00758F"/>
        <path d="M18.458 22.8c0 .627-.23 1.142-.688 1.546-.46.4-1.075.602-1.846.602-.722 0-1.421-.232-2.1-.69l.318-.636c.583.293 1.11.439 1.584.439.445 0 .793-.1 1.044-.296a1.01 1.01 0 0 0 .402-.822c0-.439-.306-.815-.866-1.129-.518-.285-1.552-.88-1.552-.88-.56-.409-.841-.849-.841-1.573 0-.6.209-1.084.628-1.453.419-.369.96-.553 1.623-.553.685 0 1.307.183 1.868.549l-.285.634a3.61 3.61 0 0 0-1.42-.306c-.378 0-.67.091-.873.275a.916.916 0 0 0-.331.7c0 .438.312.819.888 1.14.524.285 1.584.89 1.584.89.576.41.863.846.863 1.564M25.058 25.03l-1.356-.67c.121-.1.235-.208.34-.332.575-.678.863-1.683.863-3.013 0-2.447-.958-3.67-2.874-3.67-.94 0-1.672.31-2.197.931-.576.68-.863 1.68-.863 3.002 0 1.3.255 2.254.765 2.86.464.548 1.167.822 2.108.822.351 0 .673-.043.965-.13l1.766 1.03.482-.83m-4.392-1.659c-.299-.482-.449-1.256-.449-2.323 0-1.862.565-2.794 1.694-2.794.591 0 1.024.223 1.301.668.3.482.448 1.25.448 2.301 0 1.878-.565 2.817-1.694 2.817-.59 0-1.023-.223-1.3-.669M29.485 24.85h-3.508v-7.396h1.18v6.487h2.328v.91M31.815 24.85h.184v-.906h-.277l-.226.617-.245-.617h-.267v.906h.174v-.69h.01l.257.69h.133l.257-.69v.69zm-1.488 0h.195v-.753h.256v-.153h-.717v.153h.266v.753z" fill="#F29111"/>
        <g transform="translate(18.895 5)">
            <mask id="s1edklwknd" fill="#fff">
                <use xlink:href="#hc0ylos3uc"/>
            </mask>
            <path d="M12.071 9.976c-.713-.018-1.266.053-1.729.25-.134.054-.348.054-.366.224.072.072.081.188.143.287.107.178.294.418.464.544.187.143.374.285.57.412.348.215.74.34 1.078.553.197.125.392.287.59.42.097.072.16.188.284.232v-.027c-.063-.08-.08-.196-.143-.286-.088-.089-.178-.17-.267-.259a4.262 4.262 0 0 0-.927-.902c-.285-.197-.91-.464-1.025-.794l-.018-.019c.196-.018.428-.09.615-.144.303-.08.58-.062.891-.142.143-.035.286-.08.43-.124v-.082c-.162-.16-.278-.376-.447-.527a11.9 11.9 0 0 0-1.47-1.1c-.278-.179-.634-.294-.928-.447-.107-.053-.285-.08-.348-.17-.16-.196-.25-.455-.365-.688a22.127 22.127 0 0 1-.73-1.554c-.16-.348-.259-.697-.456-1.019C7 3.094 6.001 2.174 4.468 1.272c-.33-.189-.722-.268-1.14-.367-.224-.01-.446-.027-.669-.035-.143-.064-.286-.234-.41-.314C1.74.234.431-.462.056.459c-.24.582.357 1.153.562 1.448.151.206.347.439.454.67.062.152.08.313.143.474.142.393.276.832.463 1.197.098.189.205.386.33.554.072.1.196.143.223.304-.125.18-.134.447-.205.671-.32 1.01-.197 2.261.258 3.002.142.224.482.715.936.527.401-.16.312-.67.428-1.115.027-.108.01-.18.062-.251v.018c.125.25.25.49.366.741.276.438.757.893 1.16 1.197.212.162.381.439.65.537v-.027h-.019c-.053-.08-.133-.116-.205-.178A4.378 4.378 0 0 1 5.2 9.69c-.375-.5-.705-1.054-.998-1.627-.143-.277-.268-.58-.384-.858-.053-.107-.053-.268-.142-.32-.134.196-.33.365-.428.607-.169.383-.187.858-.25 1.35-.035.008-.018 0-.035.016-.285-.07-.383-.366-.49-.615-.268-.636-.313-1.654-.08-2.387.061-.188.33-.777.222-.955-.054-.171-.232-.268-.33-.404a3.57 3.57 0 0 1-.32-.571c-.214-.5-.322-1.054-.553-1.556-.107-.232-.295-.474-.446-.688-.169-.24-.356-.41-.49-.696C.431.887.368.726.44.62.457.547.493.52.564.503c.116-.098.446.026.561.08.33.134.607.26.883.448.125.089.258.259.418.304h.188c.285.062.606.016.874.098.472.151.9.375 1.283.617a7.912 7.912 0 0 1 2.78 3.056c.108.205.153.393.25.607.188.439.42.885.606 1.314.187.42.366.848.634 1.198.133.188.668.286.91.383.177.082.453.152.614.25.303.188.605.403.891.608.142.109.588.332.615.51" fill="#00758F" mask="url(#s1edklwknd)"/>
        </g>
        <path d="M21.874 7.21c-.15 0-.258.017-.365.044v.018h.017c.072.142.197.242.285.366.072.143.134.286.206.43l.017-.019c.126-.089.188-.232.188-.447-.054-.063-.062-.125-.107-.188-.054-.089-.17-.133-.24-.205" fill="#00758F"/>
    </g>
</svg>
