<?xml version="1.0" encoding="utf-8"?>
<!-- Generator: Adobe Illustrator 27.5.0, SVG Export Plug-In . SVG Version: 6.00 Build 0)  -->
<svg width="80" height="40" version="1.1" id="Layer_1" xmlns="http://www.w3.org/2000/svg" xmlns:xlink="http://www.w3.org/1999/xlink" x="0px" y="0px"
	 viewBox="0 0 80 40" style="enable-background:new 0 0 80 40;" xml:space="preserve">
<style type="text/css">
	.st0{clip-path:url(#SVGID_00000129889513290948924200000001871323998303205546_);}
	.st1{fill:#191E30;}
</style>
<g>
	<g>
		<defs>
			<rect id="SVGID_1_" x="0.4" y="10.6" width="79.6" height="19.1"/>
		</defs>
		<clipPath id="SVGID_00000170983150862329380050000014447590477376874896_">
			<use xlink:href="#SVGID_1_"  style="overflow:visible;"/>
		</clipPath>
		<g style="clip-path:url(#SVGID_00000170983150862329380050000014447590477376874896_);">
			<path class="st1" d="M18,29.6c-2.5,0-5.5-1.6-8.2-4.2c-0.1,0.3-0.3,0.7-0.4,1c-1,1.9-2.3,2.9-3.8,2.9s-2.9-1-3.8-2.9
				c-0.9-1.7-1.4-3.9-1.4-6.3c0-3.9,1.3-7.2,3.4-8.6c1.5-1,3.3-1.1,5.3-0.4c1.7,0.6,3.5,1.9,5.4,3.7c0.1-0.4,0.4-0.9,0.6-1.2
				c1-1.7,2.3-2.6,3.7-2.6c2.9,0,5.1,4,5.1,9.2c0,2.3-0.4,4.4-1.2,6c-0.3,0.8-0.8,1.5-1.4,2c-0.5,0.5-1.1,1-1.8,1.2
				C18.9,29.5,18.5,29.6,18,29.6z M10.1,24.2c3.4,3.5,7,4.8,8.9,4.1c1-0.3,1.9-1.3,2.5-2.7c0.7-1.5,1.1-3.5,1.1-5.5
				c0-2.2-0.4-4.3-1.2-5.8c-0.7-1.5-1.7-2.2-2.7-2.2c-1.5,0-2.8,1.5-3.5,3.6c2.7,3,4.5,6.6,4.4,9c0,0.9-0.4,1.5-0.9,2l0,0
				c-0.6,0.4-1.3,0.4-2,0c-1.7-0.9-3.1-4.3-3.1-7.5c0-1.1,0.1-2.2,0.4-3.2c-3.7-3.8-7.3-5.2-9.7-3.6c-1.8,1.2-2.9,4.2-2.9,7.7
				c0,4.5,1.8,8.1,4,8.1c1.4,0,2.6-1.5,3.3-3.7c-1.8-2-3.2-4.2-3.9-6.3c-0.6-2-0.6-3.7,0.2-4.5c0.5-0.5,1.3-0.7,2.1-0.3
				c1.6,0.7,3.4,3.2,3.4,6.6C10.6,21.4,10.4,22.8,10.1,24.2z M15,17c-0.1,0.7-0.2,1.5-0.2,2.2c0,3,1.4,5.9,2.5,6.5
				c0.4,0.2,0.6,0.1,0.8,0c0.3-0.2,0.4-0.6,0.5-1.1C18.7,22.7,17.2,19.6,15,17z M6.4,14.3c-0.1,0-0.3,0-0.4,0.2
				c-0.4,0.4-0.5,1.5,0,3.4c0.5,1.7,1.6,3.6,3.1,5.3c0.2-1,0.3-2.1,0.3-3.2c0-3.3-1.6-5.2-2.6-5.6C6.7,14.3,6.6,14.3,6.4,14.3z"/>
			<path class="st1" d="M30.9,23.1v-6h1.5v1c0.2-0.4,0.5-0.6,1-0.8c0.5-0.2,1-0.3,1.5-0.3c1.2,0,2,0.4,2.2,1.3
				c0.1,0.3,0.1,0.7,0.1,1.3v3.5h-1.5v-3.2c0-0.5,0-0.8-0.2-1c-0.2-0.4-0.6-0.6-1.2-0.6c-0.4,0-0.7,0.1-1,0.3
				c-0.3,0.1-0.6,0.4-0.8,0.6v3.9H30.9z"/>
			<path class="st1" d="M43.8,23.3c-0.8,0-1.2-0.3-1.4-0.8c-0.5,0.5-1.2,0.8-2.2,0.8c-0.8,0-1.4-0.2-1.8-0.5
				c-0.4-0.3-0.6-0.8-0.6-1.4c0-0.9,0.5-1.5,1.4-1.7c0.6-0.1,1.3-0.2,2.1-0.2c0.3,0,0.6,0,0.9,0.1v-0.2c0-0.3-0.1-0.5-0.2-0.7
				c-0.2-0.2-0.6-0.3-1.2-0.3c-1,0-1.7,0.2-2.4,0.7h0v-1.4c0.7-0.5,1.6-0.7,2.7-0.7c0.9,0,1.5,0.2,2,0.5c0.2,0.2,0.4,0.4,0.5,0.7
				c0.1,0.3,0.2,0.6,0.2,1.1c0,0.1,0,0.4,0,0.8c0,0.4,0,0.6,0,0.8c0,0.5,0,0.7,0,0.8c0,0.2,0.2,0.3,0.5,0.3c0.2,0,0.3,0,0.5-0.1v1.2
				C44.5,23.3,44.2,23.3,43.8,23.3z M42.3,20.7c-0.3,0-0.6,0-0.9,0c-0.4,0-0.9,0-1.3,0.1c-0.5,0.1-0.7,0.3-0.7,0.7
				c0,0.5,0.4,0.7,1.2,0.7c0.7,0,1.3-0.2,1.7-0.7C42.3,21.4,42.3,21.1,42.3,20.7z"/>
			<path class="st1" d="M45.7,23.6L45.7,23.6c0.8,0.5,1.6,0.8,2.7,0.8c0.9,0,1.5-0.2,1.8-0.5c0.2-0.3,0.4-0.7,0.4-1.3v-0.5
				c-0.2,0.3-0.5,0.5-0.9,0.7s-1,0.3-1.5,0.3c-1,0-1.8-0.2-2.4-0.7c-0.6-0.5-0.9-1.2-1-2.1c0-0.5,0.1-1,0.3-1.5
				c0.2-0.4,0.5-0.7,0.8-1c0.3-0.2,0.7-0.4,1.1-0.5c0.4-0.1,0.8-0.2,1.2-0.2c0.5,0,1,0.1,1.4,0.3c0.4,0.2,0.7,0.4,0.8,0.6v-0.7H52
				v5.3c0,0.9-0.1,1.5-0.5,2c-0.6,0.8-1.6,1.2-3.2,1.2c-0.5,0-1.1,0-1.6-0.2c-0.5-0.1-0.9-0.3-1.1-0.5L45.7,23.6z M50.6,19.3
				c-0.1-0.3-0.4-0.5-0.7-0.7c-0.4-0.2-0.8-0.3-1.2-0.2c-0.5,0-1,0.1-1.5,0.5c-0.4,0.3-0.6,0.8-0.6,1.4c0,0.5,0.2,0.9,0.6,1.2
				c0.5,0.3,1,0.4,1.5,0.4c0.4,0,0.8-0.1,1.2-0.2c0.3-0.1,0.6-0.4,0.8-0.6V19.3z"/>
			<path class="st1" d="M58.8,23.3c-0.8,0-1.2-0.3-1.4-0.8c-0.5,0.5-1.2,0.8-2.2,0.8c-0.8,0-1.4-0.2-1.8-0.5
				c-0.4-0.3-0.6-0.8-0.6-1.4c0-0.9,0.5-1.5,1.4-1.7c0.6-0.1,1.3-0.2,2.1-0.2c0.3,0,0.6,0,0.9,0.1v-0.2c0-0.3-0.1-0.5-0.2-0.7
				c-0.2-0.2-0.6-0.3-1.2-0.3c-1,0-1.7,0.2-2.4,0.7h-0.1v-1.4c0.7-0.5,1.6-0.7,2.7-0.7c0.9,0,1.5,0.2,2,0.5c0.2,0.2,0.4,0.4,0.5,0.7
				c0.1,0.3,0.2,0.6,0.2,1.1c0,0.1,0,0.4,0,0.8c0,0.4,0,0.6,0,0.8c0,0.5,0,0.7,0,0.8c0,0.2,0.2,0.3,0.5,0.3c0.2,0,0.3,0,0.5-0.1v1.2
				C59.5,23.3,59.2,23.3,58.8,23.3z M57.2,20.7c-0.3,0-0.6,0-0.9,0c-0.4,0-0.9,0-1.3,0.1c-0.5,0.1-0.7,0.3-0.7,0.7
				c0,0.5,0.4,0.7,1.2,0.7c0.7,0,1.3-0.2,1.7-0.7C57.2,21.4,57.2,21.1,57.2,20.7z"/>
			<path class="st1" d="M60.4,23.2v-6h1.5v1c0.1-0.3,0.4-0.5,0.7-0.8c0.4-0.3,0.8-0.4,1.3-0.4c0.4,0,0.6,0,0.8,0.2v1.5h0
				c-0.3-0.1-0.6-0.2-0.9-0.2c-0.4,0-0.8,0.1-1.1,0.2c-0.3,0.1-0.5,0.4-0.6,0.6v3.8L60.4,23.2z"/>
			<path class="st1" d="M75.9,22.5c-0.6,0.6-1.5,0.9-2.5,0.9s-1.9-0.3-2.5-0.9c-0.6-0.6-1-1.4-1-2.3s0.3-1.7,1-2.3
				c0.6-0.6,1.5-0.9,2.5-0.9c1.1,0,1.9,0.3,2.5,0.9c0.6,0.6,1,1.4,1,2.3C76.8,21.1,76.5,21.9,75.9,22.5z M74.7,18.9
				c-0.4-0.4-0.8-0.5-1.5-0.5c-0.6,0-1.1,0.2-1.5,0.5c-0.4,0.3-0.6,0.8-0.6,1.3s0.2,1,0.6,1.3c0.4,0.3,0.9,0.5,1.5,0.5
				s1.1-0.2,1.5-0.5c0.4-0.3,0.5-0.8,0.5-1.3C75.3,19.7,75.1,19.3,74.7,18.9z"/>
			<path class="st1" d="M65.4,23.2v-6h1.5v1c0.1-0.3,0.4-0.5,0.7-0.8c0.4-0.3,0.8-0.4,1.3-0.4c0.4,0,0.6,0,0.8,0.2v1.5h0
				c-0.3-0.1-0.6-0.2-0.9-0.2c-0.4,0-0.8,0.1-1.1,0.2c-0.3,0.1-0.5,0.4-0.6,0.6v3.8L65.4,23.2z"/>
		</g>
	</g>
</g>
</svg>
