<svg width="80" height="40" viewBox="0 0 80 40" xmlns="http://www.w3.org/2000/svg">
    <g fill="none" fill-rule="evenodd">
        <path d="M0 0h80v40H0z"/>
        <path d="M59.998 19.984a19.939 19.939 0 0 0-2.554-9.744c-4.789 1.092-9.693 2.848-13.498 5.504-4.291 2.995-7.273 6.743-8.211 9.916l-.07.21-.135.499h-6.646l-1.016-7.905-6.8 7.975c3.559 10.456 14.919 16.047 25.375 12.489a19.999 19.999 0 0 0 13.555-18.944zm-14.839 6.385h-3.282v-5.887h3.282v.639h-1.966v1.992h1.315v.638h-1.315v1.98h1.966v.638zm5.881-1.22a1.342 1.342 0 0 1-1.335 1.335h-.67A1.176 1.176 0 0 1 47.7 25.15h.639a.723.723 0 0 0 0 .114.469.469 0 0 0 .211.415c.137.094.3.143.466.14a.639.639 0 0 0 .511-.171.759.759 0 0 0 .153-.505.638.638 0 0 0-.198-.472l-1.418-1.59a1.39 1.39 0 0 1-.389-.945v-.332a1.34 1.34 0 0 1 1.334-1.341h.696c.837 0 1.277.447 1.335 1.34h-.639c-.057-.453-.268-.676-.638-.676a.757.757 0 0 0-.537.172.64.64 0 0 0-.172.505.69.69 0 0 0 .198.472l1.417 1.59c.244.255.383.592.39.945l-.019.339zm5.919 0c.014.349-.115.688-.358.939a1.276 1.276 0 0 1-.945.396h-.638a1.175 1.175 0 0 1-1.335-1.334h.671a.723.723 0 0 0 0 .114.47.47 0 0 0 .21.415c.137.094.3.143.466.14a.687.687 0 0 0 .518-.171.759.759 0 0 0 .153-.505.638.638 0 0 0-.198-.472l-1.456-1.59a1.39 1.39 0 0 1-.389-.945v-.332a1.272 1.272 0 0 1 .389-.945c.246-.258.589-.402.945-.396h.639c.836 0 1.277.447 1.334 1.34h-.638c-.058-.453-.269-.676-.639-.676a.755.755 0 0 0-.536.172.64.64 0 0 0-.173.505.715.715 0 0 0 .192.472l1.43 1.59c.242.256.381.593.39.945v.339h-.032zm-20.26-8c6.385-5.165 15.592-6.921 20.7-7.024C51.941.52 39.73-2.843 30.124 2.615a20.003 20.003 0 0 0-9.426 22.624l9.724-11.455h.716l1.079 7.662a34.333 34.333 0 0 1 4.469-4.316l.013.019z" fill="#191E30"/>
    </g>
</svg>
