<svg width="32" height="32" viewBox="0 0 32 32" xmlns="http://www.w3.org/2000/svg">
    <g fill="none" fill-rule="evenodd">
        <path d="M0 0h32v32H0z"/>
        <path fill="#512BD4" d="M0 32h32V0H0z"/>
        <g fill="#FFF">
            <path d="M5.703 20.444a.805.805 0 0 1-.577-.226.746.746 0 0 1-.238-.55c0-.218.08-.403.238-.558a.794.794 0 0 1 .577-.232c.23 0 .424.077.583.232.162.155.243.34.243.557a.736.736 0 0 1-.243.551.814.814 0 0 1-.583.226M14.749 20.317h-1.471l-3.874-6.113a2.686 2.686 0 0 1-.244-.481h-.034c.03.178.046.558.046 1.142v5.452H7.87V12h1.566l3.745 5.968c.159.248.26.418.306.51h.022c-.037-.22-.056-.593-.056-1.12V12h1.295v8.317zM21.084 20.317H16.53V12h4.373v1.172h-3.026v2.354h2.788v1.166h-2.788v2.459h3.207zM27.556 13.172h-2.331v7.145h-1.346v-7.145h-2.325V12h6.002z"/>
        </g>
    </g>
</svg>
