<svg width="80" height="40" viewBox="0 0 80 40" fill="none" xmlns="http://www.w3.org/2000/svg">
<path fill-rule="evenodd" clip-rule="evenodd" d="M35.732 25.7894C36.265 25.1643 36.587 24.5123 36.587 22.6216V17.3784C36.587 15.4887 36.265 14.8377 35.732 14.2117C34.915 13.2803 33.726 13 31.435 13H24.858C22.567 13 21.377 13.2803 20.56 14.2117C20.027 14.8377 19.705 15.4887 19.705 17.3784V22.6216C19.705 24.5123 20.027 25.1643 20.56 25.7894C21.376 26.7197 22.567 27 24.858 27H31.435C33.726 27 34.915 26.7197 35.732 25.7894ZM0 26.8276H3.852V16.5L11.63 26.8276H18.157V13.2263H14.305V23.3806L6.662 13.2263H0V26.8276ZM31.273 23.554C32.153 23.554 32.463 23.5 32.674 23.3007C32.871 23.1148 32.958 22.875 32.958 22.0755V17.9245C32.958 17.125 32.871 16.8873 32.674 16.7004C32.463 16.5 32.153 16.447 31.273 16.447H25.019C24.139 16.447 23.829 16.5 23.619 16.7004C23.421 16.8873 23.334 17.125 23.334 17.9245V22.0755C23.334 22.875 23.421 23.1148 23.619 23.3007C23.829 23.5 24.139 23.554 25.019 23.554H31.273ZM42.185 26.8276V19.7342L49.53 26.8276H55.216L47.127 19.5878L54.299 13.2263H48.985L42.185 19.7342V13.2263H38.16V26.8276H42.185ZM59.984 13.2263H55.958V26.8276H59.984V13.2263ZM75.331 26.8276L74.14 24.4583H66.351L65.174 26.8266H60.727L67.862 13.2263H72.866L80 26.8276H75.331ZM72.755 21.5044H67.75L70.252 16.5799L72.755 21.5044Z" fill="#191E30"/>
</svg>
