<svg width="32" height="32" viewBox="0 0 32 32" fill="none" xmlns="http://www.w3.org/2000/svg">
<path d="M5.66667 0H26.3333C29.4667 0 32 2.59829 32 5.81197V26.188C32 29.4017 29.4667 32 26.3333 32H5.66667C2.53333 32 0 29.4017 0 26.188V5.81197C0 2.59829 2.53333 0 5.66667 0Z" fill="#001E36"/>
<path fill-rule="evenodd" clip-rule="evenodd" d="M6.66602 8.23086V22.2049C6.66602 22.3272 6.71772 22.3815 6.82113 22.3815H9.27713H9.32883C9.41932 22.3679 9.48395 22.2864 9.47102 22.1914V17.8321C9.71662 17.8321 9.89759 17.8321 10.0269 17.8457C10.1561 17.8593 10.3629 17.8593 10.6732 17.8593C11.7331 17.8593 12.7026 17.737 13.5816 17.3975C14.4218 17.0716 15.1457 16.5012 15.6627 15.7407C16.1798 14.9802 16.4383 14.016 16.4383 12.8481C16.4383 12.237 16.3349 11.6531 16.141 11.0827C15.9342 10.4988 15.611 9.96914 15.1974 9.53457C14.7062 9.0321 14.1116 8.65185 13.4653 8.42099C12.7414 8.1358 11.8624 8 10.8024 8C10.4146 8 10.0269 8 9.62614 8.01358C9.43268 8.02014 9.24525 8.02353 9.06385 8.02681C8.8695 8.03033 8.68207 8.03372 8.50155 8.04074C8.33228 8.04733 8.16908 8.05072 8.0105 8.05402C7.84211 8.05752 7.67892 8.06091 7.51915 8.0679C7.22185 8.08148 7.01503 8.08148 6.79528 8.08148C6.70479 8.08148 6.66602 8.1358 6.66602 8.23086ZM9.48395 15.2654V10.7025C9.57443 10.6889 9.7554 10.6753 10.0139 10.6889C10.2595 10.6753 10.5568 10.6753 10.8929 10.6753C11.4229 10.6617 11.9399 10.7432 12.4182 10.9469C12.7931 11.0963 13.1033 11.3679 13.3231 11.721C13.5299 12.0877 13.6333 12.5086 13.6204 12.9296C13.6204 13.5272 13.4911 13.9889 13.2197 14.3284C12.9353 14.6679 12.5733 14.9259 12.1597 15.0481C11.6814 15.2111 11.1773 15.2926 10.6732 15.2926H9.98808C9.84409 15.2926 9.68897 15.2809 9.52271 15.2684C9.50986 15.2674 9.49694 15.2664 9.48395 15.2654Z" fill="#31A8FF"/>
<path d="M24.5049 14.4363C24.1171 14.219 23.7034 14.0697 23.2639 13.9746C22.7857 13.866 22.3074 13.7981 21.8162 13.7981C21.5577 13.7845 21.2862 13.8252 21.0406 13.8931C20.8726 13.9339 20.7304 14.0289 20.6399 14.1647C20.5753 14.2734 20.5365 14.4092 20.5365 14.5314C20.5365 14.6536 20.5882 14.7758 20.6657 14.8845C20.7821 15.0339 20.9372 15.1561 21.1052 15.2511C21.4025 15.4141 21.7128 15.5635 22.023 15.6993C22.721 15.9437 23.3932 16.2832 24.0137 16.6906C24.4402 16.9758 24.7892 17.3561 25.0348 17.8178C25.2417 18.2524 25.3451 18.7277 25.3321 19.2166C25.3451 19.8548 25.1641 20.4931 24.828 21.0227C24.4661 21.566 23.962 21.9869 23.3803 22.2314C22.7469 22.5166 21.9713 22.666 21.0406 22.666C20.446 22.666 19.8643 22.6116 19.2826 22.4894C18.8302 22.4079 18.3778 22.2585 17.9641 22.0548C17.8737 22.0005 17.809 21.9055 17.822 21.7968V19.4339C17.822 19.3931 17.8349 19.3388 17.8737 19.3116C17.9124 19.2845 17.9512 19.2981 17.99 19.3252C18.4941 19.6376 19.0241 19.8548 19.5929 19.9906C20.0841 20.1264 20.6011 20.1943 21.1182 20.1943C21.6094 20.1943 21.9584 20.1264 22.1911 20.0042C22.3979 19.9092 22.5401 19.6783 22.5401 19.4339C22.5401 19.2437 22.4367 19.0672 22.2298 18.8906C22.023 18.7141 21.5964 18.5104 20.9631 18.2524C20.3038 18.0079 19.6963 17.682 19.1275 17.2746C18.7268 16.9758 18.3907 16.582 18.1451 16.1203C17.9383 15.6857 17.8349 15.2104 17.8478 14.7351C17.8478 14.1511 18.0029 13.5943 18.2873 13.0919C18.6105 12.5487 19.0887 12.1141 19.6446 11.8425C20.2521 11.5166 21.0148 11.3672 21.9325 11.3672C22.4625 11.3672 23.0054 11.4079 23.5354 11.4894C23.9232 11.5437 24.298 11.6524 24.647 11.8018C24.6988 11.8153 24.7505 11.8697 24.7763 11.924C24.7892 11.9783 24.8022 12.0326 24.8022 12.0869V14.3005C24.8022 14.3548 24.7763 14.4092 24.7375 14.4363C24.6212 14.4635 24.5566 14.4635 24.5049 14.4363Z" fill="#31A8FF"/>
</svg>
