<svg width="32" height="16" viewBox="0 0 32 16" fill="none" xmlns="http://www.w3.org/2000/svg">
<path fill-rule="evenodd" clip-rule="evenodd" d="M7.27799 3.36523H2.53224L0 15.9996H2.46141L3.13432 12.6516H5.25928C5.97929 12.6516 6.67592 12.5695 7.34882 12.4049C8.02173 12.2403 8.6532 11.8526 9.24358 11.2419C9.72771 10.7601 10.1053 10.2199 10.3769 9.62074C10.6602 9.02162 10.8433 8.41087 10.9258 7.78814C11.1383 6.42533 10.9319 5.35044 10.3061 4.56347C9.68026 3.77651 8.67091 3.37687 7.27799 3.36523ZM4.60054 5.39167L4.60408 5.37405L4.58637 5.39167H4.60054ZM4.60054 5.39167L3.5416 10.6604C3.61243 10.672 3.68326 10.678 3.7541 10.678H4.00201C5.13532 10.6896 6.07986 10.5783 6.83529 10.3432C7.59072 10.0965 8.09857 9.23906 8.35818 7.77052C8.57067 6.53704 8.35818 5.82621 7.72069 5.63836C7.09489 5.45051 6.31006 5.36241 5.36552 5.37405C5.22386 5.38568 5.08821 5.39167 4.95824 5.39167H4.60054Z" fill="black"/>
<path d="M13.7296 0H16.1733L15.4827 3.36564H17.6785C18.8827 3.38924 19.7798 3.63594 20.3701 4.10573C20.9722 4.57551 21.1493 5.46854 20.9014 6.78414L19.7149 12.652H17.2358L18.3691 7.04846C18.4871 6.46098 18.4517 6.04405 18.2629 5.79736C18.0741 5.55066 17.6668 5.42731 17.041 5.42731L15.0754 5.40969L13.6234 12.652H11.1797L13.7296 0Z" fill="black"/>
<path fill-rule="evenodd" clip-rule="evenodd" d="M28.2721 3.36523H23.5264L20.9941 15.9996H23.4556L24.1285 12.6516H26.2534C26.9734 12.6516 27.6701 12.5695 28.343 12.4049C29.0159 12.2403 29.6473 11.8526 30.2377 11.2419C30.7218 10.7601 31.0994 10.2199 31.371 9.62074C31.6544 9.02162 31.8375 8.41087 31.92 7.78814C32.1325 6.42533 31.926 5.35044 31.3002 4.56347C30.6744 3.77651 29.665 3.37687 28.2721 3.36523ZM25.5947 5.39167L25.5982 5.37405L25.5805 5.39167H25.5947ZM25.5947 5.39167L24.5357 10.6604C24.6066 10.672 24.6774 10.678 24.7482 10.678H24.9961C26.1295 10.6896 27.074 10.5783 27.8294 10.3432C28.5849 10.0965 29.0927 9.23906 29.3523 7.77052C29.5648 6.53704 29.3523 5.82621 28.7148 5.63836C28.089 5.45051 27.3042 5.36241 26.3597 5.37405C26.218 5.38568 26.0824 5.39167 25.9524 5.39167H25.5947Z" fill="black"/>
</svg>
