<svg width="32" height="32" viewBox="0 0 32 32" fill="none" xmlns="http://www.w3.org/2000/svg">
<path fill-rule="evenodd" clip-rule="evenodd" d="M27.5448 8.0918L27.4953 8.0918L27.4802 8.09215L24.7546 8.09289L24.7546 12.0188L24.7471 12.2062L24.7366 12.3495L24.7143 12.5606L24.6949 12.7022L24.6702 12.8537L24.6506 12.9596L24.6158 13.1249L24.5889 13.239L24.5586 13.3557C24.5533 13.3753 24.5479 13.3951 24.5423 13.4149L24.5068 13.535L24.4677 13.6569C24.4608 13.6774 24.4538 13.6979 24.4467 13.7184L24.4016 13.8424C24.3545 13.9669 24.3012 14.0929 24.2408 14.2188L24.178 14.3446C23.6127 15.4335 22.4956 16.4773 20.2898 16.4773L12.5698 16.4774L12.4388 16.4815L12.3549 16.4864L12.1825 16.501L12.0614 16.5146L11.9285 16.5327L11.834 16.5475L11.7352 16.5647L11.6324 16.5845L11.526 16.607L11.4163 16.6326L11.3037 16.6612L11.1885 16.6932L11.0712 16.7287L10.952 16.7678L10.8313 16.8108C10.8111 16.8183 10.7908 16.826 10.7705 16.8338L10.6482 16.883L10.5254 16.9365C10.4844 16.955 10.4433 16.9743 10.4023 16.9944L10.2793 17.0571C9.25591 17.5991 8.28125 18.6473 8.28125 20.6741V27.7295L8.27497 27.7893L8.27138 27.849L8.26953 27.9272L8.27006 27.9888L8.27466 28.0947L8.28096 28.1735L8.29038 28.2585L8.30341 28.3492L8.32051 28.4452L8.34215 28.5462C8.63096 29.7857 10.0024 31.9991 16.1149 31.9991C21.8014 31.9991 23.2588 30.2638 23.6214 29.2227L23.6499 29.1352C23.6542 29.1209 23.6584 29.1068 23.6623 29.0928L23.6835 29.0111C23.6867 28.9978 23.6897 28.9847 23.6925 28.9718L23.7076 28.8965L23.719 28.826L23.7272 28.7607L23.7327 28.7007L23.7368 28.6217L23.7369 28.5386L23.7339 28.4834L23.7317 28.4619L23.7221 24.789H15.97V23.6874H26.8013L26.8957 23.694L26.9761 23.6964L27.0784 23.6964L27.2009 23.6925L27.2929 23.687L27.3927 23.6786L27.4997 23.6668C27.5181 23.6646 27.5368 23.6621 27.5558 23.6596L27.6727 23.642L27.7957 23.6199C29.3048 23.3268 31.9995 21.9729 31.9995 16.0404C31.9995 10.734 30.1178 8.96614 28.778 8.37992L28.6646 8.33251C28.6459 8.32507 28.6274 8.31786 28.6089 8.31087L28.5001 8.27153C28.4644 8.25926 28.4293 8.24781 28.3948 8.23714L28.2933 8.2074C28.2767 8.2028 28.2603 8.19839 28.2441 8.19416L28.149 8.17074L28.0586 8.15113L27.9732 8.135L27.8932 8.12202L27.8189 8.11186L27.7506 8.10419L27.6336 8.09499L27.5448 8.0918ZM18.9948 28.13C18.9948 27.3547 19.6182 26.7281 20.3894 26.7281C21.1607 26.7281 21.7841 27.3547 21.7841 28.13C21.7841 28.9053 21.1607 29.532 20.3894 29.532C19.6182 29.532 18.9948 28.9053 18.9948 28.13Z" fill="#FED83F"/>
<path fill-rule="evenodd" clip-rule="evenodd" d="M23.679 3.55382C23.4411 2.33804 22.1669 0 15.8846 0C10.2794 0 8.78326 1.68602 8.39433 2.73135L8.36323 2.82058C8.35849 2.83517 8.35396 2.8496 8.34963 2.86388L8.32608 2.94762C8.319 2.97488 8.31267 3.00145 8.30701 3.02729L8.29199 3.10253C8.2898 3.11469 8.28776 3.12664 8.28586 3.13839L8.27609 3.20637L8.26682 3.29836L8.26359 3.35252L8.2621 3.4222L8.26329 3.47695L8.26781 3.53713L8.2774 7.21009H16.0295V8.31163H5.19828L5.1038 8.30508L5.02342 8.30266L4.92115 8.30264L4.79867 8.30655L4.65766 8.31591L4.55419 8.32594L4.44374 8.33951L4.3268 8.3571L4.20387 8.37914L4.07545 8.40609C2.54716 8.75096 0 10.1909 0 15.9587C0 20.8102 1.57297 22.7039 2.86659 23.4409L2.98699 23.5066C3.08655 23.5587 3.18405 23.6041 3.2786 23.6436L3.3906 23.6882L3.49944 23.7275C3.55301 23.7459 3.60527 23.7625 3.65603 23.7774L3.75547 23.8049L3.85057 23.8283L3.94098 23.8479L4.02635 23.8641L4.10636 23.877L4.18067 23.8872L4.28068 23.8979L4.36594 23.9041L4.45471 23.9073L4.50428 23.9073L4.52988 23.9065L7.24499 23.9062L7.24499 19.9802L7.25243 19.7929L7.26296 19.6496L7.27497 19.5269L7.29121 19.3924L7.30468 19.2968L7.32932 19.1454L7.34897 19.0395L7.3714 18.9301L7.39681 18.8175L7.42538 18.7021L7.45729 18.5841L7.49273 18.4641L7.53187 18.3422C7.53871 18.3217 7.54571 18.3012 7.55288 18.2806L7.59793 18.1566C7.64502 18.0321 7.69837 17.9062 7.75878 17.7803L7.82159 17.6545C8.38685 16.5656 9.50397 15.5217 11.7097 15.5217L19.4298 15.5217L19.5607 15.5176L19.6446 15.5127L19.8171 15.4981L19.9382 15.4844L20.071 15.4664L20.2144 15.4433L20.3671 15.4146L20.4736 15.392L20.5833 15.3665L20.6959 15.3379C20.7149 15.3328 20.734 15.3276 20.7532 15.3223L20.8695 15.2886C20.889 15.2827 20.9087 15.2766 20.9284 15.2704L21.0476 15.2313C21.0676 15.2244 21.0876 15.2174 21.1078 15.2102L21.2291 15.1652L21.3513 15.1161L21.4742 15.0626L21.5973 15.0046C22.6641 14.4823 23.7183 13.4328 23.7183 11.3249V4.26961L23.7271 4.17208L23.7297 4.09992L23.73 4.04199L23.7285 3.97668L23.7249 3.9044L23.7186 3.82557L23.7092 3.74059L23.6961 3.64987L23.679 3.55382ZM10.2154 3.86905C10.2154 3.09373 10.8388 2.46709 11.6101 2.46709C12.3814 2.46709 13.0048 3.09373 13.0048 3.86905C13.0048 4.64437 12.3814 5.27101 11.6101 5.27101C10.8388 5.27101 10.2154 4.64437 10.2154 3.86905Z" fill="#3B7CAE"/>
</svg>
