<svg width="32" height="32" viewBox="0 0 32 32" xmlns="http://www.w3.org/2000/svg" xmlns:xlink="http://www.w3.org/1999/xlink">
    <defs>
        <path id="1xhj8kufpa" d="M0 0h19.74v28.537H0z"/>
        <path id="054ammijcc" d="M0 0h19.711v28.537H0z"/>
    </defs>
    <g fill="none" fill-rule="evenodd">
        <path d="M0 0h32v32H0z"/>
        <path d="M16 13.416a2.852 2.852 0 1 1 0 5.704 2.852 2.852 0 0 1 0-5.704" fill="#61DAFB"/>
        <path d="M16 11.12c-8.609 0-14.609 2.714-14.609 5.149 0 2.434 6 5.148 14.609 5.148s14.609-2.714 14.609-5.148c0-2.435-6-5.148-14.609-5.148m0 11.687c-8.972 0-16-2.872-16-6.54C0 12.603 7.028 9.73 16 9.73c8.971 0 16 2.872 16 6.539s-7.029 6.539-16 6.539" fill="#61DAFB"/>
        <g transform="translate(6.13 2)">
            <mask id="poa3u0fhsb" fill="#fff">
                <use xlink:href="#1xhj8kufpa"/>
            </mask>
            <path d="M3.501 1.387c-.355 0-.669.076-.936.23-1.069.617-1.432 2.525-.998 5.235.476 2.974 1.842 6.522 3.844 9.99 2.003 3.47 4.393 6.425 6.73 8.324 2.13 1.733 3.966 2.37 5.033 1.754 1.067-.617 1.432-2.526.998-5.236-.477-2.973-1.842-6.521-3.844-9.99-2.004-3.468-4.393-6.425-6.73-8.323C6 2.07 4.568 1.387 3.501 1.387m12.755 27.15c-1.417 0-3.13-.778-4.993-2.291-2.465-2.004-4.97-5.096-7.057-8.708C2.121 13.926.696 10.21.193 7.072-.345 3.712.25 1.347 1.87.412 3.487-.522 5.835.144 8.475 2.29c2.466 2.004 4.972 5.096 7.057 8.708 2.086 3.61 3.511 7.329 4.014 10.466.538 3.36-.057 5.726-1.677 6.659a3.165 3.165 0 0 1-1.613.413" fill="#61DAFB" mask="url(#poa3u0fhsb)"/>
        </g>
        <g transform="translate(6.13 2)">
            <mask id="sd4l3xv2ud" fill="#fff">
                <use xlink:href="#054ammijcc"/>
            </mask>
            <path d="M16.238 1.387c-1.067 0-2.5.684-4.096 1.984-2.337 1.898-4.727 4.855-6.73 8.324-2.003 3.468-3.368 7.016-3.844 9.989-.435 2.71-.071 4.619.997 5.236 1.07.614 2.904-.023 5.034-1.754 2.336-1.898 4.726-4.854 6.73-8.323 4.303-7.457 4.954-14.01 2.845-15.226a1.843 1.843 0 0 0-.936-.23M3.483 28.537a3.165 3.165 0 0 1-1.613-.413c-1.62-.933-2.215-3.3-1.676-6.66C.697 18.329 2.122 14.61 4.207 11c2.085-3.612 4.59-6.704 7.057-8.708C13.904.144 16.25-.522 17.87.41c3.175 1.834 2.149 9.357-2.337 17.127-2.086 3.612-4.591 6.704-7.057 8.708-1.861 1.513-3.576 2.29-4.993 2.29" fill="#61DAFB" mask="url(#sd4l3xv2ud)"/>
        </g>
    </g>
</svg>
