<svg width="32" height="32" viewBox="0 0 32 32" xmlns="http://www.w3.org/2000/svg">
    <path d="M28.61 0a.216.216 0 0 1 .193.295l-.023.044-7.869 10.786a.301.301 0 0 1-.417.043l-.044-.043L17.627 8a.301.301 0 0 0-.45-.046l-.04.046-1.666 2.137a.302.302 0 0 0-.032.326l.032.05 5.062 5.222a.302.302 0 0 0 .38.023l.046-.04L30.84 4.62a.22.22 0 0 1 .424.092l-.01.05v27.002c0 .113-.081.208-.188.23L31.02 32H.902a.235.235 0 0 1-.23-.188l-.005-.047V.235c0-.114.08-.208.187-.23L.902 0H28.61zm-7.87 18.202-.114.002a4.997 4.997 0 0 0-4.853 5.137 4.969 4.969 0 0 0 5.242 5.157 6.277 6.277 0 0 0 3.859-1.204.262.262 0 0 0 .081-.298l-.025-.05-.847-1.233-.018-.025a.255.255 0 0 0-.316-.06l-.042.029a4.354 4.354 0 0 1-2.41.79 2.645 2.645 0 0 1-2.796-2.05l-.027-.134.001-.028a.085.085 0 0 1 .048-.059l.026-.007h6.984a.254.254 0 0 0 .241-.212l.003-.051-.01-.301c0-3.148-1.91-5.318-4.745-5.4l-.281-.003zM9.259 14.819l-.233.004c-3.125 0-5.008 1.826-5.008 4.02 0 2.411 1.791 3.276 3.635 3.793l.335.09.335.085 1.127.272.151.038.294.079c1.003.28 1.728.625 1.728 1.346 0 .753-.753 1.468-2.297 1.468a5.786 5.786 0 0 1-3.789-1.397l-.17-.15a.293.293 0 0 0-.364.059l-1.21 1.695a.292.292 0 0 0 0 .386 7.604 7.604 0 0 0 5.165 1.89l.228-.008c3.566 0 5.289-1.826 5.289-4.216 0-2.402-1.787-3.309-3.626-3.845l-.334-.094-.334-.087-1.124-.274-.444-.114-.278-.079c-.854-.255-1.446-.568-1.446-1.154 0-.79.677-1.327 1.882-1.327A5.726 5.726 0 0 1 12.2 18.4l.2.152a.292.292 0 0 0 .368-.015l.04-.044 1.157-1.61a.29.29 0 0 0 0-.404 7.42 7.42 0 0 0-4.707-1.661zm11.597 5.426a2.268 2.268 0 0 1 2.396 1.966l.014.133a.075.075 0 0 1-.052.071l-.024.004H18.53c-.007 0-.014 0-.021-.002a.076.076 0 0 1-.054-.092 2.343 2.343 0 0 1 2.4-2.08z" fill="#00AF00" fill-rule="evenodd"/>
</svg>
