<svg width="32" height="32" viewBox="0 0 32 32" xmlns="http://www.w3.org/2000/svg" xmlns:xlink="http://www.w3.org/1999/xlink">
    <defs>
        <path id="0l8uotpuoa" d="M0 0h7.979v10.736H0z"/>
        <path id="j29kjlm3zc" d="M0 0h9.019v10.731H0z"/>
    </defs>
    <g fill="none" fill-rule="evenodd">
        <path d="M0 0h32v32H0z"/>
        <path d="M15.504 18.134h-1.419a1.317 1.317 0 0 1-1.317-1.317v-2.902c0-.725.587-1.317 1.317-1.317h4.528c.726 0 1.318.587 1.318 1.317v2.902c0 .725-.587 1.317-1.318 1.317h-2l3.046 4.805h3.12l-1.744-2.752c.901-.581 1.525-1.568 1.525-2.71v-4.223c0-1.813-1.589-3.253-3.376-3.253h-5.669c-1.792 0-3.376 1.44-3.376 3.253v4.224c0 1.819 1.59 3.253 3.376 3.253h3.637l-1.648-2.597z" fill="#143C67"/>
        <g transform="translate(24.021 10)">
            <mask id="k2iuidqagb" fill="#fff">
                <use xlink:href="#0l8uotpuoa"/>
            </mask>
            <path d="M7.979 10.736H3.376C1.59 10.736 0 9.296 0 7.483V0h2.635v6.816c0 .725.587 1.317 1.317 1.317h4.027v2.603z" fill="#143C67" mask="url(#k2iuidqagb)"/>
        </g>
        <g transform="translate(0 10)">
            <mask id="eqr3oy3jgd" fill="#fff">
                <use xlink:href="#j29kjlm3zc"/>
            </mask>
            <path d="M3.328 2.603h5.36V0h-5.76C1.312 0-.005 1.328 0 3.083v.501c-.005 1.76 1.312 3.083 2.928 3.083h2.757c.416 0 .752.315.752.725v.011h.006c0 .411-.336.725-.752.725H.507v2.603h5.584c1.616 0 2.933-1.328 2.928-3.083v-.501c.005-1.76-1.318-3.083-2.934-3.083H3.328c-.416 0-.752-.314-.752-.725v-.011c0-.41.336-.725.752-.725" fill="#143C67" mask="url(#eqr3oy3jgd)"/>
        </g>
    </g>
</svg>
