<svg width="34" height="34" viewBox="0 0 34 34" fill="none" xmlns="http://www.w3.org/2000/svg">
<path fill-rule="evenodd" clip-rule="evenodd" d="M28.6974 26.3138C28.6725 26.198 28.6589 26.1372 28.6464 26.0762C28.5346 25.5258 28.4082 24.9778 28.3193 24.4237C28.2883 24.2304 28.3046 24.0042 28.3768 23.8239C28.8639 22.6079 29.3662 21.3977 29.8794 20.1924C29.9481 20.0311 30.0821 19.8747 30.2258 19.7723C30.6919 19.4406 31.1736 19.1303 31.6558 18.822C31.8505 18.6975 31.9397 18.5426 31.9375 18.3079C31.9294 17.4331 31.9476 16.5578 31.9225 15.6836C31.9177 15.5178 31.8004 15.3021 31.6661 15.2026C31.1985 14.8561 30.6945 14.5593 30.2182 14.2238C30.0814 14.1274 29.9512 13.9815 29.8866 13.8293C29.3667 12.6042 28.8585 11.3741 28.361 10.1398C28.2992 9.98655 28.2826 9.79336 28.3103 9.62981C28.4076 9.05584 28.5246 8.48471 28.6531 7.91684C28.7028 7.69735 28.6559 7.5353 28.5007 7.38144C27.8719 6.75821 27.246 6.13215 26.6227 5.50341C26.4699 5.34921 26.3094 5.29419 26.0888 5.34604C25.5827 5.46492 25.0697 5.55375 24.5627 5.66896C24.2684 5.73592 24.0014 5.71613 23.7168 5.59416C22.5605 5.09892 21.3918 4.63231 20.2363 4.13532C20.0489 4.05467 19.8687 3.89997 19.7476 3.734C19.4228 3.28885 19.1256 2.82299 18.8302 2.35722C18.6998 2.15134 18.5389 2.05959 18.2917 2.06235C17.4273 2.07211 16.5627 2.07078 15.6983 2.06301C15.4663 2.06093 15.3069 2.13957 15.1811 2.3376C14.8796 2.81189 14.5756 3.28551 14.2471 3.74101C14.1321 3.9003 13.9622 4.05166 13.7837 4.12814C12.5797 4.644 11.3689 5.14417 10.1539 5.63373C9.99174 5.6991 9.7874 5.71613 9.61403 5.68708C9.03999 5.59074 8.4738 5.4463 7.89884 5.35823C7.74107 5.33401 7.51486 5.39154 7.40234 5.49832C6.75259 6.11445 6.12955 6.75854 5.49274 7.38845C5.33523 7.54424 5.297 7.70787 5.34758 7.9251C5.46803 8.44147 5.58982 8.95983 5.66202 9.48421C5.69692 9.73718 5.67855 10.028 5.5859 10.263C5.12062 11.4429 4.62947 12.6128 4.12922 13.7784C4.05234 13.9575 3.90626 14.1313 3.74775 14.2462C3.30142 14.5695 2.83673 14.8684 2.36945 15.1612C2.15217 15.2975 2.05701 15.4638 2.06043 15.7237C2.0717 16.5776 2.07028 17.4318 2.06119 18.2857C2.0586 18.5302 2.14124 18.6955 2.35025 18.8272C2.82571 19.1266 3.29708 19.4336 3.75551 19.7582C3.90059 19.861 4.04383 20.0104 4.11211 20.1707C4.63322 21.3952 5.1404 22.6258 5.63773 23.8602C5.6995 24.0135 5.7162 24.2068 5.6884 24.3705C5.59107 24.9445 5.47379 25.5155 5.34558 26.0835C5.29616 26.3026 5.34199 26.4639 5.49817 26.6184C6.12755 27.241 6.75351 27.867 7.37613 28.4963C7.5293 28.651 7.68815 28.7061 7.90902 28.656C8.4667 28.5292 9.02713 28.4111 9.59116 28.3182C9.77463 28.288 9.99032 28.3027 10.1614 28.3714C11.3771 28.8592 12.5875 29.3603 13.7923 29.8743C13.9627 29.947 14.1277 30.0877 14.2364 30.2391C14.5639 30.6953 14.869 31.1682 15.1692 31.6432C15.2997 31.8496 15.4603 31.9417 15.7072 31.9391C16.5715 31.9297 17.4362 31.9307 18.3005 31.9385C18.5331 31.9406 18.6926 31.8593 18.818 31.6628C19.1258 31.1803 19.4377 30.6998 19.7667 30.2317C19.8634 30.0941 20.0046 29.9579 20.1561 29.8937C21.3907 29.3698 22.6308 28.8589 23.8743 28.3568C24.0185 28.2986 24.2004 28.2811 24.3539 28.3077C24.9377 28.4086 25.5146 28.5517 26.0999 28.6417C26.2579 28.6661 26.485 28.61 26.5974 28.5034C27.2473 27.8874 27.8745 27.2474 28.5029 26.6092C28.5923 26.5184 28.6465 26.3928 28.6974 26.3138ZM1 15.2509C1.18306 14.7214 1.55084 14.3477 2.0404 14.1108C2.89716 13.6963 3.40034 13.0269 3.68606 12.1261C3.91161 11.4151 4.25484 10.742 4.52496 10.0441C4.58773 9.88202 4.60326 9.68132 4.57588 9.50867C4.49792 9.01594 4.38982 8.52787 4.28773 8.03914C4.18414 7.54332 4.29591 7.09934 4.64474 6.74026C5.33414 6.03071 6.03406 5.33109 6.74349 4.64158C7.09383 4.30129 7.52997 4.18749 8.01344 4.28317C8.51336 4.3821 9.01103 4.49473 9.51353 4.57763C9.67697 4.60459 9.86896 4.59766 10.0202 4.53705C11.0527 4.12321 12.0805 3.69701 13.1024 3.25787C13.2615 3.18958 13.4138 3.05667 13.5165 2.91533C13.7974 2.52828 14.0525 2.12229 14.3137 1.72105C14.6287 1.23708 15.069 0.996809 15.6493 1.00006C16.5554 1.00532 17.4615 1.00324 18.3675 1.0009C18.9211 0.999397 19.3517 1.22464 19.6599 1.68415C19.6773 1.71012 19.6938 1.73667 19.7113 1.76255C20.0252 2.22807 20.261 2.78793 20.6756 3.13206C21.0812 3.46859 21.6688 3.58614 22.1772 3.79811C22.7817 4.05016 23.3837 4.30888 23.9944 4.54523C24.1389 4.60109 24.3192 4.61278 24.4732 4.58664C24.9754 4.50124 25.4731 4.38962 25.9723 4.28693C26.4553 4.18758 26.8939 4.29327 27.2448 4.63315C27.9626 5.32876 28.6696 6.03614 29.3653 6.75395C29.7052 7.1046 29.8123 7.54315 29.715 8.02612C29.6617 8.29127 29.6414 8.5682 29.5501 8.81941C29.3049 9.4939 29.4425 10.1023 29.7398 10.7302C30.1085 11.5093 30.403 12.3231 30.7468 13.1145C30.8121 13.2647 30.9359 13.4102 31.0698 13.5063C31.4837 13.8036 31.917 14.0738 32.3398 14.3587C32.7789 14.6546 32.9961 15.0732 32.9976 15.6003C33.0004 16.5377 33.0014 17.475 32.997 18.4123C32.9947 18.9266 32.783 19.3399 32.3558 19.6309C31.9258 19.9238 31.4836 20.1991 31.0597 20.5005C30.933 20.5906 30.8133 20.7263 30.7529 20.8679C30.3118 21.9005 29.8807 22.9375 29.4629 23.9796C29.4022 24.1312 29.3938 24.3231 29.4206 24.4866C29.5008 24.9791 29.6066 25.4674 29.7095 25.956C29.8164 26.4643 29.6954 26.9134 29.3375 27.2804C28.6614 27.9738 27.9755 28.6579 27.2836 29.3355C26.9166 29.695 26.4687 29.8186 25.9609 29.7132C25.5026 29.6179 25.0393 29.5433 24.5865 29.4272C24.3258 29.3603 24.1034 29.4002 23.8653 29.5008C22.8597 29.9254 21.8479 30.3356 20.8432 30.7623C20.7186 30.8152 20.5981 30.9174 20.5179 31.0274C20.3036 31.3214 20.0991 31.6245 19.9149 31.9382C19.6345 32.4158 19.2908 32.8138 18.7493 33.0001H15.2494C14.7213 32.8158 14.3759 32.4351 14.102 31.9639C13.9193 31.6495 13.7153 31.3456 13.4982 31.054C13.4051 30.9291 13.2695 30.8116 13.1274 30.751C12.095 30.3106 11.058 29.8805 10.0168 29.4614C9.87371 29.4038 9.69316 29.391 9.53974 29.4164C9.03749 29.4999 8.53899 29.6074 8.04032 29.7118C7.54475 29.8156 7.09984 29.7049 6.74091 29.3569C6.03089 28.6685 5.33181 27.9684 4.64282 27.2589C4.29408 26.8997 4.18339 26.4553 4.28665 25.9599C4.38857 25.4713 4.49708 24.9835 4.57513 24.4909C4.60242 24.3184 4.58698 24.1177 4.52388 23.956C4.24074 23.2299 3.88064 22.5297 3.64875 21.7887C3.38064 20.9321 2.88615 20.325 2.0919 19.9258C1.59015 19.6736 1.18631 19.3073 1 18.7507V15.2509Z" fill="black"/>
<path d="M28.6464 26.0762L28.4014 26.126L28.4015 26.1262L28.6464 26.0762ZM28.3193 24.4237L28.5661 24.3841L28.5661 24.384L28.3193 24.4237ZM28.3768 23.8239L28.6089 23.9169L28.6089 23.9169L28.3768 23.8239ZM29.8794 20.1924L30.1094 20.2904L30.1094 20.2904L29.8794 20.1924ZM30.2258 19.7723L30.0809 19.5686L30.0808 19.5687L30.2258 19.7723ZM31.6558 18.822L31.5211 18.6114L31.5211 18.6114L31.6558 18.822ZM31.9375 18.3079L32.1875 18.3056V18.3056L31.9375 18.3079ZM31.9225 15.6836L31.6726 15.6908V15.6908L31.9225 15.6836ZM31.6661 15.2026L31.5172 15.4035L31.5173 15.4035L31.6661 15.2026ZM30.2182 14.2238L30.0742 14.4282L30.0743 14.4282L30.2182 14.2238ZM29.8866 13.8293L30.1167 13.7316L30.1167 13.7316L29.8866 13.8293ZM28.361 10.1398L28.1291 10.2333L28.1291 10.2333L28.361 10.1398ZM28.3103 9.62981L28.0638 9.58802L28.0638 9.58805L28.3103 9.62981ZM28.6531 7.91684L28.8969 7.97203L28.8969 7.97201L28.6531 7.91684ZM28.5007 7.38144L28.3247 7.559L28.3247 7.55901L28.5007 7.38144ZM26.6227 5.50341L26.4452 5.6794L26.4452 5.67941L26.6227 5.50341ZM26.0888 5.34604L26.1459 5.58941L26.1459 5.58941L26.0888 5.34604ZM24.5627 5.66896L24.5073 5.42518L24.5073 5.42519L24.5627 5.66896ZM23.7168 5.59416L23.8153 5.36437L23.8152 5.36435L23.7168 5.59416ZM20.2363 4.13532L20.1375 4.36495L20.1375 4.36497L20.2363 4.13532ZM19.7476 3.734L19.5456 3.88135L19.5456 3.88137L19.7476 3.734ZM18.8302 2.35722L18.6191 2.49104L18.6191 2.49109L18.8302 2.35722ZM18.2917 2.06235L18.2889 1.81236L18.2888 1.81236L18.2917 2.06235ZM15.6983 2.06301L15.6961 2.313H15.6961L15.6983 2.06301ZM15.1811 2.3376L14.9701 2.20349L14.9701 2.20351L15.1811 2.3376ZM14.2471 3.74101L14.4498 3.8873L14.4498 3.88726L14.2471 3.74101ZM13.7837 4.12814L13.8822 4.35793L13.8822 4.35793L13.7837 4.12814ZM10.1539 5.63373L10.0605 5.40185L10.0605 5.40186L10.1539 5.63373ZM9.61403 5.68708L9.57265 5.93363L9.57271 5.93364L9.61403 5.68708ZM7.89884 5.35823L7.86091 5.60533L7.86098 5.60534L7.89884 5.35823ZM7.40234 5.49832L7.57436 5.67972L7.57443 5.67966L7.40234 5.49832ZM5.49274 7.38845L5.66854 7.5662L5.66855 7.56619L5.49274 7.38845ZM5.34758 7.9251L5.1041 7.9818L5.10412 7.98189L5.34758 7.9251ZM5.66202 9.48421L5.41436 9.51831L5.41437 9.51837L5.66202 9.48421ZM5.5859 10.263L5.35333 10.1713L5.35333 10.1713L5.5859 10.263ZM4.12922 13.7784L4.35894 13.877L4.35895 13.877L4.12922 13.7784ZM3.74775 14.2462L3.89439 14.4487L3.89445 14.4486L3.74775 14.2462ZM2.36945 15.1612L2.23671 14.9494L2.23663 14.9494L2.36945 15.1612ZM2.06043 15.7237L1.81046 15.7269L1.81046 15.727L2.06043 15.7237ZM2.06119 18.2857L1.8112 18.283L1.8112 18.283L2.06119 18.2857ZM2.35025 18.8272L2.21701 19.0387L2.21704 19.0387L2.35025 18.8272ZM3.75551 19.7582L3.90003 19.5542L3.89998 19.5542L3.75551 19.7582ZM4.11211 20.1707L4.34214 20.0728L4.34211 20.0728L4.11211 20.1707ZM5.63773 23.8602L5.40585 23.9537L5.40585 23.9537L5.63773 23.8602ZM5.6884 24.3705L5.44193 24.3287L5.44192 24.3287L5.6884 24.3705ZM5.34558 26.0835L5.10172 26.0284L5.10171 26.0285L5.34558 26.0835ZM5.49817 26.6184L5.32233 26.7961L5.32236 26.7961L5.49817 26.6184ZM7.37613 28.4963L7.19841 28.6722L7.19848 28.6722L7.37613 28.4963ZM7.90902 28.656L7.9644 28.8998L7.96442 28.8997L7.90902 28.656ZM9.59116 28.3182L9.55053 28.0715H9.55052L9.59116 28.3182ZM10.1614 28.3714L10.2545 28.1393L10.2545 28.1393L10.1614 28.3714ZM13.7923 29.8743L13.8905 29.6444L13.8904 29.6443L13.7923 29.8743ZM14.2364 30.2391L14.0333 30.3849L14.0333 30.3849L14.2364 30.2391ZM15.1692 31.6432L14.9579 31.7768L14.9579 31.7768L15.1692 31.6432ZM15.7072 31.9391L15.7045 31.6891H15.7045L15.7072 31.9391ZM18.3005 31.9385L18.2983 32.1885H18.2983L18.3005 31.9385ZM18.818 31.6628L19.0287 31.7973L18.818 31.6628ZM19.7667 30.2317L19.9713 30.3754L19.9713 30.3754L19.7667 30.2317ZM20.1561 29.8937L20.2538 30.1238L20.2538 30.1238L20.1561 29.8937ZM23.8743 28.3568L23.9679 28.5886L23.968 28.5886L23.8743 28.3568ZM24.3539 28.3077L24.3113 28.554L24.3113 28.554L24.3539 28.3077ZM26.0999 28.6417L26.138 28.3946L26.1379 28.3946L26.0999 28.6417ZM26.5974 28.5034L26.4254 28.322L26.4254 28.322L26.5974 28.5034ZM28.5029 26.6092L28.6811 26.7846L28.6811 26.7846L28.5029 26.6092ZM1 15.2509L0.763723 15.1692L0.75 15.2089V15.2509H1ZM2.0404 14.1108L1.93152 13.8857L1.93149 13.8857L2.0404 14.1108ZM3.68606 12.1261L3.44777 12.0505L3.44776 12.0505L3.68606 12.1261ZM4.52496 10.0441L4.29184 9.95377L4.29181 9.95384L4.52496 10.0441ZM4.57588 9.50867L4.32895 9.54774L4.32896 9.54783L4.57588 9.50867ZM4.28773 8.03914L4.53245 7.98803L4.53245 7.98802L4.28773 8.03914ZM4.64474 6.74026L4.46544 6.56605L4.46543 6.56606L4.64474 6.74026ZM6.74349 4.64158L6.56931 4.46225L6.56925 4.4623L6.74349 4.64158ZM8.01344 4.28317L8.06198 4.03793L8.06198 4.03793L8.01344 4.28317ZM9.51353 4.57763L9.55423 4.33096L9.55422 4.33096L9.51353 4.57763ZM10.0202 4.53705L10.1132 4.76911L10.1132 4.76911L10.0202 4.53705ZM13.1024 3.25787L13.0038 3.02814L13.0037 3.02818L13.1024 3.25787ZM13.5165 2.91533L13.7187 3.06226L13.7188 3.06219L13.5165 2.91533ZM14.3137 1.72105L14.5232 1.85744L14.5232 1.85744L14.3137 1.72105ZM15.6493 1.00006L15.6508 0.750069L15.6507 0.750069L15.6493 1.00006ZM18.3675 1.0009L18.3682 1.2509L18.3682 1.2509L18.3675 1.0009ZM19.6599 1.68415L19.4522 1.8234L19.4524 1.82358L19.6599 1.68415ZM19.7113 1.76255L19.9186 1.62277L19.9183 1.62235L19.7113 1.76255ZM20.6756 3.13206L20.8353 2.93968L20.8353 2.93967L20.6756 3.13206ZM22.1772 3.79811L22.2734 3.56737L22.2734 3.56737L22.1772 3.79811ZM23.9944 4.54523L23.9042 4.77838L23.9043 4.77842L23.9944 4.54523ZM24.4732 4.58664L24.515 4.83312L24.5151 4.8331L24.4732 4.58664ZM25.9723 4.28693L26.0227 4.5318L26.0227 4.5318L25.9723 4.28693ZM27.2448 4.63315L27.4187 4.45361L27.4187 4.45359L27.2448 4.63315ZM29.3653 6.75395L29.1858 6.92794L29.1858 6.92796L29.3653 6.75395ZM29.715 8.02612L29.47 7.97677L29.47 7.97682L29.715 8.02612ZM29.5501 8.81941L29.7851 8.90484L29.7851 8.90482L29.5501 8.81941ZM29.7398 10.7302L29.9657 10.6232L29.9657 10.6232L29.7398 10.7302ZM30.7468 13.1145L30.5175 13.2141L30.5175 13.2142L30.7468 13.1145ZM31.0698 13.5063L31.2157 13.3033L31.2156 13.3032L31.0698 13.5063ZM32.3398 14.3587L32.4795 14.1514L32.4795 14.1514L32.3398 14.3587ZM32.9976 15.6003L32.7476 15.6011V15.6011L32.9976 15.6003ZM32.997 18.4123L32.747 18.4112V18.4112L32.997 18.4123ZM32.3558 19.6309L32.4965 19.8375L32.4965 19.8375L32.3558 19.6309ZM31.0597 20.5005L31.2046 20.7043L31.2046 20.7043L31.0597 20.5005ZM30.7529 20.8679L30.9828 20.9661L30.9828 20.9661L30.7529 20.8679ZM29.4629 23.9796L29.2308 23.8866L29.2308 23.8867L29.4629 23.9796ZM29.4206 24.4866L29.6673 24.4465L29.6673 24.4464L29.4206 24.4866ZM29.7095 25.956L29.9541 25.9045L29.9541 25.9045L29.7095 25.956ZM29.3375 27.2804L29.5165 27.455L29.5165 27.455L29.3375 27.2804ZM27.2836 29.3355L27.1086 29.1569L27.1086 29.1569L27.2836 29.3355ZM25.9609 29.7132L25.91 29.9579L25.91 29.9579L25.9609 29.7132ZM24.5865 29.4272L24.5244 29.6694L24.5244 29.6694L24.5865 29.4272ZM23.8653 29.5008L23.9625 29.7311L23.9626 29.7311L23.8653 29.5008ZM20.8432 30.7623L20.9408 30.9925L20.9409 30.9924L20.8432 30.7623ZM20.5179 31.0274L20.3159 30.8801L20.3158 30.8802L20.5179 31.0274ZM19.9149 31.9382L19.6993 31.8116L19.6993 31.8117L19.9149 31.9382ZM18.7493 33.0001V33.2501H18.7911L18.8306 33.2365L18.7493 33.0001ZM15.2494 33.0001L15.167 33.2361L15.2071 33.2501H15.2494V33.0001ZM14.102 31.9639L14.3182 31.8382L14.3181 31.8382L14.102 31.9639ZM13.4982 31.054L13.6987 30.9047L13.6987 30.9047L13.4982 31.054ZM13.1274 30.751L13.2255 30.521L13.2255 30.521L13.1274 30.751ZM10.0168 29.4614L9.92341 29.6933L9.92345 29.6934L10.0168 29.4614ZM9.53974 29.4164L9.49881 29.1698L9.49875 29.1698L9.53974 29.4164ZM8.04032 29.7118L8.09156 29.9565L8.09157 29.9565L8.04032 29.7118ZM6.74091 29.3569L6.56688 29.5364L6.56689 29.5364L6.74091 29.3569ZM4.64282 27.2589L4.46347 27.4331L4.46348 27.4331L4.64282 27.2589ZM4.28665 25.9599L4.04191 25.9089L4.04191 25.9089L4.28665 25.9599ZM4.57513 24.4909L4.82205 24.53L4.82206 24.53L4.57513 24.4909ZM4.52388 23.956L4.29096 24.0468L4.29098 24.0469L4.52388 23.956ZM3.64875 21.7887L3.88734 21.714L3.88734 21.714L3.64875 21.7887ZM2.0919 19.9258L1.97963 20.1492H1.97963L2.0919 19.9258ZM1 18.7507H0.75V18.7914L0.762929 18.8301L1 18.7507ZM28.9418 26.2614C28.9163 26.1428 28.9035 26.0856 28.8914 26.0262L28.4015 26.1262C28.4142 26.1887 28.4286 26.2531 28.4529 26.3663L28.9418 26.2614ZM28.8914 26.0264C28.7778 25.4674 28.654 24.9314 28.5661 24.3841L28.0725 24.4633C28.1624 25.0242 28.2913 25.5842 28.4014 26.126L28.8914 26.0264ZM28.5661 24.384C28.541 24.2278 28.5562 24.0484 28.6089 23.9169L28.1447 23.731C28.053 23.9599 28.0355 24.233 28.0725 24.4634L28.5661 24.384ZM28.6089 23.9169C29.0952 22.7027 29.5968 21.4943 30.1094 20.2904L29.6494 20.0945C29.1356 21.3012 28.6326 22.513 28.1447 23.731L28.6089 23.9169ZM30.1094 20.2904C30.1578 20.1768 30.2595 20.0552 30.3708 19.976L30.0808 19.5687C29.9046 19.6942 29.7384 19.8853 29.6494 20.0945L30.1094 20.2904ZM30.3708 19.976C30.8312 19.6483 31.3081 19.3411 31.7905 19.0326L31.5211 18.6114C31.0391 18.9196 30.5526 19.2329 30.0809 19.5686L30.3708 19.976ZM31.7904 19.0327C31.9131 18.9542 32.0177 18.8563 32.0891 18.7275C32.1608 18.5981 32.1889 18.456 32.1875 18.3056L31.6875 18.3102C31.6883 18.3945 31.6728 18.4472 31.6518 18.4851C31.6305 18.5235 31.5932 18.5653 31.5211 18.6114L31.7904 19.0327ZM32.1875 18.3056C32.1795 17.4426 32.1975 16.5521 32.1724 15.6764L31.6726 15.6908C31.6977 16.5635 31.6793 17.4237 31.6875 18.3102L32.1875 18.3056ZM32.1724 15.6764C32.1686 15.5434 32.122 15.4097 32.0632 15.3001C32.0041 15.1899 31.9192 15.079 31.8148 15.0017L31.5173 15.4035C31.5473 15.4257 31.5882 15.4724 31.6226 15.5364C31.6572 15.6009 31.6716 15.658 31.6726 15.6908L32.1724 15.6764ZM31.8149 15.0018C31.5747 14.8237 31.3264 14.6594 31.0822 14.4998C30.8363 14.3391 30.5958 14.184 30.3622 14.0194L30.0743 14.4282C30.3169 14.5991 30.5666 14.7602 30.8087 14.9183C31.0525 15.0777 31.2899 15.235 31.5172 15.4035L31.8149 15.0018ZM30.3622 14.0195C30.2552 13.944 30.1595 13.8325 30.1167 13.7316L29.6564 13.9269C29.7429 14.1306 29.9077 14.3108 30.0742 14.4282L30.3622 14.0195ZM30.1167 13.7316C29.5975 12.508 29.0899 11.2793 28.5928 10.0464L28.1291 10.2333C28.6272 11.4689 29.136 12.7004 29.6564 13.9269L30.1167 13.7316ZM28.5928 10.0464C28.5499 9.9398 28.5361 9.79384 28.5568 9.67158L28.0638 9.58805C28.0291 9.79288 28.0485 10.0333 28.1291 10.2333L28.5928 10.0464ZM28.5568 9.67161C28.6532 9.10316 28.7691 8.53662 28.8969 7.97203L28.4093 7.86164C28.28 8.4328 28.1621 9.00852 28.0638 9.58802L28.5568 9.67161ZM28.8969 7.97201C28.9285 7.83251 28.9333 7.69311 28.8941 7.55586C28.8548 7.4182 28.7771 7.30339 28.6767 7.20387L28.3247 7.55901C28.3795 7.61335 28.4029 7.65649 28.4134 7.6932C28.424 7.73031 28.4274 7.78168 28.4093 7.86166L28.8969 7.97201ZM28.6767 7.20388C28.0484 6.58119 27.4231 5.95564 26.8003 5.3274L26.4452 5.67941C27.069 6.30865 27.6954 6.93523 28.3247 7.559L28.6767 7.20388ZM26.8003 5.32742C26.7035 5.22978 26.5909 5.15018 26.4543 5.10839C26.3166 5.06629 26.1753 5.06889 26.0316 5.10267L26.1459 5.58941C26.2228 5.57134 26.2721 5.57553 26.308 5.58653C26.345 5.59783 26.3891 5.62284 26.4452 5.6794L26.8003 5.32742ZM26.0316 5.10266C25.7829 5.16109 25.5317 5.21231 25.2766 5.26382C25.0227 5.3151 24.7644 5.36676 24.5073 5.42518L24.6181 5.91275C24.868 5.85596 25.1198 5.80559 25.3756 5.75393C25.6303 5.7025 25.8886 5.64987 26.1459 5.58941L26.0316 5.10266ZM24.5073 5.42519C24.2624 5.48089 24.0495 5.46475 23.8153 5.36437L23.6183 5.82395C23.9534 5.96752 24.2743 5.99095 24.6182 5.91273L24.5073 5.42519ZM23.8152 5.36435C23.2354 5.11603 22.6527 4.87497 22.0719 4.63442C21.4906 4.39367 20.9111 4.15339 20.3351 3.90566L20.1375 4.36497C20.7171 4.61424 21.2996 4.85576 21.8806 5.09637C22.462 5.33718 23.0418 5.57705 23.6184 5.82397L23.8152 5.36435ZM20.3352 3.90568C20.195 3.84537 20.0485 3.72225 19.9495 3.58663L19.5456 3.88137C19.6889 4.07769 19.9028 4.26397 20.1375 4.36495L20.3352 3.90568ZM19.9496 3.58664C19.6302 3.14899 19.3371 2.68969 19.0414 2.22335L18.6191 2.49109C18.9141 2.9563 19.2154 3.42871 19.5456 3.88135L19.9496 3.58664ZM19.0414 2.2234C18.9601 2.09518 18.8591 1.9865 18.7257 1.91275C18.5919 1.83877 18.4448 1.81062 18.2889 1.81236L18.2945 2.31233C18.3858 2.31131 18.4428 2.32767 18.4838 2.35034C18.5252 2.37325 18.5699 2.41339 18.6191 2.49104L19.0414 2.2234ZM18.2888 1.81236C17.4266 1.82211 16.5637 1.82078 15.7006 1.81302L15.6961 2.313C16.5617 2.32078 17.428 2.32212 18.2945 2.31233L18.2888 1.81236ZM15.7006 1.81302C15.5558 1.81172 15.4147 1.83552 15.2842 1.90365C15.1528 1.97226 15.0512 2.07586 14.9701 2.20349L15.392 2.47171C15.4368 2.40132 15.4779 2.36657 15.5156 2.34688C15.5542 2.3267 15.6088 2.31222 15.6961 2.313L15.7006 1.81302ZM14.9701 2.20351C14.6686 2.67791 14.3681 3.14588 14.0443 3.59476L14.4498 3.88726C14.7832 3.42513 15.0907 2.94587 15.3921 2.47169L14.9701 2.20351ZM14.0444 3.59472C13.9497 3.72591 13.8132 3.84352 13.6853 3.89834L13.8822 4.35793C14.1112 4.2598 14.3146 4.07469 14.4498 3.8873L14.0444 3.59472ZM13.6853 3.89834C12.4833 4.41335 11.2741 4.91282 10.0605 5.40185L10.2474 5.86561C11.4636 5.37552 12.6762 4.87465 13.8822 4.35793L13.6853 3.89834ZM10.0605 5.40186C9.94547 5.44821 9.7883 5.4628 9.65535 5.44052L9.57271 5.93364C9.78651 5.96947 10.038 5.94999 10.2474 5.86561L10.0605 5.40186ZM9.65541 5.44053C9.37416 5.39332 9.09442 5.33427 8.80756 5.27477C8.52262 5.21565 8.23144 5.15626 7.93669 5.11111L7.86098 5.60534C8.14119 5.64827 8.42059 5.70513 8.706 5.76434C8.98949 5.82315 9.27986 5.88449 9.57265 5.93363L9.65541 5.44053ZM7.93676 5.11112C7.81575 5.09255 7.6837 5.10628 7.56769 5.138C7.45332 5.16927 7.32637 5.22576 7.23025 5.31697L7.57443 5.67966C7.59084 5.66409 7.63325 5.63843 7.69956 5.6203C7.76423 5.60262 7.82416 5.59969 7.86091 5.60533L7.93676 5.11112ZM7.23032 5.31691C6.5784 5.9351 5.94814 6.58635 5.31693 7.21071L5.66855 7.56619C6.31097 6.93074 6.92678 6.2938 7.57436 5.67972L7.23032 5.31691ZM5.31694 7.2107C5.21326 7.31325 5.13681 7.43093 5.10028 7.5704C5.06418 7.70824 5.07258 7.84646 5.1041 7.9818L5.59107 7.8684C5.572 7.78651 5.57422 7.7343 5.58397 7.69707C5.59329 7.66147 5.61471 7.61944 5.66854 7.5662L5.31694 7.2107ZM5.10412 7.98189C5.22511 8.50057 5.34401 9.00743 5.41436 9.51831L5.90969 9.45011C5.83563 8.91224 5.71096 8.38236 5.59105 7.86831L5.10412 7.98189ZM5.41437 9.51837C5.44495 9.74005 5.42651 9.98569 5.35333 10.1713L5.81846 10.3547C5.93059 10.0704 5.94889 9.7343 5.90968 9.45005L5.41437 9.51837ZM5.35333 10.1713C4.88934 11.3479 4.39927 12.5153 3.89948 13.6798L4.35895 13.877C4.85967 12.7103 5.3519 11.5379 5.81847 10.3547L5.35333 10.1713ZM3.89949 13.6798C3.84222 13.8132 3.72692 13.9525 3.60104 14.0438L3.89445 14.4486C4.08561 14.3101 4.26246 14.1018 4.35894 13.877L3.89949 13.6798ZM3.6011 14.0437C3.16176 14.3619 2.7028 14.6573 2.23671 14.9494L2.50219 15.3731C2.97066 15.0795 3.44109 14.777 3.89439 14.4487L3.6011 14.0437ZM2.23663 14.9494C2.10296 15.0332 1.98995 15.1371 1.91355 15.2749C1.8369 15.4131 1.80833 15.5651 1.81046 15.7269L2.31041 15.7204C2.30912 15.6224 2.32641 15.5613 2.35081 15.5173C2.37545 15.4729 2.41866 15.4254 2.50227 15.373L2.23663 14.9494ZM1.81046 15.727C1.82169 16.5784 1.82028 17.4306 1.8112 18.283L2.31117 18.2884C2.32029 17.433 2.32171 16.5767 2.31041 15.7204L1.81046 15.727ZM1.8112 18.283C1.8096 18.4341 1.8342 18.5803 1.9051 18.7151C1.97646 18.8508 2.08429 18.9551 2.21701 19.0387L2.4835 18.6157C2.4072 18.5676 2.3692 18.5234 2.34764 18.4824C2.32561 18.4405 2.31018 18.3819 2.31117 18.2883L1.8112 18.283ZM2.21704 19.0387C2.69051 19.3369 3.15771 19.6413 3.61104 19.9623L3.89998 19.5542C3.43645 19.226 2.96092 18.9163 2.48346 18.6156L2.21704 19.0387ZM3.611 19.9622C3.73316 20.0488 3.83796 20.1651 3.8821 20.2687L4.34211 20.0728C4.24969 19.8558 4.06802 19.6732 3.90003 19.5542L3.611 19.9622ZM3.88207 20.2686C4.40245 21.4914 4.90901 22.7205 5.40585 23.9537L5.86962 23.7668C5.3718 22.5312 4.864 21.2991 4.34214 20.0728L3.88207 20.2686ZM5.40585 23.9537C5.44882 24.0603 5.4627 24.2064 5.44193 24.3287L5.93487 24.4124C5.9697 24.2073 5.95018 23.9667 5.86961 23.7668L5.40585 23.9537ZM5.44192 24.3287C5.34554 24.8971 5.22924 25.4636 5.10172 26.0284L5.58944 26.1385C5.71835 25.5675 5.8366 24.9919 5.93488 24.4123L5.44192 24.3287ZM5.10171 26.0285C5.07039 26.1673 5.06523 26.3064 5.10435 26.4437C5.14361 26.5814 5.22146 26.6963 5.32233 26.7961L5.67401 26.4407C5.6187 26.386 5.59555 26.3429 5.5852 26.3066C5.57472 26.2698 5.57135 26.2187 5.58945 26.1385L5.10171 26.0285ZM5.32236 26.7961C5.95108 27.418 6.57641 28.0435 7.19841 28.6722L7.55385 28.3205C6.93061 27.6906 6.30402 27.0639 5.67398 26.4407L5.32236 26.7961ZM7.19848 28.6722C7.29501 28.7697 7.40695 28.8495 7.54307 28.8917C7.68023 28.9343 7.82099 28.9323 7.9644 28.8998L7.85364 28.4122C7.77618 28.4298 7.72708 28.4253 7.69131 28.4142C7.6545 28.4028 7.61043 28.3777 7.55378 28.3204L7.19848 28.6722ZM7.96442 28.8997C8.51983 28.7735 9.07481 28.6566 9.6318 28.5649L9.55052 28.0715C8.97946 28.1656 8.41357 28.2849 7.85362 28.4122L7.96442 28.8997ZM9.63179 28.5649C9.77831 28.5407 9.94669 28.5546 10.0684 28.6034L10.2545 28.1393C10.034 28.0509 9.77095 28.0352 9.55053 28.0715L9.63179 28.5649ZM10.0683 28.6034C11.2823 29.0905 12.491 29.591 13.6942 30.1042L13.8904 29.6443C12.6839 29.1297 11.4719 28.6278 10.2545 28.1393L10.0683 28.6034ZM13.6942 30.1042C13.8173 30.1568 13.9477 30.2657 14.0333 30.3849L14.4395 30.0934C14.3077 29.9097 14.1081 29.7372 13.8905 29.6444L13.6942 30.1042ZM14.0333 30.3849C14.3563 30.8348 14.6582 31.3025 14.9579 31.7768L15.3805 31.5096C15.0798 31.0338 14.7714 30.5558 14.4395 30.0933L14.0333 30.3849ZM14.9579 31.7768C15.039 31.9051 15.1399 32.014 15.2731 32.0881C15.4069 32.1624 15.5539 32.1907 15.7099 32.1891L15.7045 31.6891C15.6135 31.6901 15.5568 31.6737 15.5159 31.651C15.4745 31.628 15.4299 31.5877 15.3805 31.5096L14.9579 31.7768ZM15.7099 32.1891C16.5723 32.1797 17.4352 32.1807 18.2983 32.1885L18.3028 31.6885C17.4371 31.6807 16.5708 31.6797 15.7045 31.6891L15.7099 32.1891ZM18.2983 32.1885C18.4444 32.1898 18.5858 32.1649 18.716 32.0963C18.8469 32.0273 18.948 31.9238 19.0287 31.7973L18.6072 31.5284C18.5625 31.5984 18.5212 31.6338 18.4828 31.654C18.4438 31.6745 18.3892 31.6893 18.3028 31.6885L18.2983 32.1885ZM19.0287 31.7973C19.3361 31.3155 19.6456 30.8388 19.9713 30.3754L19.5622 30.0879C19.2299 30.5607 18.9156 31.045 18.6072 31.5284L19.0287 31.7973ZM19.9713 30.3754C20.0518 30.2608 20.1597 30.1637 20.2538 30.1238L20.0585 29.6635C19.8495 29.7522 19.675 29.9274 19.5621 30.088L19.9713 30.3754ZM20.2538 30.1238C21.4867 29.6006 22.7255 29.0903 23.9679 28.5886L23.7807 28.125C22.5361 28.6275 21.2946 29.139 20.0585 29.6635L20.2538 30.1238ZM23.968 28.5886C24.0671 28.5486 24.2016 28.535 24.3113 28.554L24.3965 28.0613C24.1991 28.0272 23.97 28.0486 23.7807 28.125L23.968 28.5886ZM24.3113 28.554C24.5983 28.6036 24.8838 28.6636 25.176 28.7237C25.4665 28.7833 25.7624 28.8427 26.0619 28.8888L26.1379 28.3946C25.852 28.3506 25.5669 28.2935 25.2766 28.2339C24.9881 28.1746 24.6932 28.1126 24.3965 28.0613L24.3113 28.554ZM26.0618 28.8888C26.1823 28.9073 26.3142 28.8943 26.4305 28.8632C26.545 28.8325 26.6728 28.7765 26.7694 28.6848L26.4254 28.322C26.4097 28.337 26.3677 28.3623 26.301 28.3802C26.2362 28.3976 26.1756 28.4004 26.138 28.3946L26.0618 28.8888ZM26.7694 28.6849C27.423 28.0652 28.0535 27.4218 28.6811 26.7846L28.3248 26.4338C27.6954 27.0729 27.0715 27.7095 26.4254 28.322L26.7694 28.6849ZM28.6811 26.7846C28.7471 26.7176 28.7951 26.643 28.8299 26.5842C28.874 26.5095 28.8833 26.4869 28.9076 26.4491L28.4871 26.1785C28.4698 26.2054 28.4536 26.2341 28.44 26.2583C28.4254 26.2844 28.413 26.3068 28.3993 26.33C28.3719 26.3764 28.3482 26.41 28.3248 26.4338L28.6811 26.7846ZM1.23628 15.3326C1.395 14.8735 1.71195 14.5475 2.14931 14.3358L1.93149 13.8857C1.38972 14.148 0.97111 14.5693 0.763723 15.1692L1.23628 15.3326ZM2.14928 14.3358C3.07828 13.8864 3.62163 13.1561 3.92436 12.2016L3.44776 12.0505C3.17904 12.8977 2.71605 13.5062 1.93152 13.8857L2.14928 14.3358ZM3.92436 12.2017C4.03324 11.8584 4.17139 11.5217 4.31854 11.1788C4.46428 10.8391 4.62089 10.4889 4.75811 10.1343L4.29181 9.95384C4.15892 10.2972 4.00885 10.6325 3.85905 10.9816C3.71067 11.3274 3.56442 11.6827 3.44777 12.0505L3.92436 12.2017ZM4.75808 10.1344C4.83876 9.92611 4.85619 9.68012 4.82279 9.46952L4.32896 9.54783C4.35033 9.68253 4.33671 9.83794 4.29184 9.95377L4.75808 10.1344ZM4.82281 9.4696C4.74361 8.96906 4.63366 8.47255 4.53245 7.98803L4.04301 8.09026C4.14598 8.58319 4.25222 9.06281 4.32895 9.54774L4.82281 9.4696ZM4.53245 7.98802C4.4443 7.56608 4.5382 7.20871 4.82406 6.91446L4.46543 6.56606C4.05362 6.98996 3.92399 7.52056 4.04302 8.09027L4.53245 7.98802ZM4.82405 6.91447C5.51175 6.20667 6.20998 5.50874 6.91774 4.82085L6.56925 4.4623C5.85814 5.15345 5.15654 5.85475 4.46544 6.56605L4.82405 6.91447ZM6.91768 4.82091C7.2044 4.54241 7.55534 4.44736 7.96491 4.52841L8.06198 4.03793C7.5046 3.92763 6.98325 4.06017 6.56931 4.46225L6.91768 4.82091ZM7.96491 4.52841C8.4556 4.62552 8.96542 4.74058 9.47284 4.82429L9.55422 4.33096C9.05663 4.24887 8.57112 4.13868 8.06198 4.03793L7.96491 4.52841ZM9.47283 4.82429C9.66634 4.85622 9.90738 4.85159 10.1132 4.76911L9.92721 4.30499C9.83053 4.34373 9.6876 4.35297 9.55423 4.33096L9.47283 4.82429ZM10.1132 4.76911C11.1475 4.35453 12.1772 3.92754 13.2011 3.48757L13.0037 3.02818C11.9837 3.46648 10.9578 3.89189 9.92719 4.305L10.1132 4.76911ZM13.201 3.4876C13.4089 3.39837 13.5948 3.2329 13.7187 3.06226L13.3142 2.7684C13.2328 2.88044 13.1141 2.98079 13.0038 3.02814L13.201 3.4876ZM13.7188 3.06219C14.0046 2.6684 14.265 2.25405 14.5232 1.85744L14.1042 1.58467C13.84 1.99053 13.5902 2.38817 13.3141 2.76846L13.7188 3.06219ZM14.5232 1.85744C14.7923 1.44411 15.1535 1.24729 15.6479 1.25006L15.6507 0.750069C14.9846 0.746331 14.4652 1.03006 14.1042 1.58467L14.5232 1.85744ZM15.6479 1.25006C16.5551 1.25533 17.4622 1.25324 18.3682 1.2509L18.3669 0.7509C17.4607 0.753238 16.5556 0.755322 15.6508 0.750069L15.6479 1.25006ZM18.3682 1.2509C18.8395 1.24962 19.1913 1.43437 19.4522 1.8234L19.8675 1.5449C19.512 1.01491 19.0028 0.749174 18.3669 0.7509L18.3682 1.2509ZM19.4524 1.82358C19.4596 1.83437 19.4668 1.84552 19.4756 1.85914C19.484 1.87208 19.4938 1.8873 19.5043 1.90274L19.9183 1.62235C19.9112 1.61191 19.9041 1.60092 19.8955 1.58762C19.8873 1.57501 19.8776 1.5599 19.8674 1.54473L19.4524 1.82358ZM19.504 1.90233C19.6604 2.13418 19.7792 2.36082 19.9434 2.62487C20.0975 2.87255 20.2771 3.1262 20.516 3.32444L20.8353 2.93967C20.6595 2.79378 20.5139 2.59544 20.368 2.36078C20.2322 2.14249 20.0761 1.85644 19.9186 1.62277L19.504 1.90233ZM20.516 3.32444C20.7515 3.51991 21.0315 3.64515 21.3 3.74587C21.5879 3.85385 21.827 3.92297 22.081 4.02886L22.2734 3.56737C22.019 3.46129 21.7101 3.36564 21.4756 3.27772C21.2219 3.18254 21.0053 3.08075 20.8353 2.93968L20.516 3.32444ZM22.081 4.02886C22.6822 4.2795 23.2895 4.54049 23.9042 4.77838L24.0847 4.31209C23.478 4.07728 22.8813 3.82081 22.2734 3.56737L22.081 4.02886ZM23.9043 4.77842C24.097 4.8529 24.3237 4.86558 24.515 4.83312L24.4314 4.34017C24.3147 4.35997 24.1809 4.34927 24.0846 4.31205L23.9043 4.77842ZM24.5151 4.8331C25.023 4.74674 25.5292 4.63329 26.0227 4.5318L25.9219 4.04205C25.4169 4.14594 24.9278 4.25574 24.4313 4.34018L24.5151 4.8331ZM26.0227 4.5318C26.4342 4.44715 26.786 4.53678 27.0708 4.81271L27.4187 4.45359C27.0019 4.04976 26.4764 3.928 25.9219 4.04205L26.0227 4.5318ZM27.0708 4.81268C27.7867 5.50644 28.4919 6.21197 29.1858 6.92794L29.5448 6.57997C28.8474 5.86031 28.1385 5.15107 27.4187 4.45361L27.0708 4.81268ZM29.1858 6.92796C29.4621 7.21299 29.5528 7.56521 29.47 7.97677L29.9601 8.07547C30.0718 7.52109 29.9483 6.9962 29.5448 6.57995L29.1858 6.92796ZM29.47 7.97682C29.4427 8.11222 29.4213 8.26523 29.4005 8.38536C29.3781 8.51452 29.3532 8.62933 29.3151 8.734L29.7851 8.90482C29.8383 8.75827 29.8692 8.60901 29.8932 8.47063C29.9187 8.3232 29.934 8.20517 29.9601 8.07542L29.47 7.97682ZM29.3152 8.73398C29.0379 9.49644 29.202 10.1784 29.5138 10.8371L29.9657 10.6232C29.683 10.0261 29.5718 9.49136 29.7851 8.90484L29.3152 8.73398ZM29.5138 10.8371C29.8826 11.6164 30.1632 12.3984 30.5175 13.2141L30.9761 13.0149C30.6429 12.2478 30.3343 11.4021 29.9657 10.6232L29.5138 10.8371ZM30.5175 13.2142C30.6028 13.4102 30.7576 13.59 30.924 13.7094L31.2156 13.3032C31.1142 13.2305 31.0215 13.1192 30.976 13.0147L30.5175 13.2142ZM30.924 13.7094C31.3409 14.0089 31.788 14.2884 32.2001 14.5661L32.4795 14.1514C32.0459 13.8592 31.6264 13.5984 31.2157 13.3033L30.924 13.7094ZM32.2001 14.5661C32.5688 14.8145 32.7463 15.1548 32.7476 15.6011L33.2476 15.5996C33.2459 14.9916 32.989 14.4947 32.4795 14.1514L32.2001 14.5661ZM32.7476 15.6011C32.7504 16.5381 32.7514 17.4748 32.747 18.4112L33.247 18.4135C33.2514 17.4753 33.2504 16.5372 33.2476 15.5996L32.7476 15.6011ZM32.747 18.4112C32.745 18.8458 32.5721 19.1811 32.215 19.4243L32.4965 19.8375C32.9939 19.4987 33.2443 19.0074 33.247 18.4135L32.747 18.4112ZM32.215 19.4243C31.7997 19.7072 31.3382 19.9957 30.9148 20.2968L31.2046 20.7043C31.629 20.4025 32.0519 20.1404 32.4965 19.8375L32.215 19.4243ZM30.9149 20.2967C30.758 20.4083 30.6047 20.5782 30.5229 20.7698L30.9828 20.9661C31.0219 20.8745 31.108 20.7729 31.2046 20.7043L30.9149 20.2967ZM30.523 20.7697C30.0813 21.8038 29.6495 22.8425 29.2308 23.8866L29.6949 24.0727C30.112 23.0325 30.5423 21.9972 30.9828 20.9661L30.523 20.7697ZM29.2308 23.8867C29.1487 24.0916 29.142 24.332 29.1738 24.5269L29.6673 24.4464C29.6457 24.3142 29.6557 24.1707 29.695 24.0726L29.2308 23.8867ZM29.1738 24.5268C29.2552 25.0263 29.3625 25.5214 29.4648 26.0075L29.9541 25.9045C29.8507 25.4135 29.7464 24.9318 29.6673 24.4465L29.1738 24.5268ZM29.4648 26.0075C29.5555 26.4385 29.4552 26.8016 29.1585 27.1059L29.5165 27.455C29.9356 27.0251 30.0773 26.49 29.9541 25.9045L29.4648 26.0075ZM29.1585 27.1059C28.484 27.7976 27.7995 28.4803 27.1086 29.1569L27.4585 29.5142C28.1515 28.8354 28.8388 28.15 29.5165 27.455L29.1585 27.1059ZM27.1086 29.1569C26.8037 29.4556 26.4414 29.5576 26.0117 29.4684L25.91 29.9579C26.496 30.0796 27.0296 29.9343 27.4585 29.5141L27.1086 29.1569ZM26.0118 29.4684C25.5378 29.3699 25.0949 29.2994 24.6486 29.185L24.5244 29.6694C24.9838 29.7871 25.4674 29.8659 25.91 29.9579L26.0118 29.4684ZM24.6486 29.1851C24.3205 29.1009 24.0409 29.1552 23.768 29.2705L23.9626 29.7311C24.166 29.6451 24.3311 29.6198 24.5244 29.6694L24.6486 29.1851ZM23.768 29.2705C22.7734 29.6904 21.7439 30.1082 20.7454 30.5322L20.9409 30.9924C21.9519 30.5631 22.946 30.1603 23.9625 29.7311L23.768 29.2705ZM20.7455 30.5322C20.5738 30.6051 20.4189 30.7387 20.3159 30.8801L20.7199 31.1747C20.7772 31.096 20.8635 31.0253 20.9408 30.9925L20.7455 30.5322ZM20.3158 30.8802C20.0981 31.1789 19.8887 31.489 19.6993 31.8116L20.1305 32.0648C20.3095 31.76 20.5091 31.4639 20.7199 31.1746L20.3158 30.8802ZM19.6993 31.8117C19.4325 32.266 19.1282 32.6053 18.6679 32.7637L18.8306 33.2365C19.4533 33.0222 19.8365 32.5655 20.1305 32.0648L19.6993 31.8117ZM18.7493 32.7501H15.2494V33.2501H18.7493V32.7501ZM15.3318 32.7641C14.8811 32.6067 14.5756 32.2811 14.3182 31.8382L13.8859 32.0895C14.1762 32.589 14.5615 33.0248 15.167 33.2361L15.3318 32.7641ZM14.3181 31.8382C14.13 31.5146 13.9206 31.2028 13.6987 30.9047L13.2976 31.2033C13.5099 31.4885 13.7086 31.7845 13.8859 32.0895L14.3181 31.8382ZM13.6987 30.9047C13.5848 30.7518 13.4161 30.6023 13.2255 30.521L13.0293 30.9809C13.1228 31.0208 13.2254 31.1063 13.2977 31.2033L13.6987 30.9047ZM13.2255 30.521C12.1916 30.08 11.153 29.6492 10.1101 29.2295L9.92345 29.6934C10.9631 30.1117 11.9984 30.5412 13.0293 30.9809L13.2255 30.521ZM10.1102 29.2295C9.91791 29.1521 9.68991 29.1381 9.49881 29.1698L9.58067 29.6631C9.69641 29.6439 9.82952 29.6555 9.92341 29.6933L10.1102 29.2295ZM9.49875 29.1698C8.99007 29.2544 8.48539 29.3632 7.98907 29.4671L8.09157 29.9565C8.59259 29.8516 9.0849 29.7455 9.58073 29.6631L9.49875 29.1698ZM7.98908 29.4671C7.56689 29.5555 7.2087 29.4622 6.91492 29.1774L6.56689 29.5364C6.99098 29.9475 7.5226 30.0756 8.09156 29.9565L7.98908 29.4671ZM6.91493 29.1774C6.20685 28.4909 5.50954 27.7925 4.82217 27.0847L4.46348 27.4331C5.15407 28.1442 5.85493 28.8461 6.56688 29.5364L6.91493 29.1774ZM4.82218 27.0847C4.53666 26.7907 4.44342 26.4329 4.53139 26.011L4.04191 25.9089C3.92336 26.4776 4.0515 27.0088 4.46347 27.4331L4.82218 27.0847ZM4.53138 26.011C4.63235 25.5269 4.74277 25.0304 4.82205 24.53L4.32821 24.4518C4.25139 24.9366 4.14478 25.4157 4.04191 25.9089L4.53138 26.011ZM4.82206 24.53C4.85533 24.3197 4.83808 24.0735 4.75677 23.8651L4.29098 24.0469C4.33588 24.162 4.34952 24.3171 4.3282 24.4518L4.82206 24.53ZM4.75679 23.8652C4.61311 23.4967 4.44886 23.1323 4.2967 22.7791C4.14301 22.4223 3.99926 22.0717 3.88734 21.714L3.41016 21.8634C3.53012 22.2467 3.68237 22.6168 3.83749 22.9769C3.99414 23.3405 4.1515 23.6892 4.29096 24.0468L4.75679 23.8652ZM3.88734 21.714C3.60021 20.7967 3.06248 20.1338 2.20418 19.7024L1.97963 20.1492C2.70981 20.5162 3.16106 21.0675 3.41016 21.8634L3.88734 21.714ZM2.20418 19.7024C1.74202 19.4701 1.39642 19.1474 1.23707 18.6714L0.762929 18.8301C0.9762 19.4672 1.43829 19.877 1.97963 20.1492L2.20418 19.7024ZM1.25 18.7507V15.2509H0.75V18.7507H1.25Z" fill="#191E30"/>
<path fill-rule="evenodd" clip-rule="evenodd" d="M13.3019 11.2841C13.2709 11.2696 13.2398 11.2551 13.2087 11.2405C12.8907 11.5462 12.5474 11.8299 12.2588 12.1612C9.44053 15.3966 10.4922 20.2868 14.3962 22.0987C14.7526 22.2641 14.9055 22.4873 14.9 22.8832C14.883 24.0984 14.8936 25.314 14.894 26.5293C14.894 26.67 14.8646 26.7989 15.0842 26.8408C16.3236 27.077 17.56 27.08 18.8022 26.865C19.0398 26.8239 19.1182 26.7419 19.115 26.4933C19.1003 25.3296 19.1277 24.1651 19.0993 23.0019C19.0876 22.5223 19.2486 22.2616 19.6944 22.0571C23.8926 20.1315 24.6029 14.3489 21.0097 11.4466C20.927 11.3797 20.8387 11.3198 20.7093 11.2243C20.7093 11.4009 20.7095 11.5121 20.7093 11.6231C20.7065 13.3639 20.6935 15.1046 20.7063 16.8452C20.7108 17.4531 20.4701 17.8543 19.9183 18.1136C19.1269 18.4853 18.3497 18.8874 17.5701 19.2837C17.1815 19.4811 16.8098 19.4782 16.4197 19.2773C15.6423 18.8768 14.8621 18.4805 14.0711 18.1079C13.5314 17.8536 13.2918 17.4602 13.2968 16.8637C13.3112 15.1128 13.3019 13.3618 13.3019 11.6108V11.2841ZM20.1628 26.4621C23.7404 25.4698 27.552 21.371 26.9629 15.9028C26.4102 10.7726 21.9256 6.69615 16.3862 7.00163C11.0137 7.29794 6.85692 11.8351 6.98858 17.3139C7.05259 19.9747 8.08314 22.2506 9.96304 24.1316C11.0522 25.2214 12.3341 26.0069 13.8392 26.4967C13.8392 25.3481 13.8432 24.2568 13.8313 23.1658C13.8304 23.084 13.7339 22.972 13.6525 22.927C10.7078 21.3004 9.25535 18.5196 9.71492 15.2094C9.99723 13.1753 11.0422 11.5575 12.7016 10.3455C13.0711 10.0756 13.5196 10.0836 13.8902 10.3311C14.2402 10.5648 14.3608 10.904 14.3596 11.3136C14.3543 13.1161 14.3642 14.9187 14.3501 16.7211C14.348 16.9908 14.4391 17.1186 14.6733 17.2292C15.3801 17.5632 16.0714 17.9304 16.7791 18.2627C16.903 18.3209 17.1009 18.3236 17.224 18.2656C17.9404 17.9278 18.64 17.5549 19.3556 17.2152C19.5711 17.1128 19.6527 16.9989 19.6512 16.7529C19.6393 14.9195 19.6461 13.086 19.6443 11.2527C19.6439 10.8112 19.8198 10.4729 20.2158 10.2696C20.6114 10.0664 20.9966 10.1125 21.3489 10.3755C23.1016 11.684 24.1304 13.4281 24.3456 15.5993C24.6511 18.68 23.127 21.4396 20.3786 22.8984C20.2061 22.99 20.1553 23.0953 20.1584 23.2824C20.1697 23.9517 20.1628 24.6213 20.1628 25.2908C20.1628 25.6783 20.1628 26.0658 20.1628 26.4621ZM16.9936 5.92386C23.1291 5.91338 28.0693 10.8618 28.0777 17.0264C28.0858 23.089 23.1076 28.0663 17.0242 28.0776C10.9269 28.089 5.92399 23.1148 5.92383 17.0411C5.92366 10.8768 10.845 5.93426 16.9936 5.92386Z" fill="black"/>
<path d="M13.3019 11.2841H13.5519V11.1251L13.4079 11.0577L13.3019 11.2841ZM13.2087 11.2405L13.3147 11.0141L13.1592 10.9413L13.0355 11.0603L13.2087 11.2405ZM12.2588 12.1612L12.0703 11.9969L12.0703 11.997L12.2588 12.1612ZM14.3962 22.0987L14.5015 21.8719L14.5015 21.8719L14.3962 22.0987ZM14.9 22.8832L15.15 22.8867V22.8867L14.9 22.8832ZM14.894 26.5293H15.144V26.5292L14.894 26.5293ZM15.0842 26.8408L15.0374 27.0864H15.0374L15.0842 26.8408ZM18.8022 26.865L18.8449 27.1114L18.8449 27.1114L18.8022 26.865ZM19.115 26.4933L19.365 26.4901V26.4901L19.115 26.4933ZM19.0993 23.0019L18.8493 23.008L18.8493 23.008L19.0993 23.0019ZM19.6944 22.0571L19.7986 22.2844L19.7986 22.2844L19.6944 22.0571ZM21.0097 11.4466L20.8526 11.641L20.8526 11.6411L21.0097 11.4466ZM20.7093 11.2243L20.8577 11.0231L20.4593 10.7294V11.2243H20.7093ZM20.7093 11.6231L20.9593 11.6235V11.6235L20.7093 11.6231ZM20.7063 16.8452L20.9563 16.8433V16.8433L20.7063 16.8452ZM19.9183 18.1136L19.812 17.8873H19.812L19.9183 18.1136ZM17.5701 19.2837L17.6833 19.5066L17.6834 19.5066L17.5701 19.2837ZM16.4197 19.2773L16.5342 19.055L16.5342 19.055L16.4197 19.2773ZM14.0711 18.1079L14.1777 17.8817L14.1777 17.8817L14.0711 18.1079ZM13.2968 16.8637L13.5468 16.8658V16.8658L13.2968 16.8637ZM26.9629 15.9028L27.2115 15.876V15.876L26.9629 15.9028ZM16.3862 7.00163L16.3725 6.752L16.3725 6.752L16.3862 7.00163ZM6.98858 17.3139L6.73865 17.32L6.73865 17.32L6.98858 17.3139ZM9.96304 24.1316L9.78621 24.3083L9.78621 24.3083L9.96304 24.1316ZM13.8392 26.4967L13.7618 26.7345L14.0892 26.841V26.4967H13.8392ZM13.8313 23.1658L14.0813 23.163V23.163L13.8313 23.1658ZM13.6525 22.927L13.7735 22.7082L13.7734 22.7082L13.6525 22.927ZM9.71492 15.2094L9.96254 15.2437L9.96254 15.2437L9.71492 15.2094ZM12.7016 10.3455L12.8491 10.5474L12.8491 10.5473L12.7016 10.3455ZM13.8902 10.3311L14.0291 10.1232L14.0291 10.1232L13.8902 10.3311ZM14.3596 11.3136L14.6096 11.3143V11.3143L14.3596 11.3136ZM14.3501 16.7211L14.6001 16.7231L14.6001 16.723L14.3501 16.7211ZM14.6733 17.2292L14.5665 17.4553H14.5665L14.6733 17.2292ZM16.7791 18.2627L16.6728 18.489L16.6728 18.489L16.7791 18.2627ZM17.224 18.2656L17.1174 18.0394L17.1174 18.0394L17.224 18.2656ZM19.3556 17.2152L19.4628 17.441L19.4628 17.441L19.3556 17.2152ZM19.6512 16.7529L19.9012 16.7513V16.7512L19.6512 16.7529ZM19.6443 11.2527L19.3943 11.2529V11.2529L19.6443 11.2527ZM20.2158 10.2696L20.33 10.492L20.33 10.492L20.2158 10.2696ZM21.3489 10.3755L21.1993 10.5758L21.1993 10.5758L21.3489 10.3755ZM24.3456 15.5993L24.0968 15.624V15.624L24.3456 15.5993ZM20.3786 22.8984L20.4958 23.1193L20.4958 23.1193L20.3786 22.8984ZM20.1584 23.2824L19.9084 23.2865L19.9084 23.2866L20.1584 23.2824ZM28.0777 17.0264L28.3277 17.026V17.026L28.0777 17.0264ZM17.0242 28.0776L17.0237 27.8276H17.0237L17.0242 28.0776ZM5.92383 17.0411L5.67383 17.0411V17.0411L5.92383 17.0411ZM13.4079 11.0577C13.3923 11.0504 13.3768 11.0431 13.3613 11.0359C13.3457 11.0286 13.3302 11.0213 13.3147 11.0141L13.1028 11.467C13.1183 11.4742 13.1339 11.4815 13.1494 11.4888C13.1649 11.496 13.1804 11.5033 13.196 11.5106L13.4079 11.0577ZM13.0355 11.0603C12.7365 11.3478 12.368 11.6553 12.0703 11.9969L12.4473 12.3254C12.7268 12.0045 13.045 11.7447 13.382 11.4207L13.0355 11.0603ZM12.0703 11.997C9.14193 15.3588 10.237 20.4439 14.291 22.3254L14.5015 21.8719C10.7475 20.1296 9.73913 15.4344 12.4473 12.3254L12.0703 11.997ZM14.291 22.3254C14.4437 22.3963 14.5265 22.4675 14.5744 22.541C14.6215 22.6132 14.6523 22.7147 14.65 22.8798L15.15 22.8867C15.1532 22.6559 15.1104 22.4477 14.9933 22.268C14.877 22.0896 14.7052 21.9664 14.5015 21.8719L14.291 22.3254ZM14.65 22.8797C14.633 24.0973 14.6436 25.3169 14.644 26.5294L15.144 26.5292C15.1436 25.3111 15.133 24.0995 15.15 22.8867L14.65 22.8797ZM14.644 26.5293C14.644 26.5384 14.6423 26.6085 14.6429 26.6366C14.6438 26.6792 14.6479 26.742 14.6719 26.8078C14.6981 26.8797 14.7447 26.9462 14.8161 26.9974C14.8831 27.0454 14.9602 27.0716 15.0374 27.0864L15.131 26.5952C15.0984 26.589 15.0968 26.5834 15.1075 26.5911C15.1135 26.5954 15.1209 26.6021 15.1279 26.6115C15.1349 26.6209 15.1392 26.6298 15.1416 26.6364C15.1455 26.6472 15.1433 26.6488 15.1428 26.6263C15.1426 26.6159 15.1428 26.6039 15.1431 26.5869C15.1435 26.5714 15.144 26.5504 15.144 26.5293H14.644ZM15.0374 27.0864C16.3073 27.3284 17.574 27.3312 18.8449 27.1114L18.7596 26.6187C17.546 26.8287 16.3399 26.8256 15.131 26.5952L15.0374 27.0864ZM18.8449 27.1114C18.9755 27.0888 19.1297 27.0462 19.2383 26.9202C19.3486 26.7922 19.3668 26.6311 19.365 26.4901L18.8651 26.4964C18.8664 26.6041 18.847 26.6084 18.8596 26.5938C18.8654 26.587 18.8677 26.5887 18.8537 26.5946C18.8378 26.6014 18.8093 26.6101 18.7596 26.6187L18.8449 27.1114ZM19.365 26.4901C19.3506 25.3449 19.3775 24.1545 19.3492 22.9958L18.8493 23.008C18.8779 24.1757 18.8501 25.3142 18.8651 26.4964L19.365 26.4901ZM19.3492 22.9958C19.344 22.7836 19.3781 22.6532 19.4371 22.5592C19.4962 22.4648 19.6004 22.3753 19.7986 22.2844L19.5902 21.8299C19.3426 21.9434 19.1434 22.0864 19.0135 22.2935C18.8835 22.5008 18.8428 22.7406 18.8493 23.008L19.3492 22.9958ZM19.7986 22.2844C24.1665 20.2809 24.9035 14.2703 21.1668 11.2521L20.8526 11.6411C24.3023 14.4275 23.6187 19.9821 19.5901 21.8299L19.7986 22.2844ZM21.1668 11.2521C21.0787 11.1809 20.9769 11.1111 20.8577 11.0231L20.5609 11.4256C20.7006 11.5285 20.7753 11.5786 20.8526 11.641L21.1668 11.2521ZM20.4593 11.2243C20.4593 11.4014 20.4595 11.5119 20.4593 11.6227L20.9593 11.6235C20.9595 11.5122 20.9593 11.4005 20.9593 11.2243H20.4593ZM20.4593 11.6227C20.4565 13.3615 20.4435 15.1049 20.4564 16.847L20.9563 16.8433C20.9435 15.1042 20.9565 13.3662 20.9593 11.6235L20.4593 11.6227ZM20.4564 16.847C20.4583 17.1175 20.4058 17.3204 20.3081 17.479C20.2107 17.637 20.0549 17.7731 19.812 17.8873L20.0246 18.3398C20.3335 18.1947 20.5739 18.0007 20.7338 17.7413C20.8932 17.4825 20.9588 17.1808 20.9563 16.8433L20.4564 16.847ZM19.812 17.8873C19.0161 18.2612 18.2341 18.6657 17.4568 19.0609L17.6834 19.5066C18.4653 19.1091 19.2378 18.7095 20.0246 18.3398L19.812 17.8873ZM17.4568 19.0608C17.141 19.2213 16.854 19.2198 16.5342 19.055L16.3052 19.4995C16.7656 19.7367 17.2221 19.7409 17.6833 19.5066L17.4568 19.0608ZM16.5342 19.055C15.7562 18.6543 14.9728 18.2564 14.1777 17.8817L13.9646 18.334C14.7514 18.7047 15.5283 19.0994 16.3052 19.4995L16.5342 19.055ZM14.1777 17.8817C13.9405 17.77 13.7878 17.6368 13.6923 17.4825C13.5965 17.3278 13.5446 17.1299 13.5468 16.8658L13.0468 16.8617C13.044 17.194 13.1095 17.4911 13.2672 17.7457C13.4251 18.0008 13.6621 18.1915 13.9646 18.334L14.1777 17.8817ZM13.5468 16.8658C13.5612 15.1135 13.5519 13.36 13.5519 11.6108H13.0519C13.0519 13.3636 13.0612 15.1121 13.0468 16.8617L13.5468 16.8658ZM13.5519 11.6108V11.2841H13.0519V11.6108H13.5519ZM20.2296 26.7031C23.9123 25.6816 27.8151 21.4787 27.2115 15.876L26.7144 15.9296C27.289 21.2632 23.5686 25.2581 20.096 26.2212L20.2296 26.7031ZM27.2115 15.876C26.6449 10.6168 22.0479 6.43902 16.3725 6.752L16.4 7.25125C21.8034 6.95327 26.1755 10.9284 26.7144 15.9296L27.2115 15.876ZM16.3725 6.752C10.8624 7.05591 6.60381 11.7088 6.73865 17.32L7.23851 17.3079C7.11002 11.9613 11.1651 7.53997 16.4 7.25125L16.3725 6.752ZM6.73865 17.32C6.80429 20.0485 7.86358 22.3845 9.78621 24.3083L10.1399 23.9549C8.30271 22.1166 7.30089 19.9008 7.23851 17.3079L6.73865 17.32ZM9.78621 24.3083C10.9037 25.4265 12.2199 26.2326 13.7618 26.7345L13.9166 26.259C12.4484 25.7812 11.2007 25.0163 10.1399 23.9549L9.78621 24.3083ZM14.0892 26.4967C14.0892 25.3493 14.0932 24.2559 14.0813 23.163L13.5813 23.1685C13.5932 24.2578 13.5892 25.3468 13.5892 26.4967H14.0892ZM14.0813 23.163C14.0799 23.0389 14.0142 22.9362 13.9688 22.8783C13.9177 22.8132 13.8487 22.7498 13.7735 22.7082L13.5315 23.1458C13.5328 23.1465 13.5394 23.1505 13.5491 23.1592C13.5585 23.1675 13.5678 23.1772 13.5754 23.1869C13.5833 23.197 13.5867 23.2035 13.5873 23.2048C13.5875 23.2052 13.5863 23.2027 13.5849 23.1974C13.5835 23.1922 13.5814 23.1823 13.5813 23.1686L14.0813 23.163ZM13.7734 22.7082C10.9156 21.1296 9.51777 18.4474 9.96254 15.2437L9.46729 15.175C8.99293 18.5918 10.5 21.4712 13.5317 23.1458L13.7734 22.7082ZM9.96254 15.2437C10.2347 13.2829 11.2391 11.7232 12.8491 10.5474L12.5542 10.1436C10.8452 11.3917 9.75977 13.0677 9.46729 15.175L9.96254 15.2437ZM12.8491 10.5473C13.1282 10.3434 13.4622 10.3458 13.7514 10.539L14.0291 10.1232C13.5771 9.82134 13.0139 9.80775 12.5541 10.1436L12.8491 10.5473ZM13.7514 10.539C14.0112 10.7125 14.1106 10.959 14.1096 11.3129L14.6096 11.3143C14.611 10.849 14.4692 10.4171 14.0291 10.1232L13.7514 10.539ZM14.1096 11.3128C14.1043 13.1188 14.1142 14.9169 14.1002 16.7191L14.6001 16.723C14.6142 14.9204 14.6043 13.1134 14.6096 11.3143L14.1096 11.3128ZM14.1002 16.7191C14.0989 16.8808 14.125 17.0353 14.2136 17.1713C14.3013 17.3059 14.4296 17.3906 14.5665 17.4553L14.7801 17.0032C14.6827 16.9572 14.6484 16.9227 14.6326 16.8984C14.6176 16.8754 14.5993 16.831 14.6001 16.7231L14.1002 16.7191ZM14.5665 17.4553C14.9168 17.6208 15.2637 17.7948 15.6139 17.9701C15.9632 18.145 16.3157 18.3213 16.6728 18.489L16.8853 18.0364C16.5348 17.8718 16.1878 17.6983 15.8378 17.523C15.4887 17.3482 15.1365 17.1716 14.7801 17.0032L14.5665 17.4553ZM16.6728 18.489C16.7754 18.5371 16.8934 18.5568 16.9997 18.5577C17.1056 18.5586 17.2256 18.5412 17.3306 18.4917L17.1174 18.0394C17.0993 18.048 17.0589 18.0582 17.0041 18.0577C16.9496 18.0572 16.9067 18.0464 16.8853 18.0364L16.6728 18.489ZM17.3306 18.4917C17.6921 18.3213 18.0488 18.1422 18.4024 17.9645C18.7568 17.7863 19.108 17.6095 19.4628 17.441L19.2483 16.9894C18.8876 17.1607 18.5311 17.3401 18.1778 17.5178C17.8236 17.6958 17.4723 17.8721 17.1174 18.0394L17.3306 18.4917ZM19.4628 17.441C19.5891 17.3811 19.7106 17.3021 19.794 17.1748C19.8784 17.0459 19.9021 16.9004 19.9012 16.7513L19.4012 16.7545C19.4018 16.8513 19.3855 16.8859 19.3756 16.901C19.3647 16.9177 19.3376 16.947 19.2483 16.9894L19.4628 17.441ZM19.9012 16.7512C19.8893 14.9187 19.8961 13.0874 19.8943 11.2524L19.3943 11.2529C19.3961 13.0847 19.3893 14.9202 19.4012 16.7545L19.9012 16.7512ZM19.8943 11.2524C19.8941 11.0649 19.9313 10.9146 19.999 10.7949C20.0658 10.6768 20.1705 10.5739 20.33 10.492L20.1016 10.0472C19.8651 10.1687 19.6839 10.3365 19.5638 10.5487C19.4447 10.7594 19.3941 10.999 19.3943 11.2529L19.8943 11.2524ZM20.33 10.492C20.4903 10.4096 20.6375 10.3828 20.7737 10.3965C20.9107 10.4102 21.0529 10.4665 21.1993 10.5758L21.4984 10.1752C21.2926 10.0215 21.066 9.92325 20.8235 9.89897C20.5801 9.8746 20.3368 9.92636 20.1016 10.0472L20.33 10.492ZM21.1993 10.5758C22.8986 11.8445 23.8889 13.5261 24.0968 15.624L24.5944 15.5746C24.3719 13.33 23.3045 11.5236 21.4984 10.1752L21.1993 10.5758ZM24.0968 15.624C24.392 18.6007 22.9229 21.2649 20.2614 22.6776L20.4958 23.1193C23.3311 21.6143 24.9102 18.7594 24.5944 15.5746L24.0968 15.624ZM20.2614 22.6776C20.1495 22.737 20.0492 22.8156 19.9839 22.9334C19.9199 23.049 19.9065 23.1723 19.9084 23.2865L20.4084 23.2782C20.4071 23.2054 20.4176 23.1825 20.4213 23.1757C20.4238 23.1712 20.4351 23.1515 20.4958 23.1193L20.2614 22.6776ZM19.9084 23.2866C19.9197 23.9531 19.9128 24.6179 19.9128 25.2908H20.4128C20.4128 24.6248 20.4197 23.9503 20.4084 23.2781L19.9084 23.2866ZM19.9128 25.2908C19.9128 25.2916 19.9128 25.2924 19.9128 25.2931C19.9128 25.2939 19.9128 25.2946 19.9128 25.2954C19.9128 25.2961 19.9128 25.2969 19.9128 25.2976C19.9128 25.2984 19.9128 25.2992 19.9128 25.2999C19.9128 25.3007 19.9128 25.3014 19.9128 25.3022C19.9128 25.3029 19.9128 25.3037 19.9128 25.3045C19.9128 25.3052 19.9128 25.306 19.9128 25.3067C19.9128 25.3075 19.9128 25.3082 19.9128 25.309C19.9128 25.3098 19.9128 25.3105 19.9128 25.3113C19.9128 25.312 19.9128 25.3128 19.9128 25.3135C19.9128 25.3143 19.9128 25.3151 19.9128 25.3158C19.9128 25.3166 19.9128 25.3173 19.9128 25.3181C19.9128 25.3188 19.9128 25.3196 19.9128 25.3204C19.9128 25.3211 19.9128 25.3219 19.9128 25.3226C19.9128 25.3234 19.9128 25.3241 19.9128 25.3249C19.9128 25.3256 19.9128 25.3264 19.9128 25.3272C19.9128 25.3279 19.9128 25.3287 19.9128 25.3294C19.9128 25.3302 19.9128 25.3309 19.9128 25.3317C19.9128 25.3325 19.9128 25.3332 19.9128 25.334C19.9128 25.3347 19.9128 25.3355 19.9128 25.3362C19.9128 25.337 19.9128 25.3378 19.9128 25.3385C19.9128 25.3393 19.9128 25.34 19.9128 25.3408C19.9128 25.3415 19.9128 25.3423 19.9128 25.3431C19.9128 25.3438 19.9128 25.3446 19.9128 25.3453C19.9128 25.3461 19.9128 25.3468 19.9128 25.3476C19.9128 25.3484 19.9128 25.3491 19.9128 25.3499C19.9128 25.3506 19.9128 25.3514 19.9128 25.3521C19.9128 25.3529 19.9128 25.3537 19.9128 25.3544C19.9128 25.3552 19.9128 25.3559 19.9128 25.3567C19.9128 25.3574 19.9128 25.3582 19.9128 25.3589C19.9128 25.3597 19.9128 25.3605 19.9128 25.3612C19.9128 25.362 19.9128 25.3627 19.9128 25.3635C19.9128 25.3642 19.9128 25.365 19.9128 25.3658C19.9128 25.3665 19.9128 25.3673 19.9128 25.368C19.9128 25.3688 19.9128 25.3695 19.9128 25.3703C19.9128 25.3711 19.9128 25.3718 19.9128 25.3726C19.9128 25.3733 19.9128 25.3741 19.9128 25.3748C19.9128 25.3756 19.9128 25.3764 19.9128 25.3771C19.9128 25.3779 19.9128 25.3786 19.9128 25.3794C19.9128 25.3801 19.9128 25.3809 19.9128 25.3817C19.9128 25.3824 19.9128 25.3832 19.9128 25.3839C19.9128 25.3847 19.9128 25.3854 19.9128 25.3862C19.9128 25.387 19.9128 25.3877 19.9128 25.3885C19.9128 25.3892 19.9128 25.39 19.9128 25.3907C19.9128 25.3915 19.9128 25.3923 19.9128 25.393C19.9128 25.3938 19.9128 25.3945 19.9128 25.3953C19.9128 25.396 19.9128 25.3968 19.9128 25.3976C19.9128 25.3983 19.9128 25.3991 19.9128 25.3998C19.9128 25.4006 19.9128 25.4013 19.9128 25.4021C19.9128 25.4028 19.9128 25.4036 19.9128 25.4044C19.9128 25.4051 19.9128 25.4059 19.9128 25.4066C19.9128 25.4074 19.9128 25.4081 19.9128 25.4089C19.9128 25.4097 19.9128 25.4104 19.9128 25.4112C19.9128 25.4119 19.9128 25.4127 19.9128 25.4134C19.9128 25.4142 19.9128 25.415 19.9128 25.4157C19.9128 25.4165 19.9128 25.4172 19.9128 25.418C19.9128 25.4187 19.9128 25.4195 19.9128 25.4203C19.9128 25.421 19.9128 25.4218 19.9128 25.4225C19.9128 25.4233 19.9128 25.424 19.9128 25.4248C19.9128 25.4256 19.9128 25.4263 19.9128 25.4271C19.9128 25.4278 19.9128 25.4286 19.9128 25.4293C19.9128 25.4301 19.9128 25.4309 19.9128 25.4316C19.9128 25.4324 19.9128 25.4331 19.9128 25.4339C19.9128 25.4346 19.9128 25.4354 19.9128 25.4362C19.9128 25.4369 19.9128 25.4377 19.9128 25.4384C19.9128 25.4392 19.9128 25.4399 19.9128 25.4407C19.9128 25.4415 19.9128 25.4422 19.9128 25.443C19.9128 25.4437 19.9128 25.4445 19.9128 25.4452C19.9128 25.446 19.9128 25.4468 19.9128 25.4475C19.9128 25.4483 19.9128 25.449 19.9128 25.4498C19.9128 25.4505 19.9128 25.4513 19.9128 25.4521C19.9128 25.4528 19.9128 25.4536 19.9128 25.4543C19.9128 25.4551 19.9128 25.4558 19.9128 25.4566C19.9128 25.4574 19.9128 25.4581 19.9128 25.4589C19.9128 25.4596 19.9128 25.4604 19.9128 25.4611C19.9128 25.4619 19.9128 25.4627 19.9128 25.4634C19.9128 25.4642 19.9128 25.4649 19.9128 25.4657C19.9128 25.4664 19.9128 25.4672 19.9128 25.468C19.9128 25.4687 19.9128 25.4695 19.9128 25.4702C19.9128 25.471 19.9128 25.4717 19.9128 25.4725C19.9128 25.4733 19.9128 25.474 19.9128 25.4748C19.9128 25.4755 19.9128 25.4763 19.9128 25.477C19.9128 25.4778 19.9128 25.4786 19.9128 25.4793C19.9128 25.4801 19.9128 25.4808 19.9128 25.4816C19.9128 25.4823 19.9128 25.4831 19.9128 25.4839C19.9128 25.4846 19.9128 25.4854 19.9128 25.4861C19.9128 25.4869 19.9128 25.4876 19.9128 25.4884C19.9128 25.4892 19.9128 25.4899 19.9128 25.4907C19.9128 25.4914 19.9128 25.4922 19.9128 25.4929C19.9128 25.4937 19.9128 25.4945 19.9128 25.4952C19.9128 25.496 19.9128 25.4967 19.9128 25.4975C19.9128 25.4982 19.9128 25.499 19.9128 25.4998C19.9128 25.5005 19.9128 25.5013 19.9128 25.502C19.9128 25.5028 19.9128 25.5035 19.9128 25.5043C19.9128 25.5051 19.9128 25.5058 19.9128 25.5066C19.9128 25.5073 19.9128 25.5081 19.9128 25.5089C19.9128 25.5096 19.9128 25.5104 19.9128 25.5111C19.9128 25.5119 19.9128 25.5126 19.9128 25.5134C19.9128 25.5142 19.9128 25.5149 19.9128 25.5157C19.9128 25.5164 19.9128 25.5172 19.9128 25.5179C19.9128 25.5187 19.9128 25.5195 19.9128 25.5202C19.9128 25.521 19.9128 25.5217 19.9128 25.5225C19.9128 25.5232 19.9128 25.524 19.9128 25.5248C19.9128 25.5255 19.9128 25.5263 19.9128 25.527C19.9128 25.5278 19.9128 25.5285 19.9128 25.5293C19.9128 25.5301 19.9128 25.5308 19.9128 25.5316C19.9128 25.5323 19.9128 25.5331 19.9128 25.5338C19.9128 25.5346 19.9128 25.5354 19.9128 25.5361C19.9128 25.5369 19.9128 25.5376 19.9128 25.5384C19.9128 25.5392 19.9128 25.5399 19.9128 25.5407C19.9128 25.5414 19.9128 25.5422 19.9128 25.5429C19.9128 25.5437 19.9128 25.5445 19.9128 25.5452C19.9128 25.546 19.9128 25.5467 19.9128 25.5475C19.9128 25.5482 19.9128 25.549 19.9128 25.5498C19.9128 25.5505 19.9128 25.5513 19.9128 25.552C19.9128 25.5528 19.9128 25.5535 19.9128 25.5543C19.9128 25.5551 19.9128 25.5558 19.9128 25.5566C19.9128 25.5573 19.9128 25.5581 19.9128 25.5589C19.9128 25.5596 19.9128 25.5604 19.9128 25.5611C19.9128 25.5619 19.9128 25.5626 19.9128 25.5634C19.9128 25.5642 19.9128 25.5649 19.9128 25.5657C19.9128 25.5664 19.9128 25.5672 19.9128 25.5679C19.9128 25.5687 19.9128 25.5695 19.9128 25.5702C19.9128 25.571 19.9128 25.5717 19.9128 25.5725C19.9128 25.5732 19.9128 25.574 19.9128 25.5748C19.9128 25.5755 19.9128 25.5763 19.9128 25.577C19.9128 25.5778 19.9128 25.5786 19.9128 25.5793C19.9128 25.5801 19.9128 25.5808 19.9128 25.5816C19.9128 25.5823 19.9128 25.5831 19.9128 25.5839C19.9128 25.5846 19.9128 25.5854 19.9128 25.5861C19.9128 25.5869 19.9128 25.5877 19.9128 25.5884C19.9128 25.5892 19.9128 25.5899 19.9128 25.5907C19.9128 25.5914 19.9128 25.5922 19.9128 25.593C19.9128 25.5937 19.9128 25.5945 19.9128 25.5952C19.9128 25.596 19.9128 25.5967 19.9128 25.5975C19.9128 25.5983 19.9128 25.599 19.9128 25.5998C19.9128 25.6005 19.9128 25.6013 19.9128 25.6021C19.9128 25.6028 19.9128 25.6036 19.9128 25.6043C19.9128 25.6051 19.9128 25.6058 19.9128 25.6066C19.9128 25.6074 19.9128 25.6081 19.9128 25.6089C19.9128 25.6096 19.9128 25.6104 19.9128 25.6111C19.9128 25.6119 19.9128 25.6127 19.9128 25.6134C19.9128 25.6142 19.9128 25.6149 19.9128 25.6157C19.9128 25.6165 19.9128 25.6172 19.9128 25.618C19.9128 25.6187 19.9128 25.6195 19.9128 25.6202C19.9128 25.621 19.9128 25.6218 19.9128 25.6225C19.9128 25.6233 19.9128 25.624 19.9128 25.6248C19.9128 25.6256 19.9128 25.6263 19.9128 25.6271C19.9128 25.6278 19.9128 25.6286 19.9128 25.6293C19.9128 25.6301 19.9128 25.6309 19.9128 25.6316C19.9128 25.6324 19.9128 25.6331 19.9128 25.6339C19.9128 25.6347 19.9128 25.6354 19.9128 25.6362C19.9128 25.6369 19.9128 25.6377 19.9128 25.6384C19.9128 25.6392 19.9128 25.64 19.9128 25.6407C19.9128 25.6415 19.9128 25.6422 19.9128 25.643C19.9128 25.6438 19.9128 25.6445 19.9128 25.6453C19.9128 25.646 19.9128 25.6468 19.9128 25.6475C19.9128 25.6483 19.9128 25.6491 19.9128 25.6498C19.9128 25.6506 19.9128 25.6513 19.9128 25.6521C19.9128 25.6529 19.9128 25.6536 19.9128 25.6544C19.9128 25.6551 19.9128 25.6559 19.9128 25.6566C19.9128 25.6574 19.9128 25.6582 19.9128 25.6589C19.9128 25.6597 19.9128 25.6604 19.9128 25.6612C19.9128 25.662 19.9128 25.6627 19.9128 25.6635C19.9128 25.6642 19.9128 25.665 19.9128 25.6658C19.9128 25.6665 19.9128 25.6673 19.9128 25.668C19.9128 25.6688 19.9128 25.6695 19.9128 25.6703C19.9128 25.6711 19.9128 25.6718 19.9128 25.6726C19.9128 25.6733 19.9128 25.6741 19.9128 25.6749C19.9128 25.6756 19.9128 25.6764 19.9128 25.6771C19.9128 25.6779 19.9128 25.6786 19.9128 25.6794C19.9128 25.6802 19.9128 25.6809 19.9128 25.6817C19.9128 25.6824 19.9128 25.6832 19.9128 25.684C19.9128 25.6847 19.9128 25.6855 19.9128 25.6862C19.9128 25.687 19.9128 25.6878 19.9128 25.6885C19.9128 25.6893 19.9128 25.69 19.9128 25.6908C19.9128 25.6915 19.9128 25.6923 19.9128 25.6931C19.9128 25.6938 19.9128 25.6946 19.9128 25.6953C19.9128 25.6961 19.9128 25.6969 19.9128 25.6976C19.9128 25.6984 19.9128 25.6991 19.9128 25.6999C19.9128 25.7007 19.9128 25.7014 19.9128 25.7022C19.9128 25.7029 19.9128 25.7037 19.9128 25.7045C19.9128 25.7052 19.9128 25.706 19.9128 25.7067C19.9128 25.7075 19.9128 25.7082 19.9128 25.709C19.9128 25.7098 19.9128 25.7105 19.9128 25.7113C19.9128 25.712 19.9128 25.7128 19.9128 25.7136C19.9128 25.7143 19.9128 25.7151 19.9128 25.7158C19.9128 25.7166 19.9128 25.7174 19.9128 25.7181C19.9128 25.7189 19.9128 25.7196 19.9128 25.7204C19.9128 25.7212 19.9128 25.7219 19.9128 25.7227C19.9128 25.7234 19.9128 25.7242 19.9128 25.7249C19.9128 25.7257 19.9128 25.7265 19.9128 25.7272C19.9128 25.728 19.9128 25.7287 19.9128 25.7295C19.9128 25.7303 19.9128 25.731 19.9128 25.7318C19.9128 25.7325 19.9128 25.7333 19.9128 25.7341C19.9128 25.7348 19.9128 25.7356 19.9128 25.7363C19.9128 25.7371 19.9128 25.7379 19.9128 25.7386C19.9128 25.7394 19.9128 25.7401 19.9128 25.7409C19.9128 25.7417 19.9128 25.7424 19.9128 25.7432C19.9128 25.7439 19.9128 25.7447 19.9128 25.7455C19.9128 25.7462 19.9128 25.747 19.9128 25.7477C19.9128 25.7485 19.9128 25.7492 19.9128 25.75C19.9128 25.7508 19.9128 25.7515 19.9128 25.7523C19.9128 25.753 19.9128 25.7538 19.9128 25.7546C19.9128 25.7553 19.9128 25.7561 19.9128 25.7568C19.9128 25.7576 19.9128 25.7584 19.9128 25.7591C19.9128 25.7599 19.9128 25.7606 19.9128 25.7614C19.9128 25.7622 19.9128 25.7629 19.9128 25.7637C19.9128 25.7644 19.9128 25.7652 19.9128 25.766C19.9128 25.7667 19.9128 25.7675 19.9128 25.7682C19.9128 25.769 19.9128 25.7698 19.9128 25.7705C19.9128 25.7713 19.9128 25.772 19.9128 25.7728C19.9128 25.7736 19.9128 25.7743 19.9128 25.7751C19.9128 25.7758 19.9128 25.7766 19.9128 25.7774C19.9128 25.7781 19.9128 25.7789 19.9128 25.7796C19.9128 25.7804 19.9128 25.7812 19.9128 25.7819C19.9128 25.7827 19.9128 25.7834 19.9128 25.7842C19.9128 25.785 19.9128 25.7857 19.9128 25.7865C19.9128 25.7872 19.9128 25.788 19.9128 25.7888C19.9128 25.7895 19.9128 25.7903 19.9128 25.791C19.9128 25.7918 19.9128 25.7926 19.9128 25.7933C19.9128 25.7941 19.9128 25.7948 19.9128 25.7956C19.9128 25.7964 19.9128 25.7971 19.9128 25.7979C19.9128 25.7986 19.9128 25.7994 19.9128 25.8002C19.9128 25.8009 19.9128 25.8017 19.9128 25.8024C19.9128 25.8032 19.9128 25.804 19.9128 25.8047C19.9128 25.8055 19.9128 25.8062 19.9128 25.807C19.9128 25.8078 19.9128 25.8085 19.9128 25.8093C19.9128 25.81 19.9128 25.8108 19.9128 25.8116C19.9128 25.8123 19.9128 25.8131 19.9128 25.8138C19.9128 25.8146 19.9128 25.8154 19.9128 25.8161C19.9128 25.8169 19.9128 25.8176 19.9128 25.8184C19.9128 25.8192 19.9128 25.8199 19.9128 25.8207C19.9128 25.8214 19.9128 25.8222 19.9128 25.823C19.9128 25.8237 19.9128 25.8245 19.9128 25.8252C19.9128 25.826 19.9128 25.8268 19.9128 25.8275C19.9128 25.8283 19.9128 25.8291 19.9128 25.8298C19.9128 25.8306 19.9128 25.8313 19.9128 25.8321C19.9128 25.8329 19.9128 25.8336 19.9128 25.8344C19.9128 25.8351 19.9128 25.8359 19.9128 25.8367C19.9128 25.8374 19.9128 25.8382 19.9128 25.8389C19.9128 25.8397 19.9128 25.8405 19.9128 25.8412C19.9128 25.842 19.9128 25.8427 19.9128 25.8435C19.9128 25.8443 19.9128 25.845 19.9128 25.8458C19.9128 25.8465 19.9128 25.8473 19.9128 25.8481C19.9128 25.8488 19.9128 25.8496 19.9128 25.8503C19.9128 25.8511 19.9128 25.8519 19.9128 25.8526C19.9128 25.8534 19.9128 25.8542 19.9128 25.8549C19.9128 25.8557 19.9128 25.8564 19.9128 25.8572C19.9128 25.858 19.9128 25.8587 19.9128 25.8595C19.9128 25.8602 19.9128 25.861 19.9128 25.8618C19.9128 25.8625 19.9128 25.8633 19.9128 25.864C19.9128 25.8648 19.9128 25.8656 19.9128 25.8663C19.9128 25.8671 19.9128 25.8679 19.9128 25.8686C19.9128 25.8694 19.9128 25.8701 19.9128 25.8709C19.9128 25.8717 19.9128 25.8724 19.9128 25.8732C19.9128 25.8739 19.9128 25.8747 19.9128 25.8755C19.9128 25.8762 19.9128 25.877 19.9128 25.8777C19.9128 25.8785 19.9128 25.8793 19.9128 25.88C19.9128 25.8808 19.9128 25.8816 19.9128 25.8823C19.9128 25.8831 19.9128 25.8838 19.9128 25.8846C19.9128 25.8854 19.9128 25.8861 19.9128 25.8869C19.9128 25.8876 19.9128 25.8884 19.9128 25.8892C19.9128 25.8899 19.9128 25.8907 19.9128 25.8915C19.9128 25.8922 19.9128 25.893 19.9128 25.8937C19.9128 25.8945 19.9128 25.8953 19.9128 25.896C19.9128 25.8968 19.9128 25.8975 19.9128 25.8983C19.9128 25.8991 19.9128 25.8998 19.9128 25.9006C19.9128 25.9014 19.9128 25.9021 19.9128 25.9029C19.9128 25.9036 19.9128 25.9044 19.9128 25.9052C19.9128 25.9059 19.9128 25.9067 19.9128 25.9074C19.9128 25.9082 19.9128 25.909 19.9128 25.9097C19.9128 25.9105 19.9128 25.9113 19.9128 25.912C19.9128 25.9128 19.9128 25.9135 19.9128 25.9143C19.9128 25.9151 19.9128 25.9158 19.9128 25.9166C19.9128 25.9173 19.9128 25.9181 19.9128 25.9189C19.9128 25.9196 19.9128 25.9204 19.9128 25.9212C19.9128 25.9219 19.9128 25.9227 19.9128 25.9234C19.9128 25.9242 19.9128 25.925 19.9128 25.9257C19.9128 25.9265 19.9128 25.9273 19.9128 25.928C19.9128 25.9288 19.9128 25.9295 19.9128 25.9303C19.9128 25.9311 19.9128 25.9318 19.9128 25.9326C19.9128 25.9333 19.9128 25.9341 19.9128 25.9349C19.9128 25.9356 19.9128 25.9364 19.9128 25.9372C19.9128 25.9379 19.9128 25.9387 19.9128 25.9394C19.9128 25.9402 19.9128 25.941 19.9128 25.9417C19.9128 25.9425 19.9128 25.9433 19.9128 25.944C19.9128 25.9448 19.9128 25.9455 19.9128 25.9463C19.9128 25.9471 19.9128 25.9478 19.9128 25.9486C19.9128 25.9494 19.9128 25.9501 19.9128 25.9509C19.9128 25.9516 19.9128 25.9524 19.9128 25.9532C19.9128 25.9539 19.9128 25.9547 19.9128 25.9555C19.9128 25.9562 19.9128 25.957 19.9128 25.9577C19.9128 25.9585 19.9128 25.9593 19.9128 25.96C19.9128 25.9608 19.9128 25.9616 19.9128 25.9623C19.9128 25.9631 19.9128 25.9638 19.9128 25.9646C19.9128 25.9654 19.9128 25.9661 19.9128 25.9669C19.9128 25.9677 19.9128 25.9684 19.9128 25.9692C19.9128 25.9699 19.9128 25.9707 19.9128 25.9715C19.9128 25.9722 19.9128 25.973 19.9128 25.9738C19.9128 25.9745 19.9128 25.9753 19.9128 25.976C19.9128 25.9768 19.9128 25.9776 19.9128 25.9783C19.9128 25.9791 19.9128 25.9799 19.9128 25.9806C19.9128 25.9814 19.9128 25.9821 19.9128 25.9829C19.9128 25.9837 19.9128 25.9844 19.9128 25.9852C19.9128 25.986 19.9128 25.9867 19.9128 25.9875C19.9128 25.9883 19.9128 25.989 19.9128 25.9898C19.9128 25.9905 19.9128 25.9913 19.9128 25.9921C19.9128 25.9928 19.9128 25.9936 19.9128 25.9944C19.9128 25.9951 19.9128 25.9959 19.9128 25.9966C19.9128 25.9974 19.9128 25.9982 19.9128 25.9989C19.9128 25.9997 19.9128 26.0005 19.9128 26.0012C19.9128 26.002 19.9128 26.0028 19.9128 26.0035C19.9128 26.0043 19.9128 26.005 19.9128 26.0058C19.9128 26.0066 19.9128 26.0073 19.9128 26.0081C19.9128 26.0089 19.9128 26.0096 19.9128 26.0104C19.9128 26.0111 19.9128 26.0119 19.9128 26.0127C19.9128 26.0134 19.9128 26.0142 19.9128 26.015C19.9128 26.0157 19.9128 26.0165 19.9128 26.0173C19.9128 26.018 19.9128 26.0188 19.9128 26.0195C19.9128 26.0203 19.9128 26.0211 19.9128 26.0218C19.9128 26.0226 19.9128 26.0234 19.9128 26.0241C19.9128 26.0249 19.9128 26.0257 19.9128 26.0264C19.9128 26.0272 19.9128 26.0279 19.9128 26.0287C19.9128 26.0295 19.9128 26.0302 19.9128 26.031C19.9128 26.0318 19.9128 26.0325 19.9128 26.0333C19.9128 26.0341 19.9128 26.0348 19.9128 26.0356C19.9128 26.0363 19.9128 26.0371 19.9128 26.0379C19.9128 26.0386 19.9128 26.0394 19.9128 26.0402C19.9128 26.0409 19.9128 26.0417 19.9128 26.0425C19.9128 26.0432 19.9128 26.044 19.9128 26.0448C19.9128 26.0455 19.9128 26.0463 19.9128 26.047C19.9128 26.0478 19.9128 26.0486 19.9128 26.0493C19.9128 26.0501 19.9128 26.0509 19.9128 26.0516C19.9128 26.0524 19.9128 26.0532 19.9128 26.0539C19.9128 26.0547 19.9128 26.0555 19.9128 26.0562C19.9128 26.057 19.9128 26.0577 19.9128 26.0585C19.9128 26.0593 19.9128 26.06 19.9128 26.0608C19.9128 26.0616 19.9128 26.0623 19.9128 26.0631C19.9128 26.0639 19.9128 26.0646 19.9128 26.0654C19.9128 26.0662 19.9128 26.0669 19.9128 26.0677C19.9128 26.0684 19.9128 26.0692 19.9128 26.07C19.9128 26.0707 19.9128 26.0715 19.9128 26.0723C19.9128 26.073 19.9128 26.0738 19.9128 26.0746C19.9128 26.0753 19.9128 26.0761 19.9128 26.0769C19.9128 26.0776 19.9128 26.0784 19.9128 26.0791C19.9128 26.0799 19.9128 26.0807 19.9128 26.0814C19.9128 26.0822 19.9128 26.083 19.9128 26.0837C19.9128 26.0845 19.9128 26.0853 19.9128 26.086C19.9128 26.0868 19.9128 26.0876 19.9128 26.0883C19.9128 26.0891 19.9128 26.0899 19.9128 26.0906C19.9128 26.0914 19.9128 26.0922 19.9128 26.0929C19.9128 26.0937 19.9128 26.0944 19.9128 26.0952C19.9128 26.096 19.9128 26.0967 19.9128 26.0975C19.9128 26.0983 19.9128 26.099 19.9128 26.0998C19.9128 26.1006 19.9128 26.1013 19.9128 26.1021C19.9128 26.1029 19.9128 26.1036 19.9128 26.1044C19.9128 26.1052 19.9128 26.1059 19.9128 26.1067C19.9128 26.1075 19.9128 26.1082 19.9128 26.109C19.9128 26.1098 19.9128 26.1105 19.9128 26.1113C19.9128 26.112 19.9128 26.1128 19.9128 26.1136C19.9128 26.1143 19.9128 26.1151 19.9128 26.1159C19.9128 26.1166 19.9128 26.1174 19.9128 26.1182C19.9128 26.1189 19.9128 26.1197 19.9128 26.1205C19.9128 26.1212 19.9128 26.122 19.9128 26.1228C19.9128 26.1235 19.9128 26.1243 19.9128 26.1251C19.9128 26.1258 19.9128 26.1266 19.9128 26.1274C19.9128 26.1281 19.9128 26.1289 19.9128 26.1297C19.9128 26.1304 19.9128 26.1312 19.9128 26.132C19.9128 26.1327 19.9128 26.1335 19.9128 26.1342C19.9128 26.135 19.9128 26.1358 19.9128 26.1365C19.9128 26.1373 19.9128 26.1381 19.9128 26.1388C19.9128 26.1396 19.9128 26.1404 19.9128 26.1411C19.9128 26.1419 19.9128 26.1427 19.9128 26.1434C19.9128 26.1442 19.9128 26.145 19.9128 26.1457C19.9128 26.1465 19.9128 26.1473 19.9128 26.148C19.9128 26.1488 19.9128 26.1496 19.9128 26.1503C19.9128 26.1511 19.9128 26.1519 19.9128 26.1526C19.9128 26.1534 19.9128 26.1542 19.9128 26.1549C19.9128 26.1557 19.9128 26.1565 19.9128 26.1572C19.9128 26.158 19.9128 26.1588 19.9128 26.1595C19.9128 26.1603 19.9128 26.1611 19.9128 26.1618C19.9128 26.1626 19.9128 26.1634 19.9128 26.1641C19.9128 26.1649 19.9128 26.1657 19.9128 26.1664C19.9128 26.1672 19.9128 26.168 19.9128 26.1687C19.9128 26.1695 19.9128 26.1703 19.9128 26.171C19.9128 26.1718 19.9128 26.1726 19.9128 26.1733C19.9128 26.1741 19.9128 26.1749 19.9128 26.1756C19.9128 26.1764 19.9128 26.1772 19.9128 26.1779C19.9128 26.1787 19.9128 26.1795 19.9128 26.1802C19.9128 26.181 19.9128 26.1818 19.9128 26.1825C19.9128 26.1833 19.9128 26.1841 19.9128 26.1848C19.9128 26.1856 19.9128 26.1864 19.9128 26.1871C19.9128 26.1879 19.9128 26.1887 19.9128 26.1894C19.9128 26.1902 19.9128 26.191 19.9128 26.1917C19.9128 26.1925 19.9128 26.1933 19.9128 26.194C19.9128 26.1948 19.9128 26.1956 19.9128 26.1963C19.9128 26.1971 19.9128 26.1979 19.9128 26.1986C19.9128 26.1994 19.9128 26.2002 19.9128 26.2009C19.9128 26.2017 19.9128 26.2025 19.9128 26.2032C19.9128 26.204 19.9128 26.2048 19.9128 26.2055C19.9128 26.2063 19.9128 26.2071 19.9128 26.2078C19.9128 26.2086 19.9128 26.2094 19.9128 26.2101C19.9128 26.2109 19.9128 26.2117 19.9128 26.2125C19.9128 26.2132 19.9128 26.214 19.9128 26.2148C19.9128 26.2155 19.9128 26.2163 19.9128 26.2171C19.9128 26.2178 19.9128 26.2186 19.9128 26.2194C19.9128 26.2201 19.9128 26.2209 19.9128 26.2217C19.9128 26.2224 19.9128 26.2232 19.9128 26.224C19.9128 26.2247 19.9128 26.2255 19.9128 26.2263C19.9128 26.227 19.9128 26.2278 19.9128 26.2286C19.9128 26.2293 19.9128 26.2301 19.9128 26.2309C19.9128 26.2316 19.9128 26.2324 19.9128 26.2332C19.9128 26.2339 19.9128 26.2347 19.9128 26.2355C19.9128 26.2363 19.9128 26.237 19.9128 26.2378C19.9128 26.2386 19.9128 26.2393 19.9128 26.2401C19.9128 26.2409 19.9128 26.2416 19.9128 26.2424C19.9128 26.2432 19.9128 26.2439 19.9128 26.2447C19.9128 26.2455 19.9128 26.2462 19.9128 26.247C19.9128 26.2478 19.9128 26.2485 19.9128 26.2493C19.9128 26.2501 19.9128 26.2509 19.9128 26.2516C19.9128 26.2524 19.9128 26.2532 19.9128 26.2539C19.9128 26.2547 19.9128 26.2555 19.9128 26.2562C19.9128 26.257 19.9128 26.2578 19.9128 26.2585C19.9128 26.2593 19.9128 26.2601 19.9128 26.2608C19.9128 26.2616 19.9128 26.2624 19.9128 26.2631C19.9128 26.2639 19.9128 26.2647 19.9128 26.2655C19.9128 26.2662 19.9128 26.267 19.9128 26.2678C19.9128 26.2685 19.9128 26.2693 19.9128 26.2701C19.9128 26.2708 19.9128 26.2716 19.9128 26.2724C19.9128 26.2731 19.9128 26.2739 19.9128 26.2747C19.9128 26.2755 19.9128 26.2762 19.9128 26.277C19.9128 26.2778 19.9128 26.2785 19.9128 26.2793C19.9128 26.2801 19.9128 26.2808 19.9128 26.2816C19.9128 26.2824 19.9128 26.2831 19.9128 26.2839C19.9128 26.2847 19.9128 26.2854 19.9128 26.2862C19.9128 26.287 19.9128 26.2878 19.9128 26.2885C19.9128 26.2893 19.9128 26.2901 19.9128 26.2908C19.9128 26.2916 19.9128 26.2924 19.9128 26.2931C19.9128 26.2939 19.9128 26.2947 19.9128 26.2955C19.9128 26.2962 19.9128 26.297 19.9128 26.2978C19.9128 26.2985 19.9128 26.2993 19.9128 26.3001C19.9128 26.3008 19.9128 26.3016 19.9128 26.3024C19.9128 26.3032 19.9128 26.3039 19.9128 26.3047C19.9128 26.3055 19.9128 26.3062 19.9128 26.307C19.9128 26.3078 19.9128 26.3085 19.9128 26.3093C19.9128 26.3101 19.9128 26.3108 19.9128 26.3116C19.9128 26.3124 19.9128 26.3132 19.9128 26.3139C19.9128 26.3147 19.9128 26.3155 19.9128 26.3162C19.9128 26.317 19.9128 26.3178 19.9128 26.3185C19.9128 26.3193 19.9128 26.3201 19.9128 26.3209C19.9128 26.3216 19.9128 26.3224 19.9128 26.3232C19.9128 26.3239 19.9128 26.3247 19.9128 26.3255C19.9128 26.3263 19.9128 26.327 19.9128 26.3278C19.9128 26.3286 19.9128 26.3293 19.9128 26.3301C19.9128 26.3309 19.9128 26.3316 19.9128 26.3324C19.9128 26.3332 19.9128 26.334 19.9128 26.3347C19.9128 26.3355 19.9128 26.3363 19.9128 26.337C19.9128 26.3378 19.9128 26.3386 19.9128 26.3393C19.9128 26.3401 19.9128 26.3409 19.9128 26.3417C19.9128 26.3424 19.9128 26.3432 19.9128 26.344C19.9128 26.3447 19.9128 26.3455 19.9128 26.3463C19.9128 26.3471 19.9128 26.3478 19.9128 26.3486C19.9128 26.3494 19.9128 26.3501 19.9128 26.3509C19.9128 26.3517 19.9128 26.3525 19.9128 26.3532C19.9128 26.354 19.9128 26.3548 19.9128 26.3555C19.9128 26.3563 19.9128 26.3571 19.9128 26.3579C19.9128 26.3586 19.9128 26.3594 19.9128 26.3602C19.9128 26.3609 19.9128 26.3617 19.9128 26.3625C19.9128 26.3632 19.9128 26.364 19.9128 26.3648C19.9128 26.3656 19.9128 26.3663 19.9128 26.3671C19.9128 26.3679 19.9128 26.3686 19.9128 26.3694C19.9128 26.3702 19.9128 26.371 19.9128 26.3717C19.9128 26.3725 19.9128 26.3733 19.9128 26.3741C19.9128 26.3748 19.9128 26.3756 19.9128 26.3764C19.9128 26.3771 19.9128 26.3779 19.9128 26.3787C19.9128 26.3795 19.9128 26.3802 19.9128 26.381C19.9128 26.3818 19.9128 26.3825 19.9128 26.3833C19.9128 26.3841 19.9128 26.3849 19.9128 26.3856C19.9128 26.3864 19.9128 26.3872 19.9128 26.3879C19.9128 26.3887 19.9128 26.3895 19.9128 26.3903C19.9128 26.391 19.9128 26.3918 19.9128 26.3926C19.9128 26.3933 19.9128 26.3941 19.9128 26.3949C19.9128 26.3957 19.9128 26.3964 19.9128 26.3972C19.9128 26.398 19.9128 26.3988 19.9128 26.3995C19.9128 26.4003 19.9128 26.4011 19.9128 26.4018C19.9128 26.4026 19.9128 26.4034 19.9128 26.4042C19.9128 26.4049 19.9128 26.4057 19.9128 26.4065C19.9128 26.4072 19.9128 26.408 19.9128 26.4088C19.9128 26.4096 19.9128 26.4103 19.9128 26.4111C19.9128 26.4119 19.9128 26.4127 19.9128 26.4134C19.9128 26.4142 19.9128 26.415 19.9128 26.4157C19.9128 26.4165 19.9128 26.4173 19.9128 26.4181C19.9128 26.4188 19.9128 26.4196 19.9128 26.4204C19.9128 26.4212 19.9128 26.4219 19.9128 26.4227C19.9128 26.4235 19.9128 26.4242 19.9128 26.425C19.9128 26.4258 19.9128 26.4266 19.9128 26.4273C19.9128 26.4281 19.9128 26.4289 19.9128 26.4297C19.9128 26.4304 19.9128 26.4312 19.9128 26.432C19.9128 26.4327 19.9128 26.4335 19.9128 26.4343C19.9128 26.4351 19.9128 26.4358 19.9128 26.4366C19.9128 26.4374 19.9128 26.4382 19.9128 26.4389C19.9128 26.4397 19.9128 26.4405 19.9128 26.4413C19.9128 26.442 19.9128 26.4428 19.9128 26.4436C19.9128 26.4443 19.9128 26.4451 19.9128 26.4459C19.9128 26.4467 19.9128 26.4474 19.9128 26.4482C19.9128 26.449 19.9128 26.4498 19.9128 26.4505C19.9128 26.4513 19.9128 26.4521 19.9128 26.4529C19.9128 26.4536 19.9128 26.4544 19.9128 26.4552C19.9128 26.456 19.9128 26.4567 19.9128 26.4575C19.9128 26.4583 19.9128 26.4591 19.9128 26.4598C19.9128 26.4606 19.9128 26.4614 19.9128 26.4621H20.4128C20.4128 26.4614 20.4128 26.4606 20.4128 26.4598C20.4128 26.4591 20.4128 26.4583 20.4128 26.4575C20.4128 26.4567 20.4128 26.456 20.4128 26.4552C20.4128 26.4544 20.4128 26.4536 20.4128 26.4529C20.4128 26.4521 20.4128 26.4513 20.4128 26.4505C20.4128 26.4498 20.4128 26.449 20.4128 26.4482C20.4128 26.4474 20.4128 26.4467 20.4128 26.4459C20.4128 26.4451 20.4128 26.4443 20.4128 26.4436C20.4128 26.4428 20.4128 26.442 20.4128 26.4413C20.4128 26.4405 20.4128 26.4397 20.4128 26.4389C20.4128 26.4382 20.4128 26.4374 20.4128 26.4366C20.4128 26.4358 20.4128 26.4351 20.4128 26.4343C20.4128 26.4335 20.4128 26.4327 20.4128 26.432C20.4128 26.4312 20.4128 26.4304 20.4128 26.4297C20.4128 26.4289 20.4128 26.4281 20.4128 26.4273C20.4128 26.4266 20.4128 26.4258 20.4128 26.425C20.4128 26.4242 20.4128 26.4235 20.4128 26.4227C20.4128 26.4219 20.4128 26.4212 20.4128 26.4204C20.4128 26.4196 20.4128 26.4188 20.4128 26.4181C20.4128 26.4173 20.4128 26.4165 20.4128 26.4157C20.4128 26.415 20.4128 26.4142 20.4128 26.4134C20.4128 26.4127 20.4128 26.4119 20.4128 26.4111C20.4128 26.4103 20.4128 26.4096 20.4128 26.4088C20.4128 26.408 20.4128 26.4072 20.4128 26.4065C20.4128 26.4057 20.4128 26.4049 20.4128 26.4042C20.4128 26.4034 20.4128 26.4026 20.4128 26.4018C20.4128 26.4011 20.4128 26.4003 20.4128 26.3995C20.4128 26.3988 20.4128 26.398 20.4128 26.3972C20.4128 26.3964 20.4128 26.3957 20.4128 26.3949C20.4128 26.3941 20.4128 26.3933 20.4128 26.3926C20.4128 26.3918 20.4128 26.391 20.4128 26.3903C20.4128 26.3895 20.4128 26.3887 20.4128 26.3879C20.4128 26.3872 20.4128 26.3864 20.4128 26.3856C20.4128 26.3849 20.4128 26.3841 20.4128 26.3833C20.4128 26.3825 20.4128 26.3818 20.4128 26.381C20.4128 26.3802 20.4128 26.3795 20.4128 26.3787C20.4128 26.3779 20.4128 26.3771 20.4128 26.3764C20.4128 26.3756 20.4128 26.3748 20.4128 26.3741C20.4128 26.3733 20.4128 26.3725 20.4128 26.3717C20.4128 26.371 20.4128 26.3702 20.4128 26.3694C20.4128 26.3686 20.4128 26.3679 20.4128 26.3671C20.4128 26.3663 20.4128 26.3656 20.4128 26.3648C20.4128 26.364 20.4128 26.3632 20.4128 26.3625C20.4128 26.3617 20.4128 26.3609 20.4128 26.3602C20.4128 26.3594 20.4128 26.3586 20.4128 26.3579C20.4128 26.3571 20.4128 26.3563 20.4128 26.3555C20.4128 26.3548 20.4128 26.354 20.4128 26.3532C20.4128 26.3525 20.4128 26.3517 20.4128 26.3509C20.4128 26.3501 20.4128 26.3494 20.4128 26.3486C20.4128 26.3478 20.4128 26.3471 20.4128 26.3463C20.4128 26.3455 20.4128 26.3447 20.4128 26.344C20.4128 26.3432 20.4128 26.3424 20.4128 26.3417C20.4128 26.3409 20.4128 26.3401 20.4128 26.3393C20.4128 26.3386 20.4128 26.3378 20.4128 26.337C20.4128 26.3363 20.4128 26.3355 20.4128 26.3347C20.4128 26.334 20.4128 26.3332 20.4128 26.3324C20.4128 26.3316 20.4128 26.3309 20.4128 26.3301C20.4128 26.3293 20.4128 26.3286 20.4128 26.3278C20.4128 26.327 20.4128 26.3263 20.4128 26.3255C20.4128 26.3247 20.4128 26.3239 20.4128 26.3232C20.4128 26.3224 20.4128 26.3216 20.4128 26.3209C20.4128 26.3201 20.4128 26.3193 20.4128 26.3185C20.4128 26.3178 20.4128 26.317 20.4128 26.3162C20.4128 26.3155 20.4128 26.3147 20.4128 26.3139C20.4128 26.3132 20.4128 26.3124 20.4128 26.3116C20.4128 26.3108 20.4128 26.3101 20.4128 26.3093C20.4128 26.3085 20.4128 26.3078 20.4128 26.307C20.4128 26.3062 20.4128 26.3055 20.4128 26.3047C20.4128 26.3039 20.4128 26.3032 20.4128 26.3024C20.4128 26.3016 20.4128 26.3008 20.4128 26.3001C20.4128 26.2993 20.4128 26.2985 20.4128 26.2978C20.4128 26.297 20.4128 26.2962 20.4128 26.2955C20.4128 26.2947 20.4128 26.2939 20.4128 26.2931C20.4128 26.2924 20.4128 26.2916 20.4128 26.2908C20.4128 26.2901 20.4128 26.2893 20.4128 26.2885C20.4128 26.2878 20.4128 26.287 20.4128 26.2862C20.4128 26.2854 20.4128 26.2847 20.4128 26.2839C20.4128 26.2831 20.4128 26.2824 20.4128 26.2816C20.4128 26.2808 20.4128 26.2801 20.4128 26.2793C20.4128 26.2785 20.4128 26.2778 20.4128 26.277C20.4128 26.2762 20.4128 26.2755 20.4128 26.2747C20.4128 26.2739 20.4128 26.2731 20.4128 26.2724C20.4128 26.2716 20.4128 26.2708 20.4128 26.2701C20.4128 26.2693 20.4128 26.2685 20.4128 26.2678C20.4128 26.267 20.4128 26.2662 20.4128 26.2655C20.4128 26.2647 20.4128 26.2639 20.4128 26.2631C20.4128 26.2624 20.4128 26.2616 20.4128 26.2608C20.4128 26.2601 20.4128 26.2593 20.4128 26.2585C20.4128 26.2578 20.4128 26.257 20.4128 26.2562C20.4128 26.2555 20.4128 26.2547 20.4128 26.2539C20.4128 26.2532 20.4128 26.2524 20.4128 26.2516C20.4128 26.2509 20.4128 26.2501 20.4128 26.2493C20.4128 26.2485 20.4128 26.2478 20.4128 26.247C20.4128 26.2462 20.4128 26.2455 20.4128 26.2447C20.4128 26.2439 20.4128 26.2432 20.4128 26.2424C20.4128 26.2416 20.4128 26.2409 20.4128 26.2401C20.4128 26.2393 20.4128 26.2386 20.4128 26.2378C20.4128 26.237 20.4128 26.2363 20.4128 26.2355C20.4128 26.2347 20.4128 26.2339 20.4128 26.2332C20.4128 26.2324 20.4128 26.2316 20.4128 26.2309C20.4128 26.2301 20.4128 26.2293 20.4128 26.2286C20.4128 26.2278 20.4128 26.227 20.4128 26.2263C20.4128 26.2255 20.4128 26.2247 20.4128 26.224C20.4128 26.2232 20.4128 26.2224 20.4128 26.2217C20.4128 26.2209 20.4128 26.2201 20.4128 26.2194C20.4128 26.2186 20.4128 26.2178 20.4128 26.2171C20.4128 26.2163 20.4128 26.2155 20.4128 26.2148C20.4128 26.214 20.4128 26.2132 20.4128 26.2125C20.4128 26.2117 20.4128 26.2109 20.4128 26.2101C20.4128 26.2094 20.4128 26.2086 20.4128 26.2078C20.4128 26.2071 20.4128 26.2063 20.4128 26.2055C20.4128 26.2048 20.4128 26.204 20.4128 26.2032C20.4128 26.2025 20.4128 26.2017 20.4128 26.2009C20.4128 26.2002 20.4128 26.1994 20.4128 26.1986C20.4128 26.1979 20.4128 26.1971 20.4128 26.1963C20.4128 26.1956 20.4128 26.1948 20.4128 26.194C20.4128 26.1933 20.4128 26.1925 20.4128 26.1917C20.4128 26.191 20.4128 26.1902 20.4128 26.1894C20.4128 26.1887 20.4128 26.1879 20.4128 26.1871C20.4128 26.1864 20.4128 26.1856 20.4128 26.1848C20.4128 26.1841 20.4128 26.1833 20.4128 26.1825C20.4128 26.1818 20.4128 26.181 20.4128 26.1802C20.4128 26.1795 20.4128 26.1787 20.4128 26.1779C20.4128 26.1772 20.4128 26.1764 20.4128 26.1756C20.4128 26.1749 20.4128 26.1741 20.4128 26.1733C20.4128 26.1726 20.4128 26.1718 20.4128 26.171C20.4128 26.1703 20.4128 26.1695 20.4128 26.1687C20.4128 26.168 20.4128 26.1672 20.4128 26.1664C20.4128 26.1657 20.4128 26.1649 20.4128 26.1641C20.4128 26.1634 20.4128 26.1626 20.4128 26.1618C20.4128 26.1611 20.4128 26.1603 20.4128 26.1595C20.4128 26.1588 20.4128 26.158 20.4128 26.1572C20.4128 26.1565 20.4128 26.1557 20.4128 26.1549C20.4128 26.1542 20.4128 26.1534 20.4128 26.1526C20.4128 26.1519 20.4128 26.1511 20.4128 26.1503C20.4128 26.1496 20.4128 26.1488 20.4128 26.148C20.4128 26.1473 20.4128 26.1465 20.4128 26.1457C20.4128 26.145 20.4128 26.1442 20.4128 26.1434C20.4128 26.1427 20.4128 26.1419 20.4128 26.1411C20.4128 26.1404 20.4128 26.1396 20.4128 26.1388C20.4128 26.1381 20.4128 26.1373 20.4128 26.1365C20.4128 26.1358 20.4128 26.135 20.4128 26.1342C20.4128 26.1335 20.4128 26.1327 20.4128 26.132C20.4128 26.1312 20.4128 26.1304 20.4128 26.1297C20.4128 26.1289 20.4128 26.1281 20.4128 26.1274C20.4128 26.1266 20.4128 26.1258 20.4128 26.1251C20.4128 26.1243 20.4128 26.1235 20.4128 26.1228C20.4128 26.122 20.4128 26.1212 20.4128 26.1205C20.4128 26.1197 20.4128 26.1189 20.4128 26.1182C20.4128 26.1174 20.4128 26.1166 20.4128 26.1159C20.4128 26.1151 20.4128 26.1143 20.4128 26.1136C20.4128 26.1128 20.4128 26.112 20.4128 26.1113C20.4128 26.1105 20.4128 26.1098 20.4128 26.109C20.4128 26.1082 20.4128 26.1075 20.4128 26.1067C20.4128 26.1059 20.4128 26.1052 20.4128 26.1044C20.4128 26.1036 20.4128 26.1029 20.4128 26.1021C20.4128 26.1013 20.4128 26.1006 20.4128 26.0998C20.4128 26.099 20.4128 26.0983 20.4128 26.0975C20.4128 26.0967 20.4128 26.096 20.4128 26.0952C20.4128 26.0944 20.4128 26.0937 20.4128 26.0929C20.4128 26.0922 20.4128 26.0914 20.4128 26.0906C20.4128 26.0899 20.4128 26.0891 20.4128 26.0883C20.4128 26.0876 20.4128 26.0868 20.4128 26.086C20.4128 26.0853 20.4128 26.0845 20.4128 26.0837C20.4128 26.083 20.4128 26.0822 20.4128 26.0814C20.4128 26.0807 20.4128 26.0799 20.4128 26.0791C20.4128 26.0784 20.4128 26.0776 20.4128 26.0769C20.4128 26.0761 20.4128 26.0753 20.4128 26.0746C20.4128 26.0738 20.4128 26.073 20.4128 26.0723C20.4128 26.0715 20.4128 26.0707 20.4128 26.07C20.4128 26.0692 20.4128 26.0684 20.4128 26.0677C20.4128 26.0669 20.4128 26.0662 20.4128 26.0654C20.4128 26.0646 20.4128 26.0639 20.4128 26.0631C20.4128 26.0623 20.4128 26.0616 20.4128 26.0608C20.4128 26.06 20.4128 26.0593 20.4128 26.0585C20.4128 26.0577 20.4128 26.057 20.4128 26.0562C20.4128 26.0555 20.4128 26.0547 20.4128 26.0539C20.4128 26.0532 20.4128 26.0524 20.4128 26.0516C20.4128 26.0509 20.4128 26.0501 20.4128 26.0493C20.4128 26.0486 20.4128 26.0478 20.4128 26.047C20.4128 26.0463 20.4128 26.0455 20.4128 26.0448C20.4128 26.044 20.4128 26.0432 20.4128 26.0425C20.4128 26.0417 20.4128 26.0409 20.4128 26.0402C20.4128 26.0394 20.4128 26.0386 20.4128 26.0379C20.4128 26.0371 20.4128 26.0363 20.4128 26.0356C20.4128 26.0348 20.4128 26.0341 20.4128 26.0333C20.4128 26.0325 20.4128 26.0318 20.4128 26.031C20.4128 26.0302 20.4128 26.0295 20.4128 26.0287C20.4128 26.0279 20.4128 26.0272 20.4128 26.0264C20.4128 26.0257 20.4128 26.0249 20.4128 26.0241C20.4128 26.0234 20.4128 26.0226 20.4128 26.0218C20.4128 26.0211 20.4128 26.0203 20.4128 26.0195C20.4128 26.0188 20.4128 26.018 20.4128 26.0173C20.4128 26.0165 20.4128 26.0157 20.4128 26.015C20.4128 26.0142 20.4128 26.0134 20.4128 26.0127C20.4128 26.0119 20.4128 26.0111 20.4128 26.0104C20.4128 26.0096 20.4128 26.0089 20.4128 26.0081C20.4128 26.0073 20.4128 26.0066 20.4128 26.0058C20.4128 26.005 20.4128 26.0043 20.4128 26.0035C20.4128 26.0028 20.4128 26.002 20.4128 26.0012C20.4128 26.0005 20.4128 25.9997 20.4128 25.9989C20.4128 25.9982 20.4128 25.9974 20.4128 25.9966C20.4128 25.9959 20.4128 25.9951 20.4128 25.9944C20.4128 25.9936 20.4128 25.9928 20.4128 25.9921C20.4128 25.9913 20.4128 25.9905 20.4128 25.9898C20.4128 25.989 20.4128 25.9883 20.4128 25.9875C20.4128 25.9867 20.4128 25.986 20.4128 25.9852C20.4128 25.9844 20.4128 25.9837 20.4128 25.9829C20.4128 25.9821 20.4128 25.9814 20.4128 25.9806C20.4128 25.9799 20.4128 25.9791 20.4128 25.9783C20.4128 25.9776 20.4128 25.9768 20.4128 25.976C20.4128 25.9753 20.4128 25.9745 20.4128 25.9738C20.4128 25.973 20.4128 25.9722 20.4128 25.9715C20.4128 25.9707 20.4128 25.9699 20.4128 25.9692C20.4128 25.9684 20.4128 25.9677 20.4128 25.9669C20.4128 25.9661 20.4128 25.9654 20.4128 25.9646C20.4128 25.9638 20.4128 25.9631 20.4128 25.9623C20.4128 25.9616 20.4128 25.9608 20.4128 25.96C20.4128 25.9593 20.4128 25.9585 20.4128 25.9577C20.4128 25.957 20.4128 25.9562 20.4128 25.9555C20.4128 25.9547 20.4128 25.9539 20.4128 25.9532C20.4128 25.9524 20.4128 25.9516 20.4128 25.9509C20.4128 25.9501 20.4128 25.9494 20.4128 25.9486C20.4128 25.9478 20.4128 25.9471 20.4128 25.9463C20.4128 25.9455 20.4128 25.9448 20.4128 25.944C20.4128 25.9433 20.4128 25.9425 20.4128 25.9417C20.4128 25.941 20.4128 25.9402 20.4128 25.9394C20.4128 25.9387 20.4128 25.9379 20.4128 25.9372C20.4128 25.9364 20.4128 25.9356 20.4128 25.9349C20.4128 25.9341 20.4128 25.9333 20.4128 25.9326C20.4128 25.9318 20.4128 25.9311 20.4128 25.9303C20.4128 25.9295 20.4128 25.9288 20.4128 25.928C20.4128 25.9273 20.4128 25.9265 20.4128 25.9257C20.4128 25.925 20.4128 25.9242 20.4128 25.9234C20.4128 25.9227 20.4128 25.9219 20.4128 25.9212C20.4128 25.9204 20.4128 25.9196 20.4128 25.9189C20.4128 25.9181 20.4128 25.9173 20.4128 25.9166C20.4128 25.9158 20.4128 25.9151 20.4128 25.9143C20.4128 25.9135 20.4128 25.9128 20.4128 25.912C20.4128 25.9113 20.4128 25.9105 20.4128 25.9097C20.4128 25.909 20.4128 25.9082 20.4128 25.9074C20.4128 25.9067 20.4128 25.9059 20.4128 25.9052C20.4128 25.9044 20.4128 25.9036 20.4128 25.9029C20.4128 25.9021 20.4128 25.9014 20.4128 25.9006C20.4128 25.8998 20.4128 25.8991 20.4128 25.8983C20.4128 25.8975 20.4128 25.8968 20.4128 25.896C20.4128 25.8953 20.4128 25.8945 20.4128 25.8937C20.4128 25.893 20.4128 25.8922 20.4128 25.8915C20.4128 25.8907 20.4128 25.8899 20.4128 25.8892C20.4128 25.8884 20.4128 25.8876 20.4128 25.8869C20.4128 25.8861 20.4128 25.8854 20.4128 25.8846C20.4128 25.8838 20.4128 25.8831 20.4128 25.8823C20.4128 25.8816 20.4128 25.8808 20.4128 25.88C20.4128 25.8793 20.4128 25.8785 20.4128 25.8777C20.4128 25.877 20.4128 25.8762 20.4128 25.8755C20.4128 25.8747 20.4128 25.8739 20.4128 25.8732C20.4128 25.8724 20.4128 25.8717 20.4128 25.8709C20.4128 25.8701 20.4128 25.8694 20.4128 25.8686C20.4128 25.8679 20.4128 25.8671 20.4128 25.8663C20.4128 25.8656 20.4128 25.8648 20.4128 25.864C20.4128 25.8633 20.4128 25.8625 20.4128 25.8618C20.4128 25.861 20.4128 25.8602 20.4128 25.8595C20.4128 25.8587 20.4128 25.858 20.4128 25.8572C20.4128 25.8564 20.4128 25.8557 20.4128 25.8549C20.4128 25.8542 20.4128 25.8534 20.4128 25.8526C20.4128 25.8519 20.4128 25.8511 20.4128 25.8503C20.4128 25.8496 20.4128 25.8488 20.4128 25.8481C20.4128 25.8473 20.4128 25.8465 20.4128 25.8458C20.4128 25.845 20.4128 25.8443 20.4128 25.8435C20.4128 25.8427 20.4128 25.842 20.4128 25.8412C20.4128 25.8405 20.4128 25.8397 20.4128 25.8389C20.4128 25.8382 20.4128 25.8374 20.4128 25.8367C20.4128 25.8359 20.4128 25.8351 20.4128 25.8344C20.4128 25.8336 20.4128 25.8329 20.4128 25.8321C20.4128 25.8313 20.4128 25.8306 20.4128 25.8298C20.4128 25.8291 20.4128 25.8283 20.4128 25.8275C20.4128 25.8268 20.4128 25.826 20.4128 25.8252C20.4128 25.8245 20.4128 25.8237 20.4128 25.823C20.4128 25.8222 20.4128 25.8214 20.4128 25.8207C20.4128 25.8199 20.4128 25.8192 20.4128 25.8184C20.4128 25.8176 20.4128 25.8169 20.4128 25.8161C20.4128 25.8154 20.4128 25.8146 20.4128 25.8138C20.4128 25.8131 20.4128 25.8123 20.4128 25.8116C20.4128 25.8108 20.4128 25.81 20.4128 25.8093C20.4128 25.8085 20.4128 25.8078 20.4128 25.807C20.4128 25.8062 20.4128 25.8055 20.4128 25.8047C20.4128 25.804 20.4128 25.8032 20.4128 25.8024C20.4128 25.8017 20.4128 25.8009 20.4128 25.8002C20.4128 25.7994 20.4128 25.7986 20.4128 25.7979C20.4128 25.7971 20.4128 25.7964 20.4128 25.7956C20.4128 25.7948 20.4128 25.7941 20.4128 25.7933C20.4128 25.7926 20.4128 25.7918 20.4128 25.791C20.4128 25.7903 20.4128 25.7895 20.4128 25.7888C20.4128 25.788 20.4128 25.7872 20.4128 25.7865C20.4128 25.7857 20.4128 25.785 20.4128 25.7842C20.4128 25.7834 20.4128 25.7827 20.4128 25.7819C20.4128 25.7812 20.4128 25.7804 20.4128 25.7796C20.4128 25.7789 20.4128 25.7781 20.4128 25.7774C20.4128 25.7766 20.4128 25.7758 20.4128 25.7751C20.4128 25.7743 20.4128 25.7736 20.4128 25.7728C20.4128 25.772 20.4128 25.7713 20.4128 25.7705C20.4128 25.7698 20.4128 25.769 20.4128 25.7682C20.4128 25.7675 20.4128 25.7667 20.4128 25.766C20.4128 25.7652 20.4128 25.7644 20.4128 25.7637C20.4128 25.7629 20.4128 25.7622 20.4128 25.7614C20.4128 25.7606 20.4128 25.7599 20.4128 25.7591C20.4128 25.7584 20.4128 25.7576 20.4128 25.7568C20.4128 25.7561 20.4128 25.7553 20.4128 25.7546C20.4128 25.7538 20.4128 25.753 20.4128 25.7523C20.4128 25.7515 20.4128 25.7508 20.4128 25.75C20.4128 25.7492 20.4128 25.7485 20.4128 25.7477C20.4128 25.747 20.4128 25.7462 20.4128 25.7455C20.4128 25.7447 20.4128 25.7439 20.4128 25.7432C20.4128 25.7424 20.4128 25.7417 20.4128 25.7409C20.4128 25.7401 20.4128 25.7394 20.4128 25.7386C20.4128 25.7379 20.4128 25.7371 20.4128 25.7363C20.4128 25.7356 20.4128 25.7348 20.4128 25.7341C20.4128 25.7333 20.4128 25.7325 20.4128 25.7318C20.4128 25.731 20.4128 25.7303 20.4128 25.7295C20.4128 25.7287 20.4128 25.728 20.4128 25.7272C20.4128 25.7265 20.4128 25.7257 20.4128 25.7249C20.4128 25.7242 20.4128 25.7234 20.4128 25.7227C20.4128 25.7219 20.4128 25.7212 20.4128 25.7204C20.4128 25.7196 20.4128 25.7189 20.4128 25.7181C20.4128 25.7174 20.4128 25.7166 20.4128 25.7158C20.4128 25.7151 20.4128 25.7143 20.4128 25.7136C20.4128 25.7128 20.4128 25.712 20.4128 25.7113C20.4128 25.7105 20.4128 25.7098 20.4128 25.709C20.4128 25.7082 20.4128 25.7075 20.4128 25.7067C20.4128 25.706 20.4128 25.7052 20.4128 25.7045C20.4128 25.7037 20.4128 25.7029 20.4128 25.7022C20.4128 25.7014 20.4128 25.7007 20.4128 25.6999C20.4128 25.6991 20.4128 25.6984 20.4128 25.6976C20.4128 25.6969 20.4128 25.6961 20.4128 25.6953C20.4128 25.6946 20.4128 25.6938 20.4128 25.6931C20.4128 25.6923 20.4128 25.6915 20.4128 25.6908C20.4128 25.69 20.4128 25.6893 20.4128 25.6885C20.4128 25.6878 20.4128 25.687 20.4128 25.6862C20.4128 25.6855 20.4128 25.6847 20.4128 25.684C20.4128 25.6832 20.4128 25.6824 20.4128 25.6817C20.4128 25.6809 20.4128 25.6802 20.4128 25.6794C20.4128 25.6786 20.4128 25.6779 20.4128 25.6771C20.4128 25.6764 20.4128 25.6756 20.4128 25.6749C20.4128 25.6741 20.4128 25.6733 20.4128 25.6726C20.4128 25.6718 20.4128 25.6711 20.4128 25.6703C20.4128 25.6695 20.4128 25.6688 20.4128 25.668C20.4128 25.6673 20.4128 25.6665 20.4128 25.6658C20.4128 25.665 20.4128 25.6642 20.4128 25.6635C20.4128 25.6627 20.4128 25.662 20.4128 25.6612C20.4128 25.6604 20.4128 25.6597 20.4128 25.6589C20.4128 25.6582 20.4128 25.6574 20.4128 25.6566C20.4128 25.6559 20.4128 25.6551 20.4128 25.6544C20.4128 25.6536 20.4128 25.6529 20.4128 25.6521C20.4128 25.6513 20.4128 25.6506 20.4128 25.6498C20.4128 25.6491 20.4128 25.6483 20.4128 25.6475C20.4128 25.6468 20.4128 25.646 20.4128 25.6453C20.4128 25.6445 20.4128 25.6438 20.4128 25.643C20.4128 25.6422 20.4128 25.6415 20.4128 25.6407C20.4128 25.64 20.4128 25.6392 20.4128 25.6384C20.4128 25.6377 20.4128 25.6369 20.4128 25.6362C20.4128 25.6354 20.4128 25.6347 20.4128 25.6339C20.4128 25.6331 20.4128 25.6324 20.4128 25.6316C20.4128 25.6309 20.4128 25.6301 20.4128 25.6293C20.4128 25.6286 20.4128 25.6278 20.4128 25.6271C20.4128 25.6263 20.4128 25.6256 20.4128 25.6248C20.4128 25.624 20.4128 25.6233 20.4128 25.6225C20.4128 25.6218 20.4128 25.621 20.4128 25.6202C20.4128 25.6195 20.4128 25.6187 20.4128 25.618C20.4128 25.6172 20.4128 25.6165 20.4128 25.6157C20.4128 25.6149 20.4128 25.6142 20.4128 25.6134C20.4128 25.6127 20.4128 25.6119 20.4128 25.6111C20.4128 25.6104 20.4128 25.6096 20.4128 25.6089C20.4128 25.6081 20.4128 25.6074 20.4128 25.6066C20.4128 25.6058 20.4128 25.6051 20.4128 25.6043C20.4128 25.6036 20.4128 25.6028 20.4128 25.6021C20.4128 25.6013 20.4128 25.6005 20.4128 25.5998C20.4128 25.599 20.4128 25.5983 20.4128 25.5975C20.4128 25.5967 20.4128 25.596 20.4128 25.5952C20.4128 25.5945 20.4128 25.5937 20.4128 25.593C20.4128 25.5922 20.4128 25.5914 20.4128 25.5907C20.4128 25.5899 20.4128 25.5892 20.4128 25.5884C20.4128 25.5877 20.4128 25.5869 20.4128 25.5861C20.4128 25.5854 20.4128 25.5846 20.4128 25.5839C20.4128 25.5831 20.4128 25.5823 20.4128 25.5816C20.4128 25.5808 20.4128 25.5801 20.4128 25.5793C20.4128 25.5786 20.4128 25.5778 20.4128 25.577C20.4128 25.5763 20.4128 25.5755 20.4128 25.5748C20.4128 25.574 20.4128 25.5732 20.4128 25.5725C20.4128 25.5717 20.4128 25.571 20.4128 25.5702C20.4128 25.5695 20.4128 25.5687 20.4128 25.5679C20.4128 25.5672 20.4128 25.5664 20.4128 25.5657C20.4128 25.5649 20.4128 25.5642 20.4128 25.5634C20.4128 25.5626 20.4128 25.5619 20.4128 25.5611C20.4128 25.5604 20.4128 25.5596 20.4128 25.5589C20.4128 25.5581 20.4128 25.5573 20.4128 25.5566C20.4128 25.5558 20.4128 25.5551 20.4128 25.5543C20.4128 25.5535 20.4128 25.5528 20.4128 25.552C20.4128 25.5513 20.4128 25.5505 20.4128 25.5498C20.4128 25.549 20.4128 25.5482 20.4128 25.5475C20.4128 25.5467 20.4128 25.546 20.4128 25.5452C20.4128 25.5445 20.4128 25.5437 20.4128 25.5429C20.4128 25.5422 20.4128 25.5414 20.4128 25.5407C20.4128 25.5399 20.4128 25.5392 20.4128 25.5384C20.4128 25.5376 20.4128 25.5369 20.4128 25.5361C20.4128 25.5354 20.4128 25.5346 20.4128 25.5338C20.4128 25.5331 20.4128 25.5323 20.4128 25.5316C20.4128 25.5308 20.4128 25.5301 20.4128 25.5293C20.4128 25.5285 20.4128 25.5278 20.4128 25.527C20.4128 25.5263 20.4128 25.5255 20.4128 25.5248C20.4128 25.524 20.4128 25.5232 20.4128 25.5225C20.4128 25.5217 20.4128 25.521 20.4128 25.5202C20.4128 25.5195 20.4128 25.5187 20.4128 25.5179C20.4128 25.5172 20.4128 25.5164 20.4128 25.5157C20.4128 25.5149 20.4128 25.5142 20.4128 25.5134C20.4128 25.5126 20.4128 25.5119 20.4128 25.5111C20.4128 25.5104 20.4128 25.5096 20.4128 25.5089C20.4128 25.5081 20.4128 25.5073 20.4128 25.5066C20.4128 25.5058 20.4128 25.5051 20.4128 25.5043C20.4128 25.5035 20.4128 25.5028 20.4128 25.502C20.4128 25.5013 20.4128 25.5005 20.4128 25.4998C20.4128 25.499 20.4128 25.4982 20.4128 25.4975C20.4128 25.4967 20.4128 25.496 20.4128 25.4952C20.4128 25.4945 20.4128 25.4937 20.4128 25.4929C20.4128 25.4922 20.4128 25.4914 20.4128 25.4907C20.4128 25.4899 20.4128 25.4892 20.4128 25.4884C20.4128 25.4876 20.4128 25.4869 20.4128 25.4861C20.4128 25.4854 20.4128 25.4846 20.4128 25.4839C20.4128 25.4831 20.4128 25.4823 20.4128 25.4816C20.4128 25.4808 20.4128 25.4801 20.4128 25.4793C20.4128 25.4786 20.4128 25.4778 20.4128 25.477C20.4128 25.4763 20.4128 25.4755 20.4128 25.4748C20.4128 25.474 20.4128 25.4733 20.4128 25.4725C20.4128 25.4717 20.4128 25.471 20.4128 25.4702C20.4128 25.4695 20.4128 25.4687 20.4128 25.468C20.4128 25.4672 20.4128 25.4664 20.4128 25.4657C20.4128 25.4649 20.4128 25.4642 20.4128 25.4634C20.4128 25.4627 20.4128 25.4619 20.4128 25.4611C20.4128 25.4604 20.4128 25.4596 20.4128 25.4589C20.4128 25.4581 20.4128 25.4574 20.4128 25.4566C20.4128 25.4558 20.4128 25.4551 20.4128 25.4543C20.4128 25.4536 20.4128 25.4528 20.4128 25.4521C20.4128 25.4513 20.4128 25.4505 20.4128 25.4498C20.4128 25.449 20.4128 25.4483 20.4128 25.4475C20.4128 25.4468 20.4128 25.446 20.4128 25.4452C20.4128 25.4445 20.4128 25.4437 20.4128 25.443C20.4128 25.4422 20.4128 25.4415 20.4128 25.4407C20.4128 25.4399 20.4128 25.4392 20.4128 25.4384C20.4128 25.4377 20.4128 25.4369 20.4128 25.4362C20.4128 25.4354 20.4128 25.4346 20.4128 25.4339C20.4128 25.4331 20.4128 25.4324 20.4128 25.4316C20.4128 25.4309 20.4128 25.4301 20.4128 25.4293C20.4128 25.4286 20.4128 25.4278 20.4128 25.4271C20.4128 25.4263 20.4128 25.4256 20.4128 25.4248C20.4128 25.424 20.4128 25.4233 20.4128 25.4225C20.4128 25.4218 20.4128 25.421 20.4128 25.4203C20.4128 25.4195 20.4128 25.4187 20.4128 25.418C20.4128 25.4172 20.4128 25.4165 20.4128 25.4157C20.4128 25.415 20.4128 25.4142 20.4128 25.4134C20.4128 25.4127 20.4128 25.4119 20.4128 25.4112C20.4128 25.4104 20.4128 25.4097 20.4128 25.4089C20.4128 25.4081 20.4128 25.4074 20.4128 25.4066C20.4128 25.4059 20.4128 25.4051 20.4128 25.4044C20.4128 25.4036 20.4128 25.4028 20.4128 25.4021C20.4128 25.4013 20.4128 25.4006 20.4128 25.3998C20.4128 25.3991 20.4128 25.3983 20.4128 25.3976C20.4128 25.3968 20.4128 25.396 20.4128 25.3953C20.4128 25.3945 20.4128 25.3938 20.4128 25.393C20.4128 25.3923 20.4128 25.3915 20.4128 25.3907C20.4128 25.39 20.4128 25.3892 20.4128 25.3885C20.4128 25.3877 20.4128 25.387 20.4128 25.3862C20.4128 25.3854 20.4128 25.3847 20.4128 25.3839C20.4128 25.3832 20.4128 25.3824 20.4128 25.3817C20.4128 25.3809 20.4128 25.3801 20.4128 25.3794C20.4128 25.3786 20.4128 25.3779 20.4128 25.3771C20.4128 25.3764 20.4128 25.3756 20.4128 25.3748C20.4128 25.3741 20.4128 25.3733 20.4128 25.3726C20.4128 25.3718 20.4128 25.3711 20.4128 25.3703C20.4128 25.3695 20.4128 25.3688 20.4128 25.368C20.4128 25.3673 20.4128 25.3665 20.4128 25.3658C20.4128 25.365 20.4128 25.3642 20.4128 25.3635C20.4128 25.3627 20.4128 25.362 20.4128 25.3612C20.4128 25.3605 20.4128 25.3597 20.4128 25.3589C20.4128 25.3582 20.4128 25.3574 20.4128 25.3567C20.4128 25.3559 20.4128 25.3552 20.4128 25.3544C20.4128 25.3537 20.4128 25.3529 20.4128 25.3521C20.4128 25.3514 20.4128 25.3506 20.4128 25.3499C20.4128 25.3491 20.4128 25.3484 20.4128 25.3476C20.4128 25.3468 20.4128 25.3461 20.4128 25.3453C20.4128 25.3446 20.4128 25.3438 20.4128 25.3431C20.4128 25.3423 20.4128 25.3415 20.4128 25.3408C20.4128 25.34 20.4128 25.3393 20.4128 25.3385C20.4128 25.3378 20.4128 25.337 20.4128 25.3362C20.4128 25.3355 20.4128 25.3347 20.4128 25.334C20.4128 25.3332 20.4128 25.3325 20.4128 25.3317C20.4128 25.3309 20.4128 25.3302 20.4128 25.3294C20.4128 25.3287 20.4128 25.3279 20.4128 25.3272C20.4128 25.3264 20.4128 25.3256 20.4128 25.3249C20.4128 25.3241 20.4128 25.3234 20.4128 25.3226C20.4128 25.3219 20.4128 25.3211 20.4128 25.3204C20.4128 25.3196 20.4128 25.3188 20.4128 25.3181C20.4128 25.3173 20.4128 25.3166 20.4128 25.3158C20.4128 25.3151 20.4128 25.3143 20.4128 25.3135C20.4128 25.3128 20.4128 25.312 20.4128 25.3113C20.4128 25.3105 20.4128 25.3098 20.4128 25.309C20.4128 25.3082 20.4128 25.3075 20.4128 25.3067C20.4128 25.306 20.4128 25.3052 20.4128 25.3045C20.4128 25.3037 20.4128 25.3029 20.4128 25.3022C20.4128 25.3014 20.4128 25.3007 20.4128 25.2999C20.4128 25.2992 20.4128 25.2984 20.4128 25.2976C20.4128 25.2969 20.4128 25.2961 20.4128 25.2954C20.4128 25.2946 20.4128 25.2939 20.4128 25.2931C20.4128 25.2924 20.4128 25.2916 20.4128 25.2908H19.9128ZM16.994 6.17386C22.9904 6.16361 27.8195 10.9991 27.8277 17.0267L28.3277 17.026C28.3191 10.7245 23.2679 5.66314 16.9931 5.67386L16.994 6.17386ZM27.8277 17.0267C27.8356 22.9505 22.9699 27.8166 17.0237 27.8276L17.0247 28.3276C23.2453 28.3161 28.336 23.2275 28.3277 17.026L27.8277 17.0267ZM17.0237 27.8276C11.0638 27.8388 6.17399 22.9757 6.17383 17.0411L5.67383 17.0411C5.674 23.254 10.7901 28.3393 17.0247 28.3276L17.0237 27.8276ZM6.17383 17.0411C6.17367 11.0141 10.9839 6.18403 16.994 6.17386L16.9931 5.67386C10.7061 5.6845 5.67366 10.7395 5.67383 17.0411L6.17383 17.0411Z" fill="#191E30"/>
</svg>
