<svg width="80" height="40" viewBox="0 0 80 40" fill="none" xmlns="http://www.w3.org/2000/svg">
<path fill-rule="evenodd" clip-rule="evenodd" d="M17.6286 17.0667L17.9736 17.0801C19.8688 17.1968 21.5036 17.9001 22.8191 19.2687C23.775 20.2631 24.3625 21.4482 24.5802 22.803C24.6449 23.2063 24.6876 23.6189 24.6819 24.0265C24.6568 25.8489 24.0582 27.4598 22.7907 28.8023C21.6896 29.9685 20.3284 30.6614 18.7382 30.919L18.442 30.9614L18.1453 31H16.9879C16.7389 30.9655 16.4888 30.9379 16.2413 30.8956C13.4022 30.411 11.1537 28.2453 10.5909 25.4533C10.2786 23.904 10.423 22.4012 11.1227 20.974C11.9874 19.2105 13.3918 18.0447 15.2657 17.4249C16.0346 17.1705 16.8254 17.0539 17.6286 17.0667ZM62.9582 17.0686L63.3086 17.079C64.0126 17.1131 64.6995 17.2398 65.35 17.5223C66.4653 18.0068 67.1927 18.8382 67.5839 19.9678C67.7699 20.5048 67.8724 21.0587 67.8969 21.6254C67.9111 21.951 67.9179 22.2771 67.9181 22.6031L67.9177 30.5045L67.9196 30.5538C67.9338 30.6627 67.892 30.7011 67.7773 30.6994L67.1708 30.6959L66.2527 30.6974C66.1813 30.6993 66.1524 30.6687 66.153 30.5994C66.1591 29.9692 66.1624 29.3389 66.1702 28.7088L66.178 28.3483C66.1778 28.2872 66.1758 28.2253 66.1705 28.1622L66.1116 28.2795C65.5202 29.4312 64.6402 30.2718 63.4041 30.726C63.027 30.8645 62.6364 30.9483 62.2356 30.9848L62.1714 31H61.1698L60.5931 30.9057C60.4973 30.8886 60.4019 30.8697 60.3074 30.8471C59.5147 30.6583 58.8009 30.3116 58.2083 29.7493C57.657 29.2263 57.3033 28.5905 57.1707 27.8455C56.9863 26.8098 57.1163 25.8225 57.6912 24.918C58.0568 24.3427 58.5697 23.9207 59.1619 23.5882C59.9219 23.1616 60.7467 22.9159 61.5984 22.7494C62.2682 22.6184 62.9445 22.5296 63.6268 22.5065L64.7719 22.4789L65.9173 22.4601C66.0241 22.4581 66.054 22.4585 66.0632 22.4067L66.0681 22.3158C66.0766 21.8236 66.0533 21.3349 65.9293 20.8544C65.6269 19.6834 64.8222 18.9606 63.6116 18.7759C62.3453 18.5827 61.1451 18.8064 60.0037 19.3553C59.8919 19.4091 59.7829 19.4684 59.6753 19.5305L58.9511 19.9678L58.8805 19.8699L58.1806 18.7463C58.1018 18.6194 58.0828 18.5878 58.1489 18.5299L58.2442 18.4586C58.9452 17.9613 59.721 17.6199 60.5471 17.3857C61.3369 17.1619 62.1422 17.0601 62.9582 17.0686ZM30.8243 17.3826L32.4594 17.3835C32.5388 17.3852 32.5617 17.395 32.5683 17.4527L32.5709 17.5477L32.5716 25.6413C32.5719 26.2731 32.6177 26.9009 32.7977 27.5113C32.982 28.1357 33.3141 28.6528 33.9117 28.9706C34.2538 29.1525 34.6239 29.2408 35.0068 29.2758C35.7683 29.3453 36.5098 29.2533 37.2213 28.9711C38.2602 28.559 39.0318 27.8428 39.5915 26.8964C40.0809 26.0687 40.3409 25.1705 40.4014 24.2152C40.413 24.0326 40.4195 23.8493 40.4196 23.6664L40.4208 17.4965C40.4225 17.4157 40.4327 17.3925 40.4931 17.3859L40.5925 17.3831L42.16 17.3836C42.2542 17.3859 42.2688 17.4006 42.271 17.4961L42.271 30.6041C42.2717 30.6666 42.2456 30.6974 42.178 30.6973L40.5643 30.6973C40.4866 30.6976 40.4738 30.6571 40.4718 30.6083L40.4718 29.5479C40.4754 29.0827 40.4805 28.6174 40.4896 28.1522L40.5035 27.8373L40.5039 27.6758L40.4577 27.7529C39.5451 29.5499 38.0876 30.62 36.0802 30.9557L35.916 30.9792L35.7513 31H34.6161L34.0747 30.9203C33.9847 30.906 33.895 30.8902 33.8059 30.8717C33.1406 30.7331 32.5394 30.462 32.0393 29.9952C31.6209 29.6044 31.3355 29.1296 31.1362 28.6003C30.9146 28.0118 30.7978 27.4008 30.7622 26.7766C30.7338 26.2795 30.721 25.781 30.7203 25.2831L30.7178 21.4398L30.7183 17.4865C30.7137 17.4109 30.7491 17.3817 30.8243 17.3826ZM27.7644 12.1031C27.8621 12.1025 27.8948 12.1388 27.894 12.2321L27.893 13.2657L27.8928 27.132C27.8927 27.4923 27.9185 27.8487 28.0277 28.1959C28.2209 28.8095 28.6454 29.1253 29.2959 29.131C29.4479 29.1323 29.6001 29.1287 29.752 29.1214C29.8159 29.1184 29.8379 29.1391 29.8377 29.201L29.8336 30.6634C29.8333 30.6959 29.788 30.7525 29.758 30.7565C29.0214 30.8554 28.2982 30.8106 27.611 30.5083C26.8521 30.1744 26.4145 29.5725 26.1989 28.7972C26.1127 28.4874 26.0659 28.1717 26.0506 27.8527L26.0449 27.6129L26.0443 12.3281C26.0443 12.2951 26.0473 12.2619 26.0438 12.2292C26.0333 12.1321 26.0781 12.1025 26.1731 12.1031C26.7036 12.1062 27.234 12.1063 27.7644 12.1031ZM0.100757 12.1051L15.2486 12.1043C15.3298 12.0988 15.3621 12.1356 15.3619 12.2143C15.3607 12.6944 15.3602 13.1746 15.3624 13.6547C15.3629 13.7432 15.3229 13.7647 15.2403 13.7644L14.3278 13.7629L8.71927 13.7637C8.65587 13.7655 8.63465 13.7744 8.62754 13.8185L8.62396 13.9147L8.62264 30.5183L8.6245 30.573C8.63567 30.6706 8.5919 30.6992 8.49619 30.6987C7.95467 30.6952 7.4131 30.695 6.8716 30.6987C6.79159 30.6993 6.7536 30.6756 6.74613 30.6185L6.74606 13.8443C6.74313 13.7767 6.72864 13.7644 6.66304 13.7629L0.170032 13.7631C0.0427941 13.7631 0.0108593 13.763 0.00277737 13.6918L0 13.5943L0.000558977 12.2051C0.00304783 12.1217 0.0171769 12.1075 0.100757 12.1051ZM50.1916 17.181C51.083 17.0101 51.9762 17.026 52.8631 17.2232C54.2806 17.5382 55.1663 18.4118 55.582 19.7711C55.7697 20.3848 55.8702 21.0149 55.8759 21.6545C55.8905 23.311 55.8929 24.9675 55.8967 26.624L55.8981 28.5759L55.8972 30.5278C55.8972 30.6545 55.897 30.6863 55.8246 30.6943L55.7253 30.6971H54.223C54.0895 30.6971 54.056 30.6969 54.0476 30.6236L54.0447 30.5231C54.0447 27.8217 54.0459 25.1202 54.0438 22.4187C54.0432 21.7685 53.9935 21.1226 53.7953 20.4971C53.4961 19.5526 52.8552 18.9829 51.8605 18.845C50.3132 18.6306 48.9503 19.0529 47.7928 20.0852C46.8386 20.9362 46.2911 22.0078 46.1277 23.2664C46.0873 23.5779 46.0653 23.8939 46.0645 24.2079L46.0611 27.3639L46.0613 30.5783C46.0596 30.6629 46.0494 30.6873 45.9882 30.6943L45.8877 30.6971L44.3631 30.6969C44.2564 30.6969 44.2244 30.6958 44.2149 30.6433L44.2108 30.5524L44.2108 17.5326C44.2108 17.4102 44.216 17.388 44.3078 17.3841L45.9082 17.3817C46.0034 17.3811 46.0391 17.411 46.0385 17.5079L46.0314 19.6631L46.0232 19.9038L45.9916 20.385L46.0098 20.388L46.2178 19.9937C46.2535 19.9286 46.2905 19.8644 46.3302 19.8018C47.2335 18.3776 48.5226 17.501 50.1916 17.181ZM65.9614 23.9637L65.1603 23.9646V23.9861C64.8083 23.9861 64.4562 23.9797 64.1044 23.9875C63.4368 24.0022 62.7732 24.0651 62.1169 24.1889C61.499 24.3053 60.8976 24.4731 60.3441 24.7792C59.5617 25.2121 59.0628 25.841 59.0013 26.7477C58.9387 27.6707 59.3028 28.4051 60.0701 28.9348C60.5382 29.258 61.072 29.3944 61.6363 29.4408C62.2872 29.4943 62.9078 29.3944 63.4939 29.1088C64.3631 28.6853 64.9663 28.0017 65.4111 27.1681C65.9296 26.1964 66.1189 25.1559 66.0688 24.0657C66.0653 23.9897 66.0363 23.963 65.9614 23.9637ZM21.0946 20.0832C19.8566 18.9796 18.3927 18.5499 16.7516 18.8019C14.9659 19.076 13.6638 20.0444 12.864 21.6434C12.3562 22.6586 12.2378 23.7421 12.4054 24.8576C12.5766 25.9969 13.0509 26.9966 13.8646 27.823C14.8731 28.8473 16.1116 29.3585 17.6512 29.3777L17.9915 29.355C18.0802 29.348 18.1743 29.3387 18.2678 29.3247C19.9879 29.0678 21.2665 28.1705 22.1039 26.6757C22.7481 25.5255 22.9212 24.2834 22.6967 22.9933C22.4974 21.848 21.97 20.8637 21.0946 20.0832ZM74.7817 9.02234C75.0753 8.96424 75.3541 9.01794 75.5917 9.20136C75.7438 9.31872 75.7372 9.50007 75.6912 9.65902C75.6356 9.85105 75.552 10.0371 75.4633 10.2175C75.3206 10.5073 75.1616 10.7894 75.0149 11.0773C74.9878 11.1304 74.9738 11.196 74.9742 11.2557L74.9905 12.3435L74.997 13.3991L75.0137 15.0476C75.0142 15.1264 75.0386 15.1674 75.1195 15.186C75.3253 15.2334 75.5299 15.2863 75.7339 15.3407C75.7992 15.3582 75.8426 15.3489 75.8865 15.2921C76.6077 14.3599 77.2898 13.4005 77.9374 12.4171L78.271 11.888C78.3275 11.8004 78.3856 11.7141 78.4472 11.6302C78.6638 11.3354 78.9556 11.1263 79.3191 11.0396C79.6173 10.9684 79.856 11.1126 79.9533 11.4004L80 11.5352V12.0411C79.8093 12.6741 79.3983 13.1757 78.9701 13.6559L78.3829 14.2964L77.1852 15.5569C77.1635 15.5799 77.144 15.6049 77.1144 15.6396C77.1554 15.6527 77.1817 15.6646 77.2093 15.6695L79.4755 16.0663C79.6391 16.0944 79.7293 16.1561 79.7617 16.2858C79.7887 16.3942 79.7482 16.5165 79.6487 16.5729C79.59 16.6063 79.5175 16.6258 79.4495 16.6318L78.7241 16.6928L77.9983 16.7498C77.4295 16.7932 76.8604 16.8338 76.2914 16.8751C76.1509 16.8852 76.0094 16.8865 75.8702 16.9048C75.8058 16.9133 75.7339 16.9397 75.6857 16.981L75.1093 17.4982C75.0422 17.5571 75.0167 17.6217 75.0176 17.7094C75.0254 18.4568 75.0302 19.2043 75.0346 19.9517C75.0349 20.0137 75.0318 20.0767 75.0207 20.1375C74.9723 20.404 74.7237 20.5447 74.4884 20.4082C74.3138 20.3068 74.1613 20.1584 74.0216 20.0101C73.8664 19.8455 73.7523 19.6548 73.6492 19.4575L73.4045 18.9766L73.305 19.0662C72.5719 19.77 71.7958 20.421 70.9356 20.9709C70.7915 21.063 70.6557 21.1004 70.4912 20.9989L70.4424 21.0979C70.3626 21.2913 70.2877 21.4868 70.2033 21.6783C70.1212 21.8647 69.9108 21.9195 69.7635 21.7996C69.6615 21.7166 69.6377 21.5931 69.7009 21.438L70.3607 19.8279L71.4778 17.1316C71.5159 17.0397 71.5167 17.009 71.4549 16.9993L71.4102 16.9957C70.6153 16.9692 69.8595 16.7558 69.1088 16.5225C68.1944 16.2382 67.3056 15.8887 66.4543 15.4517C65.9368 15.1861 65.4319 14.8987 65.0217 14.4774C64.8655 14.317 64.7337 14.1409 64.6851 13.9178C64.6257 13.6453 64.7527 13.4213 65.0192 13.3275C65.2639 13.2413 65.5181 13.2539 65.768 13.2833C66.6907 13.3922 67.5709 13.6696 68.4456 13.9642C69.25 14.2352 70.041 14.5397 70.8057 14.9084C71.0822 15.0418 71.344 15.1967 71.5901 15.3759L71.8606 15.586L71.9485 15.6474L71.8944 15.5005L71.4381 14.3665C71.3956 14.2584 71.335 14.1707 71.2504 14.0882C70.6879 13.5396 70.2969 12.8855 70.0524 12.1448C69.8576 11.5548 69.7658 10.9469 69.7671 10.328C69.7675 10.1071 69.7999 9.8818 69.8522 9.6667C69.9057 9.44715 70.1086 9.34562 70.2863 9.43861C70.3735 9.48429 70.4612 9.57618 70.4942 9.66659C70.5514 9.82318 70.6041 9.9848 70.6378 10.1484L70.6645 10.3125C70.7177 10.7686 70.8476 11.2027 71.0035 11.6303C71.2638 12.3439 71.5322 13.0546 71.803 13.7644C71.8314 13.8389 71.8857 13.917 71.9503 13.9625C72.1615 14.1108 72.3832 14.2445 72.6003 14.3846C72.6667 14.4275 72.6985 14.3966 72.7272 14.3368C72.8144 14.1546 72.9024 13.9727 72.9943 13.7929L74.3692 11.1041C74.3977 11.0481 74.4095 10.9779 74.4089 10.9146C74.4039 10.4196 74.4078 9.92554 74.4789 9.43405C74.5067 9.24158 74.5615 9.06593 74.7817 9.02234ZM72.3978 17.0228C72.2174 16.9714 72.1299 17.0179 72.0575 17.1924L70.7159 20.4369L70.7914 20.3984C70.8006 20.3935 70.8087 20.3889 70.8164 20.3838C71.6446 19.8347 72.3878 19.1859 73.09 18.489C73.142 18.4374 73.1386 18.3923 73.1108 18.3324C73.0211 18.1394 72.9427 17.941 72.8467 17.7513C72.7345 17.5294 72.6099 17.3136 72.4867 17.0974C72.4685 17.0655 72.4323 17.0326 72.3978 17.0228ZM74.4589 18.1149L74.4278 18.104L73.8811 18.5493C73.8639 18.5637 73.8571 18.613 73.8684 18.6343L74.3704 19.5636L74.4377 19.6664L74.4589 19.6363V18.1149ZM74.345 16.9746L73.2458 17.0145L73.1345 17.0318L73.6367 17.9423L74.4264 17.0679C74.441 17.0516 74.4403 17.022 74.4467 16.9986C74.4128 16.9902 74.3786 16.9735 74.345 16.9746ZM73.029 15.1701C72.9699 15.1525 72.9407 15.1639 72.9165 15.2179C72.834 15.4021 72.7451 15.5835 72.6673 15.7696C72.6499 15.811 72.6556 15.8714 72.672 15.9152L72.8598 16.3735C72.8849 16.4369 72.9242 16.4657 72.9937 16.4636L73.1549 16.4621L73.3162 16.4628L74.3375 16.4221C74.4287 16.4191 74.4606 16.3866 74.4584 16.2971C74.4536 16.0994 74.4532 15.9014 74.4586 15.7038C74.4611 15.6145 74.4285 15.5755 74.3409 15.551C73.9024 15.4283 73.4654 15.2999 73.029 15.1701ZM65.4528 13.8209L65.2432 13.8345C65.3221 14.0114 65.4443 14.1264 65.5727 14.2354C65.9411 14.5482 66.3599 14.7847 66.7902 15.0004C67.7489 15.4809 68.7508 15.8537 69.7834 16.147C70.2551 16.2809 70.7318 16.3871 71.2188 16.4341L71.6641 16.4633C71.7162 16.4649 71.7654 16.4542 71.7935 16.3816C71.8168 16.3213 71.7984 16.2827 71.7685 16.2506L71.7025 16.1905C71.3797 15.8833 71.0246 15.6159 70.615 15.4358C70.0022 15.1665 69.3867 14.9003 68.7603 14.6644C67.8762 14.3314 66.9751 14.0471 66.0414 13.8784C65.8501 13.8439 65.6578 13.8178 65.4528 13.8209ZM75.0251 15.7351V16.3693L75.4524 15.8408L75.0251 15.7351ZM79.4415 11.669C79.4365 11.6006 79.4071 11.572 79.3412 11.6087C79.1601 11.7096 78.9876 11.8177 78.8677 11.996C78.2937 12.8498 77.7184 13.7027 77.1373 14.5518L76.9356 14.8353L76.5193 15.3935L76.537 15.4049L76.5927 15.353C77.2939 14.6684 77.9846 13.9739 78.6131 13.2221C78.8847 12.8974 79.1459 12.5652 79.3469 12.1906C79.4359 12.0247 79.4546 11.8508 79.4415 11.669ZM74.4395 12.2583L74.4079 12.2565L74.3611 12.3426L73.2625 14.5134C73.2067 14.6237 73.1988 14.6461 73.2886 14.6771L73.3419 14.6938C73.6825 14.7945 74.0249 14.8895 74.3669 14.9857L74.4031 14.9904L74.4395 14.9913V12.2583Z" fill="#191E30"/>
</svg>
