<svg width="80" height="40" viewBox="0 0 80 40" xmlns="http://www.w3.org/2000/svg">
    <g fill="none" fill-rule="evenodd">
        <path d="M0 0h80v40H0z"/>
        <path d="M76.568 27.253h-.28v-.379h.28c.1-.02.2.06.219.18v.02c0 .1-.055.158-.154.174l-.065.005zm.12-.698h-.76v1.696h.36v-.679h.32c.279.02.539-.179.559-.459v-.06a.49.49 0 0 0-.48-.498zm-3.433.02-.02 1.017a.317.317 0 0 1-.28.36.318.318 0 0 1-.358-.28v-1.117h-.36v1.057c-.04.34.22.64.559.68h.12c.419 0 .699-.22.699-.68v-1.037h-.36zm-4.11 1.356a.493.493 0 0 1-.457-.427l-.002-.11c0-.34.199-.54.459-.54.259 0 .459.2.459.54 0 .3-.174.491-.38.53l-.08.007zm0-1.396a.826.826 0 0 0-.838.818v.06c-.04.46.299.838.758.878h.08c.459 0 .838-.36.838-.818v-.06c.04-.459-.3-.838-.76-.878h-.078zm-3.632.698h-.34v-.359h.32c.1 0 .199.06.199.16v.02c.016.1-.036.158-.123.174l-.056.005zm.439.14c.1-.08.14-.22.14-.339 0-.28-.22-.479-.5-.479h-.758v1.696h.36v-.699h.219l.399.7h.419l-.44-.74c.06-.02.12-.079.16-.139zm-4.151.3h.379a.39.39 0 0 1-.42.258c-.258 0-.458-.199-.458-.538 0-.34.2-.539.459-.539.18 0 .359.1.419.28l.34-.1a.755.755 0 0 0-.76-.519.826.826 0 0 0-.837.818v.06c-.04.46.299.838.758.878h.08c.419.02.779-.32.798-.739v-.159H61.8v.3zm4.65-4.85c-.7 0-1.337-.559-1.337-1.636 0-1.078.638-1.597 1.337-1.597.698 0 1.337.54 1.337 1.597 0 .995-.549 1.567-1.212 1.63l-.125.006zm0-4.769c-1.557 0-3.093 1.097-3.093 3.133 0 2.075 1.476 3.173 3.093 3.173 1.576 0 3.093-1.118 3.093-3.173 0-1.985-1.359-3.057-2.925-3.129l-.168-.004zm-6.965 4.73a1.184 1.184 0 0 1-1.217-1.158v-.819a1.176 1.176 0 0 1 1.138-1.197h.079c.659 0 1.278.48 1.278 1.577 0 1.033-.549 1.536-1.163 1.591l-.115.005zm3.034-1.577c0-2.076-1.298-3.133-2.714-3.133a2.055 2.055 0 0 0-1.637.718v-.579h-1.616v8.302h1.736v-2.754c.419.36.958.56 1.517.56 1.347 0 2.62-.966 2.709-2.895l.005-.219zm-9.34.36c-.02.777-.538 1.216-1.197 1.216-.658 0-1.277-.479-1.277-1.576 0-1.098.599-1.577 1.277-1.577a1.163 1.163 0 0 1 1.198 1.138v.798zm0-2.975a2.352 2.352 0 0 0-1.516-.498c-1.397 0-2.714 1.057-2.714 3.113 0 2.055 1.317 3.133 2.714 3.133.619 0 1.197-.24 1.636-.679v.58h1.617v-8.682H53.18v3.033zm-9.24 1.916c.02-.638.58-1.137 1.219-1.117.598 0 1.157.36 1.177 1.117H43.94zm4.18 1.03-.028-.53c-.06-1.817-1.237-2.954-2.894-2.954-1.616 0-3.013 1.157-3.013 3.133 0 2.095 1.477 3.173 3.153 3.173 1.317 0 2.235-.519 2.714-1.377l-1.177-.799c-.3.52-.838.82-1.437.82a1.43 1.43 0 0 1-1.497-1.358v-.02h4.19l-.011-.088zm31.66 2.522v-1.397h-.478c-.58 0-.818-.299-.818-.818V19.65H80v-1.437h-1.496v-1.596h-1.697v1.596h-.878v1.437h.858v2.195c0 1.397.579 2.115 1.777 2.315.332.05.679.045 1.016-.04l.2-.06zM31.49 17.056h1.776V15.46h-1.776v1.596zm7.743 0h1.776V15.46h-1.776v1.596zm-3.991.838v.34h-.898v1.436h.898v4.57h1.736v-4.59h1.297v-1.437h-1.317v-.339c0-.539.239-.838.838-.838h.479V15.44h-.48c-1.715.02-2.553.758-2.553 2.454zm-14.228 3.911c0 .68-.38 1.078-1.038 1.078s-1.057-.479-1.057-1.197v-3.473H17.18v3.592c0 .838.22 1.437.679 1.856.499.46 1.257.7 2.135.7.738.018 1.477-.2 2.056-.66.518-.439.718-.958.718-1.896v-3.592h-1.736l-.02 3.592zm54.438.62c0-1.238-.958-1.717-2.136-1.917l-.306-.043c-.574-.091-.911-.213-.911-.555 0-.36.319-.579.838-.579.519 0 .878.22.998.718l1.477-.379c-.26-.938-1.018-1.616-2.475-1.616s-2.534.738-2.534 1.915c0 1.138.838 1.637 2.075 1.856.739.12 1.237.28 1.237.68 0 .365-.336.53-.776.554l-.122.003a1.145 1.145 0 0 1-1.197-.898l-1.477.42c.3 1.137 1.218 1.756 2.674 1.756 1.557 0 2.635-.759 2.635-1.916zM39.23 24.22h1.737v-6.007h-1.736v6.007zm-7.702 0h1.736v-6.007h-1.736v6.007zm-3.672-6.146a2.081 2.081 0 0 0-1.776.878v-.719h-1.736v6.007h1.736v-3.812a1.23 1.23 0 0 1 1.118-.798c.639 0 1.038.34 1.038 1.177v3.433h1.736v-3.792c.04-1.636-.878-2.374-2.116-2.374zM.798 22.735l2.743 4.675 6.46-2.673 2.511-6.962-1.967-3.363-4.486-1.558-5.261 2.174v7.707zm2.406 5.679L0 22.952v-8.457L6.034 12l5.052 1.754 2.303 3.941-2.757 7.645-7.428 3.074z" fill="#191E30"/>
    </g>
</svg>
