<svg width="81" height="40" viewBox="0 0 81 40" fill="none" xmlns="http://www.w3.org/2000/svg">
<path fill-rule="evenodd" clip-rule="evenodd" d="M67.6677 14.5C69.3086 14.5 70.709 15.0579 71.7172 16.1136C72.7909 17.2378 73.3484 18.8462 73.3038 20.6711L73.2908 20.9772H65.0042L65.0297 21.0723C65.3774 22.3658 66.3771 23.0495 67.9209 23.0495C69.2174 23.0495 70.0152 22.6107 70.615 22.1473L70.7324 22.0544L72.5275 23.8114C71.4086 24.9475 69.922 25.5 67.9842 25.5C66.1798 25.5 64.6431 24.9608 63.5401 23.9409C62.4767 22.9576 61.8912 21.5579 61.8912 19.9998C61.8912 16.8643 64.3746 14.5 67.6677 14.5ZM55.1399 14.5C56.7807 14.5 58.1811 15.058 59.1893 16.1137C60.2631 17.2377 60.8205 18.8461 60.7758 20.6711L60.7627 20.9772H52.4763L52.5018 21.0723C52.8494 22.3658 53.8491 23.0495 55.393 23.0495C56.6893 23.0495 57.4871 22.6107 58.087 22.1473L58.2044 22.0544L59.9996 23.8114C58.8808 24.9475 57.3941 25.5 55.4563 25.5C53.6518 25.5 52.1151 24.9608 51.0122 23.9409C49.9488 22.9576 49.3631 21.5579 49.3631 19.9998C49.3631 16.8643 51.8466 14.5 55.1399 14.5ZM30.2349 14.5C33.5642 14.5 36.0748 16.8643 36.0748 19.9998C36.0748 23.1354 33.5642 25.5 30.2349 25.5C26.9057 25.5 24.3952 23.1354 24.3952 19.9998C24.3952 16.8643 26.9057 14.5 30.2349 14.5ZM17.6436 14.5C19.2846 14.5 20.6848 15.0579 21.6931 16.1136C22.7668 17.2377 23.3243 18.8462 23.2798 20.6711L23.2668 20.9772H14.9801L15.0056 21.0723C15.3533 22.3658 16.3532 23.0495 17.8969 23.0495C19.1931 23.0495 19.9909 22.6107 20.5908 22.1473L20.7082 22.0544L22.5034 23.8114C21.3846 24.9475 19.8979 25.5 17.9601 25.5C16.1556 25.5 14.6189 24.9608 13.516 23.9409C12.4528 22.9576 11.8672 21.558 11.8672 19.9998C11.8672 16.8643 14.3505 14.5 17.6436 14.5ZM4.3053 14.7785L6.90777 19.9363L9.41525 14.7785H12.3523L6.78073 25.24L0.996094 14.7785H4.3053ZM42.719 14.5064C45.5603 14.5064 47.9715 16.7315 48.0903 19.4106L48.0949 19.6176L48.0926 25.1717H45.2714L45.2701 19.5782C45.2466 18.2614 44.1574 17.1244 42.842 17.0436L42.7507 17.0394L42.7123 17.0396C41.4076 17.0396 40.2758 18.1113 40.1629 19.4157L40.1542 19.5799L40.1534 25.1717H37.3429V19.6177C37.3429 16.8471 39.8048 14.5064 42.719 14.5064ZM81.0009 14.5024V16.9638L80.0334 16.9649C78.6053 16.974 77.4197 18.0745 77.3146 19.4512L77.3072 19.6177V25.1716H74.4966L74.4968 19.6177C74.4968 16.8698 76.7234 14.6214 79.5068 14.5104L79.722 14.5062L81.0009 14.5024ZM30.2349 16.9811C28.5989 16.9811 27.4996 18.1943 27.4996 19.9998C27.4996 21.8056 28.5989 23.0188 30.2349 23.0188C31.8712 23.0188 32.9706 21.8056 32.9706 19.9998C32.9706 18.1943 31.8712 16.9811 30.2349 16.9811ZM67.6677 16.9501C66.3785 16.9501 65.4786 17.5641 65.1142 18.6847L65.0611 18.8659L65.0363 18.9604H70.1356L70.117 18.8699C69.8677 17.6497 68.975 16.9501 67.6677 16.9501ZM55.1399 16.9501C53.8505 16.9501 52.9507 17.5641 52.5864 18.6847L52.5334 18.8659L52.5086 18.9604H57.6078L57.5892 18.8699C57.3399 17.6497 56.4471 16.9501 55.1399 16.9501ZM17.6436 16.9501C16.3543 16.9501 15.4545 17.5641 15.0902 18.6847L15.0372 18.8659L15.0125 18.9604H20.1114L20.0929 18.8698C19.8434 17.6497 18.9508 16.9501 17.6436 16.9501Z" fill="#001532"/>
</svg>
