<?xml version="1.0" encoding="utf-8"?>
<!-- Generator: Adobe Illustrator 27.5.0, SVG Export Plug-In . SVG Version: 6.00 Build 0)  -->
<svg width="80" height="40" version="1.1" id="Layer_2_00000096028138616133793630000007304430975166691728_"
	 xmlns="http://www.w3.org/2000/svg" xmlns:xlink="http://www.w3.org/1999/xlink" x="0px" y="0px" viewBox="0 0 80 40"
	 style="enable-background:new 0 0 80 40;" xml:space="preserve">
<style type="text/css">
	.st0{fill:#191E30;}
</style>
<g id="Layer_1-2">
	<rect x="15.4" y="15.2" class="st0" width="2.1" height="11.9"/>
	<path class="st0" d="M71.6,15c-2,0-3.1,0.7-4.1,1.3v-1.1h-2.1v11.9h2.1v-9.7c0.7-0.3,2-0.8,3.5-0.8s2,0.9,2,2.5v8h2.1v-8.6
		C75.1,16.9,74.3,15,71.6,15L71.6,15z"/>
	<path class="st0" d="M32.3,15.3l0.4-3h1.6v3h3.1v1.5h-3.1v6.5c0,2.2,0.2,2.7,1.5,2.7c0.9,0,1.3-0.2,2-0.3V27
		c-0.8,0.4-1.6,0.6-2.5,0.6c-2.2,0-3-1.4-3-3.6v-7.3h-1.8v-1.5L32.3,15.3L32.3,15.3z"/>
	<path class="st0" d="M27.9,17v-1.4C27,15.2,26.1,15,24.7,15c-1.9,0-4,0.8-4,3.2c0,1.8,1.1,2.6,2.3,3.2l1.5,0.8
		c0.9,0.5,1.9,1,1.9,2.2S25.7,26,24.2,26c-1.6,0-2.3-0.2-3.5-0.4V27c1,0.4,2.2,0.7,3.6,0.7c1.7,0,4.1-0.6,4.1-3.6
		c0-1.7-1.2-2.8-2.4-3.4l-1.8-0.9c-1.2-0.6-1.4-1-1.4-1.6c0-1,1.1-1.4,2.2-1.4S26.9,16.7,27.9,17L27.9,17z"/>
	<path class="st0" d="M44.3,15c-2,0-5.2,1.4-5.2,6.8s3.9,5.9,5.8,5.9c1.6,0,2.5-0.2,3.8-0.7v-1.4C46.8,26,46.6,26,45.2,26
		c-2.8,0-3.8-1.6-3.8-4.4v-0.3h7.7v-1.1C49.1,16.2,46.3,15,44.3,15L44.3,15z M41.4,20c0-2.4,1.5-3.4,2.8-3.4c2.3,0,2.9,1.4,2.9,3.4
		C47.1,20.1,41.4,20,41.4,20z"/>
	<path class="st0" d="M62.7,21.4c0,3.9-2.2,6.3-5.6,6.3c-3.4,0-5.6-2.4-5.6-6.3s2.2-6.3,5.6-6.3C60.6,15,62.7,17.5,62.7,21.4
		L62.7,21.4z M53.8,21.4c0,3.8,1.6,4.9,3.4,4.9s3.3-1,3.3-4.9s-1.5-4.9-3.3-4.9C55.1,16.5,53.8,17.5,53.8,21.4z"/>
	<polygon class="st0" points="0.1,12.3 5.6,27.3 7.8,27.3 13.2,12.3 11,12.3 6.8,24.5 2.4,12.3 	"/>
	<path class="st0" d="M79.3,15.5c0.1,0.1,0.3,0.2,0.3,0.3s0.1,0.3,0.1,0.5c0,0.2,0,0.3-0.1,0.5c-0.1,0.1-0.2,0.3-0.3,0.3
		c-0.1,0.1-0.3,0.1-0.5,0.1s-0.3,0-0.5-0.1c-0.1-0.1-0.3-0.2-0.3-0.3c-0.1-0.1-0.1-0.3-0.1-0.5c0-0.2,0-0.3,0.1-0.5
		c0.1-0.1,0.2-0.3,0.3-0.3s0.3-0.1,0.4-0.1C79,15.4,79.1,15.4,79.3,15.5L79.3,15.5z M78.3,15.4c-0.2,0.1-0.3,0.2-0.4,0.4
		c-0.1,0.2-0.1,0.4-0.1,0.5s0,0.4,0.1,0.5c0.1,0.2,0.2,0.3,0.4,0.4c0.2,0.1,0.4,0.1,0.5,0.1s0.4,0,0.5-0.1s0.3-0.2,0.4-0.4
		s0.1-0.4,0.1-0.5s0-0.4-0.1-0.5c-0.1-0.2-0.2-0.3-0.4-0.4c-0.2-0.1-0.4-0.1-0.5-0.1C78.6,15.2,78.5,15.3,78.3,15.4L78.3,15.4z
		 M78.5,16.9v-0.5h0.1c0.1,0,0.1,0,0.2,0c0,0,0.1,0.1,0.2,0.3l0.1,0.2h0.2l-0.1-0.2c-0.1-0.1-0.1-0.2-0.2-0.2c0,0-0.1,0-0.1-0.1
		c0.1,0,0.2,0,0.2-0.1c0.1-0.1,0.1-0.1,0.1-0.2c0-0.1,0-0.1-0.1-0.2c0-0.1-0.1-0.1-0.1-0.1c-0.1,0-0.2,0-0.3,0h-0.4v1.2H78.5
		L78.5,16.9z M78.5,15.9h0.2c0.1,0,0.2,0,0.2,0c0,0,0.1,0,0.1,0.1c0,0,0,0.1,0,0.1c0,0.1,0,0.1-0.1,0.1c0,0-0.1,0-0.2,0h-0.2
		L78.5,15.9L78.5,15.9z"/>
</g>
</svg>
