<?xml version="1.0" encoding="utf-8"?>
<!-- Generator: Adobe Illustrator 27.5.0, SVG Export Plug-In . SVG Version: 6.00 Build 0)  -->
<svg width="80" height="40" version="1.1" id="Layer_1" xmlns="http://www.w3.org/2000/svg" xmlns:xlink="http://www.w3.org/1999/xlink" x="0px" y="0px"
	 viewBox="0 0 80 40" style="enable-background:new 0 0 80 40;" xml:space="preserve">
<style type="text/css">
	.st0{fill-rule:evenodd;clip-rule:evenodd;fill:#191E30;}
	.st1{fill:#191E30;}
</style>
<g id="Layer_2_00000034090030577628510900000004723659876623920561_">
	<g id="Partners_White">
		<g id="Partners_White-2">
			<path class="st0" d="M27.5,36.7c0-0.3,0-0.5-0.1-0.6c-0.1-0.2-0.2-0.3-0.4-0.4c-0.2-0.1-0.4-0.2-0.6-0.2c-0.2,0-0.5-0.1-0.7-0.1
				h-1.6v4.5h1.1v-1.7h0.5c0.2,0,0.4,0,0.7-0.1c0.2,0,0.4-0.1,0.6-0.2c0.2-0.1,0.3-0.3,0.4-0.4C27.5,37.2,27.5,37,27.5,36.7z
				 M26.4,37c0,0.1-0.1,0.1-0.2,0.2c-0.1,0-0.2,0.1-0.2,0.1c-0.1,0-0.2,0-0.3,0h-0.5v-1h0.5c0.1,0,0.2,0,0.3,0c0.1,0,0.2,0,0.2,0.1
				c0.1,0,0.1,0.1,0.2,0.2c0,0.1,0.1,0.2,0.1,0.3C26.4,36.8,26.4,36.9,26.4,37z M29.1,35.3l-1.9,4.5h1.2l0.3-0.9h1.7l0.3,0.9H32
				l-1.8-4.5L29.1,35.3z M29,38.1l0.6-1.5l0.6,1.5H29z M35.5,37.4c0.2-0.2,0.2-0.5,0.2-0.8c0-0.3,0-0.5-0.1-0.6
				c-0.1-0.2-0.2-0.3-0.4-0.4c-0.2-0.1-0.4-0.2-0.5-0.2c-0.2,0-0.4-0.1-0.6-0.1h-1.7v4.5h1V38h0.4l1,1.8H36l-1.2-1.9
				C35.1,37.8,35.4,37.7,35.5,37.4z M34.6,37c0,0.1-0.1,0.1-0.2,0.2c-0.1,0-0.2,0.1-0.3,0.1c-0.1,0-0.2,0-0.3,0h-0.5v-1H34
				c0.1,0,0.2,0,0.2,0c0.1,0,0.2,0,0.2,0.1c0.1,0,0.1,0.1,0.2,0.2c0,0.1,0.1,0.2,0.1,0.3C34.7,36.8,34.7,36.9,34.6,37z M36,36.3h1.3
				v3.5h1.1v-3.5h1.3v-0.9H36V36.3z M43.1,38.2L43.1,38.2l-1.8-2.9h-1.2v4.5h1l0-2.9h0l1.8,2.9h1.2v-4.5h-1L43.1,38.2z M46.1,38H48
				v-0.9h-1.8v-0.8h2v-0.9h-3v4.5h3.1v-0.9h-2.1V38z M52.1,37.4c0.2-0.2,0.2-0.5,0.2-0.8c0-0.3,0-0.5-0.1-0.6
				c-0.1-0.2-0.2-0.3-0.4-0.4c-0.2-0.1-0.4-0.2-0.5-0.2c-0.2,0-0.4-0.1-0.6-0.1h-1.7v4.5h1V38h0.4l1,1.8h1.3l-1.2-1.9
				C51.7,37.8,51.9,37.7,52.1,37.4z M51.2,37c0,0.1-0.1,0.1-0.2,0.2c-0.1,0-0.2,0.1-0.3,0.1c-0.1,0-0.2,0-0.3,0h-0.5v-1h0.6
				c0.1,0,0.2,0,0.2,0c0.1,0,0.2,0,0.2,0.1c0.1,0,0.1,0.1,0.2,0.2c0,0.1,0.1,0.2,0.1,0.3C51.2,36.8,51.2,36.9,51.2,37L51.2,37z
				 M55.6,37.5c-0.1-0.1-0.3-0.2-0.4-0.2c-0.2-0.1-0.3-0.1-0.5-0.2c-0.1,0-0.2-0.1-0.3-0.1c-0.1,0-0.1-0.1-0.2-0.1
				c-0.1,0-0.1-0.1-0.1-0.1c0-0.1,0-0.1,0-0.2c0-0.1,0-0.2,0.1-0.2c0-0.1,0.1-0.1,0.1-0.1c0.1,0,0.1-0.1,0.2-0.1c0.1,0,0.1,0,0.2,0
				c0.1,0,0.3,0,0.4,0.1c0.1,0.1,0.3,0.2,0.4,0.3l0.7-0.7c-0.2-0.2-0.4-0.3-0.7-0.4c-0.2-0.1-0.5-0.1-0.8-0.1c-0.2,0-0.4,0-0.6,0.1
				c-0.2,0-0.4,0.1-0.6,0.2c-0.2,0.1-0.3,0.3-0.4,0.4c-0.1,0.2-0.2,0.4-0.2,0.6c0,0.2,0,0.3,0.1,0.5c0.1,0.1,0.1,0.3,0.3,0.4
				c0.1,0.1,0.2,0.2,0.4,0.2c0.1,0.1,0.3,0.1,0.4,0.2c0.1,0,0.3,0.1,0.4,0.1c0.1,0,0.2,0.1,0.3,0.1c0.1,0,0.1,0.1,0.2,0.2
				c0,0.1,0.1,0.1,0.1,0.2c0,0.1,0,0.2-0.1,0.2c0,0.1-0.1,0.1-0.1,0.2c-0.1,0-0.1,0.1-0.2,0.1c-0.1,0-0.2,0-0.2,0
				c-0.2,0-0.4,0-0.5-0.1c-0.2-0.1-0.3-0.2-0.4-0.3l-0.7,0.7c0.2,0.2,0.5,0.4,0.7,0.5c0.3,0.1,0.6,0.2,0.9,0.2c0.2,0,0.4,0,0.6-0.1
				c0.2-0.1,0.4-0.1,0.5-0.3c0.2-0.1,0.3-0.3,0.4-0.5c0.1-0.2,0.1-0.4,0.1-0.7c0-0.2,0-0.4-0.1-0.6C55.9,37.7,55.7,37.6,55.6,37.5z"
				/>
		</g>
	</g>
	<g id="Partners_Black">
		<g id="Partners_Black-2">
			<path class="st0" d="M27.5,36.7c0-0.3,0-0.5-0.1-0.6c-0.1-0.2-0.2-0.3-0.4-0.4c-0.2-0.1-0.4-0.2-0.6-0.2c-0.2,0-0.5-0.1-0.7-0.1
				h-1.6v4.5h1.1v-1.7h0.5c0.2,0,0.4,0,0.7-0.1c0.2,0,0.4-0.1,0.6-0.2c0.2-0.1,0.3-0.3,0.4-0.4C27.5,37.2,27.5,37,27.5,36.7z
				 M26.4,37c0,0.1-0.1,0.1-0.2,0.2c-0.1,0-0.2,0.1-0.2,0.1c-0.1,0-0.2,0-0.3,0h-0.5v-1h0.5c0.1,0,0.2,0,0.3,0c0.1,0,0.2,0,0.2,0.1
				c0.1,0,0.1,0.1,0.2,0.2c0,0.1,0.1,0.2,0.1,0.3C26.4,36.8,26.4,36.9,26.4,37z M29.1,35.3l-1.9,4.5h1.2l0.3-0.9h1.7l0.3,0.9H32
				l-1.8-4.5L29.1,35.3z M29,38.1l0.6-1.5l0.6,1.5H29z M35.5,37.4c0.2-0.2,0.2-0.5,0.2-0.8c0-0.3,0-0.5-0.1-0.6
				c-0.1-0.2-0.2-0.3-0.4-0.4c-0.2-0.1-0.4-0.2-0.5-0.2c-0.2,0-0.4-0.1-0.6-0.1h-1.7v4.5h1V38h0.4l1,1.8H36l-1.2-1.9
				C35.1,37.8,35.4,37.7,35.5,37.4z M34.6,37c0,0.1-0.1,0.1-0.2,0.2c-0.1,0-0.2,0.1-0.3,0.1c-0.1,0-0.2,0-0.3,0h-0.5v-1H34
				c0.1,0,0.2,0,0.2,0c0.1,0,0.2,0,0.2,0.1c0.1,0,0.1,0.1,0.2,0.2c0,0.1,0.1,0.2,0.1,0.3C34.7,36.8,34.7,36.9,34.6,37z M36,36.3h1.3
				v3.5h1.1v-3.5h1.3v-0.9H36V36.3z M43.1,38.2L43.1,38.2l-1.8-2.9h-1.2v4.5h1l0-2.9h0l1.8,2.9h1.2v-4.5h-1L43.1,38.2z M46.1,38H48
				v-0.9h-1.8v-0.8h2v-0.9h-3v4.5h3.1v-0.9h-2.1V38z M52.1,37.4c0.2-0.2,0.2-0.5,0.2-0.8c0-0.3,0-0.5-0.1-0.6
				c-0.1-0.2-0.2-0.3-0.4-0.4c-0.2-0.1-0.4-0.2-0.5-0.2c-0.2,0-0.4-0.1-0.6-0.1h-1.7v4.5h1V38h0.4l1,1.8h1.3l-1.2-1.9
				C51.7,37.8,51.9,37.7,52.1,37.4z M51.2,37c0,0.1-0.1,0.1-0.2,0.2c-0.1,0-0.2,0.1-0.3,0.1c-0.1,0-0.2,0-0.3,0h-0.5v-1h0.6
				c0.1,0,0.2,0,0.2,0c0.1,0,0.2,0,0.2,0.1c0.1,0,0.1,0.1,0.2,0.2c0,0.1,0.1,0.2,0.1,0.3C51.2,36.8,51.2,36.9,51.2,37L51.2,37z
				 M55.6,37.5c-0.1-0.1-0.3-0.2-0.4-0.2c-0.2-0.1-0.3-0.1-0.5-0.2c-0.1,0-0.2-0.1-0.3-0.1c-0.1,0-0.1-0.1-0.2-0.1
				c-0.1,0-0.1-0.1-0.1-0.1c0-0.1,0-0.1,0-0.2c0-0.1,0-0.2,0.1-0.2c0-0.1,0.1-0.1,0.1-0.1c0.1,0,0.1-0.1,0.2-0.1c0.1,0,0.1,0,0.2,0
				c0.1,0,0.3,0,0.4,0.1c0.1,0.1,0.3,0.2,0.4,0.3l0.7-0.7c-0.2-0.2-0.4-0.3-0.7-0.4c-0.2-0.1-0.5-0.1-0.8-0.1c-0.2,0-0.4,0-0.6,0.1
				c-0.2,0-0.4,0.1-0.6,0.2c-0.2,0.1-0.3,0.3-0.4,0.4c-0.1,0.2-0.2,0.4-0.2,0.6c0,0.2,0,0.3,0.1,0.5c0.1,0.1,0.1,0.3,0.3,0.4
				c0.1,0.1,0.2,0.2,0.4,0.2c0.1,0.1,0.3,0.1,0.4,0.2c0.1,0,0.3,0.1,0.4,0.1c0.1,0,0.2,0.1,0.3,0.1c0.1,0,0.1,0.1,0.2,0.2
				c0,0.1,0.1,0.1,0.1,0.2c0,0.1,0,0.2-0.1,0.2c0,0.1-0.1,0.1-0.1,0.2c-0.1,0-0.1,0.1-0.2,0.1c-0.1,0-0.2,0-0.2,0
				c-0.2,0-0.4,0-0.5-0.1c-0.2-0.1-0.3-0.2-0.4-0.3l-0.7,0.7c0.2,0.2,0.5,0.4,0.7,0.5c0.3,0.1,0.6,0.2,0.9,0.2c0.2,0,0.4,0,0.6-0.1
				c0.2-0.1,0.4-0.1,0.5-0.3c0.2-0.1,0.3-0.3,0.4-0.5c0.1-0.2,0.1-0.4,0.1-0.7c0-0.2,0-0.4-0.1-0.6C55.9,37.7,55.7,37.6,55.6,37.5z"
				/>
		</g>
	</g>
	<g id="Square">
		<g id="Square-2">
			<path class="st0" d="M42.5,32.8c-0.1-0.1-0.2-0.1-0.3-0.1c-0.1,0-0.2-0.1-0.3-0.1c-0.1,0-0.1,0-0.2-0.1c-0.1,0-0.1,0-0.2-0.1
				c0,0-0.1-0.1-0.1-0.1c0,0,0-0.1,0-0.2c0-0.1,0-0.1,0-0.2c0,0,0.1-0.1,0.1-0.1c0,0,0.1-0.1,0.2-0.1c0.1,0,0.1,0,0.2,0
				c0.1,0,0.2,0,0.3,0.1c0.1,0,0.2,0.1,0.2,0.2l0.3-0.3c-0.1-0.1-0.2-0.2-0.4-0.2c-0.1,0-0.3-0.1-0.4-0.1c-0.1,0-0.2,0-0.4,0
				c-0.1,0-0.2,0.1-0.3,0.1c-0.1,0.1-0.2,0.1-0.2,0.2C41,31.9,41,32,41,32.1c0,0.1,0,0.2,0.1,0.3c0,0.1,0.1,0.2,0.2,0.2
				c0.1,0.1,0.1,0.1,0.2,0.1c0.1,0,0.2,0.1,0.2,0.1l0.2,0.1c0.1,0,0.1,0.1,0.2,0.1c0.1,0,0.1,0.1,0.1,0.1c0,0.1,0.1,0.1,0.1,0.2
				c0,0.1,0,0.1,0,0.2c0,0-0.1,0.1-0.1,0.1c0,0-0.1,0.1-0.2,0.1c-0.2,0-0.3,0-0.5-0.1c-0.1,0-0.2-0.1-0.3-0.2l-0.3,0.3
				c0.1,0.1,0.3,0.2,0.4,0.3c0.2,0.1,0.3,0.1,0.5,0.1c0.1,0,0.3,0,0.4-0.1c0.1,0,0.2-0.1,0.3-0.2c0.1-0.1,0.2-0.2,0.2-0.3
				c0.1-0.1,0.1-0.2,0.1-0.4c0-0.1,0-0.2-0.1-0.3C42.6,32.9,42.6,32.8,42.5,32.8z M45.5,33.7c0.1,0,0.1-0.1,0.2-0.2
				c0.1-0.1,0.1-0.1,0.2-0.2c0-0.1,0.1-0.2,0.1-0.3c0-0.1,0-0.2,0-0.3c0-0.2,0-0.4-0.1-0.6c-0.1-0.2-0.2-0.3-0.3-0.4
				c-0.1-0.1-0.3-0.2-0.5-0.3c-0.2-0.1-0.4-0.1-0.6-0.1c-0.2,0-0.4,0-0.6,0.1c-0.2,0.1-0.3,0.2-0.5,0.3c-0.1,0.1-0.2,0.3-0.3,0.4
				c-0.1,0.2-0.1,0.4-0.1,0.6c0,0.2,0,0.4,0.1,0.6c0.1,0.2,0.2,0.3,0.3,0.4c0.1,0.1,0.3,0.2,0.5,0.3c0.2,0.1,0.4,0.1,0.6,0.1h1.6
				v-0.4L45.5,33.7L45.5,33.7z M45.4,33.1c0,0.1-0.1,0.2-0.2,0.3c-0.1,0.1-0.2,0.2-0.3,0.2c-0.2,0.1-0.5,0.1-0.7,0
				c-0.1,0-0.2-0.1-0.3-0.2c-0.1-0.1-0.1-0.2-0.2-0.3c0-0.1-0.1-0.3-0.1-0.4c0-0.1,0-0.3,0.1-0.4c0-0.1,0.1-0.2,0.2-0.3
				c0.1-0.1,0.2-0.2,0.3-0.2c0.1,0,0.2-0.1,0.4-0.1c0.1,0,0.3,0,0.4,0.1c0.1,0,0.2,0.1,0.3,0.2c0.1,0.1,0.1,0.2,0.2,0.3
				C45.5,32.6,45.5,32.9,45.4,33.1L45.4,33.1z M48.2,33.1c0,0.1,0,0.2,0,0.2c0,0.1-0.1,0.1-0.1,0.2c-0.1,0.1-0.1,0.1-0.2,0.1
				c-0.2,0.1-0.4,0.1-0.6,0c-0.1,0-0.1-0.1-0.2-0.1c0-0.1-0.1-0.1-0.1-0.2c0-0.1,0-0.2,0-0.2v-1.7h-0.5v1.7c0,0.2,0,0.3,0.1,0.4
				c0.1,0.1,0.1,0.2,0.2,0.3c0.1,0.1,0.2,0.2,0.3,0.2c0.3,0.1,0.6,0.1,0.9,0c0.1,0,0.2-0.1,0.3-0.2c0.1-0.1,0.2-0.2,0.2-0.3
				c0.1-0.1,0.1-0.3,0.1-0.4v-1.7h-0.5L48.2,33.1z M50.1,31.4l-1.2,2.7h0.5l0.2-0.6h1.2l0.3,0.6h0.6l-1.2-2.7H50.1z M49.8,33.1
				l0.4-1.1l0.4,1.1H49.8z M53.7,32.7c0.1-0.1,0.2-0.3,0.2-0.5c0-0.1,0-0.3-0.1-0.4c-0.1-0.1-0.1-0.2-0.2-0.2
				c-0.1-0.1-0.2-0.1-0.3-0.1c-0.1,0-0.2,0-0.4,0h-0.9v2.7h0.5V33h0.4l0.6,1.2H54l-0.7-1.2C53.4,32.9,53.6,32.8,53.7,32.7z M53,32.6
				c-0.1,0-0.1,0-0.2,0h-0.4v-0.8h0.4c0.1,0,0.1,0,0.2,0s0.1,0,0.2,0.1c0.1,0,0.1,0.1,0.1,0.1c0,0.1,0.1,0.1,0,0.2
				c0,0.1,0,0.1-0.1,0.2c0,0.1-0.1,0.1-0.1,0.1C53.1,32.5,53.1,32.6,53,32.6L53,32.6z M54.8,33.7v-0.8h1.3v-0.4h-1.3v-0.7h1.3v-0.4
				h-1.8v2.7h1.9v-0.4L54.8,33.7z"/>
		</g>
	</g>
	<g id="Victory">
		<g id="Victory-2">
			<path class="st0" d="M25,33.8L25,33.8l-0.9-2.4h-0.3l1,2.7h0.3l1-2.7h-0.3L25,33.8z M26.5,34.1h0.3v-2.7h-0.3V34.1z M29.3,33.9
				C29.1,33.9,29,34,28.8,34c-0.2,0-0.3,0-0.5-0.1c-0.1-0.1-0.3-0.1-0.4-0.3c-0.1-0.1-0.2-0.2-0.2-0.4c-0.1-0.1-0.1-0.3-0.1-0.5
				c0-0.2,0-0.3,0.1-0.5c0-0.1,0.1-0.3,0.2-0.4c0.1-0.1,0.2-0.2,0.4-0.3c0.1-0.1,0.3-0.1,0.5-0.1c0.1,0,0.2,0,0.2,0
				c0.1,0,0.1,0,0.2,0.1c0.1,0,0.1,0.1,0.2,0.1c0,0,0.1,0.1,0.1,0.1l0.2-0.2c0-0.1-0.1-0.1-0.2-0.2c-0.1-0.1-0.1-0.1-0.2-0.1
				c-0.1,0-0.2-0.1-0.3-0.1c-0.1,0-0.2,0-0.3,0c-0.2,0-0.4,0-0.6,0.1c-0.3,0.1-0.6,0.4-0.7,0.8c-0.1,0.2-0.1,0.4-0.1,0.6
				c0,0.2,0,0.4,0.1,0.6c0.1,0.2,0.2,0.3,0.3,0.5c0.1,0.1,0.3,0.2,0.5,0.3c0.2,0.1,0.4,0.1,0.6,0.1c0.1,0,0.2,0,0.3,0
				c0.1,0,0.2-0.1,0.3-0.1c0.1,0,0.2-0.1,0.2-0.2c0.1-0.1,0.1-0.1,0.2-0.2l-0.2-0.1C29.5,33.7,29.4,33.8,29.3,33.9z M30,31.7h0.9
				v2.5h0.3v-2.5h0.9v-0.2H30V31.7L30,31.7z M34.6,31.7c-0.1-0.1-0.3-0.2-0.5-0.3c-0.4-0.1-0.8-0.1-1.1,0c-0.3,0.1-0.6,0.4-0.7,0.8
				c-0.1,0.4-0.1,0.8,0,1.1c0.1,0.3,0.4,0.6,0.7,0.8c0.4,0.1,0.8,0.1,1.1,0c0.3-0.1,0.6-0.4,0.7-0.8c0.1-0.4,0.1-0.8,0-1.1
				C34.9,32,34.8,31.9,34.6,31.7z M34.7,33.2c0,0.1-0.1,0.3-0.2,0.4c-0.1,0.1-0.2,0.2-0.4,0.3c-0.3,0.1-0.6,0.1-0.9,0
				c-0.1-0.1-0.3-0.1-0.4-0.3c-0.1-0.1-0.2-0.2-0.2-0.4c-0.1-0.3-0.1-0.6,0-0.9c0-0.1,0.1-0.3,0.2-0.4c0.1-0.1,0.2-0.2,0.4-0.3
				c0.3-0.1,0.6-0.1,0.9,0c0.1,0.1,0.3,0.1,0.4,0.3c0.1,0.1,0.2,0.2,0.2,0.4C34.8,32.6,34.8,32.9,34.7,33.2L34.7,33.2z M36.9,32.8
				c0.1,0,0.2-0.1,0.2-0.1c0.1-0.1,0.2-0.3,0.2-0.5c0-0.1,0-0.2-0.1-0.3c0-0.1-0.1-0.2-0.2-0.2c-0.1-0.1-0.2-0.1-0.3-0.1
				c-0.1,0-0.2,0-0.4,0h-0.8v2.7h0.3v-1.3h0.5l0.8,1.3h0.3l-0.8-1.3C36.8,32.8,36.8,32.8,36.9,32.8L36.9,32.8z M35.9,32.6v-1h0.5
				c0.1,0,0.2,0,0.3,0c0.1,0,0.1,0,0.2,0.1c0.1,0,0.1,0.1,0.1,0.1c0,0.1,0.1,0.1,0,0.2c0,0.2-0.1,0.3-0.2,0.4
				c-0.1,0.1-0.3,0.1-0.5,0.1L35.9,32.6z M39.5,31.4l-0.8,1.3l-0.8-1.3h-0.3l1,1.6v1.2h0.3V33l1-1.6H39.5z"/>
		</g>
	</g>
	<g id="Center_Block">
		<g id="Center_Block-2">
			<path class="st1" d="M45.9,13.7l-5-5c0,0-0.4-0.4-0.9-0.4c-0.5,0-0.9,0.4-0.9,0.4l-5,5c0,0-0.4,0.4-0.4,0.9
				c0,0.5,0.4,0.9,0.4,0.9l5,5c0,0,0.4,0.4,0.9,0.4c0.5,0,0.9-0.4,0.9-0.4l5-5c0,0,0.4-0.4,0.4-0.9C46.3,14.2,45.9,13.7,45.9,13.7z"
				/>
		</g>
	</g>
	<g id="Yellow_L">
		<g id="Yellow_L-2">
			<path class="st1" d="M53.7,12.5L42.2,1.1c0,0-1-1-2.1-1c-1.1,0-2.1,1-2.1,1l-1.2,1.2l11.2,11.2c0,0,0.6,0.6,0.6,1.2
				c0,0.6-0.6,1.2-0.6,1.2l-6.9,6.9l3.2,3.2l9.3-9.3c0,0,1-1,1-2.1C54.7,13.5,53.7,12.5,53.7,12.5z"/>
		</g>
	</g>
	<g id="Blue_L">
		<g id="Blue_L-2">
			<path class="st1" d="M31.8,15.9c0,0-0.6-0.6-0.6-1.2c0-0.6,0.6-1.2,0.6-1.2l6.9-6.9l-3.2-3.2l-9.3,9.3c0,0-1,1-1,2.1
				c0,1.1,1,2.1,1,2.1l11.5,11.4c0,0,1,1,2.1,1c1.1,0,2.1-1,2.1-1l1.2-1.2L31.8,15.9z"/>
		</g>
	</g>
</g>
</svg>
