<svg width="32" height="32" viewBox="0 0 32 32" xmlns="http://www.w3.org/2000/svg">
    <g fill="none" fill-rule="evenodd">
        <path d="M0 0h32v32H0z"/>
        <path d="m4.933 20.637-1.674.612-.09 4.98 5.795-2.118c-1.99-.666-3.44-1.84-4.031-3.474" fill="#FDBD39"/>
        <path d="M5.809 15.37 0 17.494l3.259 3.758 1.674-.612c-.591-1.63-.226-3.468.876-5.268" fill="#F69833"/>
        <path d="M15.583 8.184c-7.397 2.702-12.166 8.278-10.65 12.453l26.785-9.784c-1.516-4.175-8.738-5.371-16.135-2.669" fill="#FECF33"/>
        <path d="M21.066 23.307c7.397-2.702 12.174-8.253 10.65-12.453L4.931 20.637c1.524 4.202 8.738 5.372 16.135 2.67" fill="#EE6723"/>
        <path d="M31.717 10.852 4.933 20.637c.524 1.447 2.525 2.16 5.33 2.16 2.737 0 6.239-.678 9.89-2.01 7.397-2.703 12.6-7.078 11.564-9.934" fill="#F69833"/>
        <path d="M26.386 8.695c-2.735 0-6.239.677-9.89 2.01C9.1 13.407 3.897 17.782 4.933 20.638l26.785-9.785c-.525-1.447-2.525-2.158-5.332-2.158" fill="#FDBD39"/>
        <path d="M24.906 26.214v.14-.14zm0 .279c-.788 0-1.95-.711-3.456-2.115-1.78-1.661-3.818-4.094-5.742-6.85-1.923-2.757-3.503-5.512-4.449-7.76-1.03-2.45-1.178-3.954-.438-4.476a.991.991 0 0 1 .583-.171c.602 0 1.777.448 3.95 2.586l.047.047-.007.066c-.015.154-.028.309-.04.46l-.024.303-.213-.214c-2.34-2.357-3.369-2.611-3.704-2.611a.384.384 0 0 0-.226.057c-.322.226-.343 1.332.657 3.706.93 2.207 2.486 4.92 4.384 7.64 1.898 2.723 3.906 5.119 5.656 6.75 1.885 1.759 2.735 1.949 3.013 1.949.095 0 .173-.02.231-.061.34-.238.34-1.423-.775-3.978l-.052-.117.112-.061c.111-.061.22-.121.321-.18l.135-.076.062.14c.79 1.812 1.53 4.114.56 4.795a.988.988 0 0 1-.585.17z" fill="#EE6723"/>
        <path d="m21.246 23.23-.011.138c-.187 2.314-.68 5.095-1.963 5.208-.027.003-.054.003-.08.003-.871 0-1.697-1.25-2.451-3.714-.715-2.332-1.27-5.462-1.561-8.814-.292-3.352-.288-6.531.012-8.952.327-2.638.95-4.015 1.85-4.095A.744.744 0 0 1 17.125 3c.633 0 1.586.717 2.562 4.054l-.637.122c-.325-1.114-.68-2.021-1.033-2.646-.325-.575-.643-.893-.892-.893h-.025c-.391.036-.96.982-1.277 3.54-.295 2.378-.3 5.51-.01 8.819.288 3.309.834 6.392 1.536 8.682.313 1.025.658 1.87.997 2.444.31.529.613.82.848.82l.024-.001c.374-.032 1.078-1.02 1.375-4.488l.654-.223z" fill="#EE6723"/>
    </g>
</svg>
